<?xml version="1.0" encoding="utf-8"?>
<!-- Generator: Adobe Illustrator 16.0.0, SVG Export Plug-In . SVG Version: 6.00 Build 0)  -->
<!DOCTYPE svg PUBLIC "-//W3C//DTD SVG 1.1//EN" "http://www.w3.org/Graphics/SVG/1.1/DTD/svg11.dtd">
<svg version="1.1" id="Calque_1" xmlns="http://www.w3.org/2000/svg" xmlns:xlink="http://www.w3.org/1999/xlink" x="0px" y="0px"
	 width="250px" height="250px" viewBox="0 0 250 250" enable-background="new 0 0 250 250" xml:space="preserve">
<g>
	<ellipse opacity="0.61" fill="#DCD9E2" enable-background="new    " cx="122.424" cy="236.696" rx="64.118" ry="6.197"/>
	<path fill="#AAA8BE" d="M177.562,53.446v6.45h-16.046v-6.45h-3.702v6.45v3.608v29.949H88.698V63.504v-3.608v-6.45h-3.7v6.45H68.955
		v-6.45h-3.702v6.45v3.608v166.158v6.451h3.702v-6.451v-25.005l7.981-8.474l8.063,8.562v24.919v6.449H88.7v-6.449v-63.492h69.113
		v63.492v6.449h3.702v-6.449v-25.006l7.983-8.475l8.063,8.563v24.918v6.451h3.701v-6.451V63.504v-3.608v-6.45H177.562z
		 M167.098,72.114l-5.582,5.918V66.194L167.098,72.114z M163.803,63.504h11.404l-5.709,6.055L163.803,63.504z M161.516,100.914
		l5.58,5.915l-5.58,5.922V100.914z M161.516,118.275l5.58,5.918l-5.58,5.918V118.275z M161.516,135.637l5.58,5.918l-5.58,5.92
		V135.637z M163.731,150.233l5.767-6.131l5.771,6.131l-5.771,6.127L163.731,150.233z M167.098,158.909l-5.582,5.921v-11.838
		L167.098,158.909z M163.731,132.871l5.767-6.125l5.771,6.125L169.498,139L163.731,132.871z M163.731,115.517l5.767-6.129
		l5.771,6.129l-5.771,6.12L163.731,115.517z M163.731,98.153l5.767-6.127l5.771,6.127l-5.771,6.128L163.731,98.153z M161.516,95.395
		V83.558l5.58,5.917L161.516,95.395z M161.516,170.354l5.58,5.92l-5.58,5.917V170.354z M163.731,167.593l5.767-6.128l5.771,6.128
		l-5.771,6.122L163.731,167.593z M177.562,182.277l-5.655-6.004l5.655-6.007V182.277z M171.906,158.909l5.655-6.004v12.011
		L171.906,158.909z M171.906,141.555l5.655-6.004v12.01L171.906,141.555z M171.906,124.193l5.655-6.005V130.2L171.906,124.193z
		 M171.906,106.831l5.655-6.004v12.009L171.906,106.831z M171.906,89.475l5.655-6.005v12.009L171.906,89.475z M169.498,86.921
		l-5.767-6.128l5.767-6.121l5.771,6.121L169.498,86.921z M169.498,178.828l5.771,6.122l-5.771,6.126l-5.767-6.126L169.498,178.828z
		 M177.562,78.12l-5.655-6.004l5.655-6.004V78.12z M82.705,150.233l-5.771,6.127l-5.768-6.127l5.768-6.131L82.705,150.233z
		 M79.341,141.555l5.658-6.004v12.01L79.341,141.555z M76.934,139l-5.768-6.129l5.768-6.125l5.771,6.125L76.934,139z
		 M79.341,124.193l5.658-6.005V130.2L79.341,124.193z M76.934,121.637l-5.768-6.12l5.768-6.129l5.771,6.129L76.934,121.637z
		 M79.341,106.831l5.658-6.004v12.009L79.341,106.831z M76.934,104.282l-5.768-6.128l5.768-6.127l5.771,6.127L76.934,104.282z
		 M79.341,89.475l5.658-6.005v12.009L79.341,89.475z M76.934,86.921l-5.768-6.128l5.768-6.121l5.771,6.121L76.934,86.921z
		 M74.53,89.475l-5.576,5.92V83.558L74.53,89.475z M74.53,106.831l-5.576,5.92v-11.836L74.53,106.831z M74.53,124.193l-5.576,5.918
		v-11.836L74.53,124.193z M74.53,141.555l-5.576,5.92v-11.838L74.53,141.555z M74.53,158.909l-5.576,5.921v-11.838L74.53,158.909z
		 M68.955,170.354l5.576,5.92l-5.576,5.917V170.354z M71.166,167.593l5.768-6.128l5.771,6.128l-5.771,6.122L71.166,167.593z
		 M84.998,182.277l-5.658-6.004l5.658-6.007V182.277z M79.341,158.909l5.658-6.004v12.011L79.341,158.909z M84.998,78.12
		l-5.658-6.004l5.658-6.004V78.12z M76.934,69.559l-5.703-6.055h11.405L76.934,69.559z M74.53,72.114l-5.576,5.918V66.194
		L74.53,72.114z M76.934,178.828l5.771,6.122l-5.771,6.126l-5.768-6.126L76.934,178.828z M68.955,199.551v-11.843l5.576,5.925
		L68.955,199.551z M79.341,193.633l5.658-6.012v12.016L79.341,193.633z M88.698,161.576v-63.52h69.115v63.52H88.698z
		 M161.516,199.551v-11.843l5.58,5.925L161.516,199.551z M171.906,193.633l5.655-6.012v12.016L171.906,193.633z"/>
	<g id="decolage">
		<path fill="#B9BABD" d="M140.505,126.459c0,21.687-3.799,51.178-10.116,66.626h-14.163c-2.987-7.305-5.415-17.842-7.142-29.209
			c-1.923-12.657-2.979-26.349-2.979-37.774c0-28.888,3.95-46.896,17.201-60.855C136.384,79.135,140.505,97.575,140.505,126.459z"/>
		<path fill="#E17233" d="M137.974,95.205h-29.431c2.454-12.275,7.027-21.805,14.76-29.958
			C130.896,73.309,135.475,82.91,137.974,95.205z"/>
		<path fill="#FFFFFF" d="M119.644,188.363h-2.027c-2.229-6.375-4.205-15.011-5.75-25.242c-1.861-12.211-2.93-25.711-2.93-37.019
			c0-12.544,0.769-22.585,2.526-30.897h5.095c-0.882,8.321-1.267,18.345-1.267,30.897c0,11.308,0.531,24.808,1.462,37.019
			C117.535,173.353,118.524,181.988,119.644,188.363z"/>
		<path opacity="0.42" fill="#FFFFFF" enable-background="new    " d="M121.672,72.257c-2.46,6.232-4.108,13.48-5.117,22.948h-5.095
			c2.003-9.472,5.3-16.728,10.204-22.961C121.672,72.249,121.672,72.249,121.672,72.257z"/>
		<path fill="#DADEE6" d="M133.006,109.014c-0.016-0.027-0.031-0.045-0.05-0.07c0.019,0.011,0.029,0.031,0.047,0.048
			C133.006,108.999,133.006,109.003,133.006,109.014z"/>
		<g>
			<path fill="#F07F40" d="M130.387,193.085c0.846,0.007,1.616,0.379,2.168,0.96c0.557,0.593,0.907,1.413,0.907,2.31v21.576h2.898
				c12.648-14.864,18.56-41.641,1.172-54.055C135.802,175.243,133.38,185.78,130.387,193.085z"/>
		</g>
		<g opacity="0.5">
			<path fill="#AAA8BE" d="M136.36,217.924h-2.898v-21.569c0-0.896-0.351-1.717-0.907-2.31c-0.552-0.584-1.315-0.953-2.164-0.96
				c-0.004,0-0.004,0-0.004,0h-5.722v-29.209l6.219,6.603c1.288-12.245,2.084-26.107,2.28-38.292
				c-1.791,1.114-4.148,1.724-7.216,1.498c-3.895-0.283-8.364-3.187-10.642-6.171c2.138,1.847,4.865,2.952,7.832,2.952
				c4.151,0,7.814-2.151,10.067-5.459c1.497-2.182,2.365-4.854,2.365-7.748c0-3.116-1.021-5.991-2.724-8.244
				c0-0.009,0-0.014-0.008-0.022c-0.904-19.239-3.636-32.885-9.536-43.746c13.08,13.889,17.2,32.33,17.2,61.218
				c0,11.377-1.045,24.902-2.952,37.422C154.913,176.311,148.999,203.075,136.36,217.924z"/>
		</g>
		
			<linearGradient id="SVGID_1_" gradientUnits="userSpaceOnUse" x1="304.9795" y1="-171.2422" x2="286.8375" y2="-153.1002" gradientTransform="matrix(1 0 0 -1 -172.5996 -44.9004)">
			<stop  offset="0" style="stop-color:#FAB71F"/>
			<stop  offset="1" style="stop-color:#FFD412"/>
		</linearGradient>
		<ellipse fill="url(#SVGID_1_)" cx="123.308" cy="117.271" rx="12.439" ry="13.206"/>
		<path fill="#5C5274" d="M133.287,117.272c0,5.849-4.474,10.583-9.98,10.583c-5.51,0-9.976-4.734-9.976-10.583
			c0-5.853,4.466-10.596,9.976-10.596C128.813,106.677,133.287,111.42,133.287,117.272z"/>
		<path opacity="0.76" fill="#CECDD6" enable-background="new    " d="M116.087,122.863c1.486,1.189,3.344,1.896,5.347,1.896
			c4.909,0,8.894-4.233,8.894-9.44c0-2.132-0.661-4.096-1.787-5.679c2.147,1.725,3.527,4.454,3.527,7.529
			c0,5.213-3.979,9.438-8.89,9.438C120.283,126.606,117.708,125.135,116.087,122.863z"/>
		<g>
			<path fill="#F07F40" d="M116.226,193.085c-0.847,0.007-1.61,0.379-2.165,0.96c-0.56,0.593-0.903,1.413-0.903,2.31v21.576h-2.901
				c-12.644-14.864-18.557-41.641-1.172-54.055C110.812,175.243,113.239,185.78,116.226,193.085z"/>
		</g>
		<rect x="121.95" y="163.876" fill="#F07F40" width="2.716" height="54.055"/>
		<ellipse opacity="0.77" fill="#FFFFFF" enable-background="new    " cx="119.76" cy="113.151" rx="2.661" ry="2.826"/>
		<ellipse opacity="0.47" fill="#FFFFFF" enable-background="new    " cx="123.622" cy="117.252" rx="1.603" ry="1.7"/>
		<g>
			<path fill="#E5CF98" d="M123.906,105.396c0,0.376-0.291,0.69-0.648,0.69s-0.649-0.314-0.649-0.69c0-0.385,0.295-0.69,0.649-0.69
				C123.615,104.707,123.906,105.013,123.906,105.396z"/>
			<path fill="#E5CF98" d="M123.906,129.17c0,0.375-0.291,0.688-0.648,0.688s-0.649-0.313-0.649-0.688
				c0-0.383,0.295-0.69,0.649-0.69C123.615,128.482,123.906,128.789,123.906,129.17z"/>
			<path fill="#E5CF98" d="M118.222,106.639c0.18,0.334,0.073,0.755-0.239,0.945c-0.312,0.191-0.707,0.08-0.886-0.254
				c-0.181-0.325-0.073-0.75,0.237-0.941C117.648,106.199,118.042,106.314,118.222,106.639z"/>
			<path fill="#E5CF98" d="M129.417,127.229c0.18,0.335,0.076,0.752-0.237,0.944c-0.314,0.189-0.707,0.079-0.882-0.253
				c-0.186-0.327-0.082-0.753,0.231-0.945C128.845,126.785,129.239,126.9,129.417,127.229z"/>
			<path fill="#E5CF98" d="M113.889,110.743c0.307,0.185,0.416,0.607,0.236,0.943c-0.18,0.326-0.578,0.443-0.889,0.253
				c-0.308-0.192-0.414-0.618-0.233-0.94C113.176,110.663,113.573,110.551,113.889,110.743z"/>
			<path fill="#E5CF98" d="M133.276,122.631c0.314,0.187,0.418,0.607,0.244,0.94c-0.187,0.327-0.579,0.443-0.892,0.25
				c-0.308-0.188-0.42-0.612-0.234-0.943C132.566,122.549,132.968,122.438,133.276,122.631z"/>
			<path fill="#E5CF98" d="M112.061,116.595c0.355,0,0.65,0.306,0.65,0.689c0,0.381-0.291,0.689-0.65,0.689
				c-0.362,0-0.649-0.308-0.649-0.689C111.412,116.901,111.704,116.595,112.061,116.595z"/>
			<path fill="#E5CF98" d="M134.453,116.595c0.361,0,0.65,0.306,0.65,0.689c0,0.375-0.29,0.689-0.65,0.689
				c-0.354,0-0.645-0.308-0.648-0.689C133.804,116.901,134.1,116.595,134.453,116.595z"/>
			<path fill="#E5CF98" d="M113.235,122.631c0.311-0.192,0.709-0.082,0.889,0.247c0.18,0.331,0.075,0.754-0.237,0.943
				c-0.313,0.193-0.711,0.077-0.886-0.25C112.822,123.238,112.927,122.818,113.235,122.631z"/>
			<path fill="#E5CF98" d="M132.627,110.743c0.314-0.19,0.705-0.079,0.892,0.255c0.175,0.323,0.072,0.747-0.242,0.94
				c-0.309,0.19-0.71,0.073-0.884-0.253C132.209,111.35,132.319,110.927,132.627,110.743z"/>
			<path fill="#E5CF98" d="M117.097,127.229c0.179-0.329,0.576-0.444,0.886-0.254s0.418,0.618,0.239,0.945
				c-0.181,0.333-0.576,0.442-0.888,0.253C117.025,127.981,116.917,127.564,117.097,127.229z"/>
			<path fill="#E5CF98" d="M128.298,106.639c0.175-0.324,0.567-0.44,0.882-0.25c0.312,0.189,0.417,0.616,0.237,0.941
				c-0.178,0.334-0.574,0.444-0.888,0.254C128.218,107.394,128.113,106.973,128.298,106.639z"/>
		</g>
	</g>
</g>
<polygon fill="#209DD9" points="238.932,52.463 233.475,52.463 233.475,86.711 216.396,86.711 216.396,52.463 210.936,52.463 
	224.939,37.08 "/>
<polygon fill="#F8E02F" points="231.109,156.484 225.398,156.484 225.398,192.318 207.533,192.318 207.533,156.484 201.814,156.484 
	216.466,140.383 "/>
<polygon fill="#E43333" points="52.113,90.567 46.335,90.567 46.335,126.842 28.248,126.842 28.248,90.567 22.46,90.567 
	37.293,74.271 "/>
<polygon fill="#209DD9" points="31.058,200.734 26.663,200.734 26.663,228.331 12.9,228.331 12.9,200.734 8.498,200.734 
	19.786,188.333 "/>
<linearGradient id="nuage_3_" gradientUnits="userSpaceOnUse" x1="296.082" y1="-74.9531" x2="331.2012" y2="-74.9531" gradientTransform="matrix(1 0 0 -1 -172.5996 -44.9004)">
	<stop  offset="0" style="stop-color:#CCCCCC"/>
	<stop  offset="1" style="stop-color:#656565"/>
</linearGradient>
<path id="nuage_1_" opacity="0.42" fill="url(#nuage_3_)" enable-background="new    " d="M158.601,31.364
	c0,4.798-3.362,8.685-7.514,8.685h-21.699c-3.26,0-5.905-3.058-5.905-6.825c0-3.77,2.646-6.829,5.905-6.829
	c0.736,0,1.437,0.156,2.086,0.44c1.153-3.944,4.385-6.78,8.187-6.78c2.928,0,5.512,1.675,7.074,4.241
	c1.229-1.017,2.731-1.613,4.354-1.613C155.238,22.683,158.601,26.572,158.601,31.364z"/>
<linearGradient id="nuage_4_" gradientUnits="userSpaceOnUse" x1="178.0254" y1="-76.4644" x2="243.8848" y2="-76.4644" gradientTransform="matrix(1 0 0 -1 -172.5996 -44.9004)">
	<stop  offset="0" style="stop-color:#CCCCCC"/>
	<stop  offset="1" style="stop-color:#656565"/>
</linearGradient>
<path id="nuage_2_" opacity="0.42" fill="url(#nuage_4_)" enable-background="new    " d="M71.285,34.025
	c0,8.999-6.305,16.287-14.09,16.287H16.499c-6.11,0-11.073-5.737-11.073-12.801c0-7.068,4.963-12.805,11.073-12.805
	c1.381,0,2.698,0.292,3.915,0.826c2.162-7.397,8.222-12.716,15.35-12.716c5.49,0,10.336,3.143,13.267,7.955
	c2.305-1.908,5.122-3.026,8.164-3.026C64.979,17.745,71.285,25.039,71.285,34.025z"/>
<linearGradient id="SVGID_2_" gradientUnits="userSpaceOnUse" x1="180" y1="-108.3652" x2="192.3047" y2="-108.3652" gradientTransform="matrix(1 0 0 -1 -172.5996 -44.9004)">
	<stop  offset="0" style="stop-color:#CCCCCC"/>
	<stop  offset="1" style="stop-color:#656565"/>
</linearGradient>
<polygon fill="url(#SVGID_2_)" points="19.704,61.99 15,61.99 15,57.197 12.104,57.197 12.104,61.99 7.4,61.99 7.4,64.94 
	12.104,64.94 12.104,69.733 15,69.733 15,64.94 19.704,64.94 "/>
<linearGradient id="SVGID_3_" gradientUnits="userSpaceOnUse" x1="351.7441" y1="-65.2744" x2="364.0449" y2="-65.2744" gradientTransform="matrix(1 0 0 -1 -172.5996 -44.9004)">
	<stop  offset="0" style="stop-color:#CCCCCC"/>
	<stop  offset="1" style="stop-color:#656565"/>
</linearGradient>
<polygon fill="url(#SVGID_3_)" points="191.445,18.7 186.743,18.7 186.743,13.263 183.848,13.263 183.848,18.7 179.145,18.7 
	179.145,22.047 183.848,22.047 183.848,27.485 186.743,27.485 186.743,22.047 191.445,22.047 "/>
<linearGradient id="SVGID_4_" gradientUnits="userSpaceOnUse" x1="216.248" y1="-226.1299" x2="228.5527" y2="-226.1299" gradientTransform="matrix(1 0 0 -1 -172.5996 -44.9004)">
	<stop  offset="0" style="stop-color:#CCCCCC"/>
	<stop  offset="1" style="stop-color:#656565"/>
</linearGradient>
<polygon fill="url(#SVGID_4_)" points="55.952,179.557 51.249,179.557 51.249,174.118 48.353,174.118 48.353,179.557 
	43.648,179.557 43.648,182.9 48.353,182.9 48.353,188.341 51.249,188.341 51.249,182.9 55.952,182.9 "/>
<linearGradient id="SVGID_5_" gradientUnits="userSpaceOnUse" x1="400.3945" y1="-160.0752" x2="412.6992" y2="-160.0752" gradientTransform="matrix(1 0 0 -1 -172.5996 -44.9004)">
	<stop  offset="0" style="stop-color:#CCCCCC"/>
	<stop  offset="1" style="stop-color:#656565"/>
</linearGradient>
<polygon fill="url(#SVGID_5_)" points="240.1,113.5 235.396,113.5 235.396,108.063 232.5,108.063 232.5,113.5 227.795,113.5 
	227.795,116.849 232.5,116.849 232.5,122.286 235.396,122.286 235.396,116.849 240.1,116.849 "/>
</svg>
