<?xml version="1.0" encoding="utf-8"?>
<!-- Generator: Adobe Illustrator 16.0.0, SVG Export Plug-In . SVG Version: 6.00 Build 0)  -->
<!DOCTYPE svg PUBLIC "-//W3C//DTD SVG 1.1//EN" "http://www.w3.org/Graphics/SVG/1.1/DTD/svg11.dtd">
<svg version="1.1" xmlns="http://www.w3.org/2000/svg" xmlns:xlink="http://www.w3.org/1999/xlink" x="0px" y="0px" width="250px"
	 height="250px" viewBox="0 0 250 250" enable-background="new 0 0 250 250" xml:space="preserve">
<style>
      

  #engrenage_19_{

	animation-name: polyOriginChanged;
	transform-orign : 0 0;

	 
}
	 
}

 @keyframes polyOriginChanged {
          0% {
		-webkit-transform: translate3d(10px,5px,0) rotate(0deg) scale(0.6);
	}
	100% {
		-webkit-transform: translate3d(10px, 5px, 0) rotate(360deg) scale(0.6);
	};
}

</style>
<g id="lampe">
	<g>
		<g id="ampoule">
			<g>
				<path fill="#F7DF2E" d="M203.615,59.685c-1.449-0.814-3.935-0.887-6.21,1.607c-0.92,1.005-1.678,2.6-2.313,4.534
					c-1.108-0.06-2.232-0.225-3.247-0.458c1.579-1.157,1.738-2.466,1.696-3.105c-0.117-1.839-2.424-3.749-4.96-3.749
					c-2.537,0-4.849,1.91-4.966,3.749c-0.041,0.639,0.113,1.948,1.701,3.105c-1.029,0.233-2.138,0.398-3.256,0.458
					c-0.629-1.934-1.394-3.529-2.312-4.534c-2.267-2.494-4.764-2.421-6.212-1.607c-1.359,0.766-2.019,2.21-1.654,3.587
					c0.432,1.609,1.489,2.927,3.077,3.815c1.482,0.822,3.31,1.228,5.211,1.331c1.639,6.39,2.281,16.065,2.406,20.351
					c0.011,0.715,0.602,1.283,1.302,1.26c0.705-0.016,1.259-0.617,1.237-1.331c-0.035-1.637-0.418-12.481-2.338-20.327
					c1.683-0.131,3.315-0.459,4.725-0.909c0.373-0.116,0.725-0.252,1.078-0.412c0.342,0.159,0.694,0.296,1.074,0.412
					c1.417,0.45,3.05,0.778,4.711,0.909c-1.92,7.846-2.287,18.69-2.33,20.327c-0.013,0.713,0.532,1.314,1.241,1.331
					c0.696,0.023,1.283-0.545,1.309-1.26c0.114-4.286,0.767-13.961,2.394-20.351c1.907-0.104,3.74-0.509,5.218-1.331
					c1.576-0.888,2.646-2.206,3.077-3.815C205.635,61.895,204.972,60.451,203.615,59.685z M176.184,64.811
					c-0.983-0.547-1.587-1.279-1.838-2.222c-0.058-0.194,0.13-0.462,0.438-0.632c0.631-0.366,1.831-0.294,3.1,1.094
					c0.551,0.608,1.039,1.537,1.479,2.704C178.179,65.611,177.078,65.311,176.184,64.811z M188.582,64.113
					c-1.792-0.593-2.443-1.327-2.419-1.685c0.028-0.409,1.363-1.303,2.419-1.303c1.053,0,2.389,0.894,2.413,1.303
					C191.017,62.786,190.365,63.52,188.582,64.113z M200.976,64.811c-0.901,0.5-1.996,0.8-3.176,0.943
					c0.432-1.167,0.929-2.096,1.476-2.704c1.267-1.388,2.465-1.459,3.1-1.094c0.308,0.17,0.498,0.438,0.438,0.632
					C202.57,63.532,201.957,64.264,200.976,64.811z"/>
				<path fill="#F7DF2E" d="M166.547,90.493c-0.739,0-1.473-0.271-2.054-0.82c-7.188-6.799-11.311-16.423-11.311-26.411
					c0-19.865,15.884-36.034,35.399-36.034c19.517,0,35.391,16.169,35.391,36.034c0,9.987-3.913,19.266-11.033,26.144
					c-1.202,1.164-3.108,1.115-4.256-0.114c-1.141-1.228-1.096-3.169,0.109-4.34c5.899-5.699,9.157-13.404,9.157-21.689
					c0-16.489-13.172-29.898-29.368-29.898c-16.205,0-29.372,13.409-29.372,29.898c0,8.286,3.416,16.272,9.384,21.92
					c1.221,1.15,1.289,3.088,0.16,4.331C168.162,90.165,167.354,90.493,166.547,90.493z"/>
				<path fill="#F7DF2E" d="M205.802,94.441c0,1.667-1.326,3.019-2.966,3.019h-28.519c-1.633,0-2.958-1.352-2.958-3.019l0,0
					c0-1.662,1.325-3.018,2.958-3.018h28.519C204.476,91.423,205.802,92.779,205.802,94.441L205.802,94.441z"/>
				<path fill="#F7DF2E" d="M205.802,102.217c0,1.666-1.326,3.018-2.966,3.018h-28.519c-1.633,0-2.958-1.352-2.958-3.018l0,0
					c0-1.665,1.325-3.016,2.958-3.016h28.519C204.476,99.201,205.802,100.552,205.802,102.217L205.802,102.217z"/>
				<path fill="#F7DF2E" d="M205.802,109.988c0,1.668-1.326,3.022-2.966,3.022h-28.519c-1.633,0-2.958-1.354-2.958-3.022l0,0
					c0-1.667,1.325-3.015,2.958-3.015h28.519C204.476,106.973,205.802,108.322,205.802,109.988L205.802,109.988z"/>
				<path fill="#F7DF2E" d="M177.785,114.841v1.732c0,4.307,3.435,7.805,7.663,7.805h6.263c4.236,0,7.662-3.498,7.662-7.805v-1.732
					H177.785z"/>
			</g>
			<path fill="#F7DF2E" d="M244.041,69.728L244.041,69.728l-11.906-0.025c-1.452,0-2.631-1.198-2.622-2.673
				c0-1.479,1.17-2.68,2.626-2.68c0,0,0,0,0.004,0l11.901,0.022c1.456,0,2.623,1.202,2.623,2.679
				C246.667,68.534,245.492,69.728,244.041,69.728z"/>
			<path fill="#F7DF2E" d="M144.805,69.737c-0.004,0-0.004,0-0.004,0l-12.231-0.017c-1.457-0.004-2.636-1.209-2.628-2.68
				c0-1.482,1.177-2.682,2.628-2.682c0.004,0,0.004,0,0.01,0l12.23,0.023c1.457,0.002,2.628,1.2,2.628,2.675
				C147.438,68.541,146.261,69.737,144.805,69.737z"/>
			<path fill="#F7DF2E" d="M188.573,21.789h-0.003c-1.46-0.002-2.626-1.203-2.626-2.682l0.019-11.433
				C185.968,6.191,187.138,5,188.591,5l0,0c1.456,0,2.632,1.201,2.626,2.682l-0.02,11.438
				C191.197,20.595,190.021,21.789,188.573,21.789z"/>
			<path fill="#F7DF2E" d="M220.943,35.874c-0.668,0-1.355-0.263-1.862-0.79c-1.024-1.043-1.021-2.739,0-3.782l7.463-7.568
				c1.025-1.043,2.685-1.043,3.72,0.01c1.016,1.038,1.016,2.737-0.009,3.783l-7.452,7.567
				C222.296,35.613,221.613,35.874,220.943,35.874z"/>
			<path fill="#F7DF2E" d="M155.405,39.292c-0.678,0-1.343-0.258-1.858-0.776l-7.427-7.547c-1.03-1.041-1.034-2.743-0.005-3.791
				c1.025-1.042,2.691-1.047,3.713-0.005l7.44,7.546c1.02,1.047,1.024,2.741,0,3.789C156.752,39.034,156.072,39.292,155.405,39.292z
				"/>
		</g>
		<path id="barre_3_" fill="none" stroke="#B7B8BC" stroke-width="1.5" stroke-miterlimit="10" d="M83.13,187.922
			c-0.031,11.406-0.031,23.146,0,34.521"/>
		<path id="barre_2_" fill="none" stroke="#B7B8BC" stroke-width="1.5" stroke-miterlimit="10" d="M189.036,126.354
			c-0.075,21.094-0.075,42.812,0,63.836"/>
		<path id="barre_1_" fill="none" stroke="#B7B8BC" stroke-width="1.5" stroke-miterlimit="10" d="M103,233.521
			c28.192,0.07,57.221,0.07,85.318,0"/>
		<path id="barre" fill="none" stroke="#B7B8BC" stroke-width="1.5" stroke-miterlimit="10" d="M189.373,221.218
			c-0.035,4.427-0.035,8.966,0,13.358"/>
	</g>
</g>
<g id="cerveau">
	<g id="brain_1_">
		<path fill="#B7B8BC" d="M86.356,188.828c-1.449,0-2.903-0.161-4.322-0.482c-5.231-1.199-9.695-4.428-12.575-9.102
			c-2.33-3.792-3.399-8.16-3.112-12.557c-3.212,1-6.683,1.128-10.014,0.376c-5.378-1.229-9.938-4.617-12.771-9.444
			c-2.339,0.346-4.734,0.241-7.053-0.291c-5.224-1.197-9.687-4.425-12.57-9.101c-2.878-4.68-3.83-10.232-2.678-15.654
			c1.587-7.48,6.955-13.356,13.942-15.47c0.078-0.849,0.205-1.689,0.378-2.512c2.008-9.45,10.227-16.307,19.545-16.307
			c1.451,0,2.903,0.164,4.33,0.489c0.488,0.114,0.979,0.249,1.46,0.397c3.454-2.662,7.641-4.113,11.947-4.113
			c1.449,0,2.901,0.164,4.33,0.494c3.924,0.893,7.497,3.005,10.239,6.013c3.703-1.536,7.824-1.887,11.733-0.996
			c8.817,2.016,15.15,9.827,15.681,18.991c9.369,3.527,14.862,13.666,12.676,23.974c-0.714,3.35-2.189,6.419-4.303,8.986
			c2.524,4.494,3.35,9.814,2.261,14.936c-2.008,9.445-10.228,16.301-19.543,16.301c0,0,0.003,0,0,0c-1.445,0-2.905-0.165-4.331-0.49
			c-0.431-0.099-0.854-0.214-1.28-0.336C96.596,186.695,91.6,188.828,86.356,188.828z M69.853,159.466
			c0.573,0,1.141,0.197,1.607,0.583c0.856,0.703,1.188,1.89,0.833,2.964c-0.2,0.599-0.351,1.158-0.469,1.727
			c-0.859,4.023-0.149,8.144,1.989,11.616c2.137,3.465,5.451,5.875,9.33,6.761c1.058,0.242,2.142,0.355,3.214,0.355
			c4.328,0,8.434-1.959,11.27-5.369c0.71-0.864,1.867-1.172,2.89-0.754c0.715,0.284,1.457,0.52,2.206,0.688
			c1.06,0.244,2.143,0.366,3.217,0.366c6.91,0,13.01-5.085,14.502-12.108c0.925-4.335-0.014-8.896-2.574-12.48
			c-0.78-1.089-0.651-2.612,0.299-3.54c2.178-2.135,3.669-4.857,4.314-7.899c1.736-8.153-3.021-16.168-10.83-18.238
			c-1.184-0.311-1.991-1.438-1.939-2.7c0.282-7.454-4.622-14.031-11.659-15.641c-3.414-0.778-7.028-0.27-10.114,1.409
			c-1.11,0.61-2.485,0.297-3.256-0.743c-2.125-2.886-5.18-4.904-8.603-5.687c-1.061-0.238-2.143-0.365-3.214-0.365
			c-3.57,0-7.032,1.346-9.742,3.786c-0.722,0.648-1.729,0.833-2.621,0.48c-0.696-0.278-1.422-0.502-2.159-0.678
			c-1.055-0.241-2.139-0.36-3.215-0.36c-6.908,0-13.009,5.085-14.5,12.1c-0.241,1.129-0.357,2.302-0.348,3.482
			c0.009,1.3-0.883,2.42-2.119,2.649c-5.911,1.124-10.564,5.775-11.86,11.861c-0.852,4.016-0.146,8.146,1.992,11.619
			c2.139,3.465,5.454,5.863,9.329,6.744c2.215,0.514,4.509,0.494,6.695-0.065c1.184-0.295,2.407,0.307,2.938,1.439
			c1.999,4.288,5.712,7.351,10.19,8.358c1.061,0.251,2.14,0.373,3.211,0.373c2.764,0,5.469-0.803,7.835-2.332
			C68.908,159.604,69.379,159.466,69.853,159.466z"/>
		<path fill="#B7B8BC" d="M49.021,93.847c-0.871,0-1.722-0.457-2.207-1.284l-7.785-13.217c-0.744-1.259-0.361-2.905,0.855-3.679
			c1.218-0.768,2.809-0.369,3.551,0.892l7.787,13.211c0.741,1.262,0.357,2.909-0.858,3.682
			C49.942,93.715,49.479,93.847,49.021,93.847z"/>
		<path fill="#B7B8BC" d="M86.541,91.438c-0.147,0-0.299-0.015-0.45-0.041c-1.404-0.252-2.344-1.644-2.097-3.102l2.604-15.359
			c0.248-1.457,1.585-2.436,2.992-2.179c1.402,0.259,2.341,1.646,2.095,3.101l-2.606,15.367
			C88.856,90.521,87.771,91.438,86.541,91.438z"/>
		<path fill="#B7B8BC" d="M119.545,98.358l-3.574,3.956c-0.509,0.561-1.196,0.85-1.888,0.85c-0.632,0-1.265-0.24-1.768-0.726
			c-1.034-1.014-1.086-2.708-0.114-3.788l10.363-11.444c0.972-1.083,2.606-1.135,3.647-0.125c1.041,1.011,1.093,2.708,0.113,3.782
			L119.545,98.358"/>
		<path fill="#B7B8BC" d="M131.805,130.382c-1.313,0-2.429-1.041-2.563-2.42c-0.144-1.471,0.896-2.785,2.318-2.925l14.692-1.496
			c1.412-0.147,2.679,0.932,2.822,2.404c0.138,1.471-0.9,2.785-2.327,2.924l-14.691,1.504
			C131.979,130.378,131.895,130.382,131.805,130.382z"/>
		<path fill="#B7B8BC" d="M19.243,119.009c-0.383,0-0.771-0.087-1.137-0.272l-11.714-5.987c-1.276-0.65-1.807-2.255-1.172-3.581
			c0.627-1.328,2.175-1.878,3.456-1.223l11.711,5.982c1.278,0.659,1.808,2.264,1.174,3.587
			C21.113,118.465,20.194,119.009,19.243,119.009z"/>
		<path fill="#B7B8BC" d="M9.012,167.688c-1.005,0-1.957-0.594-2.377-1.615c-0.558-1.363,0.047-2.937,1.357-3.516l12.001-5.332
			c1.307-0.588,2.832,0.041,3.386,1.403c0.567,1.36-0.041,2.938-1.354,3.516l-11.996,5.33C9.697,167.62,9.351,167.688,9.012,167.688
			z"/>
	</g>
	<path id="engrenage_28_" fill="#1C9AD7" d="M115.253,137.982c-0.375-2.109-1.17-4.054-2.291-5.753l1.766-1.832l-3.73-3.862
		l-1.77,1.827c-1.632-1.163-3.511-1.986-5.539-2.377v-2.596h-2.638h-2.639v2.596c-2.026,0.391-3.903,1.214-5.538,2.377l-1.771-1.827
		l-3.728,3.862l1.767,1.838c-1.13,1.693-1.923,3.638-2.294,5.747h-2.502v5.462h2.502c0.371,2.101,1.164,4.055,2.294,5.746
		l-1.767,1.831l3.728,3.872l1.771-1.835c1.633,1.171,3.511,1.995,5.538,2.383v2.59h2.639h2.638v-2.59
		c2.027-0.388,3.906-1.212,5.539-2.383l1.77,1.835l3.73-3.872l-1.766-1.831c1.121-1.691,1.917-3.646,2.291-5.746h2.501v-5.462
		H115.253z M101.052,150.455L101.052,150.455c-5.193,0-9.4-4.358-9.4-9.74c0-5.38,4.207-9.746,9.4-9.746l0,0
		c5.193,0,9.396,4.366,9.396,9.746C110.448,146.097,106.245,150.455,101.052,150.455z"/>
	<path id="engrenage_26_" fill="#C7C934" d="M103.626,114.423c-0.138-0.765-0.428-1.471-0.832-2.085l0.642-0.666l-1.356-1.401
		l-0.641,0.667c-0.589-0.428-1.276-0.724-2.007-0.862v-0.946h-0.958h-0.958v0.946c-0.731,0.138-1.413,0.434-2.01,0.862l-0.642-0.667
		l-1.345,1.401l0.637,0.666c-0.407,0.614-0.693,1.32-0.83,2.085h-0.91v1.981h0.91c0.137,0.759,0.423,1.468,0.83,2.082l-0.637,0.668
		l1.345,1.398l0.642-0.66c0.597,0.421,1.278,0.724,2.01,0.859v0.944h0.958h0.958v-0.944c0.73-0.135,1.417-0.438,2.007-0.859
		l0.641,0.66l1.356-1.398l-0.642-0.668c0.404-0.613,0.694-1.322,0.832-2.082h0.907v-1.981H103.626z M98.473,119.423L98.473,119.423
		c-2.134,0-3.867-1.798-3.867-4.009c0-2.211,1.733-4.013,3.867-4.013l0,0c2.14,0,3.868,1.802,3.868,4.013
		C102.341,117.625,100.613,119.423,98.473,119.423z"/>
	<path id="engrenage_24_" fill="#F7DF2E" d="M57.963,146.548c0.126-0.754,0.09-1.513-0.093-2.234l0.825-0.4l-0.812-1.772
		l-0.827,0.396c-0.419-0.604-0.966-1.132-1.614-1.514l0.313-0.879l-0.904-0.338l-0.905-0.338l-0.308,0.883
		c-0.744-0.131-1.489-0.085-2.191,0.096l-0.386-0.842l-1.742,0.831l0.389,0.842c-0.595,0.435-1.097,0.984-1.479,1.647l-0.858-0.312
		l-0.658,1.84l0.86,0.328c-0.123,0.76-0.088,1.516,0.093,2.241l-0.825,0.389l0.813,1.779l0.829-0.395
		c0.417,0.601,0.965,1.127,1.613,1.516l-0.309,0.875l0.9,0.342l0.903,0.329l0.315-0.877c0.74,0.128,1.483,0.089,2.185-0.094
		l0.387,0.848l1.739-0.839l-0.382-0.841c0.589-0.437,1.098-0.993,1.474-1.653l0.86,0.321l0.657-1.852L57.963,146.548z
		 M51.438,149.402L51.438,149.402c-2.018-0.751-3.061-3.027-2.326-5.101c0.731-2.063,2.965-3.123,4.987-2.373l0,0
		c2.02,0.748,3.061,3.033,2.33,5.098C55.694,149.093,53.46,150.153,51.438,149.402z"/>
	<path id="engrenage_23_" fill-rule="evenodd" clip-rule="evenodd" fill="#E43428" d="M81.436,140.307l1.654-1
		c-0.827-1.411-1.906-2.618-3.176-3.578l-1.144,1.585c-1.063-0.811-2.282-1.402-3.585-1.742l0.467-1.902
		c-1.502-0.389-3.093-0.484-4.713-0.231l0.28,1.943c-1.11,0.168-2.153,0.52-3.104,1.009c-0.216,0.113-0.424,0.229-0.629,0.355
		l-0.99-1.686c-1.372,0.847-2.554,1.949-3.491,3.241l1.546,1.171c-0.786,1.094-1.369,2.336-1.697,3.673l-1.862-0.472
		c-0.381,1.526-0.469,3.167-0.226,4.813l1.899-0.291c0.202,1.397,0.668,2.688,1.333,3.823l-1.643,1.012
		c0.823,1.407,1.905,2.61,3.171,3.574l1.141-1.576c1.068,0.803,2.285,1.399,3.589,1.737l-0.464,1.902
		c1.493,0.381,3.091,0.475,4.709,0.23l-0.282-1.952c1.115-0.156,2.157-0.515,3.111-1.016c0.211-0.1,0.417-0.222,0.624-0.344
		l0.986,1.688c1.375-0.844,2.558-1.951,3.495-3.244l-1.547-1.177c0.786-1.086,1.372-2.333,1.698-3.675l1.864,0.491
		c0.373-1.539,0.469-3.167,0.228-4.828l-1.903,0.294C82.571,142.743,82.108,141.453,81.436,140.307z M77.586,144.925
		c0.319,2.198-0.8,4.274-2.639,5.229c-0.459,0.239-0.966,0.406-1.503,0.494c-2.69,0.404-5.194-1.488-5.597-4.24
		c-0.317-2.199,0.804-4.274,2.64-5.229c0.464-0.244,0.969-0.412,1.507-0.487C74.684,140.281,77.185,142.17,77.586,144.925z"/>
	<path id="engrenage_22_" fill-rule="evenodd" clip-rule="evenodd" fill="#F7AD1F" d="M97.762,166.12l1.981-0.151
		c-0.119-1.707-0.563-3.367-1.292-4.877l-1.776,0.923c-0.608-1.269-1.46-2.411-2.505-3.358l1.299-1.55
		c-1.205-1.093-2.63-1.951-4.234-2.513l-0.629,1.95c-1.104-0.381-2.226-0.558-3.325-0.558c-0.252,0-0.5,0.01-0.743,0.027
		l-0.139-2.057c-1.651,0.115-3.249,0.581-4.701,1.338l0.884,1.841c-1.224,0.633-2.327,1.511-3.239,2.597l-1.503-1.341
		c-1.045,1.24-1.879,2.713-2.411,4.388l1.882,0.652c-0.449,1.401-0.61,2.831-0.516,4.22l-1.983,0.147
		c0.118,1.711,0.561,3.36,1.289,4.87l1.779-0.921c0.611,1.269,1.46,2.414,2.51,3.358l-1.302,1.563
		c1.205,1.076,2.629,1.951,4.235,2.499l0.63-1.95c1.102,0.383,2.223,0.559,3.329,0.559c0.244,0,0.494-0.013,0.733-0.031l0.143,2.065
		c1.65-0.118,3.249-0.588,4.701-1.334l-0.886-1.848c1.223-0.633,2.329-1.522,3.244-2.602l1.498,1.353
		c1.046-1.248,1.881-2.729,2.417-4.396l-1.885-0.66C97.693,168.933,97.854,167.505,97.762,166.12z M92.101,168.546
		c-0.712,2.213-2.695,3.613-4.821,3.613c-0.537,0-1.078-0.09-1.612-0.271c-2.667-0.925-4.104-3.91-3.219-6.675
		c0.715-2.209,2.701-3.611,4.832-3.611c0.532,0,1.074,0.095,1.606,0.286C91.554,162.798,92.989,165.784,92.101,168.546z"/>
	<path id="engrenage_20_" fill-rule="evenodd" clip-rule="evenodd" fill="#C7C934" d="M116.125,163.751l1.408-0.293
		c-0.238-1.186-0.713-2.312-1.374-3.31l-1.19,0.831c-0.556-0.843-1.273-1.569-2.113-2.146l0.792-1.214
		c-0.964-0.645-2.064-1.112-3.271-1.355l-0.276,1.437c-0.823-0.157-1.644-0.186-2.437-0.075c-0.177,0.032-0.356,0.051-0.533,0.096
		l-0.287-1.438c-1.173,0.239-2.28,0.722-3.256,1.393l0.809,1.222c-0.827,0.563-1.537,1.287-2.098,2.154l-1.198-0.813
		c-0.639,0.972-1.098,2.104-1.334,3.324l1.414,0.28c-0.195,1.038-0.178,2.063,0.015,3.032l-1.411,0.289
		c0.245,1.187,0.715,2.324,1.373,3.313l1.192-0.824c0.558,0.833,1.274,1.572,2.113,2.13l-0.79,1.224
		c0.962,0.656,2.065,1.134,3.271,1.354l0.272-1.428c0.826,0.159,1.649,0.181,2.441,0.068c0.176-0.018,0.357-0.05,0.53-0.09
		l0.287,1.438c1.174-0.247,2.28-0.727,3.258-1.397l-0.804-1.218c0.818-0.565,1.533-1.289,2.085-2.142l1.205,0.801
		c0.636-0.978,1.097-2.099,1.333-3.33l-1.417-0.272C116.333,165.746,116.318,164.729,116.125,163.751z M112.28,166.017
		c-0.309,1.635-1.608,2.812-3.138,3.025c-0.382,0.045-0.782,0.033-1.182-0.048c-1.998-0.388-3.304-2.355-2.922-4.389
		c0.309-1.633,1.607-2.808,3.139-3.015c0.385-0.05,0.78-0.03,1.182,0.042C111.358,162.023,112.662,163.986,112.28,166.017z"/>
	<path fill="#1C9AD7" d="M68.503,119.892c-0.332-1.713-1.006-3.283-1.95-4.649l1.44-1.512l-3.111-3.099l-1.445,1.508
		c-1.355-0.934-2.913-1.583-4.591-1.878l-0.027-2.105l-2.17,0.029l-2.173,0.028l0.027,2.106c-1.666,0.338-3.209,1.035-4.542,1.999
		l-1.476-1.471l-3.037,3.183l1.48,1.473c-0.91,1.392-1.548,2.981-1.831,4.698l-2.064,0.025l0.059,4.445l2.061-0.028
		c0.33,1.71,1.003,3.281,1.95,4.646l-1.439,1.509l3.115,3.107l1.433-1.511c1.367,0.931,2.92,1.577,4.597,1.87l0.024,2.117
		l2.175-0.039l2.172-0.024l-0.024-2.11c1.663-0.34,3.202-1.033,4.54-1.996l1.479,1.472l3.029-3.188l-1.474-1.463
		c0.911-1.396,1.544-2.989,1.83-4.703l2.061-0.019l-0.056-4.454L68.503,119.892z M56.943,131.258L56.943,131.258
		c-4.858,0.063-8.839-3.908-8.901-8.875c-0.068-4.962,3.815-9.044,8.67-9.104l0,0c4.856-0.067,8.841,3.904,8.907,8.871
		C65.683,127.113,61.797,131.196,56.943,131.258z"/>
	<path fill="#1C9AD7" d="M56.906,128.302L56.906,128.302c-3.259,0.047-5.937-2.618-5.979-5.955
		c-0.041-3.338,2.564-6.073,5.823-6.118l0,0c3.26-0.045,5.939,2.627,5.98,5.958C62.776,125.524,60.163,128.256,56.906,128.302z"/>
	<path id="engrenage_16_" fill-rule="evenodd" clip-rule="evenodd" fill="#EF7E24" d="M74.641,106.845l0.697-0.05
		c-0.039-0.593-0.196-1.172-0.456-1.699l-0.627,0.319c-0.213-0.443-0.513-0.842-0.885-1.167l0.461-0.547
		c-0.428-0.377-0.931-0.675-1.499-0.87l-0.221,0.68c-0.391-0.134-0.787-0.195-1.174-0.195c-0.087,0-0.177,0.005-0.261,0.008
		l-0.053-0.711c-0.583,0.041-1.145,0.201-1.658,0.459l0.312,0.644c-0.432,0.224-0.822,0.533-1.147,0.911l-0.527-0.474
		c-0.371,0.437-0.665,0.952-0.854,1.535l0.664,0.226c-0.156,0.488-0.213,0.984-0.18,1.464l-0.704,0.053
		c0.047,0.596,0.202,1.171,0.46,1.7l0.624-0.317c0.22,0.44,0.517,0.836,0.888,1.166l-0.459,0.544c0.423,0.38,0.93,0.68,1.496,0.873
		l0.224-0.681c0.386,0.133,0.782,0.194,1.175,0.194c0.087,0,0.173,0,0.263-0.005l0.046,0.713c0.584-0.042,1.149-0.205,1.659-0.461
		l-0.312-0.65c0.432-0.218,0.825-0.526,1.147-0.904l0.528,0.476c0.371-0.436,0.661-0.952,0.855-1.535l-0.666-0.226
		C74.616,107.829,74.674,107.33,74.641,106.845z M72.641,107.697c-0.253,0.769-0.95,1.255-1.703,1.255
		c-0.19,0-0.384-0.028-0.57-0.093c-0.941-0.326-1.45-1.367-1.136-2.325c0.249-0.775,0.949-1.26,1.706-1.26
		c0.186,0,0.378,0.032,0.569,0.096C72.444,105.693,72.952,106.732,72.641,107.697z"/>
	<path id="engrenage_11_" fill-rule="evenodd" clip-rule="evenodd" fill="#E43428" d="M89.977,117.707l1.648-0.262
		c-0.213-1.425-0.695-2.775-1.407-3.984l-1.425,0.898c-0.597-1.021-1.387-1.915-2.325-2.632l0.985-1.393
		c-1.08-0.818-2.334-1.438-3.712-1.791l-0.396,1.686c-0.947-0.244-1.899-0.314-2.819-0.231c-0.204,0.014-0.413,0.043-0.62,0.079
		l-0.253-1.714c-1.367,0.226-2.678,0.726-3.846,1.46l0.869,1.481c-0.979,0.616-1.845,1.431-2.536,2.406l-1.341-1.017
		c-0.794,1.121-1.389,2.415-1.725,3.846l1.619,0.407c-0.283,1.207-0.321,2.415-0.149,3.564l-1.645,0.266
		c0.211,1.424,0.693,2.779,1.405,3.987l1.426-0.901c0.593,1.018,1.382,1.915,2.325,2.634l-0.984,1.393
		c1.077,0.817,2.33,1.44,3.71,1.786l0.394-1.679c0.95,0.24,1.899,0.306,2.823,0.229c0.207-0.019,0.412-0.043,0.619-0.079
		l0.252,1.712c1.371-0.22,2.676-0.722,3.845-1.459l-0.871-1.475c0.985-0.628,1.848-1.44,2.536-2.417l1.349,1.021
		c0.788-1.117,1.384-2.419,1.72-3.845l-1.619-0.412C90.112,120.07,90.151,118.861,89.977,117.707z M85.406,120.158
		c-0.442,1.898-2.009,3.209-3.789,3.366c-0.444,0.04-0.908,0.001-1.364-0.111c-2.292-0.577-3.696-2.974-3.143-5.346
		c0.451-1.906,2.015-3.215,3.796-3.372c0.445-0.036,0.904-0.003,1.366,0.116C84.562,115.391,85.966,117.78,85.406,120.158z"/>
	<path id="engrenage_2_" fill-rule="evenodd" clip-rule="evenodd" fill="#F7AD1F" d="M45.85,136.733l1.457-0.108
		c-0.086-1.267-0.413-2.493-0.946-3.619l-1.306,0.686c-0.45-0.946-1.071-1.791-1.842-2.496l0.956-1.156
		c-0.879-0.802-1.926-1.439-3.106-1.854l-0.46,1.447c-0.813-0.285-1.632-0.418-2.443-0.418c-0.184,0-0.362,0.008-0.541,0.023
		l-0.106-1.523c-1.209,0.088-2.383,0.429-3.449,0.994l0.652,1.363c-0.897,0.473-1.713,1.124-2.381,1.928L31.23,131
		c-0.762,0.927-1.375,2.021-1.768,3.254l1.381,0.492c-0.332,1.04-0.449,2.094-0.375,3.128l-1.456,0.104
		c0.086,1.268,0.408,2.497,0.942,3.621l1.304-0.677c0.452,0.933,1.071,1.789,1.842,2.485l-0.953,1.153
		c0.881,0.81,1.929,1.457,3.11,1.869l0.457-1.456c0.812,0.282,1.635,0.42,2.443,0.42c0.183,0,0.365-0.012,0.543-0.016l0.103,1.515
		c1.212-0.087,2.382-0.432,3.453-0.99l-0.653-1.357c0.896-0.48,1.71-1.138,2.38-1.941l1.101,1.002
		c0.766-0.929,1.377-2.017,1.769-3.256l-1.383-0.48C45.801,138.826,45.921,137.763,45.85,136.733z M41.338,138.414
		c-0.468,1.478-1.776,2.406-3.181,2.406c-0.352,0-0.707-0.058-1.063-0.176c-1.757-0.618-2.705-2.607-2.12-4.456
		c0.471-1.474,1.78-2.4,3.183-2.4c0.355,0,0.708,0.052,1.065,0.181C40.978,134.587,41.926,136.582,41.338,138.414z"/>
</g>
<g id="engrenagevert">
	<path id="engrenage_17_" fill-rule="evenodd" clip-rule="evenodd" fill="#C7C934" d="M204.09,203.358l2.415-0.507
		c-0.41-2.014-1.214-3.904-2.346-5.585l-2.047,1.38c-0.954-1.4-2.168-2.633-3.601-3.594l1.349-2.059
		c-1.646-1.096-3.53-1.89-5.593-2.294l-0.468,2.438c-1.414-0.268-2.819-0.318-4.181-0.135c-0.304,0.04-0.607,0.091-0.897,0.164
		l-0.504-2.426c-2.01,0.406-3.896,1.219-5.565,2.353l1.379,2.052c-1.405,0.952-2.633,2.184-3.578,3.625l-2.057-1.37
		c-1.088,1.663-1.876,3.561-2.281,5.633l2.414,0.467c-0.325,1.745-0.303,3.471,0.026,5.102l-2.409,0.503
		c0.415,2.022,1.219,3.913,2.352,5.595l2.034-1.391c0.947,1.411,2.174,2.642,3.61,3.592l-1.347,2.064
		c1.643,1.087,3.524,1.89,5.59,2.292l0.474-2.436c1.416,0.284,2.817,0.31,4.169,0.134c0.304-0.041,0.615-0.094,0.909-0.154
		l0.502,2.417c2.004-0.407,3.896-1.218,5.563-2.345l-1.376-2.059c1.401-0.949,2.621-2.174,3.572-3.629l2.065,1.373
		c1.075-1.663,1.868-3.554,2.271-5.629l-2.42-0.454C204.459,206.721,204.43,205.002,204.09,203.358z M197.522,207.178
		c-0.535,2.752-2.755,4.738-5.361,5.075c-0.668,0.095-1.346,0.073-2.029-0.06c-3.421-0.661-5.657-3.98-4.999-7.414
		c0.526-2.748,2.755-4.733,5.36-5.087c0.659-0.077,1.344-0.062,2.029,0.072C195.947,200.426,198.182,203.74,197.522,207.178z"/>
</g>
<g id="engrenagerouge">
	<path id="engrenage_19_" fill-rule="evenodd" clip-rule="evenodd" fill="#E43428" d="M102.05,229.098l1.784-0.244
		c-0.205-1.494-0.707-2.92-1.456-4.194l-1.555,0.913c-0.63-1.076-1.466-2.027-2.471-2.781l1.084-1.461
		c-1.154-0.869-2.497-1.537-3.986-1.932l-0.452,1.756c-1.029-0.259-2.049-0.363-3.049-0.289c-0.224,0.02-0.447,0.038-0.67,0.078
		l-0.249-1.795c-1.483,0.204-2.903,0.712-4.178,1.47l0.914,1.554c-1.071,0.629-2.021,1.467-2.782,2.487l-1.439-1.093
		c-0.872,1.165-1.535,2.507-1.926,3.991l1.746,0.467c-0.326,1.264-0.384,2.522-0.214,3.724l-1.788,0.253
		c0.208,1.491,0.708,2.923,1.458,4.213l1.553-0.928c0.633,1.07,1.469,2.026,2.477,2.797l-1.087,1.442
		c1.153,0.869,2.494,1.55,3.987,1.932l0.451-1.757c1.023,0.271,2.049,0.362,3.049,0.291c0.224-0.02,0.446-0.04,0.665-0.07
		l0.25,1.795c1.491-0.206,2.908-0.722,4.184-1.464l-0.917-1.559c1.072-0.626,2.021-1.485,2.786-2.479l1.435,1.075
		c0.871-1.157,1.54-2.499,1.923-3.988l-1.744-0.461C102.157,231.58,102.218,230.312,102.05,229.098z M97.069,231.592
		c-0.511,1.983-2.227,3.332-4.155,3.474c-0.486,0.023-0.98-0.021-1.474-0.142c-2.472-0.659-3.953-3.186-3.309-5.658
		c0.511-1.988,2.225-3.332,4.152-3.471c0.481-0.028,0.983,0.009,1.476,0.146C96.227,226.59,97.708,229.115,97.069,231.592z"/>
</g>
</svg>
