<?xml version="1.0" encoding="utf-8"?>
<!-- Generator: Adobe Illustrator 16.0.0, SVG Export Plug-In . SVG Version: 6.00 Build 0)  -->
<!DOCTYPE svg PUBLIC "-//W3C//DTD SVG 1.1//EN" "http://www.w3.org/Graphics/SVG/1.1/DTD/svg11.dtd">
<svg version="1.1" xmlns="http://www.w3.org/2000/svg" xmlns:xlink="http://www.w3.org/1999/xlink" x="0px" y="0px" width="60px"
	 height="60px" viewBox="0 0 60 60" enable-background="new 0 0 60 60" xml:space="preserve">
<g id="dessin">
	<g>
		<g id="ampoule">
			<g>
				<path fill="#F8E02F" d="M47.56,12.982c-0.321-0.164-0.873-0.178-1.378,0.323c-0.204,0.202-0.372,0.522-0.513,0.91
					c-0.246-0.012-0.495-0.045-0.721-0.092c0.351-0.232,0.386-0.495,0.377-0.624c-0.026-0.37-0.538-0.753-1.101-0.753
					s-1.075,0.383-1.102,0.753c-0.009,0.128,0.025,0.391,0.377,0.624c-0.228,0.047-0.474,0.08-0.722,0.092
					c-0.14-0.388-0.31-0.708-0.513-0.91c-0.503-0.501-1.057-0.486-1.378-0.323c-0.302,0.154-0.448,0.444-0.367,0.72
					c0.096,0.323,0.33,0.588,0.683,0.766c0.329,0.165,0.734,0.247,1.156,0.267c0.363,1.283,0.506,3.227,0.533,4.087
					c0.003,0.144,0.134,0.257,0.289,0.253c0.156-0.003,0.279-0.124,0.274-0.267c-0.008-0.329-0.093-2.507-0.519-4.083
					c0.373-0.026,0.735-0.092,1.048-0.183c0.083-0.023,0.161-0.051,0.239-0.083c0.076,0.032,0.154,0.06,0.238,0.083
					c0.314,0.09,0.677,0.156,1.045,0.183c-0.426,1.576-0.507,3.753-0.517,4.083c-0.003,0.143,0.118,0.264,0.275,0.267
					c0.154,0.004,0.284-0.109,0.29-0.253c0.025-0.861,0.17-2.804,0.531-4.087c0.423-0.021,0.829-0.102,1.157-0.267
					c0.35-0.178,0.587-0.443,0.683-0.766C48.008,13.426,47.86,13.136,47.56,12.982z M41.475,14.012
					c-0.219-0.11-0.353-0.257-0.408-0.446c-0.013-0.039,0.029-0.093,0.098-0.127c0.14-0.073,0.406-0.059,0.688,0.22
					c0.122,0.122,0.23,0.309,0.328,0.543C41.917,14.172,41.673,14.112,41.475,14.012z M44.225,13.872
					c-0.397-0.12-0.542-0.267-0.536-0.338c0.006-0.082,0.302-0.262,0.536-0.262c0.233,0,0.53,0.18,0.535,0.262
					C44.765,13.605,44.62,13.752,44.225,13.872z M46.974,14.012c-0.2,0.1-0.442,0.161-0.704,0.189
					c0.096-0.234,0.206-0.421,0.327-0.543c0.281-0.279,0.547-0.293,0.688-0.22c0.068,0.034,0.11,0.088,0.097,0.127
					C47.327,13.755,47.191,13.901,46.974,14.012z"/>
				<path fill="#F8E02F" d="M39.337,19.169c-0.164,0-0.327-0.055-0.456-0.165c-1.594-1.365-2.509-3.298-2.509-5.304
					c0-3.99,3.523-7.237,7.853-7.237s7.851,3.247,7.851,7.237c0,2.006-0.868,3.869-2.447,5.25c-0.267,0.234-0.689,0.224-0.944-0.022
					c-0.253-0.247-0.243-0.637,0.024-0.872c1.309-1.145,2.031-2.692,2.031-4.356c0-3.312-2.922-6.004-6.515-6.004
					c-3.595,0-6.516,2.693-6.516,6.004c0,1.664,0.758,3.268,2.082,4.402c0.271,0.231,0.286,0.62,0.035,0.87
					C39.695,19.104,39.516,19.169,39.337,19.169z"/>
				<path fill="#F8E02F" d="M48.044,19.962c0,0.335-0.294,0.606-0.657,0.606h-6.326c-0.362,0-0.656-0.271-0.656-0.606l0,0
					c0-0.334,0.294-0.606,0.656-0.606h6.326C47.75,19.356,48.044,19.628,48.044,19.962L48.044,19.962z"/>
				<path fill="#F8E02F" d="M48.044,21.524c0,0.334-0.294,0.606-0.657,0.606h-6.326c-0.362,0-0.656-0.271-0.656-0.606l0,0
					c0-0.334,0.294-0.606,0.656-0.606h6.326C47.75,20.918,48.044,21.189,48.044,21.524L48.044,21.524z"/>
				<path fill="#F8E02F" d="M48.044,23.084c0,0.335-0.294,0.607-0.657,0.607h-6.326c-0.362,0-0.656-0.271-0.656-0.607l0,0
					c0-0.334,0.294-0.605,0.656-0.605h6.326C47.75,22.479,48.044,22.75,48.044,23.084L48.044,23.084z"/>
				<path fill="#F8E02F" d="M41.829,24.059v0.348c0,0.865,0.763,1.568,1.7,1.568h1.39c0.939,0,1.699-0.703,1.699-1.568v-0.348
					H41.829z"/>
			</g>
			<path fill="#F8E02F" d="M56.526,14.999L56.526,14.999l-2.641-0.005c-0.322,0-0.584-0.241-0.582-0.537
				c0-0.297,0.26-0.538,0.583-0.538c0,0,0,0,0.001,0l2.64,0.004c0.323,0,0.582,0.241,0.582,0.538
				C57.109,14.759,56.849,14.999,56.526,14.999z"/>
			<path fill="#F8E02F" d="M34.514,15.001C34.513,15.001,34.513,15.001,34.514,15.001L31.8,14.998
				c-0.323-0.001-0.585-0.243-0.583-0.539c0-0.297,0.261-0.538,0.583-0.538c0.001,0,0.001,0,0.002,0l2.713,0.004
				c0.323,0,0.583,0.241,0.583,0.538C35.098,14.761,34.837,15.001,34.514,15.001z"/>
			<path fill="#F8E02F" d="M44.223,5.372L44.223,5.372c-0.324,0-0.583-0.242-0.583-0.539l0.004-2.296
				C43.645,2.239,43.904,2,44.227,2l0,0c0.323,0,0.584,0.241,0.583,0.539l-0.005,2.297C44.805,5.132,44.544,5.372,44.223,5.372z"/>
			<path fill="#F8E02F" d="M51.403,8.2c-0.148,0-0.301-0.053-0.413-0.159c-0.228-0.209-0.227-0.55,0-0.759l1.655-1.52
				c0.228-0.209,0.596-0.209,0.825,0.002c0.226,0.208,0.226,0.55-0.002,0.76l-1.653,1.52C51.703,8.148,51.552,8.2,51.403,8.2z"/>
			<path fill="#F8E02F" d="M36.865,8.887c-0.15,0-0.298-0.052-0.412-0.156l-1.647-1.516c-0.229-0.209-0.229-0.551-0.001-0.761
				c0.228-0.209,0.597-0.21,0.823-0.001l1.65,1.516c0.227,0.21,0.228,0.55,0,0.761C37.164,8.835,37.014,8.887,36.865,8.887z"/>
		</g>
		<g id="brain">
			<path fill="#B9BABD" d="M21.291,38.918c-0.327,0-0.656-0.032-0.977-0.098c-1.182-0.24-2.19-0.889-2.841-1.828
				c-0.526-0.761-0.768-1.638-0.703-2.521c-0.726,0.2-1.51,0.227-2.262,0.075c-1.215-0.247-2.246-0.928-2.886-1.896
				c-0.528,0.069-1.069,0.048-1.593-0.059c-1.18-0.24-2.188-0.889-2.84-1.828c-0.65-0.94-0.865-2.055-0.605-3.144
				c0.358-1.503,1.571-2.683,3.15-3.107c0.018-0.17,0.046-0.339,0.085-0.504c0.454-1.898,2.311-3.275,4.416-3.275
				c0.328,0,0.656,0.033,0.978,0.098c0.11,0.023,0.221,0.05,0.33,0.08c0.78-0.535,1.726-0.826,2.699-0.826
				c0.327,0,0.655,0.033,0.978,0.099c0.887,0.179,1.694,0.604,2.313,1.208c0.836-0.308,1.768-0.379,2.65-0.2
				c1.992,0.405,3.423,1.973,3.543,3.814c2.117,0.708,3.358,2.744,2.864,4.814c-0.161,0.673-0.494,1.289-0.972,1.805
				c0.57,0.902,0.757,1.971,0.511,2.999c-0.454,1.897-2.311,3.274-4.416,3.274c0,0,0,0,0,0c-0.327,0-0.657-0.033-0.979-0.099
				c-0.097-0.02-0.193-0.043-0.29-0.067C23.604,38.49,22.476,38.918,21.291,38.918z M17.563,33.021c0.129,0,0.258,0.039,0.363,0.116
				c0.193,0.142,0.269,0.38,0.188,0.596c-0.045,0.12-0.079,0.232-0.106,0.347c-0.194,0.808-0.034,1.636,0.449,2.333
				c0.483,0.695,1.231,1.18,2.108,1.357c0.239,0.049,0.484,0.071,0.726,0.071c0.978,0,1.905-0.394,2.546-1.078
				c0.16-0.174,0.422-0.235,0.653-0.151c0.162,0.058,0.329,0.104,0.498,0.139c0.24,0.049,0.484,0.073,0.727,0.073
				c1.561,0,2.939-1.021,3.276-2.432c0.209-0.871-0.003-1.787-0.582-2.507c-0.176-0.219-0.147-0.524,0.068-0.711
				c0.492-0.429,0.829-0.975,0.975-1.586c0.392-1.638-0.683-3.248-2.447-3.663c-0.267-0.063-0.45-0.289-0.438-0.542
				c0.064-1.497-1.044-2.818-2.634-3.141c-0.771-0.156-1.588-0.054-2.285,0.283c-0.251,0.122-0.562,0.06-0.735-0.149
				c-0.48-0.58-1.17-0.985-1.944-1.142c-0.24-0.048-0.484-0.073-0.726-0.073c-0.807,0-1.589,0.271-2.201,0.76
				c-0.163,0.13-0.391,0.167-0.592,0.097c-0.157-0.056-0.321-0.101-0.488-0.136c-0.238-0.048-0.483-0.072-0.726-0.072
				c-1.561,0-2.939,1.021-3.276,2.43c-0.055,0.227-0.081,0.462-0.079,0.699c0.002,0.261-0.199,0.486-0.479,0.532
				c-1.335,0.226-2.387,1.16-2.68,2.382c-0.192,0.807-0.033,1.636,0.45,2.333c0.483,0.696,1.232,1.178,2.107,1.355
				c0.5,0.103,1.019,0.099,1.513-0.014c0.268-0.06,0.544,0.062,0.664,0.289c0.452,0.861,1.291,1.477,2.302,1.679
				c0.24,0.051,0.483,0.075,0.726,0.075c0.625,0,1.235-0.161,1.77-0.469C17.349,33.049,17.456,33.021,17.563,33.021z"/>
			<path fill="#B9BABD" d="M12.856,19.843c-0.197,0-0.389-0.092-0.499-0.258l-1.759-2.654c-0.168-0.253-0.082-0.583,0.193-0.739
				c0.275-0.154,0.634-0.074,0.802,0.179l1.759,2.653c0.167,0.253,0.081,0.584-0.194,0.74
				C13.064,19.816,12.959,19.843,12.856,19.843z"/>
			<path fill="#B9BABD" d="M21.333,19.359c-0.034,0-0.068-0.003-0.102-0.008c-0.317-0.051-0.529-0.33-0.474-0.623l0.588-3.085
				c0.056-0.292,0.358-0.489,0.676-0.438c0.317,0.052,0.529,0.331,0.474,0.623l-0.589,3.086
				C21.856,19.175,21.611,19.359,21.333,19.359z"/>
			<path fill="#B9BABD" d="M28.79,20.749l-0.808,0.794c-0.115,0.112-0.271,0.17-0.426,0.17c-0.143,0-0.286-0.048-0.399-0.146
				c-0.234-0.204-0.246-0.544-0.026-0.761l2.341-2.299c0.22-0.217,0.589-0.228,0.824-0.025c0.235,0.203,0.247,0.544,0.025,0.76
				L28.79,20.749"/>
			<path fill="#B9BABD" d="M31.56,27.18c-0.297,0-0.549-0.208-0.58-0.485c-0.033-0.295,0.203-0.56,0.524-0.588l3.319-0.3
				c0.319-0.029,0.605,0.187,0.638,0.483c0.031,0.295-0.203,0.559-0.525,0.587l-3.319,0.301C31.599,27.179,31.579,27.18,31.56,27.18
				z"/>
			<path fill="#B9BABD" d="M6.128,24.896c-0.086,0-0.174-0.018-0.257-0.055l-2.646-1.202c-0.289-0.131-0.408-0.453-0.265-0.719
				c0.142-0.267,0.492-0.377,0.781-0.246l2.646,1.202c0.289,0.132,0.408,0.454,0.265,0.72C6.551,24.787,6.343,24.896,6.128,24.896z"
				/>
			<path fill="#B9BABD" d="M3.817,34.672c-0.227,0-0.442-0.119-0.537-0.324c-0.126-0.273,0.011-0.59,0.307-0.706l2.711-1.07
				c0.295-0.118,0.64,0.008,0.765,0.281c0.128,0.273-0.009,0.59-0.306,0.706l-2.71,1.07C3.972,34.659,3.894,34.672,3.817,34.672z"/>
		</g>
		<path id="engrenage_8_" fill="#1D9CD8" d="M27.82,28.706c-0.084-0.423-0.264-0.814-0.518-1.155l0.399-0.368l-0.843-0.776
			l-0.4,0.367c-0.369-0.233-0.793-0.399-1.251-0.477v-0.521h-0.596h-0.596v0.521c-0.458,0.078-0.882,0.244-1.251,0.477l-0.4-0.367
			l-0.842,0.776l0.399,0.369c-0.255,0.34-0.434,0.731-0.518,1.154h-0.565v1.097h0.565c0.084,0.422,0.263,0.814,0.518,1.154
			l-0.399,0.368l0.842,0.777l0.4-0.368c0.369,0.235,0.793,0.4,1.251,0.479v0.52h0.596h0.596v-0.52
			c0.458-0.078,0.883-0.243,1.251-0.479l0.4,0.368l0.843-0.777l-0.399-0.368c0.253-0.339,0.433-0.732,0.518-1.154h0.565v-1.097
			H27.82z M24.611,31.211L24.611,31.211c-1.173,0-2.124-0.875-2.124-1.956s0.95-1.958,2.124-1.958l0,0
			c1.173,0,2.123,0.877,2.123,1.958S25.784,31.211,24.611,31.211z"/>
		<path id="engrenage_7_" fill="#C7CA35" d="M25.193,23.975c-0.031-0.154-0.097-0.295-0.188-0.418l0.145-0.134l-0.306-0.282
			l-0.145,0.134c-0.133-0.086-0.288-0.146-0.454-0.173v-0.19h-0.216h-0.216v0.19c-0.166,0.028-0.319,0.087-0.454,0.173l-0.145-0.134
			l-0.304,0.282l0.144,0.134c-0.092,0.123-0.157,0.265-0.188,0.418H22.66v0.398h0.206c0.031,0.153,0.096,0.295,0.188,0.418
			l-0.144,0.134l0.304,0.281l0.145-0.133c0.135,0.085,0.289,0.146,0.454,0.173v0.189h0.216h0.216v-0.189
			c0.166-0.027,0.32-0.088,0.454-0.173l0.145,0.133l0.306-0.281l-0.145-0.134c0.091-0.123,0.157-0.265,0.188-0.418h0.205v-0.398
			H25.193z M24.029,24.979L24.029,24.979c-0.482,0-0.874-0.361-0.874-0.805c0-0.444,0.391-0.806,0.874-0.806l0,0
			c0.483,0,0.874,0.362,0.874,0.806C24.903,24.618,24.512,24.979,24.029,24.979z"/>
		<path id="engrenage_6_" fill="#F8E02F" d="M14.715,30.427c0.028-0.152,0.02-0.304-0.021-0.449l0.184-0.08l-0.181-0.357
			l-0.184,0.08c-0.094-0.121-0.215-0.227-0.36-0.304l0.07-0.177l-0.202-0.068l-0.202-0.067l-0.069,0.177
			c-0.166-0.026-0.332-0.017-0.488,0.02l-0.086-0.169L12.789,29.2l0.086,0.169c-0.132,0.087-0.245,0.198-0.33,0.331l-0.191-0.063
			l-0.146,0.369l0.191,0.066c-0.027,0.152-0.02,0.304,0.021,0.45L12.236,30.6l0.181,0.357l0.185-0.079
			c0.093,0.121,0.215,0.226,0.359,0.304l-0.069,0.176l0.201,0.068l0.201,0.066l0.07-0.176c0.165,0.025,0.331,0.018,0.487-0.02
			l0.086,0.17l0.388-0.168l-0.085-0.169c0.131-0.088,0.245-0.199,0.329-0.332l0.192,0.064l0.146-0.371L14.715,30.427z M13.261,31
			L13.261,31c-0.45-0.151-0.682-0.608-0.519-1.025c0.163-0.414,0.661-0.627,1.112-0.476l0,0c0.45,0.15,0.682,0.609,0.519,1.024
			C14.209,30.938,13.711,31.151,13.261,31z"/>
		<path id="engrenage_5_" fill-rule="evenodd" clip-rule="evenodd" fill="#E53328" d="M19.947,29.174l0.369-0.202
			c-0.184-0.283-0.425-0.526-0.708-0.718l-0.255,0.317c-0.237-0.163-0.509-0.281-0.799-0.35l0.104-0.382
			c-0.335-0.078-0.689-0.097-1.051-0.047l0.063,0.391c-0.248,0.034-0.48,0.104-0.692,0.203c-0.048,0.022-0.095,0.046-0.14,0.071
			l-0.221-0.338c-0.306,0.17-0.569,0.391-0.778,0.651l0.345,0.235c-0.175,0.219-0.305,0.469-0.378,0.738l-0.415-0.096
			c-0.085,0.307-0.104,0.636-0.05,0.967l0.423-0.058c0.045,0.28,0.149,0.539,0.297,0.768l-0.367,0.203
			c0.184,0.283,0.425,0.524,0.707,0.718l0.254-0.316c0.238,0.161,0.509,0.281,0.8,0.349l-0.104,0.382
			c0.333,0.077,0.689,0.096,1.05,0.047l-0.063-0.392c0.249-0.032,0.481-0.104,0.693-0.204c0.047-0.021,0.093-0.045,0.139-0.069
			l0.22,0.339c0.306-0.169,0.57-0.392,0.779-0.651l-0.345-0.236c0.175-0.218,0.306-0.469,0.378-0.738l0.416,0.099
			c0.083-0.309,0.104-0.636,0.051-0.97l-0.424,0.059C20.2,29.662,20.097,29.403,19.947,29.174z M19.089,30.101
			c0.071,0.441-0.178,0.858-0.588,1.051c-0.102,0.048-0.215,0.081-0.335,0.099c-0.6,0.081-1.158-0.299-1.247-0.852
			c-0.071-0.441,0.179-0.858,0.588-1.05c0.103-0.049,0.216-0.083,0.336-0.098C18.442,29.168,19,29.547,19.089,30.101z"/>
		<path id="engrenage_4_" fill-rule="evenodd" clip-rule="evenodd" fill="#F8AE1D" d="M23.868,34.357l0.448-0.03
			c-0.027-0.343-0.127-0.677-0.292-0.979l-0.401,0.186c-0.137-0.255-0.33-0.484-0.566-0.675l0.293-0.312
			c-0.272-0.22-0.594-0.392-0.957-0.504l-0.142,0.392c-0.25-0.077-0.503-0.112-0.751-0.112c-0.057,0-0.113,0.002-0.167,0.005
			L21.3,31.915c-0.373,0.022-0.734,0.116-1.062,0.269l0.2,0.369c-0.276,0.127-0.526,0.304-0.732,0.522l-0.339-0.27
			c-0.236,0.249-0.425,0.545-0.545,0.881l0.425,0.131c-0.102,0.281-0.138,0.568-0.117,0.848l-0.448,0.029
			c0.026,0.344,0.126,0.675,0.291,0.979l0.402-0.186c0.138,0.255,0.33,0.485,0.567,0.675l-0.294,0.313
			c0.272,0.217,0.594,0.392,0.957,0.502l0.143-0.392c0.249,0.077,0.502,0.112,0.752,0.112c0.055,0,0.112-0.002,0.166-0.006
			l0.032,0.415c0.373-0.024,0.734-0.118,1.062-0.269l-0.2-0.371c0.276-0.127,0.526-0.306,0.733-0.522l0.338,0.271
			c0.236-0.251,0.425-0.548,0.546-0.883l-0.426-0.133C23.853,34.922,23.889,34.635,23.868,34.357z M22.589,34.845
			c-0.161,0.444-0.609,0.726-1.089,0.726c-0.121,0-0.244-0.019-0.364-0.055c-0.603-0.186-0.927-0.785-0.727-1.34
			c0.162-0.444,0.61-0.726,1.091-0.726c0.121,0,0.243,0.019,0.363,0.057C22.465,33.69,22.79,34.29,22.589,34.845z"/>
		<path id="engrenage_3_" fill-rule="evenodd" clip-rule="evenodd" fill="#C7CA35" d="M28.152,33.882l0.313-0.059
			c-0.053-0.238-0.158-0.465-0.305-0.665l-0.264,0.167c-0.123-0.169-0.282-0.315-0.469-0.432l0.176-0.243
			c-0.214-0.13-0.458-0.224-0.726-0.272l-0.061,0.289c-0.183-0.032-0.365-0.038-0.541-0.016c-0.04,0.006-0.08,0.01-0.118,0.02
			l-0.064-0.289c-0.26,0.049-0.506,0.145-0.722,0.279l0.179,0.246c-0.183,0.112-0.341,0.258-0.465,0.433l-0.266-0.163
			c-0.142,0.194-0.244,0.422-0.296,0.667l0.313,0.057c-0.043,0.208-0.04,0.414,0.003,0.608l-0.313,0.059
			c0.054,0.238,0.159,0.467,0.304,0.665l0.265-0.165c0.124,0.167,0.283,0.315,0.469,0.428L25.39,35.74
			c0.214,0.132,0.458,0.228,0.726,0.272l0.061-0.287c0.183,0.032,0.366,0.036,0.542,0.014c0.039-0.004,0.079-0.01,0.118-0.018
			l0.063,0.289c0.261-0.051,0.506-0.146,0.723-0.281l-0.178-0.244c0.182-0.114,0.34-0.26,0.463-0.431l0.267,0.161
			c0.141-0.196,0.243-0.422,0.295-0.669l-0.314-0.055C28.198,34.282,28.195,34.078,28.152,33.882z M27.299,34.337
			c-0.069,0.328-0.357,0.564-0.696,0.607c-0.085,0.009-0.173,0.007-0.262-0.01c-0.443-0.078-0.733-0.473-0.648-0.881
			c0.069-0.328,0.357-0.564,0.696-0.605c0.085-0.011,0.173-0.007,0.262,0.008C27.095,33.534,27.384,33.929,27.299,34.337z"/>
		<path id="engrenage_2_" fill-rule="evenodd" clip-rule="evenodd" fill="#F8AE1D" d="M12.015,28.259l0.325-0.021
			c-0.019-0.248-0.092-0.488-0.211-0.708l-0.291,0.134c-0.1-0.186-0.239-0.351-0.411-0.489l0.213-0.227
			c-0.196-0.157-0.429-0.282-0.692-0.363l-0.103,0.283c-0.181-0.056-0.364-0.082-0.544-0.082c-0.041,0-0.081,0.001-0.121,0.004
			l-0.023-0.299c-0.27,0.018-0.531,0.084-0.769,0.195l0.146,0.267c-0.2,0.092-0.382,0.22-0.531,0.378l-0.246-0.196
			c-0.17,0.182-0.307,0.396-0.394,0.638L8.67,27.87c-0.074,0.204-0.1,0.41-0.083,0.612l-0.324,0.021
			c0.019,0.249,0.091,0.489,0.21,0.709l0.291-0.133c0.101,0.183,0.239,0.351,0.411,0.487l-0.212,0.226
			c0.196,0.159,0.43,0.285,0.693,0.366l0.102-0.285c0.181,0.056,0.364,0.083,0.544,0.083c0.041,0,0.081-0.002,0.121-0.003
			l0.023,0.297c0.27-0.017,0.531-0.084,0.77-0.194l-0.146-0.266c0.2-0.094,0.381-0.222,0.53-0.38l0.246,0.196
			c0.17-0.182,0.307-0.396,0.394-0.638l-0.308-0.094C12.004,28.668,12.031,28.46,12.015,28.259z M11.01,28.588
			c-0.104,0.29-0.396,0.472-0.709,0.472c-0.079,0-0.158-0.012-0.237-0.035c-0.392-0.121-0.603-0.511-0.473-0.873
			c0.105-0.289,0.397-0.47,0.709-0.47c0.079,0,0.158,0.01,0.237,0.036C10.929,27.838,11.141,28.229,11.01,28.588z"/>
		<path id="engrenage_1_" fill-rule="evenodd" clip-rule="evenodd" fill="#E53328" d="M22.109,24.635l0.372-0.053
			c-0.048-0.286-0.157-0.557-0.318-0.8l-0.322,0.181c-0.135-0.205-0.313-0.385-0.525-0.529l0.223-0.28
			c-0.244-0.164-0.527-0.289-0.839-0.359l-0.089,0.338c-0.214-0.049-0.429-0.063-0.637-0.046c-0.046,0.003-0.093,0.009-0.14,0.016
			l-0.057-0.344c-0.309,0.045-0.605,0.146-0.869,0.293l0.196,0.297c-0.221,0.124-0.417,0.288-0.573,0.483l-0.303-0.204
			c-0.179,0.225-0.313,0.485-0.39,0.772l0.366,0.082c-0.064,0.242-0.073,0.485-0.034,0.716l-0.372,0.054
			c0.048,0.286,0.157,0.558,0.317,0.8l0.322-0.181c0.134,0.205,0.313,0.385,0.525,0.529l-0.222,0.28
			c0.243,0.164,0.526,0.289,0.838,0.358l0.089-0.337c0.214,0.048,0.429,0.061,0.638,0.046c0.047-0.004,0.093-0.009,0.14-0.016
			l0.057,0.344c0.31-0.045,0.604-0.145,0.869-0.293l-0.197-0.296c0.223-0.125,0.417-0.289,0.573-0.485l0.305,0.205
			c0.178-0.224,0.313-0.486,0.389-0.772l-0.366-0.083C22.14,25.109,22.148,24.867,22.109,24.635z M21.077,25.127
			c-0.1,0.381-0.454,0.645-0.856,0.676c-0.1,0.008-0.205,0-0.308-0.022c-0.518-0.116-0.835-0.597-0.71-1.073
			c0.102-0.383,0.455-0.646,0.857-0.677c0.101-0.007,0.205,0,0.309,0.023C20.886,24.169,21.203,24.649,21.077,25.127z"/>
		<path id="engrenage" fill-rule="evenodd" clip-rule="evenodd" fill="#EF7E24" d="M18.433,22.453l0.155-0.01
			c-0.009-0.119-0.044-0.235-0.102-0.341l-0.14,0.064c-0.048-0.089-0.114-0.169-0.197-0.235l0.103-0.11
			c-0.095-0.076-0.208-0.136-0.334-0.175l-0.049,0.137c-0.087-0.027-0.175-0.039-0.262-0.039c-0.02,0-0.04,0.001-0.058,0.001
			l-0.012-0.143c-0.13,0.008-0.255,0.041-0.37,0.092l0.069,0.129c-0.096,0.045-0.183,0.107-0.255,0.183l-0.118-0.095
			c-0.083,0.087-0.148,0.191-0.19,0.308l0.147,0.045c-0.035,0.098-0.047,0.198-0.04,0.294l-0.157,0.01
			c0.01,0.12,0.045,0.235,0.103,0.341l0.139-0.063c0.049,0.088,0.115,0.168,0.198,0.234l-0.102,0.109
			c0.094,0.076,0.207,0.137,0.333,0.175l0.05-0.137c0.086,0.027,0.174,0.039,0.262,0.039c0.02,0,0.039,0,0.059-0.001l0.01,0.144
			c0.13-0.008,0.256-0.041,0.37-0.093l-0.069-0.13c0.096-0.044,0.184-0.105,0.256-0.182l0.118,0.095
			c0.083-0.087,0.147-0.191,0.19-0.308l-0.148-0.045C18.427,22.651,18.44,22.551,18.433,22.453z M17.987,22.625
			c-0.057,0.154-0.212,0.252-0.38,0.252c-0.042,0-0.085-0.006-0.127-0.019c-0.21-0.065-0.323-0.274-0.253-0.467
			c0.056-0.155,0.212-0.253,0.38-0.253c0.042,0,0.084,0.006,0.127,0.02C17.943,22.222,18.056,22.431,17.987,22.625z"/>
		<path id="engrenage_10_" fill-rule="evenodd" clip-rule="evenodd" fill="#C7CA35" d="M47.063,41.836l0.528-0.102
			c-0.09-0.404-0.266-0.785-0.514-1.122L46.63,40.89c-0.209-0.281-0.475-0.529-0.788-0.722l0.295-0.413
			c-0.36-0.221-0.772-0.38-1.224-0.461l-0.103,0.489c-0.31-0.054-0.617-0.063-0.915-0.026c-0.066,0.008-0.133,0.018-0.196,0.032
			l-0.11-0.487c-0.439,0.082-0.853,0.245-1.218,0.473l0.302,0.412c-0.308,0.191-0.576,0.438-0.783,0.728l-0.45-0.274
			c-0.238,0.334-0.41,0.715-0.499,1.131l0.528,0.094c-0.071,0.351-0.066,0.697,0.006,1.024l-0.527,0.102
			c0.091,0.405,0.267,0.785,0.515,1.123l0.445-0.279c0.207,0.283,0.476,0.53,0.79,0.722l-0.295,0.414
			c0.359,0.219,0.771,0.38,1.224,0.461l0.104-0.489c0.31,0.057,0.616,0.062,0.912,0.026c0.066-0.008,0.135-0.019,0.199-0.03
			l0.109,0.485c0.438-0.082,0.853-0.245,1.218-0.472l-0.301-0.413c0.307-0.19,0.573-0.437,0.781-0.729l0.452,0.275
			c0.235-0.334,0.409-0.714,0.497-1.13l-0.529-0.092C47.143,42.511,47.137,42.166,47.063,41.836z M45.625,42.603
			c-0.117,0.553-0.603,0.952-1.173,1.02c-0.146,0.019-0.295,0.015-0.444-0.012c-0.749-0.133-1.238-0.8-1.094-1.489
			c0.115-0.552,0.603-0.95,1.173-1.021c0.145-0.016,0.294-0.012,0.444,0.015C45.28,41.247,45.77,41.913,45.625,42.603z"/>
		<path id="engrenage_9_" fill-rule="evenodd" clip-rule="evenodd" fill="#E53328" d="M24.732,47.005l0.391-0.049
			c-0.045-0.3-0.155-0.586-0.319-0.843l-0.34,0.184c-0.138-0.216-0.321-0.407-0.541-0.559l0.237-0.293
			c-0.252-0.174-0.546-0.309-0.872-0.388l-0.099,0.353c-0.225-0.053-0.448-0.073-0.667-0.059c-0.049,0.004-0.098,0.008-0.147,0.016
			l-0.054-0.36c-0.325,0.041-0.635,0.143-0.915,0.295l0.2,0.313c-0.234,0.126-0.442,0.294-0.609,0.499l-0.315-0.22
			c-0.191,0.234-0.336,0.504-0.421,0.802l0.382,0.094c-0.071,0.254-0.084,0.507-0.047,0.748l-0.391,0.051
			c0.045,0.3,0.155,0.587,0.319,0.846l0.34-0.186c0.139,0.215,0.322,0.406,0.542,0.562l-0.238,0.289
			c0.252,0.176,0.546,0.312,0.873,0.388l0.099-0.353c0.224,0.055,0.448,0.073,0.667,0.059c0.049-0.004,0.098-0.008,0.146-0.014
			l0.055,0.36c0.326-0.041,0.636-0.145,0.916-0.294l-0.201-0.313c0.235-0.125,0.442-0.298,0.609-0.498l0.314,0.217
			c0.19-0.232,0.337-0.502,0.421-0.802l-0.382-0.092C24.756,47.504,24.769,47.249,24.732,47.005z M23.642,47.506
			c-0.112,0.398-0.487,0.669-0.909,0.697c-0.106,0.005-0.214-0.004-0.323-0.028c-0.541-0.132-0.865-0.64-0.724-1.136
			c0.112-0.399,0.487-0.669,0.909-0.697c0.105-0.006,0.215,0.002,0.323,0.029C23.458,46.501,23.782,47.009,23.642,47.506z"/>
		<g>
			<path fill="#1D9CD8" d="M17.064,25.073c-0.074-0.344-0.224-0.659-0.435-0.934l0.321-0.303l-0.693-0.623l-0.322,0.303
				c-0.302-0.188-0.649-0.318-1.023-0.377l-0.006-0.423l-0.484,0.006l-0.484,0.006l0.006,0.423
				c-0.371,0.068-0.715,0.208-1.012,0.401l-0.329-0.295l-0.677,0.639l0.33,0.296c-0.203,0.279-0.345,0.599-0.408,0.943l-0.46,0.005
				l0.013,0.893l0.459-0.006c0.073,0.343,0.224,0.659,0.435,0.933l-0.321,0.303l0.694,0.624l0.319-0.303
				c0.305,0.187,0.651,0.316,1.024,0.375l0.005,0.425l0.485-0.007l0.484-0.005l-0.005-0.424c0.371-0.068,0.714-0.208,1.012-0.401
				l0.33,0.296l0.675-0.641l-0.329-0.294c0.203-0.28,0.344-0.6,0.408-0.944l0.459-0.004l-0.013-0.894L17.064,25.073z M14.488,27.356
				L14.488,27.356c-1.083,0.013-1.97-0.785-1.984-1.782c-0.015-0.997,0.851-1.816,1.933-1.829l0,0
				c1.083-0.013,1.971,0.784,1.985,1.782C16.436,26.523,15.57,27.344,14.488,27.356z"/>
			<path fill="#1D9CD8" d="M14.479,26.762L14.479,26.762c-0.727,0.01-1.323-0.526-1.333-1.196c-0.009-0.67,0.571-1.22,1.298-1.229
				l0,0c0.727-0.009,1.324,0.528,1.333,1.196C15.788,26.205,15.206,26.753,14.479,26.762z"/>
		</g>
		<path id="barre_3_" fill="none" stroke="#B9BABD" stroke-width="0.5" stroke-miterlimit="10" d="M20.833,38.735
			c-0.007,2.291-0.007,4.648,0,6.934"/>
		<path id="barre_2_" fill="none" stroke="#B9BABD" stroke-width="0.5" stroke-miterlimit="10" d="M44.325,26.371
			c-0.017,4.236-0.017,8.598,0,12.82"/>
		<path id="barre_1_" fill="none" stroke="#B9BABD" stroke-width="0.5" stroke-miterlimit="10" d="M25.241,47.894
			c6.253,0.015,12.693,0.015,18.925,0"/>
		<path id="barre" fill="none" stroke="#B9BABD" stroke-width="0.5" stroke-miterlimit="10" d="M44.4,45.423
			c-0.008,0.889-0.008,1.8,0,2.683"/>
	</g>
</g>
<g id="titre">
	<g>
		<path fill="#59595C" d="M17.445,56.648c-0.245,0.122-0.734,0.244-1.361,0.244c-1.453,0-2.545-0.917-2.545-2.606
			c0-1.613,1.093-2.706,2.691-2.706c0.642,0,1.047,0.138,1.223,0.229l-0.161,0.542c-0.252-0.122-0.612-0.214-1.04-0.214
			c-1.208,0-2.011,0.772-2.011,2.125c0,1.262,0.726,2.072,1.98,2.072c0.405,0,0.818-0.084,1.085-0.214L17.445,56.648z"/>
		<path fill="#59595C" d="M18.282,51.732c0.336-0.068,0.818-0.106,1.276-0.106c0.711,0,1.17,0.13,1.491,0.42
			c0.26,0.229,0.405,0.581,0.405,0.979c0,0.681-0.428,1.132-0.971,1.315v0.022c0.397,0.138,0.634,0.505,0.757,1.04
			c0.168,0.719,0.291,1.215,0.397,1.414H20.95c-0.084-0.146-0.199-0.589-0.344-1.23c-0.153-0.711-0.428-0.979-1.032-1.002h-0.627
			v2.232h-0.665V51.732z M18.947,54.08h0.68c0.711,0,1.162-0.391,1.162-0.979c0-0.666-0.481-0.956-1.185-0.964
			c-0.321,0-0.55,0.031-0.657,0.062V54.08z"/>
		<path fill="#59595C" d="M25.066,54.4h-2.003v1.858h2.232v0.558h-2.897v-5.152h2.783v0.558h-2.118v1.629h2.003V54.4z"/>
		<path fill="#59595C" d="M26.996,55.195l-0.535,1.621h-0.688l1.751-5.152h0.803l1.758,5.152h-0.711l-0.55-1.621H26.996z
			 M28.685,54.676l-0.504-1.483c-0.115-0.336-0.191-0.642-0.268-0.939h-0.015c-0.077,0.306-0.161,0.619-0.26,0.933l-0.505,1.49
			H28.685z"/>
		<path fill="#59595C" d="M31.234,52.229h-1.567v-0.565h3.815v0.565h-1.575v4.587h-0.673V52.229z"/>
		<path fill="#59595C" d="M34.724,51.664v5.152h-0.665v-5.152H34.724z"/>
		<path fill="#59595C" d="M37.019,56.816l-1.683-5.152h0.719l0.803,2.538c0.222,0.695,0.413,1.322,0.551,1.926h0.015
			c0.146-0.596,0.359-1.246,0.589-1.918l0.872-2.546h0.711l-1.843,5.152H37.019z"/>
		<path fill="#59595C" d="M40.821,51.664v5.152h-0.665v-5.152H40.821z"/>
		<path fill="#59595C" d="M42.964,52.229h-1.567v-0.565h3.814v0.565h-1.574v4.587h-0.673V52.229z"/>
		<path fill="#59595C" d="M47.148,56.816V54.63l-1.628-2.966h0.757l0.726,1.422c0.199,0.39,0.353,0.703,0.513,1.063h0.016
			c0.145-0.336,0.32-0.673,0.52-1.063l0.741-1.422h0.757l-1.728,2.958v2.194H47.148z"/>
	</g>
</g>
</svg>
