<?xml version="1.0" encoding="utf-8"?>
<!-- Generator: Adobe Illustrator 16.0.0, SVG Export Plug-In . SVG Version: 6.00 Build 0)  -->
<!DOCTYPE svg PUBLIC "-//W3C//DTD SVG 1.1//EN" "http://www.w3.org/Graphics/SVG/1.1/DTD/svg11.dtd">
<svg version="1.1" xmlns="http://www.w3.org/2000/svg" xmlns:xlink="http://www.w3.org/1999/xlink" x="0px" y="0px" width="394px"
	 height="390px" viewBox="0 0 394 390" enable-background="new 0 0 394 390" xml:space="preserve">
<g id="titre">
	<g id="texte">
		<g>
			<path fill="#59595B" d="M86.422,370.476c-1.748,0.874-5.244,1.747-9.723,1.747c-10.379,0-18.19-6.554-18.19-18.626
				c0-11.525,7.812-19.337,19.228-19.337c4.589,0,7.484,0.982,8.74,1.639l-1.147,3.877c-1.802-0.873-4.37-1.527-7.428-1.527
				c-8.631,0-14.367,5.516-14.367,15.185c0,9.014,5.189,14.804,14.148,14.804c2.895,0,5.845-0.601,7.757-1.53L86.422,370.476z"/>
			<path fill="#59595B" d="M99.945,334.861v21.795c0,8.247,3.66,11.743,8.576,11.743c5.462,0,8.958-3.605,8.958-11.743v-21.795
				h4.808v21.466c0,11.309-5.955,15.951-13.929,15.951c-7.539,0-13.219-4.315-13.219-15.731v-21.686H99.945z"/>
			<path fill="#59595B" d="M130.352,335.352c2.403-0.49,5.845-0.765,9.123-0.765c5.08,0,8.357,0.929,10.651,3.005
				c1.857,1.639,2.895,4.15,2.895,6.992c0,4.861-3.059,8.084-6.937,9.396v0.163c2.84,0.983,4.534,3.605,5.407,7.43
				c1.202,5.134,2.076,8.685,2.841,10.104h-4.916c-0.601-1.037-1.42-4.206-2.458-8.794c-1.093-5.08-3.06-6.992-7.375-7.156h-4.479
				v15.95h-4.752V335.352z M135.104,352.121h4.862c5.08,0,8.303-2.786,8.303-6.991c0-4.753-3.441-6.828-8.467-6.882
				c-2.294,0-3.933,0.218-4.698,0.437V352.121z"/>
			<path fill="#59595B" d="M165.31,334.861v36.815h-4.752v-36.815H165.31z"/>
			<path fill="#59595B" d="M220.229,365.887c2.132,1.311,5.244,2.403,8.522,2.403c4.86,0,7.701-2.567,7.701-6.281
				c0-3.441-1.967-5.408-6.938-7.319c-6.008-2.132-9.723-5.244-9.723-10.434c0-5.735,4.752-9.996,11.908-9.996
				c3.769,0,6.5,0.874,8.139,1.803l-1.312,3.878c-1.201-0.655-3.66-1.748-6.991-1.748c-5.025,0-6.938,3.005-6.938,5.517
				c0,3.441,2.239,5.136,7.319,7.102c6.229,2.403,9.396,5.407,9.396,10.815c0,5.681-4.206,10.597-12.891,10.597
				c-3.552,0-7.429-1.037-9.396-2.348L220.229,365.887z"/>
			<path fill="#59595B" d="M253.384,334.861v36.815h-4.752v-36.815H253.384z"/>
			<path fill="#59595B" d="M269.497,338.902H258.3v-4.041h27.257v4.041h-11.253v32.774h-4.807V338.902z"/>
			<path fill="#59595B" d="M300.193,371.677v-15.622l-11.635-21.193h5.408l5.189,10.159c1.42,2.786,2.514,5.026,3.66,7.593h0.109
				c1.037-2.403,2.294-4.807,3.714-7.593l5.298-10.159h5.408L305,356v15.677H300.193z"/>
			<g id="icon-lupe_10_" sketch:type="MSLayerGroup">
				<path id="Fill-3_10_" sketch:type="MSShapeGroup" fill="#08B3BA" d="M209.604,336.534c-4.178-4.179-9.73-6.477-15.638-6.477
					c-5.903,0-11.456,2.298-15.637,6.477c-8.618,8.619-8.618,22.645,0,31.269c4.181,4.176,9.733,6.474,15.637,6.474
					c5.907,0,11.46-2.298,15.638-6.474C218.223,359.182,218.223,345.153,209.604,336.534 M207.871,366.073
					c-3.716,3.711-8.651,5.755-13.905,5.755c-5.253,0-10.189-2.044-13.907-5.755c-7.663-7.669-7.663-20.143,0-27.81
					c3.718-3.714,8.654-5.76,13.907-5.76c5.254,0,10.189,2.046,13.905,5.76C215.539,345.931,215.539,358.404,207.871,366.073"/>
				<path id="Fill-4_10_" sketch:type="MSShapeGroup" fill="#08B3BA" d="M201.707,340.816l-12.125,12.124
					c-0.481,0.478-0.481,1.254,0,1.729c0.236,0.238,0.552,0.364,0.866,0.364c0.311,0,0.626-0.126,0.862-0.364l12.128-12.123
					c0.478-0.479,0.478-1.251,0-1.729C202.958,340.336,202.185,340.336,201.707,340.816"/>
				<path id="Fill-5_10_" sketch:type="MSShapeGroup" fill="#08B3BA" d="M198.345,351.891l-8.763,8.763
					c-0.481,0.478-0.481,1.253,0,1.733c0.238,0.237,0.552,0.355,0.866,0.355c0.311,0,0.626-0.118,0.862-0.355l8.768-8.764
					c0.477-0.481,0.477-1.252,0-1.732C199.597,351.412,198.822,351.412,198.345,351.891"/>
				<path id="Fill-6_10_" sketch:type="MSShapeGroup" fill="#08B3BA" d="M185.793,356.729l-2.529,2.532
					c-0.478,0.477-0.478,1.255,0,1.729c0.238,0.239,0.549,0.361,0.863,0.361s0.629-0.122,0.867-0.361l2.529-2.53
					c0.477-0.479,0.477-1.253,0-1.731C187.044,356.248,186.268,356.248,185.793,356.729"/>
			</g>
		</g>
	</g>
</g>
<g id="bonhomme">
	<g>
		<g>
			<g>
				<g>
					<g>
						<path fill="#273140" d="M98.055,292.678l5.836,3.742l2.026,2.975c0,0-2.076,1.039-3.242,1.329
							c-1.167,0.29-10.417-0.698-10.417-0.698l-0.25-5.416L98.055,292.678z"/>
					</g>
					<g>
						<path fill="#273140" d="M71.888,296.763l2.885,3.235c0,0,2.346,4.384,1.169,4.316c-1.176-0.067-7.571,0.276-8.002-0.457
							c-0.43-0.733-3.826-3.288-4.27-3.785c-0.444-0.498,0.01-4.613,0.01-4.613L71.888,296.763z"/>
					</g>
					<g>
						<path fill="#2E4661" d="M85.382,210.724l-6.298,44.122l-7.87,42.05l-6.577-0.376l1.777-44.287c0,0-4.276-40.621-4.154-52.656
							L85.382,210.724z"/>
					</g>
					<g>
						<polygon fill="#2E4661" points="100.573,213.034 98.177,294.324 90.803,294.666 86.632,253.325 80.701,216.828 95.81,194.376 
													"/>
					</g>
					<g>
						<g>
							<polygon fill="none" points="67.922,141.61 67.922,141.61 67.922,141.61 							"/>
						</g>
						<g>
							<path fill="#7D668E" d="M101.078,166.845c-3.877-19.956,0.933-29.555-7.43-35.126c0,0-13.607-4.062-22.245,2.59
								c-0.12,0.092-0.238,0.186-0.356,0.281l-3.125,7.021l-2.286,31.537c0,0-6.547,41.392-3,41.739
								c4.019,0.393,22.433-8.782,25.936-8.552c3.502,0.229,14.222,2.329,24.323-1.336
								C121.555,201.855,104.955,186.801,101.078,166.845z"/>
						</g>
					</g>
					<g>
						<polygon fill="#FFFFFF" points="79.413,131.337 76.33,131.452 76.016,134.555 87.342,166.229 89.88,152.503 87.108,132.569 
													"/>
					</g>
					<g>
						<polygon fill="#FFFFFF" points="90.15,178.401 86.331,205.962 94.384,207 99.952,206.604 92.909,182.694 						"/>
					</g>
					<g>
						<g>
							<path fill="#E7CAAD" d="M83.59,132.71c-2.113,0.087-4.226,0.174-6.338,0.261c-0.255-1.667-0.377-3.354-0.365-5.041
								c-1.823-0.366-3.958-0.999-4.517-2.772c-0.176-0.559-0.16-1.157-0.142-1.742c0.076-2.42-0.604-4.873,0.227-7.259
								c0.275-0.791,0.058-1.699,0.403-2.462c0.606-1.339,2.044-2.089,3.442-2.539c3.568-1.151,7.666-0.92,10.84,1.076
								c0.845,0.531,1.635,1.202,2.099,2.085c0.715,1.362,0.554,2.999,0.375,4.527c-0.166,1.41-0.332,2.82-0.497,4.231
								c-0.19,1.622-0.533,3.483-1.957,4.282c-0.757,0.425-1.714,0.467-2.374,1.029C83.624,129.38,84.063,131.255,83.59,132.71z"/>
						</g>
						<g>
							<path fill="#3A3029" d="M92.674,101.27c-0.475-0.044-0.959-0.102-1.461-0.271c-1.581-0.533-2.762-1.774-4.435-2.261
								c-3.382-0.982-7.475-0.451-10.578,1.175c-2.969,1.556-7.129,2.41-9.738,4.384c-1.089,0.824-3.705,12.94-0.623,16.532
								c0.692,0.805,1.484,1.519,2.306,2.191c1.7,1.392,3.743,3.119,5.855,3.426c-0.208-1.822-2.667-7.313-1.483-8.996
								c1.571-2.233,5.005-2.471,7.482-2.449c2.951,0.026,5.282-1.118,8.215-1.22c1.494-0.051,3.202,0.105,4.261-0.949
								c1.225-1.219,3.714-4.972,4.244-6.571c0.465-1.4-0.063-3.032-1.159-4.019C94.614,101.39,93.667,101.361,92.674,101.27z"/>
						</g>
						<path fill="#3A3029" d="M63.501,129.535c3.707,1.065,9.924-3.027,9.924-3.027l-6.256-22.212c0,0-12.669,9.268-12.669,19.916"
							/>
					</g>
				</g>
				<g>
					<path fill="#7D668E" d="M112.545,148.909l-19.199-17.395l-4.617,3.893l15.892,26.541l7.174,0.688c0,0,2.066-7.389,2.492-8.172
						L112.545,148.909z"/>
				</g>
			</g>
			<g>
				<g>
					<path fill="#009FE3" d="M21.86,277.913c-3.618-1.14-7.131-0.842-10.44,0.883c-3.31,1.725-5.565,4.435-6.704,8.053
						c-1.14,3.623-0.842,7.136,0.883,10.441c1.725,3.309,4.435,5.563,8.053,6.703c1.435,0.451,2.853,0.677,4.25,0.677
						c2.122,0,4.193-0.521,6.191-1.561c3.309-1.726,5.564-4.435,6.703-8.053c1.137-3.615,0.84-7.128-0.884-10.442
						C28.184,281.306,25.475,279.05,21.86,277.913z"/>
				</g>
				<g>
					<g>
						<path fill="#009FE3" d="M29.912,284.614c-1.728-3.309-4.438-5.564-8.052-6.701c-1.168-0.368-2.324-0.583-3.467-0.652
							c2.273,1.268,4.058,3.117,5.317,5.53c1.725,3.314,2.022,6.826,0.884,10.441c-1.139,3.619-3.394,6.328-6.703,8.053
							c-1.999,1.039-4.069,1.561-6.191,1.561c-0.261,0-0.523-0.011-0.786-0.026c0.846,0.471,1.757,0.864,2.738,1.174
							c1.435,0.451,2.853,0.677,4.25,0.677c2.122,0,4.193-0.521,6.191-1.561c3.309-1.726,5.564-4.435,6.703-8.053
							C31.934,291.441,31.637,287.929,29.912,284.614z"/>
					</g>
				</g>
				<g>
					<path fill="#009FE3" d="M97.922,188.75c-5.646-9.862-15.139-16.948-28.212-21.063c-13.07-4.113-24.97-3.763-35.37,1.043
						c-9.04,4.177-15.666,11.264-19.693,21.063c-0.679,1.651-0.634,3.527,0.124,5.144c0.757,1.618,2.168,2.853,3.871,3.389
						l7.785,2.449c3.106,0.978,6.446-0.535,7.767-3.521c2.342-5.294,5.663-8.885,10.153-10.979
						c5.435-2.535,11.994-2.623,19.491-0.264c7.475,2.353,12.728,6.252,15.613,11.591c2.871,5.32,3.157,11.735,0.851,19.063
						c-3.179,10.103-8.214,15.997-14.965,17.521c-7.11,1.604-17.095,0.338-29.698-3.767l-3.369-1.061
						c-3.363-1.059-6.959,0.817-8.017,4.179l-9.232,29.338c-0.513,1.629-0.36,3.36,0.429,4.874c0.789,1.515,2.121,2.631,3.75,3.144
						l7.896,2.485c0.637,0.199,1.281,0.295,1.915,0.295c2.718-0.001,5.244-1.749,6.102-4.475l5.979-18.999
						c0.074-0.235,0.326-0.372,0.561-0.306c14.837,4.236,27.169,4.527,36.652,0.862c10.085-3.899,17.384-12.818,21.694-26.513
						C104.291,210.604,103.592,198.663,97.922,188.75z"/>
				</g>
				<g>
					<g>
						<path fill="#009FE3" d="M97.922,188.75c-5.646-9.862-15.139-16.948-28.212-21.063c-8.093-2.547-15.736-3.38-22.853-2.506
							c3.735,0.426,7.585,1.26,11.544,2.506c13.074,4.114,22.566,11.2,28.213,21.063c5.67,9.913,6.368,21.854,2.076,35.494
							c-4.31,13.694-11.608,22.613-21.694,26.513c-2.913,1.125-6.096,1.876-9.536,2.256c7.988,0.767,14.964,0.016,20.844-2.256
							c10.085-3.899,17.384-12.818,21.694-26.513C104.291,210.604,103.592,198.663,97.922,188.75z"/>
					</g>
				</g>
			</g>
			<g>
				<polygon fill="#7D668E" points="69.508,139.883 62.033,142.186 44.148,172.672 45.367,178.566 68.537,190.15 71.788,183.85 
					57.155,172.672 66.098,160.478 69.553,140.967 				"/>
			</g>
			<g>
				<polygon fill="#D6BBA0" points="92.97,131.832 88.351,126.87 83.898,128.106 82.661,132.559 86.619,133.301 90.336,134.052 				
					"/>
			</g>
			<g>
				<polygon fill="#E7CAAD" points="71.825,183.817 76.268,184.732 75.555,187.349 79.403,191.852 74.127,193.771 68.96,189.367 
									"/>
			</g>
		</g>
	</g>
</g>
<g id="nuage">
	<g opacity="0.6">
		<g>
			<g>
				<path fill="#D5DBDB" d="M22.432,60.114c-2.196,2.13-3.521,4.901-3.508,7.929c0.029,6.687,6.561,12.087,14.586,12.063
					c2.49-0.009,4.831-0.538,6.875-1.464c2.697,7.145,10.726,12.315,20.188,12.287c7.6-0.023,14.243-3.396,17.929-8.432
					c4.71,4.786,11.868,7.833,19.876,7.807c14.12-0.042,25.525-9.615,25.472-21.38c-0.006-1.537-0.213-3.034-0.591-4.479
					c8.68-2.194,14.983-8.923,14.948-16.867c-0.043-9.699-9.515-17.531-21.157-17.496c-1.517,0.005-2.994,0.146-4.418,0.403
					c0.004-0.129,0.01-0.258,0.01-0.39c-0.029-6.687-6.56-12.087-14.586-12.063c-4.138,0.013-7.862,1.467-10.498,3.787
					c-4.42-6.447-12.758-10.784-22.306-10.755c-12.672,0.039-23.151,7.754-25.129,17.84c-1.724-0.374-3.531-0.571-5.395-0.565
					c-11.641,0.036-21.042,7.927-21,17.626C13.755,51.788,17.181,56.936,22.432,60.114z M45.494,61.035
					c-0.029,0.024-0.057,0.051-0.085,0.076c-0.007-0.008-0.015-0.016-0.022-0.025C45.422,61.068,45.458,61.053,45.494,61.035z"/>
			</g>
		</g>
		<g>
			<g>
				<path fill="#D5DBDB" d="M283.882,281.956c2.21,11.426-7.165,22.175-20.935,24.01c-5.648,0.751-11.156-0.117-15.844-2.187
					c-2.057,5.934-8.07,10.655-15.903,11.7c-10.801,1.438-20.96-4.665-22.69-13.624c-0.255-1.318-0.309-2.623-0.188-3.899
					c-9.469,0.778-18.147-4.691-19.674-12.591c-1.586-8.207,5.145-15.928,15.033-17.243c2.035-0.272,4.043-0.247,5.967,0.03
					c1.967-8.385,10.039-15.256,20.794-16.688c11.871-1.578,23.13,3.988,27.425,12.875
					C270.506,263.877,281.83,271.338,283.882,281.956z"/>
			</g>
		</g>
		<g>
			<g>
				<path fill="#D5DBDB" d="M366.882,54.956c2.21,11.426-7.165,22.175-20.935,24.01c-5.648,0.751-11.156-0.117-15.844-2.187
					c-2.057,5.934-8.07,10.655-15.903,11.7c-10.801,1.438-20.96-4.665-22.69-13.624c-0.255-1.318-0.309-2.623-0.188-3.899
					c-9.469,0.778-18.146-4.691-19.674-12.591c-1.586-8.207,5.145-15.928,15.033-17.243c2.035-0.272,4.043-0.247,5.967,0.03
					c1.967-8.385,10.039-15.255,20.794-16.687c11.871-1.579,23.13,3.988,27.425,12.875C353.506,36.877,364.83,44.338,366.882,54.956
					z"/>
			</g>
		</g>
	</g>
</g>
<g id="Loupe">
	<g id="loupe" sketch:type="MSLayerGroup">
		<path id="Fill-3_2_" sketch:type="MSShapeGroup" fill="#009FE3" d="M265.148,106.014c-12.873-12.876-29.982-19.957-48.185-19.957
			c-18.19,0-35.301,7.081-48.183,19.957c-26.556,26.559-26.556,69.776,0,96.35c12.882,12.866,29.992,19.947,48.183,19.947
			c18.202,0,35.312-7.081,48.185-19.947C291.707,175.799,291.707,132.573,265.148,106.014 M259.811,197.035
			c-11.449,11.435-26.658,17.732-42.847,17.732c-16.187,0-31.397-6.298-42.854-17.732c-23.609-23.631-23.609-62.067,0-85.692
			c11.456-11.444,26.667-17.748,42.854-17.748c16.188,0,31.397,6.304,42.847,17.748
			C283.438,134.968,283.438,173.404,259.811,197.035"/>
		<path id="Fill-4_2_" sketch:type="MSShapeGroup" fill="#08B3BA" d="M240.817,119.209l-37.362,37.358
			c-1.483,1.472-1.483,3.864,0,5.326c0.729,0.734,1.7,1.123,2.67,1.123c0.957,0,1.929-0.389,2.656-1.123l37.371-37.355
			c1.472-1.475,1.472-3.855,0-5.329C244.672,117.729,242.288,117.729,240.817,119.209"/>
		<path id="Fill-5_2_" sketch:type="MSShapeGroup" fill="#08B3BA" d="M230.457,153.333l-27.002,27.001
			c-1.483,1.472-1.483,3.86,0,5.341c0.734,0.731,1.7,1.096,2.67,1.096c0.957,0,1.929-0.364,2.656-1.096l27.017-27.004
			c1.469-1.483,1.469-3.857,0-5.338C234.314,151.858,231.928,151.858,230.457,153.333"/>
		<path id="Fill-6_2_" sketch:type="MSShapeGroup" fill="#08B3BA" d="M191.78,168.24l-7.794,7.803c-1.472,1.469-1.472,3.867,0,5.329
			c0.734,0.737,1.691,1.113,2.66,1.113s1.938-0.376,2.672-1.113l7.794-7.797c1.469-1.475,1.469-3.86,0-5.335
			C195.635,166.76,193.242,166.76,191.78,168.24"/>
	</g>
	<path id="Fill-2" sketch:type="MSShapeGroup" fill="#009FE3" d="M362.618,269.343l-69.086-69.076
		c8.169-13.594,12.521-29.185,12.521-45.451c0-23.635-9.194-45.859-25.906-62.56c-16.708-16.711-38.926-25.925-62.56-25.925
		s-45.859,9.213-62.569,25.925c-34.493,34.492-34.493,90.62,0,125.121c16.71,16.71,38.936,25.915,62.569,25.915
		c16.319,0,31.958-4.39,45.578-12.612l69.122,69.122c3.952,3.844,9.258,5.96,14.965,5.96c11.768,0,21.354-9.577,21.354-21.354
		C368.605,278.738,366.443,273.278,362.618,269.343 M163.858,208.545c-29.622-29.632-29.622-77.835,0-107.458
		c14.356-14.347,33.438-22.252,53.729-22.252s39.372,7.905,53.72,22.252c14.355,14.357,22.253,33.429,22.253,53.729
		s-7.897,39.372-22.253,53.729c-14.348,14.348-33.43,22.244-53.72,22.244S178.206,222.893,163.858,208.545 M347.252,293.259
		c-2.39,0-4.671-0.873-6.188-2.363l-67.531-67.521c2.29-1.881,4.488-3.879,6.614-5.997c2.153-2.154,4.182-4.415,6.089-6.741
		l67.477,67.485c1.528,1.552,2.391,3.853,2.391,6.287C356.103,289.287,352.131,293.259,347.252,293.259"/>
</g>
</svg>
