<?xml version="1.0" encoding="utf-8"?>
<!-- Generator: Adobe Illustrator 16.0.0, SVG Export Plug-In . SVG Version: 6.00 Build 0)  -->
<!DOCTYPE svg PUBLIC "-//W3C//DTD SVG 1.1//EN" "http://www.w3.org/Graphics/SVG/1.1/DTD/svg11.dtd">
<svg version="1.1" id="Calque_1" xmlns="http://www.w3.org/2000/svg" xmlns:xlink="http://www.w3.org/1999/xlink" x="0px" y="0px"
	 width="250px" height="250px" viewBox="0 0 250 250" enable-background="new 0 0 250 250" xml:space="preserve">
<g>
	<ellipse opacity="0.61" fill="#DCD9E2" cx="121.071" cy="233.873" rx="47.699" ry="5.019"/>
	<path fill="#AAA8BE" d="M162.089,85.445v5.224h-11.937v-5.224h-2.754v5.224v2.923v24.258H95.982V93.592v-2.923v-5.224h-2.753v5.224
		H81.294v-5.224H78.54v5.224v2.923v134.584v5.224h2.754v-5.224v-20.254l5.937-6.864l5.999,6.935v20.184v5.224h2.753v-5.224v-51.427
		h51.416v51.427v5.224h2.754v-5.224v-20.254l5.938-6.864l5.999,6.935v20.184v5.224h2.753v-5.224V93.592v-2.923v-5.224H162.089z
		 M154.304,100.566l-4.151,4.793v-9.588L154.304,100.566z M151.853,93.592h8.484l-4.247,4.904L151.853,93.592z M150.152,123.892
		l4.151,4.792l-4.151,4.796V123.892z M150.152,137.954l4.151,4.795l-4.151,4.793V137.954z M150.152,152.017l4.151,4.793
		l-4.151,4.796V152.017z M151.801,163.84l4.289-4.965l4.294,4.965l-4.294,4.963L151.801,163.84z M154.304,170.867l-4.151,4.796
		v-9.589L154.304,170.867z M151.801,149.777l4.289-4.96l4.294,4.96l-4.294,4.964L151.801,149.777z M151.801,135.72l4.289-4.963
		l4.294,4.963l-4.294,4.958L151.801,135.72z M151.801,121.657l4.289-4.963l4.294,4.963l-4.294,4.963L151.801,121.657z
		 M150.152,119.423v-9.588l4.151,4.793L150.152,119.423z M150.152,180.136l4.151,4.796l-4.151,4.792V180.136z M151.801,177.901
		l4.289-4.963l4.294,4.963l-4.294,4.959L151.801,177.901z M162.089,189.795l-4.207-4.863l4.207-4.865V189.795z M157.882,170.867
		l4.207-4.863v9.728L157.882,170.867z M157.882,156.81l4.207-4.863v9.728L157.882,156.81z M157.882,142.749l4.207-4.864v9.728
		L157.882,142.749z M157.882,128.685l4.207-4.863v9.727L157.882,128.685z M157.882,114.628l4.207-4.864v9.727L157.882,114.628z
		 M156.09,112.559l-4.289-4.964l4.289-4.958l4.294,4.958L156.09,112.559z M156.09,187.001l4.294,4.959l-4.294,4.962l-4.289-4.962
		L156.09,187.001z M162.089,105.43l-4.207-4.863l4.207-4.863V105.43z M91.523,163.84l-4.293,4.963l-4.291-4.963l4.291-4.965
		L91.523,163.84z M89.021,156.81l4.209-4.863v9.728L89.021,156.81z M87.23,154.741l-4.291-4.964l4.291-4.96l4.293,4.96
		L87.23,154.741z M89.021,142.749l4.209-4.864v9.728L89.021,142.749z M87.23,140.678l-4.291-4.958l4.291-4.963l4.293,4.963
		L87.23,140.678z M89.021,128.685l4.209-4.863v9.727L89.021,128.685z M87.23,126.62l-4.291-4.963l4.291-4.963l4.293,4.963
		L87.23,126.62z M89.021,114.628l4.209-4.864v9.727L89.021,114.628z M87.23,112.559l-4.291-4.964l4.291-4.958l4.293,4.958
		L87.23,112.559z M85.442,114.628l-4.148,4.795v-9.588L85.442,114.628z M85.442,128.685l-4.148,4.796v-9.588L85.442,128.685z
		 M85.442,142.749l-4.148,4.793v-9.588L85.442,142.749z M85.442,156.81l-4.148,4.796v-9.589L85.442,156.81z M85.442,170.867
		l-4.148,4.796v-9.589L85.442,170.867z M81.294,180.136l4.148,4.796l-4.148,4.792V180.136z M82.939,177.901l4.291-4.963l4.293,4.963
		l-4.293,4.959L82.939,177.901z M93.229,189.795l-4.209-4.863l4.209-4.865V189.795z M89.021,170.867l4.209-4.863v9.728
		L89.021,170.867z M93.229,105.43l-4.209-4.863l4.209-4.863V105.43z M87.23,98.496l-4.242-4.904h8.484L87.23,98.496z
		 M85.442,100.566l-4.148,4.793v-9.588L85.442,100.566z M87.23,187.001l4.293,4.959l-4.293,4.962l-4.291-4.962L87.23,187.001z
		 M81.294,203.786v-9.592l4.148,4.799L81.294,203.786z M89.021,198.993l4.209-4.87v9.732L89.021,198.993z M95.982,173.028v-51.45
		h51.416v51.45H95.982z M150.152,203.786v-9.592l4.151,4.799L150.152,203.786z M157.882,198.993l4.207-4.87v9.732L157.882,198.993z"
		/>
	<g id="decolage">
		<path fill="#B9BABD" d="M134.521,144.584c0,17.564-2.826,41.452-7.525,53.965H116.46c-2.222-5.916-4.028-14.451-5.313-23.659
			c-1.43-10.252-2.216-21.341-2.216-30.596c0-23.399,2.939-37.985,12.797-49.291C131.456,106.252,134.521,121.188,134.521,144.584z"
			/>
		<path fill="#E17233" d="M132.639,119.268h-21.895c1.826-9.942,5.227-17.661,10.98-24.265
			C127.374,101.533,130.779,109.31,132.639,119.268z"/>
		<path fill="#FFFFFF" d="M119.003,194.724h-1.508c-1.658-5.164-3.128-12.157-4.277-20.444c-1.385-9.892-2.18-20.826-2.18-29.985
			c0-10.16,0.572-18.293,1.879-25.026h3.79c-0.656,6.74-0.943,14.859-0.943,25.026c0,9.159,0.396,20.094,1.088,29.985
			C117.434,182.566,118.17,189.56,119.003,194.724z"/>
		<path opacity="0.42" fill="#FFFFFF" d="M120.511,100.681c-1.83,5.048-3.056,10.919-3.806,18.587h-3.79
			c1.49-7.672,3.943-13.549,7.591-18.597C120.511,100.675,120.511,100.675,120.511,100.681z"/>
		<path fill="#DADEE6" d="M128.944,130.453c-0.012-0.021-0.024-0.036-0.038-0.057c0.014,0.01,0.021,0.026,0.035,0.039
			C128.944,130.442,128.944,130.446,128.944,130.453z"/>
		<g>
			<path fill="#F07F40" d="M126.995,198.549c0.629,0.005,1.203,0.306,1.613,0.777c0.414,0.48,0.674,1.145,0.674,1.872v17.475h2.158
				c9.408-12.039,13.805-33.728,0.871-43.783C131.024,184.098,129.221,192.633,126.995,198.549z"/>
		</g>
		<g>
			<path fill="#AAA8BE" d="M131.44,218.668h-2.158v-17.47c0-0.728-0.26-1.392-0.674-1.872c-0.41-0.472-0.979-0.772-1.61-0.777
				c-0.003,0-0.003,0-0.003,0h-4.257V174.89l4.627,5.348c0.958-9.918,1.55-21.146,1.696-31.015
				c-1.333,0.902-3.086,1.396-5.368,1.213c-2.897-0.229-6.223-2.58-7.917-4.998c1.59,1.495,3.619,2.391,5.826,2.391
				c3.088,0,5.814-1.742,7.49-4.422c1.112-1.766,1.76-3.931,1.76-6.275c0-2.524-0.76-4.853-2.028-6.678c0-0.007,0-0.011-0.005-0.018
				c-0.673-15.583-2.705-26.636-7.095-35.433c9.731,11.249,12.796,26.186,12.796,49.585c0,9.215-0.777,20.17-2.196,30.311
				C145.24,184.962,140.84,206.641,131.44,218.668z"/>
		</g>
		<linearGradient id="SVGID_1_" gradientUnits="userSpaceOnUse" x1="128.8018" y1="144.2139" x2="114.6582" y2="130.0703">
			<stop  offset="0" style="stop-color:#FAB71F"/>
			<stop  offset="1" style="stop-color:#FFD412"/>
		</linearGradient>
		<ellipse fill="url(#SVGID_1_)" cx="121.729" cy="137.142" rx="9.254" ry="10.696"/>
		<path fill="#5C5274" d="M129.153,137.142c0,4.738-3.329,8.573-7.425,8.573c-4.099,0-7.422-3.835-7.422-8.573
			c0-4.739,3.323-8.581,7.422-8.581C125.824,128.561,129.153,132.402,129.153,137.142z"/>
		<path opacity="0.76" fill="#CECDD6" d="M116.357,141.672c1.105,0.963,2.487,1.535,3.978,1.535c3.652,0,6.616-3.428,6.616-7.647
			c0-1.726-0.492-3.317-1.329-4.599c1.597,1.396,2.623,3.607,2.623,6.097c0,4.223-2.96,7.646-6.612,7.646
			C119.478,144.703,117.563,143.511,116.357,141.672z"/>
		<g>
			<path fill="#F07F40" d="M116.46,198.549c-0.63,0.005-1.198,0.306-1.61,0.777c-0.416,0.48-0.672,1.145-0.672,1.872v17.475h-2.158
				c-9.406-12.039-13.805-33.728-0.872-43.783C112.432,184.098,114.238,192.633,116.46,198.549z"/>
		</g>
		<rect x="120.718" y="174.89" fill="#F07F40" width="2.021" height="43.783"/>
		<ellipse opacity="0.77" fill="#FFFFFF" cx="119.089" cy="133.805" rx="1.98" ry="2.289"/>
		<ellipse opacity="0.47" fill="#FFFFFF" cx="121.962" cy="137.126" rx="1.192" ry="1.377"/>
		<g>
			<path fill="#E5CF98" d="M122.174,127.523c0,0.305-0.216,0.559-0.482,0.559c-0.266,0-0.483-0.254-0.483-0.559
				c0-0.311,0.218-0.559,0.483-0.559C121.958,126.965,122.174,127.213,122.174,127.523z"/>
			<path fill="#E5CF98" d="M122.174,146.78c0,0.303-0.216,0.557-0.482,0.557c-0.266,0-0.483-0.254-0.483-0.557
				c0-0.311,0.218-0.559,0.483-0.559C121.958,146.222,122.174,146.47,122.174,146.78z"/>
			<path fill="#E5CF98" d="M117.945,128.53c0.134,0.27,0.054,0.61-0.178,0.765s-0.526,0.064-0.659-0.206
				c-0.134-0.263-0.054-0.607,0.176-0.762C117.518,128.173,117.812,128.268,117.945,128.53z"/>
			<path fill="#E5CF98" d="M126.274,145.208c0.133,0.27,0.056,0.609-0.177,0.765c-0.233,0.153-0.527,0.063-0.656-0.206
				c-0.139-0.265-0.061-0.609,0.172-0.765C125.847,144.848,126.141,144.942,126.274,145.208z"/>
			<path fill="#E5CF98" d="M114.721,131.854c0.229,0.149,0.31,0.492,0.176,0.763c-0.134,0.265-0.43,0.359-0.661,0.205
				c-0.229-0.155-0.308-0.499-0.174-0.762C114.191,131.789,114.487,131.699,114.721,131.854z"/>
			<path fill="#E5CF98" d="M129.145,141.482c0.233,0.152,0.31,0.492,0.181,0.763c-0.139,0.265-0.431,0.358-0.664,0.203
				c-0.229-0.153-0.312-0.497-0.174-0.764C128.617,141.416,128.915,141.327,129.145,141.482z"/>
			<path fill="#E5CF98" d="M113.362,136.593c0.264,0,0.483,0.249,0.483,0.559s-0.216,0.559-0.483,0.559
				c-0.269,0-0.483-0.249-0.483-0.559S113.096,136.593,113.362,136.593z"/>
			<path fill="#E5CF98" d="M130.02,136.593c0.268,0,0.483,0.249,0.483,0.559c0,0.304-0.216,0.559-0.483,0.559
				c-0.263,0-0.479-0.249-0.483-0.559C129.536,136.842,129.757,136.593,130.02,136.593z"/>
			<path fill="#E5CF98" d="M114.235,141.482c0.231-0.155,0.527-0.066,0.661,0.202c0.134,0.267,0.056,0.61-0.176,0.764
				c-0.233,0.155-0.529,0.062-0.659-0.203C113.928,141.975,114.006,141.635,114.235,141.482z"/>
			<path fill="#E5CF98" d="M128.661,131.854c0.233-0.154,0.525-0.064,0.664,0.206c0.129,0.263,0.053,0.606-0.181,0.762
				c-0.229,0.154-0.527,0.06-0.657-0.205C128.35,132.346,128.432,132.003,128.661,131.854z"/>
			<path fill="#E5CF98" d="M117.108,145.208c0.133-0.266,0.428-0.36,0.659-0.206c0.231,0.155,0.312,0.5,0.178,0.765
				c-0.134,0.27-0.428,0.359-0.661,0.206C117.055,145.817,116.975,145.478,117.108,145.208z"/>
			<path fill="#E5CF98" d="M125.441,128.53c0.129-0.263,0.423-0.357,0.656-0.203c0.232,0.154,0.31,0.499,0.177,0.762
				c-0.134,0.271-0.428,0.36-0.661,0.206C125.381,129.141,125.303,128.8,125.441,128.53z"/>
		</g>
	</g>
</g>
<polygon fill="none" stroke="#209DD9" stroke-miterlimit="10" points="244.931,22.963 239.474,22.963 239.474,57.211 
	222.397,57.211 222.397,22.963 216.935,22.963 230.939,7.58 "/>
<polygon fill="none" stroke="#F8E02F" stroke-miterlimit="10" points="218.609,173.985 212.899,173.985 212.899,209.818 
	195.033,209.818 195.033,173.985 189.315,173.985 203.966,157.883 "/>
<polygon fill="none" stroke="#E43333" stroke-miterlimit="10" points="67.613,96.067 61.835,96.067 61.835,132.342 43.748,132.342 
	43.748,96.067 37.96,96.067 52.793,79.771 "/>
<polygon fill="none" stroke="#209DD9" stroke-miterlimit="10" points="31.058,200.734 26.663,200.734 26.663,228.331 12.9,228.331 
	12.9,200.734 8.498,200.734 19.786,188.333 "/>
<g>
	<path fill="#FFFFFF" d="M113.689,47.113c1.45,2.02,3.655,3.212,5.986,3.477c2.002,0.229,4.084-0.23,5.856-1.45
		c0.136-0.1,0.285-0.198,0.414-0.303c0.003-0.003,0.007,0,0.007,0c0.889-0.699,1.605-1.539,2.131-2.459
		c1.525-2.693,1.457-6.115-0.477-8.799c-2.689-3.75-7.999-4.659-11.84-2.026C111.926,38.181,110.997,43.366,113.689,47.113z
		 M118.1,38.801c2.009-1.38,4.773-0.898,6.18,1.053c0.844,1.185,1.006,2.622,0.571,3.882c-0.289,0.845-0.853,1.613-1.654,2.165
		c-0.158,0.108-0.318,0.199-0.487,0.279c-0.007,0.005-0.007,0.005-0.007,0.005c-1.076,0.552-2.305,0.633-3.411,0.288
		c-0.891-0.272-1.695-0.833-2.278-1.633C115.604,42.879,116.098,40.173,118.1,38.801z M113.689,47.113
		c1.45,2.02,3.655,3.212,5.986,3.477c2.002,0.229,4.084-0.23,5.856-1.45c0.136-0.1,0.285-0.198,0.414-0.303
		c0.003-0.003,0.007,0,0.007,0c0.889-0.699,1.605-1.539,2.131-2.459c1.525-2.693,1.457-6.115-0.477-8.799
		c-2.689-3.75-7.999-4.659-11.84-2.026C111.926,38.181,110.997,43.366,113.689,47.113z M118.1,38.801
		c2.009-1.38,4.773-0.898,6.18,1.053c0.844,1.185,1.006,2.622,0.571,3.882c-0.289,0.845-0.853,1.613-1.654,2.165
		c-0.158,0.108-0.318,0.199-0.487,0.279c-0.007,0.005-0.007,0.005-0.007,0.005c-1.076,0.552-2.305,0.633-3.411,0.288
		c-0.891-0.272-1.695-0.833-2.278-1.633C115.604,42.879,116.098,40.173,118.1,38.801z M113.689,47.113
		c1.45,2.02,3.655,3.212,5.986,3.477c2.002,0.229,4.084-0.23,5.856-1.45c0.136-0.1,0.285-0.198,0.414-0.303
		c0.003-0.003,0.007,0,0.007,0c0.889-0.699,1.605-1.539,2.131-2.459c1.525-2.693,1.457-6.115-0.477-8.799
		c-2.689-3.75-7.999-4.659-11.84-2.026C111.926,38.181,110.997,43.366,113.689,47.113z M118.1,38.801
		c2.009-1.38,4.773-0.898,6.18,1.053c0.844,1.185,1.006,2.622,0.571,3.882c-0.289,0.845-0.853,1.613-1.654,2.165
		c-0.158,0.108-0.318,0.199-0.487,0.279c-0.007,0.005-0.007,0.005-0.007,0.005c-1.076,0.552-2.305,0.633-3.411,0.288
		c-0.891-0.272-1.695-0.833-2.278-1.633C115.604,42.879,116.098,40.173,118.1,38.801z M113.689,47.113
		c1.45,2.02,3.655,3.212,5.986,3.477c2.002,0.229,4.084-0.23,5.856-1.45c0.136-0.1,0.285-0.198,0.414-0.303
		c0.003-0.003,0.007,0,0.007,0c0.889-0.699,1.605-1.539,2.131-2.459c1.525-2.693,1.457-6.115-0.477-8.799
		c-2.689-3.75-7.999-4.659-11.84-2.026C111.926,38.181,110.997,43.366,113.689,47.113z M118.1,38.801
		c2.009-1.38,4.773-0.898,6.18,1.053c0.844,1.185,1.006,2.622,0.571,3.882c-0.289,0.845-0.853,1.613-1.654,2.165
		c-0.158,0.108-0.318,0.199-0.487,0.279c-0.007,0.005-0.007,0.005-0.007,0.005c-1.076,0.552-2.305,0.633-3.411,0.288
		c-0.891-0.272-1.695-0.833-2.278-1.633C115.604,42.879,116.098,40.173,118.1,38.801z M104.528,46.299
		c0.177,0.708,0.407,1.416,0.69,2.105c0.464,1.129,1.063,2.229,1.813,3.27c0.302,0.408,0.605,0.8,0.939,1.186
		c0.585,0.672,1.223,1.304,1.905,1.861c2.986,2.475,6.743,3.802,10.559,3.854c3.376,0.045,6.794-0.901,9.762-2.935
		c0.742-0.51,1.424-1.062,2.036-1.66c0.013,0,0.009-0.006,0.009-0.006c0.804-0.75,1.51-1.582,2.115-2.455
		c3.802-5.423,3.995-12.802-0.096-18.493c-5.267-7.33-15.659-9.108-23.159-3.969C105.313,33.026,102.903,39.971,104.528,46.299z
		 M113.437,32.303c5.667-3.877,13.521-2.535,17.498,3c3.009,4.185,2.957,9.589,0.294,13.658c-0.583,0.893-1.282,1.717-2.11,2.452
		c0,0-0.005,0.004-0.009,0.008c-0.39,0.346-0.803,0.668-1.241,0.972c-2.373,1.626-5.121,2.336-7.808,2.208
		c-3.747-0.181-7.379-1.982-9.695-5.208c-0.466-0.662-0.868-1.347-1.188-2.053c-0.018-0.042-0.032-0.069-0.042-0.101
		c-0.26-0.571-0.465-1.152-0.623-1.753l-0.005-0.003C107.203,40.662,109.012,35.33,113.437,32.303z M115.768,35.553
		c-3.842,2.628-4.771,7.813-2.078,11.56c1.45,2.02,3.655,3.212,5.986,3.477c2.002,0.229,4.084-0.23,5.856-1.45
		c0.136-0.1,0.285-0.198,0.414-0.303c0.003-0.003,0.007,0,0.007,0c0.889-0.699,1.605-1.539,2.131-2.459
		c1.525-2.693,1.457-6.115-0.477-8.799C124.918,33.829,119.608,32.92,115.768,35.553z M118.1,38.801
		c2.009-1.38,4.773-0.898,6.18,1.053c0.844,1.185,1.006,2.622,0.571,3.882c-0.289,0.845-0.853,1.613-1.654,2.165
		c-0.158,0.108-0.318,0.199-0.487,0.279c-0.007,0.005-0.007,0.005-0.007,0.005c-1.076,0.552-2.305,0.633-3.411,0.288
		c-0.891-0.272-1.695-0.833-2.278-1.633C115.604,42.879,116.098,40.173,118.1,38.801z M104.528,46.299
		c0.177,0.708,0.407,1.416,0.69,2.105c0.464,1.129,1.063,2.229,1.813,3.27c0.302,0.408,0.605,0.8,0.939,1.186
		c0.585,0.672,1.223,1.304,1.905,1.861c2.986,2.475,6.743,3.802,10.559,3.854c3.376,0.045,6.794-0.901,9.762-2.935
		c0.742-0.51,1.424-1.062,2.036-1.66c0.013,0,0.009-0.006,0.009-0.006c0.804-0.75,1.51-1.582,2.115-2.455
		c3.802-5.423,3.995-12.802-0.096-18.493c-5.267-7.33-15.659-9.108-23.159-3.969C105.313,33.026,102.903,39.971,104.528,46.299z
		 M113.437,32.303c5.667-3.877,13.521-2.535,17.498,3c3.009,4.185,2.957,9.589,0.294,13.658c-0.583,0.893-1.282,1.717-2.11,2.452
		c0,0-0.005,0.004-0.009,0.008c-0.39,0.346-0.803,0.668-1.241,0.972c-2.373,1.626-5.121,2.336-7.808,2.208
		c-3.747-0.181-7.379-1.982-9.695-5.208c-0.466-0.662-0.868-1.347-1.188-2.053c-0.018-0.042-0.032-0.069-0.042-0.101
		c-0.26-0.571-0.465-1.152-0.623-1.753l-0.005-0.003C107.203,40.662,109.012,35.33,113.437,32.303z M115.768,35.553
		c-3.842,2.628-4.771,7.813-2.078,11.56c1.45,2.02,3.655,3.212,5.986,3.477c2.002,0.229,4.084-0.23,5.856-1.45
		c0.136-0.1,0.285-0.198,0.414-0.303c0.003-0.003,0.007,0,0.007,0c0.889-0.699,1.605-1.539,2.131-2.459
		c1.525-2.693,1.457-6.115-0.477-8.799C124.918,33.829,119.608,32.92,115.768,35.553z M118.1,38.801
		c2.009-1.38,4.773-0.898,6.18,1.053c0.844,1.185,1.006,2.622,0.571,3.882c-0.289,0.845-0.853,1.613-1.654,2.165
		c-0.158,0.108-0.318,0.199-0.487,0.279c-0.007,0.005-0.007,0.005-0.007,0.005c-1.076,0.552-2.305,0.633-3.411,0.288
		c-0.891-0.272-1.695-0.833-2.278-1.633C115.604,42.879,116.098,40.173,118.1,38.801z M100.392,56.228
		c0.746,1.034,1.565,2.01,2.449,2.896c0.739,0.77,1.538,1.469,2.367,2.111c2.771,2.162,5.95,3.676,9.297,4.511
		c0.838,0.21,1.692,0.38,2.553,0.496c0.111,0.025,0.244,0.044,0.367,0.063c0,0,0,0,0.011-0.004c1.24,0.167,2.492,0.229,3.748,0.205
		c1.289-0.019,2.578-0.146,3.851-0.375c0.213-0.03,0.421-0.074,0.627-0.117c3.216-0.639,6.345-1.926,9.197-3.877
		c1.337-0.916,2.541-1.929,3.633-3.04l0.004-0.008c0.769-0.778,1.48-1.595,2.111-2.453c3.759-4.993,5.367-11.219,4.596-17.274
		c0.005-0.068-0.009-0.129-0.021-0.184c-0.501-3.747-1.899-7.415-4.273-10.714c-7.837-10.903-23.3-13.548-34.477-5.903
		C95.263,30.217,92.557,45.313,100.392,56.228z M108.764,25.81c9.342-6.399,22.27-4.185,28.821,4.928
		c5.161,7.197,4.852,16.565-0.096,23.345c-0.629,0.863-1.334,1.686-2.123,2.453v0.001c-0.854,0.857-1.804,1.642-2.839,2.354
		c-2.365,1.622-4.957,2.685-7.625,3.223c-1.354,0.278-2.721,0.418-4.089,0.425c-1.155,0.01-2.305-0.077-3.432-0.251
		c-2.456-0.38-4.836-1.189-7.015-2.41c-0.251-0.139-0.503-0.284-0.745-0.432l-0.016-0.013c-2.261-1.384-4.276-3.221-5.901-5.483
		c-0.223-0.307-0.422-0.618-0.622-0.929C97.317,43.993,99.74,31.989,108.764,25.81z M111.103,29.059
		c-5.79,3.967-8.199,10.912-6.574,17.241c0.177,0.708,0.407,1.416,0.69,2.105c0.464,1.129,1.063,2.229,1.813,3.27
		c0.302,0.408,0.605,0.8,0.939,1.186c0.585,0.672,1.223,1.304,1.905,1.861c2.986,2.475,6.743,3.802,10.559,3.854
		c3.376,0.045,6.794-0.901,9.762-2.935c0.742-0.51,1.424-1.062,2.036-1.66c0.013,0,0.009-0.006,0.009-0.006
		c0.804-0.75,1.51-1.582,2.115-2.455c3.802-5.423,3.995-12.802-0.096-18.493C128.995,25.698,118.603,23.919,111.103,29.059z
		 M113.437,32.303c5.667-3.877,13.521-2.535,17.498,3c3.009,4.185,2.957,9.589,0.294,13.658c-0.583,0.893-1.282,1.717-2.11,2.452
		c0,0-0.005,0.004-0.009,0.008c-0.39,0.346-0.803,0.668-1.241,0.972c-2.373,1.626-5.121,2.336-7.808,2.208
		c-3.747-0.181-7.379-1.982-9.695-5.208c-0.466-0.662-0.868-1.347-1.188-2.053c-0.018-0.042-0.032-0.069-0.042-0.101
		c-0.26-0.571-0.465-1.152-0.623-1.753l-0.005-0.003C107.203,40.662,109.012,35.33,113.437,32.303z M115.768,35.553
		c-3.842,2.628-4.771,7.813-2.078,11.56c1.45,2.02,3.655,3.212,5.986,3.477c2.002,0.229,4.084-0.23,5.856-1.45
		c0.136-0.1,0.285-0.198,0.414-0.303c0.003-0.003,0.007,0,0.007,0c0.889-0.699,1.605-1.539,2.131-2.459
		c1.525-2.693,1.457-6.115-0.477-8.799C124.918,33.829,119.608,32.92,115.768,35.553z M118.1,38.801
		c2.009-1.38,4.773-0.898,6.18,1.053c0.844,1.185,1.006,2.622,0.571,3.882c-0.289,0.845-0.853,1.613-1.654,2.165
		c-0.158,0.108-0.318,0.199-0.487,0.279c-0.007,0.005-0.007,0.005-0.007,0.005c-1.076,0.552-2.305,0.633-3.411,0.288
		c-0.891-0.272-1.695-0.833-2.278-1.633C115.604,42.879,116.098,40.173,118.1,38.801z M113.689,47.113
		c1.45,2.02,3.655,3.212,5.986,3.477c2.002,0.229,4.084-0.23,5.856-1.45c0.136-0.1,0.285-0.198,0.414-0.303
		c0.003-0.003,0.007,0,0.007,0c0.889-0.699,1.605-1.539,2.131-2.459c1.525-2.693,1.457-6.115-0.477-8.799
		c-2.689-3.75-7.999-4.659-11.84-2.026C111.926,38.181,110.997,43.366,113.689,47.113z M118.1,38.801
		c2.009-1.38,4.773-0.898,6.18,1.053c0.844,1.185,1.006,2.622,0.571,3.882c-0.289,0.845-0.853,1.613-1.654,2.165
		c-0.158,0.108-0.318,0.199-0.487,0.279c-0.007,0.005-0.007,0.005-0.007,0.005c-1.076,0.552-2.305,0.633-3.411,0.288
		c-0.891-0.272-1.695-0.833-2.278-1.633C115.604,42.879,116.098,40.173,118.1,38.801z M113.689,47.113
		c1.45,2.02,3.655,3.212,5.986,3.477c2.002,0.229,4.084-0.23,5.856-1.45c0.136-0.1,0.285-0.198,0.414-0.303
		c0.003-0.003,0.007,0,0.007,0c0.889-0.699,1.605-1.539,2.131-2.459c1.525-2.693,1.457-6.115-0.477-8.799
		c-2.689-3.75-7.999-4.659-11.84-2.026C111.926,38.181,110.997,43.366,113.689,47.113z M118.1,38.801
		c2.009-1.38,4.773-0.898,6.18,1.053c0.844,1.185,1.006,2.622,0.571,3.882c-0.289,0.845-0.853,1.613-1.654,2.165
		c-0.158,0.108-0.318,0.199-0.487,0.279c-0.007,0.005-0.007,0.005-0.007,0.005c-1.076,0.552-2.305,0.633-3.411,0.288
		c-0.891-0.272-1.695-0.833-2.278-1.633C115.604,42.879,116.098,40.173,118.1,38.801z M104.528,46.299
		c0.177,0.708,0.407,1.416,0.69,2.105c0.464,1.129,1.063,2.229,1.813,3.27c0.302,0.408,0.605,0.8,0.939,1.186
		c0.585,0.672,1.223,1.304,1.905,1.861c2.986,2.475,6.743,3.802,10.559,3.854c3.376,0.045,6.794-0.901,9.762-2.935
		c0.742-0.51,1.424-1.062,2.036-1.66c0.013,0,0.009-0.006,0.009-0.006c0.804-0.75,1.51-1.582,2.115-2.455
		c3.802-5.423,3.995-12.802-0.096-18.493c-5.267-7.33-15.659-9.108-23.159-3.969C105.313,33.026,102.903,39.971,104.528,46.299z
		 M113.437,32.303c5.667-3.877,13.521-2.535,17.498,3c3.009,4.185,2.957,9.589,0.294,13.658c-0.583,0.893-1.282,1.717-2.11,2.452
		c0,0-0.005,0.004-0.009,0.008c-0.39,0.346-0.803,0.668-1.241,0.972c-2.373,1.626-5.121,2.336-7.808,2.208
		c-3.747-0.181-7.379-1.982-9.695-5.208c-0.466-0.662-0.868-1.347-1.188-2.053c-0.018-0.042-0.032-0.069-0.042-0.101
		c-0.26-0.571-0.465-1.152-0.623-1.753l-0.005-0.003C107.203,40.662,109.012,35.33,113.437,32.303z M115.768,35.553
		c-3.842,2.628-4.771,7.813-2.078,11.56c1.45,2.02,3.655,3.212,5.986,3.477c2.002,0.229,4.084-0.23,5.856-1.45
		c0.136-0.1,0.285-0.198,0.414-0.303c0.003-0.003,0.007,0,0.007,0c0.889-0.699,1.605-1.539,2.131-2.459
		c1.525-2.693,1.457-6.115-0.477-8.799C124.918,33.829,119.608,32.92,115.768,35.553z M118.1,38.801
		c2.009-1.38,4.773-0.898,6.18,1.053c0.844,1.185,1.006,2.622,0.571,3.882c-0.289,0.845-0.853,1.613-1.654,2.165
		c-0.158,0.108-0.318,0.199-0.487,0.279c-0.007,0.005-0.007,0.005-0.007,0.005c-1.076,0.552-2.305,0.633-3.411,0.288
		c-0.891-0.272-1.695-0.833-2.278-1.633C115.604,42.879,116.098,40.173,118.1,38.801z M113.689,47.113
		c1.45,2.02,3.655,3.212,5.986,3.477c2.002,0.229,4.084-0.23,5.856-1.45c0.136-0.1,0.285-0.198,0.414-0.303
		c0.003-0.003,0.007,0,0.007,0c0.889-0.699,1.605-1.539,2.131-2.459c1.525-2.693,1.457-6.115-0.477-8.799
		c-2.689-3.75-7.999-4.659-11.84-2.026C111.926,38.181,110.997,43.366,113.689,47.113z M118.1,38.801
		c2.009-1.38,4.773-0.898,6.18,1.053c0.844,1.185,1.006,2.622,0.571,3.882c-0.289,0.845-0.853,1.613-1.654,2.165
		c-0.158,0.108-0.318,0.199-0.487,0.279c-0.007,0.005-0.007,0.005-0.007,0.005c-1.076,0.552-2.305,0.633-3.411,0.288
		c-0.891-0.272-1.695-0.833-2.278-1.633C115.604,42.879,116.098,40.173,118.1,38.801z M113.689,47.113
		c1.45,2.02,3.655,3.212,5.986,3.477c2.002,0.229,4.084-0.23,5.856-1.45c0.136-0.1,0.285-0.198,0.414-0.303
		c0.003-0.003,0.007,0,0.007,0c0.889-0.699,1.605-1.539,2.131-2.459c1.525-2.693,1.457-6.115-0.477-8.799
		c-2.689-3.75-7.999-4.659-11.84-2.026C111.926,38.181,110.997,43.366,113.689,47.113z M118.1,38.801
		c2.009-1.38,4.773-0.898,6.18,1.053c0.844,1.185,1.006,2.622,0.571,3.882c-0.289,0.845-0.853,1.613-1.654,2.165
		c-0.158,0.108-0.318,0.199-0.487,0.279c-0.007,0.005-0.007,0.005-0.007,0.005c-1.076,0.552-2.305,0.633-3.411,0.288
		c-0.891-0.272-1.695-0.833-2.278-1.633C115.604,42.879,116.098,40.173,118.1,38.801z M104.528,46.299
		c0.177,0.708,0.407,1.416,0.69,2.105c0.464,1.129,1.063,2.229,1.813,3.27c0.302,0.408,0.605,0.8,0.939,1.186
		c0.585,0.672,1.223,1.304,1.905,1.861c2.986,2.475,6.743,3.802,10.559,3.854c3.376,0.045,6.794-0.901,9.762-2.935
		c0.742-0.51,1.424-1.062,2.036-1.66c0.013,0,0.009-0.006,0.009-0.006c0.804-0.75,1.51-1.582,2.115-2.455
		c3.802-5.423,3.995-12.802-0.096-18.493c-5.267-7.33-15.659-9.108-23.159-3.969C105.313,33.026,102.903,39.971,104.528,46.299z
		 M113.437,32.303c5.667-3.877,13.521-2.535,17.498,3c3.009,4.185,2.957,9.589,0.294,13.658c-0.583,0.893-1.282,1.717-2.11,2.452
		c0,0-0.005,0.004-0.009,0.008c-0.39,0.346-0.803,0.668-1.241,0.972c-2.373,1.626-5.121,2.336-7.808,2.208
		c-3.747-0.181-7.379-1.982-9.695-5.208c-0.466-0.662-0.868-1.347-1.188-2.053c-0.018-0.042-0.032-0.069-0.042-0.101
		c-0.26-0.571-0.465-1.152-0.623-1.753l-0.005-0.003C107.203,40.662,109.012,35.33,113.437,32.303z M115.768,35.553
		c-3.842,2.628-4.771,7.813-2.078,11.56c1.45,2.02,3.655,3.212,5.986,3.477c2.002,0.229,4.084-0.23,5.856-1.45
		c0.136-0.1,0.285-0.198,0.414-0.303c0.003-0.003,0.007,0,0.007,0c0.889-0.699,1.605-1.539,2.131-2.459
		c1.525-2.693,1.457-6.115-0.477-8.799C124.918,33.829,119.608,32.92,115.768,35.553z M118.1,38.801
		c2.009-1.38,4.773-0.898,6.18,1.053c0.844,1.185,1.006,2.622,0.571,3.882c-0.289,0.845-0.853,1.613-1.654,2.165
		c-0.158,0.108-0.318,0.199-0.487,0.279c-0.007,0.005-0.007,0.005-0.007,0.005c-1.076,0.552-2.305,0.633-3.411,0.288
		c-0.891-0.272-1.695-0.833-2.278-1.633C115.604,42.879,116.098,40.173,118.1,38.801z M113.689,47.113
		c1.45,2.02,3.655,3.212,5.986,3.477c2.002,0.229,4.084-0.23,5.856-1.45c0.136-0.1,0.285-0.198,0.414-0.303
		c0.003-0.003,0.007,0,0.007,0c0.889-0.699,1.605-1.539,2.131-2.459c1.525-2.693,1.457-6.115-0.477-8.799
		c-2.689-3.75-7.999-4.659-11.84-2.026C111.926,38.181,110.997,43.366,113.689,47.113z M118.1,38.801
		c2.009-1.38,4.773-0.898,6.18,1.053c0.844,1.185,1.006,2.622,0.571,3.882c-0.289,0.845-0.853,1.613-1.654,2.165
		c-0.158,0.108-0.318,0.199-0.487,0.279c-0.007,0.005-0.007,0.005-0.007,0.005c-1.076,0.552-2.305,0.633-3.411,0.288
		c-0.891-0.272-1.695-0.833-2.278-1.633C115.604,42.879,116.098,40.173,118.1,38.801z M113.689,47.113
		c1.45,2.02,3.655,3.212,5.986,3.477c2.002,0.229,4.084-0.23,5.856-1.45c0.136-0.1,0.285-0.198,0.414-0.303
		c0.003-0.003,0.007,0,0.007,0c0.889-0.699,1.605-1.539,2.131-2.459c1.525-2.693,1.457-6.115-0.477-8.799
		c-2.689-3.75-7.999-4.659-11.84-2.026C111.926,38.181,110.997,43.366,113.689,47.113z M118.1,38.801
		c2.009-1.38,4.773-0.898,6.18,1.053c0.844,1.185,1.006,2.622,0.571,3.882c-0.289,0.845-0.853,1.613-1.654,2.165
		c-0.158,0.108-0.318,0.199-0.487,0.279c-0.007,0.005-0.007,0.005-0.007,0.005c-1.076,0.552-2.305,0.633-3.411,0.288
		c-0.891-0.272-1.695-0.833-2.278-1.633C115.604,42.879,116.098,40.173,118.1,38.801z"/>
	<path fill="#E43333" d="M97.058,58.502c1.801,2.497,3.943,4.632,6.315,6.369c1.458,1.063,3,1.973,4.607,2.737c0,0,0,0,0.007-0.001
		c1.877,0.911,3.859,1.597,5.877,2.072c0.414,0.099,0.828,0.187,1.246,0.261c0.693,0.14,1.392,0.247,2.101,0.325
		c1.031,0.123,2.071,0.192,3.112,0.201c1.909,0.024,3.822-0.134,5.719-0.482c3.896-0.72,7.701-2.24,11.154-4.604
		c1.631-1.122,3.103-2.374,4.424-3.726c0.755-0.788,1.463-1.614,2.11-2.468c3.185-4.159,5.075-9.068,5.585-14.13
		c0.172-1.785,0.181-3.595,0.009-5.386c-0.45-4.705-2.124-9.343-5.09-13.478c-9.119-12.698-27.129-15.785-40.134-6.873
		C91.096,28.219,87.937,45.807,97.058,58.502z M106.431,22.561c11.177-7.645,26.64-5,34.477,5.903
		c2.374,3.3,3.772,6.968,4.273,10.714c0.013,0.054,0.026,0.115,0.021,0.184c0.771,6.055-0.837,12.281-4.596,17.274
		c-0.631,0.857-1.343,1.675-2.111,2.453l-0.004,0.008c-1.092,1.111-2.296,2.124-3.633,3.04c-2.853,1.952-5.981,3.239-9.197,3.877
		c-0.206,0.042-0.414,0.087-0.627,0.117c-1.272,0.229-2.562,0.356-3.851,0.375c-1.256,0.025-2.508-0.038-3.748-0.205
		c-0.011,0.004-0.011,0.004-0.011,0.004c-0.123-0.019-0.256-0.037-0.367-0.063c-0.86-0.116-1.715-0.286-2.553-0.496
		c-3.347-0.835-6.526-2.349-9.297-4.511c-0.829-0.642-1.628-1.341-2.367-2.111c-0.884-0.886-1.703-1.862-2.449-2.896
		C92.557,45.313,95.263,30.217,106.431,22.561z"/>
	<path fill="#FFFFFF" d="M113.689,47.113c1.45,2.02,3.655,3.212,5.986,3.477c2.002,0.229,4.084-0.23,5.856-1.45
		c0.136-0.1,0.285-0.198,0.414-0.303c0.003-0.003,0.007,0,0.007,0c0.889-0.699,1.605-1.539,2.131-2.459
		c1.525-2.693,1.457-6.115-0.477-8.799c-2.689-3.75-7.999-4.659-11.84-2.026C111.926,38.181,110.997,43.366,113.689,47.113z
		 M118.1,38.801c2.009-1.38,4.773-0.898,6.18,1.053c0.844,1.185,1.006,2.622,0.571,3.882c-0.289,0.845-0.853,1.613-1.654,2.165
		c-0.158,0.108-0.318,0.199-0.487,0.279c-0.007,0.005-0.007,0.005-0.007,0.005c-1.076,0.552-2.305,0.633-3.411,0.288
		c-0.891-0.272-1.695-0.833-2.278-1.633C115.604,42.879,116.098,40.173,118.1,38.801z M113.689,47.113
		c1.45,2.02,3.655,3.212,5.986,3.477c2.002,0.229,4.084-0.23,5.856-1.45c0.136-0.1,0.285-0.198,0.414-0.303
		c0.003-0.003,0.007,0,0.007,0c0.889-0.699,1.605-1.539,2.131-2.459c1.525-2.693,1.457-6.115-0.477-8.799
		c-2.689-3.75-7.999-4.659-11.84-2.026C111.926,38.181,110.997,43.366,113.689,47.113z M118.1,38.801
		c2.009-1.38,4.773-0.898,6.18,1.053c0.844,1.185,1.006,2.622,0.571,3.882c-0.289,0.845-0.853,1.613-1.654,2.165
		c-0.158,0.108-0.318,0.199-0.487,0.279c-0.007,0.005-0.007,0.005-0.007,0.005c-1.076,0.552-2.305,0.633-3.411,0.288
		c-0.891-0.272-1.695-0.833-2.278-1.633C115.604,42.879,116.098,40.173,118.1,38.801z M113.689,47.113
		c1.45,2.02,3.655,3.212,5.986,3.477c2.002,0.229,4.084-0.23,5.856-1.45c0.136-0.1,0.285-0.198,0.414-0.303
		c0.003-0.003,0.007,0,0.007,0c0.889-0.699,1.605-1.539,2.131-2.459c1.525-2.693,1.457-6.115-0.477-8.799
		c-2.689-3.75-7.999-4.659-11.84-2.026C111.926,38.181,110.997,43.366,113.689,47.113z M118.1,38.801
		c2.009-1.38,4.773-0.898,6.18,1.053c0.844,1.185,1.006,2.622,0.571,3.882c-0.289,0.845-0.853,1.613-1.654,2.165
		c-0.158,0.108-0.318,0.199-0.487,0.279c-0.007,0.005-0.007,0.005-0.007,0.005c-1.076,0.552-2.305,0.633-3.411,0.288
		c-0.891-0.272-1.695-0.833-2.278-1.633C115.604,42.879,116.098,40.173,118.1,38.801z M113.689,47.113
		c1.45,2.02,3.655,3.212,5.986,3.477c2.002,0.229,4.084-0.23,5.856-1.45c0.136-0.1,0.285-0.198,0.414-0.303
		c0.003-0.003,0.007,0,0.007,0c0.889-0.699,1.605-1.539,2.131-2.459c1.525-2.693,1.457-6.115-0.477-8.799
		c-2.689-3.75-7.999-4.659-11.84-2.026C111.926,38.181,110.997,43.366,113.689,47.113z M118.1,38.801
		c2.009-1.38,4.773-0.898,6.18,1.053c0.844,1.185,1.006,2.622,0.571,3.882c-0.289,0.845-0.853,1.613-1.654,2.165
		c-0.158,0.108-0.318,0.199-0.487,0.279c-0.007,0.005-0.007,0.005-0.007,0.005c-1.076,0.552-2.305,0.633-3.411,0.288
		c-0.891-0.272-1.695-0.833-2.278-1.633C115.604,42.879,116.098,40.173,118.1,38.801z M104.528,46.299
		c0.177,0.708,0.407,1.416,0.69,2.105c0.464,1.129,1.063,2.229,1.813,3.27c0.302,0.408,0.605,0.8,0.939,1.186
		c0.585,0.672,1.223,1.304,1.905,1.861c2.986,2.475,6.743,3.802,10.559,3.854c3.376,0.045,6.794-0.901,9.762-2.935
		c0.742-0.51,1.424-1.062,2.036-1.66c0.013,0,0.009-0.006,0.009-0.006c0.804-0.75,1.51-1.582,2.115-2.455
		c3.802-5.423,3.995-12.802-0.096-18.493c-5.267-7.33-15.659-9.108-23.159-3.969C105.313,33.026,102.903,39.971,104.528,46.299z
		 M113.437,32.303c5.667-3.877,13.521-2.535,17.498,3c3.009,4.185,2.957,9.589,0.294,13.658c-0.583,0.893-1.282,1.717-2.11,2.452
		c0,0-0.005,0.004-0.009,0.008c-0.39,0.346-0.803,0.668-1.241,0.972c-2.373,1.626-5.121,2.336-7.808,2.208
		c-3.747-0.181-7.379-1.982-9.695-5.208c-0.466-0.662-0.868-1.347-1.188-2.053c-0.018-0.042-0.032-0.069-0.042-0.101
		c-0.26-0.571-0.465-1.152-0.623-1.753l-0.005-0.003C107.203,40.662,109.012,35.33,113.437,32.303z M115.768,35.553
		c-3.842,2.628-4.771,7.813-2.078,11.56c1.45,2.02,3.655,3.212,5.986,3.477c2.002,0.229,4.084-0.23,5.856-1.45
		c0.136-0.1,0.285-0.198,0.414-0.303c0.003-0.003,0.007,0,0.007,0c0.889-0.699,1.605-1.539,2.131-2.459
		c1.525-2.693,1.457-6.115-0.477-8.799C124.918,33.829,119.608,32.92,115.768,35.553z M118.1,38.801
		c2.009-1.38,4.773-0.898,6.18,1.053c0.844,1.185,1.006,2.622,0.571,3.882c-0.289,0.845-0.853,1.613-1.654,2.165
		c-0.158,0.108-0.318,0.199-0.487,0.279c-0.007,0.005-0.007,0.005-0.007,0.005c-1.076,0.552-2.305,0.633-3.411,0.288
		c-0.891-0.272-1.695-0.833-2.278-1.633C115.604,42.879,116.098,40.173,118.1,38.801z M104.528,46.299
		c0.177,0.708,0.407,1.416,0.69,2.105c0.464,1.129,1.063,2.229,1.813,3.27c0.302,0.408,0.605,0.8,0.939,1.186
		c0.585,0.672,1.223,1.304,1.905,1.861c2.986,2.475,6.743,3.802,10.559,3.854c3.376,0.045,6.794-0.901,9.762-2.935
		c0.742-0.51,1.424-1.062,2.036-1.66c0.013,0,0.009-0.006,0.009-0.006c0.804-0.75,1.51-1.582,2.115-2.455
		c3.802-5.423,3.995-12.802-0.096-18.493c-5.267-7.33-15.659-9.108-23.159-3.969C105.313,33.026,102.903,39.971,104.528,46.299z
		 M113.437,32.303c5.667-3.877,13.521-2.535,17.498,3c3.009,4.185,2.957,9.589,0.294,13.658c-0.583,0.893-1.282,1.717-2.11,2.452
		c0,0-0.005,0.004-0.009,0.008c-0.39,0.346-0.803,0.668-1.241,0.972c-2.373,1.626-5.121,2.336-7.808,2.208
		c-3.747-0.181-7.379-1.982-9.695-5.208c-0.466-0.662-0.868-1.347-1.188-2.053c-0.018-0.042-0.032-0.069-0.042-0.101
		c-0.26-0.571-0.465-1.152-0.623-1.753l-0.005-0.003C107.203,40.662,109.012,35.33,113.437,32.303z M115.768,35.553
		c-3.842,2.628-4.771,7.813-2.078,11.56c1.45,2.02,3.655,3.212,5.986,3.477c2.002,0.229,4.084-0.23,5.856-1.45
		c0.136-0.1,0.285-0.198,0.414-0.303c0.003-0.003,0.007,0,0.007,0c0.889-0.699,1.605-1.539,2.131-2.459
		c1.525-2.693,1.457-6.115-0.477-8.799C124.918,33.829,119.608,32.92,115.768,35.553z M118.1,38.801
		c2.009-1.38,4.773-0.898,6.18,1.053c0.844,1.185,1.006,2.622,0.571,3.882c-0.289,0.845-0.853,1.613-1.654,2.165
		c-0.158,0.108-0.318,0.199-0.487,0.279c-0.007,0.005-0.007,0.005-0.007,0.005c-1.076,0.552-2.305,0.633-3.411,0.288
		c-0.891-0.272-1.695-0.833-2.278-1.633C115.604,42.879,116.098,40.173,118.1,38.801z M100.392,56.228
		c0.746,1.034,1.565,2.01,2.449,2.896c0.739,0.77,1.538,1.469,2.367,2.111c2.771,2.162,5.95,3.676,9.297,4.511
		c0.838,0.21,1.692,0.38,2.553,0.496c0.111,0.025,0.244,0.044,0.367,0.063c0,0,0,0,0.011-0.004c1.24,0.167,2.492,0.229,3.748,0.205
		c1.289-0.019,2.578-0.146,3.851-0.375c0.213-0.03,0.421-0.074,0.627-0.117c3.216-0.639,6.345-1.926,9.197-3.877
		c1.337-0.916,2.541-1.929,3.633-3.04l0.004-0.008c0.769-0.778,1.48-1.595,2.111-2.453c3.759-4.993,5.367-11.219,4.596-17.274
		c0.005-0.068-0.009-0.129-0.021-0.184c-0.501-3.747-1.899-7.415-4.273-10.714c-7.837-10.903-23.3-13.548-34.477-5.903
		C95.263,30.217,92.557,45.313,100.392,56.228z M108.764,25.81c9.342-6.399,22.27-4.185,28.821,4.928
		c5.161,7.197,4.852,16.565-0.096,23.345c-0.629,0.863-1.334,1.686-2.123,2.453v0.001c-0.854,0.857-1.804,1.642-2.839,2.354
		c-2.365,1.622-4.957,2.685-7.625,3.223c-1.354,0.278-2.721,0.418-4.089,0.425c-1.155,0.01-2.305-0.077-3.432-0.251
		c-2.456-0.38-4.836-1.189-7.015-2.41c-0.251-0.139-0.503-0.284-0.745-0.432l-0.016-0.013c-2.261-1.384-4.276-3.221-5.901-5.483
		c-0.223-0.307-0.422-0.618-0.622-0.929C97.317,43.993,99.74,31.989,108.764,25.81z M111.103,29.059
		c-5.79,3.967-8.199,10.912-6.574,17.241c0.177,0.708,0.407,1.416,0.69,2.105c0.464,1.129,1.063,2.229,1.813,3.27
		c0.302,0.408,0.605,0.8,0.939,1.186c0.585,0.672,1.223,1.304,1.905,1.861c2.986,2.475,6.743,3.802,10.559,3.854
		c3.376,0.045,6.794-0.901,9.762-2.935c0.742-0.51,1.424-1.062,2.036-1.66c0.013,0,0.009-0.006,0.009-0.006
		c0.804-0.75,1.51-1.582,2.115-2.455c3.802-5.423,3.995-12.802-0.096-18.493C128.995,25.698,118.603,23.919,111.103,29.059z
		 M113.437,32.303c5.667-3.877,13.521-2.535,17.498,3c3.009,4.185,2.957,9.589,0.294,13.658c-0.583,0.893-1.282,1.717-2.11,2.452
		c0,0-0.005,0.004-0.009,0.008c-0.39,0.346-0.803,0.668-1.241,0.972c-2.373,1.626-5.121,2.336-7.808,2.208
		c-3.747-0.181-7.379-1.982-9.695-5.208c-0.466-0.662-0.868-1.347-1.188-2.053c-0.018-0.042-0.032-0.069-0.042-0.101
		c-0.26-0.571-0.465-1.152-0.623-1.753l-0.005-0.003C107.203,40.662,109.012,35.33,113.437,32.303z M115.768,35.553
		c-3.842,2.628-4.771,7.813-2.078,11.56c1.45,2.02,3.655,3.212,5.986,3.477c2.002,0.229,4.084-0.23,5.856-1.45
		c0.136-0.1,0.285-0.198,0.414-0.303c0.003-0.003,0.007,0,0.007,0c0.889-0.699,1.605-1.539,2.131-2.459
		c1.525-2.693,1.457-6.115-0.477-8.799C124.918,33.829,119.608,32.92,115.768,35.553z M118.1,38.801
		c2.009-1.38,4.773-0.898,6.18,1.053c0.844,1.185,1.006,2.622,0.571,3.882c-0.289,0.845-0.853,1.613-1.654,2.165
		c-0.158,0.108-0.318,0.199-0.487,0.279c-0.007,0.005-0.007,0.005-0.007,0.005c-1.076,0.552-2.305,0.633-3.411,0.288
		c-0.891-0.272-1.695-0.833-2.278-1.633C115.604,42.879,116.098,40.173,118.1,38.801z M113.689,47.113
		c1.45,2.02,3.655,3.212,5.986,3.477c2.002,0.229,4.084-0.23,5.856-1.45c0.136-0.1,0.285-0.198,0.414-0.303
		c0.003-0.003,0.007,0,0.007,0c0.889-0.699,1.605-1.539,2.131-2.459c1.525-2.693,1.457-6.115-0.477-8.799
		c-2.689-3.75-7.999-4.659-11.84-2.026C111.926,38.181,110.997,43.366,113.689,47.113z M118.1,38.801
		c2.009-1.38,4.773-0.898,6.18,1.053c0.844,1.185,1.006,2.622,0.571,3.882c-0.289,0.845-0.853,1.613-1.654,2.165
		c-0.158,0.108-0.318,0.199-0.487,0.279c-0.007,0.005-0.007,0.005-0.007,0.005c-1.076,0.552-2.305,0.633-3.411,0.288
		c-0.891-0.272-1.695-0.833-2.278-1.633C115.604,42.879,116.098,40.173,118.1,38.801z M113.689,47.113
		c1.45,2.02,3.655,3.212,5.986,3.477c2.002,0.229,4.084-0.23,5.856-1.45c0.136-0.1,0.285-0.198,0.414-0.303
		c0.003-0.003,0.007,0,0.007,0c0.889-0.699,1.605-1.539,2.131-2.459c1.525-2.693,1.457-6.115-0.477-8.799
		c-2.689-3.75-7.999-4.659-11.84-2.026C111.926,38.181,110.997,43.366,113.689,47.113z M118.1,38.801
		c2.009-1.38,4.773-0.898,6.18,1.053c0.844,1.185,1.006,2.622,0.571,3.882c-0.289,0.845-0.853,1.613-1.654,2.165
		c-0.158,0.108-0.318,0.199-0.487,0.279c-0.007,0.005-0.007,0.005-0.007,0.005c-1.076,0.552-2.305,0.633-3.411,0.288
		c-0.891-0.272-1.695-0.833-2.278-1.633C115.604,42.879,116.098,40.173,118.1,38.801z M104.528,46.299
		c0.177,0.708,0.407,1.416,0.69,2.105c0.464,1.129,1.063,2.229,1.813,3.27c0.302,0.408,0.605,0.8,0.939,1.186
		c0.585,0.672,1.223,1.304,1.905,1.861c2.986,2.475,6.743,3.802,10.559,3.854c3.376,0.045,6.794-0.901,9.762-2.935
		c0.742-0.51,1.424-1.062,2.036-1.66c0.013,0,0.009-0.006,0.009-0.006c0.804-0.75,1.51-1.582,2.115-2.455
		c3.802-5.423,3.995-12.802-0.096-18.493c-5.267-7.33-15.659-9.108-23.159-3.969C105.313,33.026,102.903,39.971,104.528,46.299z
		 M113.437,32.303c5.667-3.877,13.521-2.535,17.498,3c3.009,4.185,2.957,9.589,0.294,13.658c-0.583,0.893-1.282,1.717-2.11,2.452
		c0,0-0.005,0.004-0.009,0.008c-0.39,0.346-0.803,0.668-1.241,0.972c-2.373,1.626-5.121,2.336-7.808,2.208
		c-3.747-0.181-7.379-1.982-9.695-5.208c-0.466-0.662-0.868-1.347-1.188-2.053c-0.018-0.042-0.032-0.069-0.042-0.101
		c-0.26-0.571-0.465-1.152-0.623-1.753l-0.005-0.003C107.203,40.662,109.012,35.33,113.437,32.303z M115.768,35.553
		c-3.842,2.628-4.771,7.813-2.078,11.56c1.45,2.02,3.655,3.212,5.986,3.477c2.002,0.229,4.084-0.23,5.856-1.45
		c0.136-0.1,0.285-0.198,0.414-0.303c0.003-0.003,0.007,0,0.007,0c0.889-0.699,1.605-1.539,2.131-2.459
		c1.525-2.693,1.457-6.115-0.477-8.799C124.918,33.829,119.608,32.92,115.768,35.553z M118.1,38.801
		c2.009-1.38,4.773-0.898,6.18,1.053c0.844,1.185,1.006,2.622,0.571,3.882c-0.289,0.845-0.853,1.613-1.654,2.165
		c-0.158,0.108-0.318,0.199-0.487,0.279c-0.007,0.005-0.007,0.005-0.007,0.005c-1.076,0.552-2.305,0.633-3.411,0.288
		c-0.891-0.272-1.695-0.833-2.278-1.633C115.604,42.879,116.098,40.173,118.1,38.801z M113.689,47.113
		c1.45,2.02,3.655,3.212,5.986,3.477c2.002,0.229,4.084-0.23,5.856-1.45c0.136-0.1,0.285-0.198,0.414-0.303
		c0.003-0.003,0.007,0,0.007,0c0.889-0.699,1.605-1.539,2.131-2.459c1.525-2.693,1.457-6.115-0.477-8.799
		c-2.689-3.75-7.999-4.659-11.84-2.026C111.926,38.181,110.997,43.366,113.689,47.113z M118.1,38.801
		c2.009-1.38,4.773-0.898,6.18,1.053c0.844,1.185,1.006,2.622,0.571,3.882c-0.289,0.845-0.853,1.613-1.654,2.165
		c-0.158,0.108-0.318,0.199-0.487,0.279c-0.007,0.005-0.007,0.005-0.007,0.005c-1.076,0.552-2.305,0.633-3.411,0.288
		c-0.891-0.272-1.695-0.833-2.278-1.633C115.604,42.879,116.098,40.173,118.1,38.801z M113.689,47.113
		c1.45,2.02,3.655,3.212,5.986,3.477c2.002,0.229,4.084-0.23,5.856-1.45c0.136-0.1,0.285-0.198,0.414-0.303
		c0.003-0.003,0.007,0,0.007,0c0.889-0.699,1.605-1.539,2.131-2.459c1.525-2.693,1.457-6.115-0.477-8.799
		c-2.689-3.75-7.999-4.659-11.84-2.026C111.926,38.181,110.997,43.366,113.689,47.113z M118.1,38.801
		c2.009-1.38,4.773-0.898,6.18,1.053c0.844,1.185,1.006,2.622,0.571,3.882c-0.289,0.845-0.853,1.613-1.654,2.165
		c-0.158,0.108-0.318,0.199-0.487,0.279c-0.007,0.005-0.007,0.005-0.007,0.005c-1.076,0.552-2.305,0.633-3.411,0.288
		c-0.891-0.272-1.695-0.833-2.278-1.633C115.604,42.879,116.098,40.173,118.1,38.801z M104.528,46.299
		c0.177,0.708,0.407,1.416,0.69,2.105c0.464,1.129,1.063,2.229,1.813,3.27c0.302,0.408,0.605,0.8,0.939,1.186
		c0.585,0.672,1.223,1.304,1.905,1.861c2.986,2.475,6.743,3.802,10.559,3.854c3.376,0.045,6.794-0.901,9.762-2.935
		c0.742-0.51,1.424-1.062,2.036-1.66c0.013,0,0.009-0.006,0.009-0.006c0.804-0.75,1.51-1.582,2.115-2.455
		c3.802-5.423,3.995-12.802-0.096-18.493c-5.267-7.33-15.659-9.108-23.159-3.969C105.313,33.026,102.903,39.971,104.528,46.299z
		 M113.437,32.303c5.667-3.877,13.521-2.535,17.498,3c3.009,4.185,2.957,9.589,0.294,13.658c-0.583,0.893-1.282,1.717-2.11,2.452
		c0,0-0.005,0.004-0.009,0.008c-0.39,0.346-0.803,0.668-1.241,0.972c-2.373,1.626-5.121,2.336-7.808,2.208
		c-3.747-0.181-7.379-1.982-9.695-5.208c-0.466-0.662-0.868-1.347-1.188-2.053c-0.018-0.042-0.032-0.069-0.042-0.101
		c-0.26-0.571-0.465-1.152-0.623-1.753l-0.005-0.003C107.203,40.662,109.012,35.33,113.437,32.303z M115.768,35.553
		c-3.842,2.628-4.771,7.813-2.078,11.56c1.45,2.02,3.655,3.212,5.986,3.477c2.002,0.229,4.084-0.23,5.856-1.45
		c0.136-0.1,0.285-0.198,0.414-0.303c0.003-0.003,0.007,0,0.007,0c0.889-0.699,1.605-1.539,2.131-2.459
		c1.525-2.693,1.457-6.115-0.477-8.799C124.918,33.829,119.608,32.92,115.768,35.553z M118.1,38.801
		c2.009-1.38,4.773-0.898,6.18,1.053c0.844,1.185,1.006,2.622,0.571,3.882c-0.289,0.845-0.853,1.613-1.654,2.165
		c-0.158,0.108-0.318,0.199-0.487,0.279c-0.007,0.005-0.007,0.005-0.007,0.005c-1.076,0.552-2.305,0.633-3.411,0.288
		c-0.891-0.272-1.695-0.833-2.278-1.633C115.604,42.879,116.098,40.173,118.1,38.801z M113.689,47.113
		c1.45,2.02,3.655,3.212,5.986,3.477c2.002,0.229,4.084-0.23,5.856-1.45c0.136-0.1,0.285-0.198,0.414-0.303
		c0.003-0.003,0.007,0,0.007,0c0.889-0.699,1.605-1.539,2.131-2.459c1.525-2.693,1.457-6.115-0.477-8.799
		c-2.689-3.75-7.999-4.659-11.84-2.026C111.926,38.181,110.997,43.366,113.689,47.113z M118.1,38.801
		c2.009-1.38,4.773-0.898,6.18,1.053c0.844,1.185,1.006,2.622,0.571,3.882c-0.289,0.845-0.853,1.613-1.654,2.165
		c-0.158,0.108-0.318,0.199-0.487,0.279c-0.007,0.005-0.007,0.005-0.007,0.005c-1.076,0.552-2.305,0.633-3.411,0.288
		c-0.891-0.272-1.695-0.833-2.278-1.633C115.604,42.879,116.098,40.173,118.1,38.801z M113.689,47.113
		c1.45,2.02,3.655,3.212,5.986,3.477c2.002,0.229,4.084-0.23,5.856-1.45c0.136-0.1,0.285-0.198,0.414-0.303
		c0.003-0.003,0.007,0,0.007,0c0.889-0.699,1.605-1.539,2.131-2.459c1.525-2.693,1.457-6.115-0.477-8.799
		c-2.689-3.75-7.999-4.659-11.84-2.026C111.926,38.181,110.997,43.366,113.689,47.113z M118.1,38.801
		c2.009-1.38,4.773-0.898,6.18,1.053c0.844,1.185,1.006,2.622,0.571,3.882c-0.289,0.845-0.853,1.613-1.654,2.165
		c-0.158,0.108-0.318,0.199-0.487,0.279c-0.007,0.005-0.007,0.005-0.007,0.005c-1.076,0.552-2.305,0.633-3.411,0.288
		c-0.891-0.272-1.695-0.833-2.278-1.633C115.604,42.879,116.098,40.173,118.1,38.801z"/>
	<path fill="#FFFFFF" d="M113.689,47.113c1.45,2.02,3.655,3.212,5.986,3.477c2.002,0.229,4.084-0.23,5.856-1.45
		c0.136-0.1,0.285-0.198,0.414-0.303c0.003-0.003,0.007,0,0.007,0c0.889-0.699,1.605-1.539,2.131-2.459
		c1.525-2.693,1.457-6.115-0.477-8.799c-2.689-3.75-7.999-4.659-11.84-2.026C111.926,38.181,110.997,43.366,113.689,47.113z
		 M118.1,38.801c2.009-1.38,4.773-0.898,6.18,1.053c0.844,1.185,1.006,2.622,0.571,3.882c-0.289,0.845-0.853,1.613-1.654,2.165
		c-0.158,0.108-0.318,0.199-0.487,0.279c-0.007,0.005-0.007,0.005-0.007,0.005c-1.076,0.552-2.305,0.633-3.411,0.288
		c-0.891-0.272-1.695-0.833-2.278-1.633C115.604,42.879,116.098,40.173,118.1,38.801z M113.689,47.113
		c1.45,2.02,3.655,3.212,5.986,3.477c2.002,0.229,4.084-0.23,5.856-1.45c0.136-0.1,0.285-0.198,0.414-0.303
		c0.003-0.003,0.007,0,0.007,0c0.889-0.699,1.605-1.539,2.131-2.459c1.525-2.693,1.457-6.115-0.477-8.799
		c-2.689-3.75-7.999-4.659-11.84-2.026C111.926,38.181,110.997,43.366,113.689,47.113z M118.1,38.801
		c2.009-1.38,4.773-0.898,6.18,1.053c0.844,1.185,1.006,2.622,0.571,3.882c-0.289,0.845-0.853,1.613-1.654,2.165
		c-0.158,0.108-0.318,0.199-0.487,0.279c-0.007,0.005-0.007,0.005-0.007,0.005c-1.076,0.552-2.305,0.633-3.411,0.288
		c-0.891-0.272-1.695-0.833-2.278-1.633C115.604,42.879,116.098,40.173,118.1,38.801z M104.528,46.299
		c0.177,0.708,0.407,1.416,0.69,2.105c0.464,1.129,1.063,2.229,1.813,3.27c0.302,0.408,0.605,0.8,0.939,1.186
		c0.585,0.672,1.223,1.304,1.905,1.861c2.986,2.475,6.743,3.802,10.559,3.854c3.376,0.045,6.794-0.901,9.762-2.935
		c0.742-0.51,1.424-1.062,2.036-1.66c0.013,0,0.009-0.006,0.009-0.006c0.804-0.75,1.51-1.582,2.115-2.455
		c3.802-5.423,3.995-12.802-0.096-18.493c-5.267-7.33-15.659-9.108-23.159-3.969C105.313,33.026,102.903,39.971,104.528,46.299z
		 M113.437,32.303c5.667-3.877,13.521-2.535,17.498,3c3.009,4.185,2.957,9.589,0.294,13.658c-0.583,0.893-1.282,1.717-2.11,2.452
		c0,0-0.005,0.004-0.009,0.008c-0.39,0.346-0.803,0.668-1.241,0.972c-2.373,1.626-5.121,2.336-7.808,2.208
		c-3.747-0.181-7.379-1.982-9.695-5.208c-0.466-0.662-0.868-1.347-1.188-2.053c-0.018-0.042-0.032-0.069-0.042-0.101
		c-0.26-0.571-0.465-1.152-0.623-1.753l-0.005-0.003C107.203,40.662,109.012,35.33,113.437,32.303z M115.768,35.553
		c-3.842,2.628-4.771,7.813-2.078,11.56c1.45,2.02,3.655,3.212,5.986,3.477c2.002,0.229,4.084-0.23,5.856-1.45
		c0.136-0.1,0.285-0.198,0.414-0.303c0.003-0.003,0.007,0,0.007,0c0.889-0.699,1.605-1.539,2.131-2.459
		c1.525-2.693,1.457-6.115-0.477-8.799C124.918,33.829,119.608,32.92,115.768,35.553z M118.1,38.801
		c2.009-1.38,4.773-0.898,6.18,1.053c0.844,1.185,1.006,2.622,0.571,3.882c-0.289,0.845-0.853,1.613-1.654,2.165
		c-0.158,0.108-0.318,0.199-0.487,0.279c-0.007,0.005-0.007,0.005-0.007,0.005c-1.076,0.552-2.305,0.633-3.411,0.288
		c-0.891-0.272-1.695-0.833-2.278-1.633C115.604,42.879,116.098,40.173,118.1,38.801z M113.689,47.113
		c1.45,2.02,3.655,3.212,5.986,3.477c2.002,0.229,4.084-0.23,5.856-1.45c0.136-0.1,0.285-0.198,0.414-0.303
		c0.003-0.003,0.007,0,0.007,0c0.889-0.699,1.605-1.539,2.131-2.459c1.525-2.693,1.457-6.115-0.477-8.799
		c-2.689-3.75-7.999-4.659-11.84-2.026C111.926,38.181,110.997,43.366,113.689,47.113z M118.1,38.801
		c2.009-1.38,4.773-0.898,6.18,1.053c0.844,1.185,1.006,2.622,0.571,3.882c-0.289,0.845-0.853,1.613-1.654,2.165
		c-0.158,0.108-0.318,0.199-0.487,0.279c-0.007,0.005-0.007,0.005-0.007,0.005c-1.076,0.552-2.305,0.633-3.411,0.288
		c-0.891-0.272-1.695-0.833-2.278-1.633C115.604,42.879,116.098,40.173,118.1,38.801z M113.689,47.113
		c1.45,2.02,3.655,3.212,5.986,3.477c2.002,0.229,4.084-0.23,5.856-1.45c0.136-0.1,0.285-0.198,0.414-0.303
		c0.003-0.003,0.007,0,0.007,0c0.889-0.699,1.605-1.539,2.131-2.459c1.525-2.693,1.457-6.115-0.477-8.799
		c-2.689-3.75-7.999-4.659-11.84-2.026C111.926,38.181,110.997,43.366,113.689,47.113z M118.1,38.801
		c2.009-1.38,4.773-0.898,6.18,1.053c0.844,1.185,1.006,2.622,0.571,3.882c-0.289,0.845-0.853,1.613-1.654,2.165
		c-0.158,0.108-0.318,0.199-0.487,0.279c-0.007,0.005-0.007,0.005-0.007,0.005c-1.076,0.552-2.305,0.633-3.411,0.288
		c-0.891-0.272-1.695-0.833-2.278-1.633C115.604,42.879,116.098,40.173,118.1,38.801z"/>
	<path fill="#209DD9" d="M103.083,53.019c0.2,0.311,0.399,0.623,0.622,0.929c1.625,2.263,3.641,4.099,5.901,5.483l0.016,0.013
		c0.242,0.148,0.494,0.293,0.745,0.432c2.179,1.221,4.559,2.03,7.015,2.41c1.127,0.174,2.276,0.261,3.432,0.251
		c1.368-0.007,2.735-0.147,4.089-0.425c2.668-0.538,5.26-1.601,7.625-3.223c1.035-0.712,1.984-1.497,2.839-2.354v-0.001
		c0.789-0.767,1.494-1.589,2.123-2.453c4.947-6.78,5.257-16.148,0.096-23.345c-6.552-9.112-19.479-11.327-28.821-4.928
		C99.74,31.989,97.317,43.993,103.083,53.019z M111.103,29.059c7.5-5.139,17.893-3.361,23.159,3.969
		c4.091,5.691,3.897,13.069,0.096,18.493c-0.605,0.873-1.312,1.705-2.115,2.455c0,0,0.004,0.006-0.009,0.006
		c-0.612,0.598-1.294,1.15-2.036,1.66c-2.968,2.033-6.386,2.979-9.762,2.935c-3.815-0.052-7.572-1.379-10.559-3.854
		c-0.683-0.558-1.32-1.189-1.905-1.861c-0.334-0.385-0.638-0.778-0.939-1.186c-0.751-1.042-1.35-2.141-1.813-3.27
		c-0.283-0.689-0.514-1.397-0.69-2.105C102.903,39.971,105.313,33.026,111.103,29.059z"/>
	<path fill="#FFFFFF" d="M113.689,47.113c1.45,2.02,3.655,3.212,5.986,3.477c2.002,0.229,4.084-0.23,5.856-1.45
		c0.136-0.1,0.285-0.198,0.414-0.303c0.003-0.003,0.007,0,0.007,0c0.889-0.699,1.605-1.539,2.131-2.459
		c1.525-2.693,1.457-6.115-0.477-8.799c-2.689-3.75-7.999-4.659-11.84-2.026C111.926,38.181,110.997,43.366,113.689,47.113z
		 M118.1,38.801c2.009-1.38,4.773-0.898,6.18,1.053c0.844,1.185,1.006,2.622,0.571,3.882c-0.289,0.845-0.853,1.613-1.654,2.165
		c-0.158,0.108-0.318,0.199-0.487,0.279c-0.007,0.005-0.007,0.005-0.007,0.005c-1.076,0.552-2.305,0.633-3.411,0.288
		c-0.891-0.272-1.695-0.833-2.278-1.633C115.604,42.879,116.098,40.173,118.1,38.801z M113.689,47.113
		c1.45,2.02,3.655,3.212,5.986,3.477c2.002,0.229,4.084-0.23,5.856-1.45c0.136-0.1,0.285-0.198,0.414-0.303
		c0.003-0.003,0.007,0,0.007,0c0.889-0.699,1.605-1.539,2.131-2.459c1.525-2.693,1.457-6.115-0.477-8.799
		c-2.689-3.75-7.999-4.659-11.84-2.026C111.926,38.181,110.997,43.366,113.689,47.113z M118.1,38.801
		c2.009-1.38,4.773-0.898,6.18,1.053c0.844,1.185,1.006,2.622,0.571,3.882c-0.289,0.845-0.853,1.613-1.654,2.165
		c-0.158,0.108-0.318,0.199-0.487,0.279c-0.007,0.005-0.007,0.005-0.007,0.005c-1.076,0.552-2.305,0.633-3.411,0.288
		c-0.891-0.272-1.695-0.833-2.278-1.633C115.604,42.879,116.098,40.173,118.1,38.801z M104.528,46.299
		c0.177,0.708,0.407,1.416,0.69,2.105c0.464,1.129,1.063,2.229,1.813,3.27c0.302,0.408,0.605,0.8,0.939,1.186
		c0.585,0.672,1.223,1.304,1.905,1.861c2.986,2.475,6.743,3.802,10.559,3.854c3.376,0.045,6.794-0.901,9.762-2.935
		c0.742-0.51,1.424-1.062,2.036-1.66c0.013,0,0.009-0.006,0.009-0.006c0.804-0.75,1.51-1.582,2.115-2.455
		c3.802-5.423,3.995-12.802-0.096-18.493c-5.267-7.33-15.659-9.108-23.159-3.969C105.313,33.026,102.903,39.971,104.528,46.299z
		 M113.437,32.303c5.667-3.877,13.521-2.535,17.498,3c3.009,4.185,2.957,9.589,0.294,13.658c-0.583,0.893-1.282,1.717-2.11,2.452
		c0,0-0.005,0.004-0.009,0.008c-0.39,0.346-0.803,0.668-1.241,0.972c-2.373,1.626-5.121,2.336-7.808,2.208
		c-3.747-0.181-7.379-1.982-9.695-5.208c-0.466-0.662-0.868-1.347-1.188-2.053c-0.018-0.042-0.032-0.069-0.042-0.101
		c-0.26-0.571-0.465-1.152-0.623-1.753l-0.005-0.003C107.203,40.662,109.012,35.33,113.437,32.303z M115.768,35.553
		c-3.842,2.628-4.771,7.813-2.078,11.56c1.45,2.02,3.655,3.212,5.986,3.477c2.002,0.229,4.084-0.23,5.856-1.45
		c0.136-0.1,0.285-0.198,0.414-0.303c0.003-0.003,0.007,0,0.007,0c0.889-0.699,1.605-1.539,2.131-2.459
		c1.525-2.693,1.457-6.115-0.477-8.799C124.918,33.829,119.608,32.92,115.768,35.553z M118.1,38.801
		c2.009-1.38,4.773-0.898,6.18,1.053c0.844,1.185,1.006,2.622,0.571,3.882c-0.289,0.845-0.853,1.613-1.654,2.165
		c-0.158,0.108-0.318,0.199-0.487,0.279c-0.007,0.005-0.007,0.005-0.007,0.005c-1.076,0.552-2.305,0.633-3.411,0.288
		c-0.891-0.272-1.695-0.833-2.278-1.633C115.604,42.879,116.098,40.173,118.1,38.801z M113.689,47.113
		c1.45,2.02,3.655,3.212,5.986,3.477c2.002,0.229,4.084-0.23,5.856-1.45c0.136-0.1,0.285-0.198,0.414-0.303
		c0.003-0.003,0.007,0,0.007,0c0.889-0.699,1.605-1.539,2.131-2.459c1.525-2.693,1.457-6.115-0.477-8.799
		c-2.689-3.75-7.999-4.659-11.84-2.026C111.926,38.181,110.997,43.366,113.689,47.113z M118.1,38.801
		c2.009-1.38,4.773-0.898,6.18,1.053c0.844,1.185,1.006,2.622,0.571,3.882c-0.289,0.845-0.853,1.613-1.654,2.165
		c-0.158,0.108-0.318,0.199-0.487,0.279c-0.007,0.005-0.007,0.005-0.007,0.005c-1.076,0.552-2.305,0.633-3.411,0.288
		c-0.891-0.272-1.695-0.833-2.278-1.633C115.604,42.879,116.098,40.173,118.1,38.801z M113.689,47.113
		c1.45,2.02,3.655,3.212,5.986,3.477c2.002,0.229,4.084-0.23,5.856-1.45c0.136-0.1,0.285-0.198,0.414-0.303
		c0.003-0.003,0.007,0,0.007,0c0.889-0.699,1.605-1.539,2.131-2.459c1.525-2.693,1.457-6.115-0.477-8.799
		c-2.689-3.75-7.999-4.659-11.84-2.026C111.926,38.181,110.997,43.366,113.689,47.113z M118.1,38.801
		c2.009-1.38,4.773-0.898,6.18,1.053c0.844,1.185,1.006,2.622,0.571,3.882c-0.289,0.845-0.853,1.613-1.654,2.165
		c-0.158,0.108-0.318,0.199-0.487,0.279c-0.007,0.005-0.007,0.005-0.007,0.005c-1.076,0.552-2.305,0.633-3.411,0.288
		c-0.891-0.272-1.695-0.833-2.278-1.633C115.604,42.879,116.098,40.173,118.1,38.801z"/>
	<path fill="#FFFFFF" d="M113.689,47.113c1.45,2.02,3.655,3.212,5.986,3.477c2.002,0.229,4.084-0.23,5.856-1.45
		c0.136-0.1,0.285-0.198,0.414-0.303c0.003-0.003,0.007,0,0.007,0c0.889-0.699,1.605-1.539,2.131-2.459
		c1.525-2.693,1.457-6.115-0.477-8.799c-2.689-3.75-7.999-4.659-11.84-2.026C111.926,38.181,110.997,43.366,113.689,47.113z
		 M118.1,38.801c2.009-1.38,4.773-0.898,6.18,1.053c0.844,1.185,1.006,2.622,0.571,3.882c-0.289,0.845-0.853,1.613-1.654,2.165
		c-0.158,0.108-0.318,0.199-0.487,0.279c-0.007,0.005-0.007,0.005-0.007,0.005c-1.076,0.552-2.305,0.633-3.411,0.288
		c-0.891-0.272-1.695-0.833-2.278-1.633C115.604,42.879,116.098,40.173,118.1,38.801z"/>
	<path fill="#F8E02F" d="M108.508,45.482l0.005,0.003c0.158,0.601,0.363,1.182,0.623,1.753c0.01,0.032,0.024,0.059,0.042,0.101
		c0.319,0.706,0.722,1.392,1.188,2.053c2.316,3.225,5.948,5.027,9.695,5.208c2.687,0.128,5.435-0.582,7.808-2.208
		c0.438-0.303,0.852-0.626,1.241-0.972c0.004-0.004,0.009-0.008,0.009-0.008c0.828-0.735,1.527-1.56,2.11-2.452
		c2.663-4.068,2.715-9.473-0.294-13.658c-3.977-5.535-11.831-6.877-17.498-3C109.012,35.33,107.203,40.662,108.508,45.482z
		 M115.768,35.553c3.841-2.633,9.15-1.725,11.84,2.026c1.934,2.684,2.002,6.105,0.477,8.799c-0.525,0.92-1.242,1.76-2.131,2.459
		c0,0-0.004-0.003-0.007,0c-0.129,0.104-0.278,0.203-0.414,0.303c-1.772,1.22-3.854,1.679-5.856,1.45
		c-2.331-0.264-4.536-1.457-5.986-3.477C110.997,43.366,111.926,38.181,115.768,35.553z"/>
	<path fill="#E43333" d="M123.199,45.891c-2.007,1.375-4.775,0.908-6.187-1.051c-1.407-1.962-0.915-4.667,1.087-6.039
		c2.008-1.378,4.773-0.898,6.18,1.06C125.688,41.822,125.201,44.517,123.199,45.891z"/>
	<path fill="#3F5688" d="M154.589,70.184c-0.544,0.622-1.459,0.748-2.149,0.328c-0.07-0.039-0.122-0.083-0.173-0.124l-10.547-8.625
		l0.009-0.013l-22.255-18.207c-0.69-0.56-0.78-1.586-0.199-2.267c0.288-0.342,0.7-0.536,1.12-0.571
		c0.412-0.033,0.854,0.088,1.208,0.374l26.361,21.563l-0.012,0.016l6.428,5.265C155.07,68.484,155.166,69.501,154.589,70.184z"/>
	<path fill="#B9BABD" d="M154.141,68.523c-0.122,0.141-0.434,0.078-0.699-0.14l-7.96-6.513c-0.268-0.218-0.388-0.507-0.268-0.648
		l2.427-2.833c0.125-0.139,0.646-0.202,0.909,0.012l8.99,5.207c0.26,0.217,0.38,0.509,0.26,0.653L154.141,68.523z"/>
	<path fill="#B9BABD" d="M152.439,70.511l-2.995,3.477c-0.12,0.144-0.432,0.085-0.699-0.133l-6.818-7.729
		c-0.265-0.213-0.294-0.73-0.172-0.872l1.742-2.034l8.77,7.167C152.317,70.432,152.378,70.472,152.439,70.511z"/>
	<path opacity="0.38" fill="#808081" d="M118.932,42.634l0.751,7.945l0.372,4.001l0.006,0.004l0.746,7.938l0.379,3.966l0.372,3.953
		c5.432-0.155,10.865-1.813,15.639-5.08c1.622-1.116,3.099-2.364,4.401-3.725l-3.111-2.548l-3.12-2.556l-3.124-2.562l-3.138-2.566
		l-3.169-2.582l-3.242-2.657l-3.212-2.629C119.187,43.297,119.004,42.98,118.932,42.634z"/>
</g>
<linearGradient id="nuage_3_" gradientUnits="userSpaceOnUse" x1="179.9814" y1="101.8018" x2="245.8398" y2="101.8018">
	<stop  offset="0" style="stop-color:#CCCCCC"/>
	<stop  offset="1" style="stop-color:#656565"/>
</linearGradient>
<path id="nuage_1_" opacity="0.42" fill="url(#nuage_3_)" d="M245.84,104.262c0,8.999-6.305,16.287-14.09,16.287h-40.694
	c-6.112,0-11.074-5.735-11.074-12.799c0-7.069,4.962-12.805,11.074-12.805c1.381,0,2.695,0.292,3.913,0.825
	c2.162-7.396,8.222-12.714,15.351-12.714c5.49,0,10.336,3.142,13.267,7.953c2.304-1.908,5.122-3.025,8.164-3.025
	C239.535,87.983,245.84,95.276,245.84,104.262z"/>
<linearGradient id="nuage_4_" gradientUnits="userSpaceOnUse" x1="5.4258" y1="31.5645" x2="71.2847" y2="31.5645">
	<stop  offset="0" style="stop-color:#CCCCCC"/>
	<stop  offset="1" style="stop-color:#656565"/>
</linearGradient>
<path id="nuage_2_" opacity="0.42" fill="url(#nuage_4_)" d="M71.285,34.025c0,8.999-6.305,16.287-14.09,16.287H16.499
	c-6.11,0-11.073-5.737-11.073-12.801c0-7.068,4.963-12.805,11.073-12.805c1.381,0,2.698,0.292,3.915,0.826
	c2.162-7.398,8.222-12.716,15.35-12.716c5.49,0,10.336,3.143,13.267,7.955c2.305-1.908,5.122-3.026,8.164-3.026
	C64.979,17.745,71.285,25.039,71.285,34.025z"/>
<linearGradient id="SVGID_2_" gradientUnits="userSpaceOnUse" x1="7.3999" y1="63.4648" x2="19.7036" y2="63.4648">
	<stop  offset="0" style="stop-color:#CCCCCC"/>
	<stop  offset="1" style="stop-color:#656565"/>
</linearGradient>
<polygon fill="url(#SVGID_2_)" points="19.704,61.99 15,61.99 15,57.197 12.104,57.197 12.104,61.99 7.4,61.99 7.4,64.94 
	12.104,64.94 12.104,69.733 15,69.733 15,64.94 19.704,64.94 "/>
<linearGradient id="SVGID_3_" gradientUnits="userSpaceOnUse" x1="179.1445" y1="20.374" x2="191.4463" y2="20.374">
	<stop  offset="0" style="stop-color:#CCCCCC"/>
	<stop  offset="1" style="stop-color:#656565"/>
</linearGradient>
<polygon fill="url(#SVGID_3_)" points="191.446,18.7 186.743,18.7 186.743,13.263 183.848,13.263 183.848,18.7 179.145,18.7 
	179.145,22.047 183.848,22.047 183.848,27.485 186.743,27.485 186.743,22.047 191.446,22.047 "/>
<linearGradient id="SVGID_4_" gradientUnits="userSpaceOnUse" x1="49.1484" y1="182.2295" x2="61.4521" y2="182.2295">
	<stop  offset="0" style="stop-color:#CCCCCC"/>
	<stop  offset="1" style="stop-color:#656565"/>
</linearGradient>
<polygon fill="url(#SVGID_4_)" points="61.452,180.556 56.749,180.556 56.749,175.118 53.853,175.118 53.853,180.556 
	49.148,180.556 49.148,183.901 53.853,183.901 53.853,189.341 56.749,189.341 56.749,183.901 61.452,183.901 "/>
<linearGradient id="SVGID_5_" gradientUnits="userSpaceOnUse" x1="233.6963" y1="141.8477" x2="246" y2="141.8477">
	<stop  offset="0" style="stop-color:#CCCCCC"/>
	<stop  offset="1" style="stop-color:#656565"/>
</linearGradient>
<polygon fill="url(#SVGID_5_)" points="246,140.173 241.297,140.173 241.297,134.736 238.401,134.736 238.401,140.173 
	233.696,140.173 233.696,143.521 238.401,143.521 238.401,148.959 241.297,148.959 241.297,143.521 246,143.521 "/>
</svg>
