<?xml version="1.0" encoding="utf-8"?>
<!-- Generator: Adobe Illustrator 16.0.0, SVG Export Plug-In . SVG Version: 6.00 Build 0)  -->
<!DOCTYPE svg PUBLIC "-//W3C//DTD SVG 1.1//EN" "http://www.w3.org/Graphics/SVG/1.1/DTD/svg11.dtd">
<svg version="1.1" id="Calque_1" xmlns="http://www.w3.org/2000/svg" xmlns:xlink="http://www.w3.org/1999/xlink" x="0px" y="0px"
	 width="250px" height="250px" viewBox="0 0 250 250" enable-background="new 0 0 250 250" xml:space="preserve">
<g opacity="0.73">
	<path fill="#119CD3" d="M237.337,128.361v-27.115c1.085-0.437,1.853-1.505,1.853-2.759c0-1.643-1.313-2.975-2.933-2.975
		s-2.933,1.332-2.933,2.975c0,1.239,0.75,2.3,1.813,2.746v26.012h-98.382c-0.608,0-1.1,0.502-1.1,1.117v30.953
		c0,0.613,0.491,1.115,1.1,1.115c0.606,0,1.1-0.502,1.1-1.115v-29.838h98.383C236.845,129.477,237.337,128.977,237.337,128.361z"/>
	<path fill="#119CD3" d="M109.48,111.047H48.958V44.542c0.993-0.476,1.687-1.494,1.687-2.683c0-1.643-1.313-2.973-2.935-2.973
		c-1.619,0-2.934,1.331-2.934,2.973c0,1.301,0.831,2.396,1.979,2.799v67.504c0,0.616,0.493,1.115,1.101,1.115h60.522v43.459
		c0,0.614,0.493,1.115,1.1,1.115s1.101-0.501,1.101-1.115v-44.574C110.581,111.546,110.087,111.047,109.48,111.047z"/>
	<path fill="#119CD3" d="M79.176,202.938H60.609c-0.607,0-1.099,0.5-1.1,1.113l-0.035,35.472H41.626
		c-0.438-1.081-1.487-1.846-2.713-1.846c-1.62,0-2.933,1.332-2.933,2.973c0,1.643,1.313,2.975,2.933,2.975
		c1.235,0,2.287-0.774,2.72-1.869h18.94c0.607,0,1.099-0.498,1.1-1.114l0.034-35.472h17.468c0.607,0,1.1-0.499,1.1-1.114
		C80.276,203.438,79.784,202.938,79.176,202.938z"/>
	<path fill="#119CD3" d="M21.127,76.646c-0.608,0-1.1,0.5-1.1,1.115v18.226H6.654c-0.607,0-1.1,0.499-1.1,1.116v17.309
		c-1.065,0.445-1.815,1.506-1.815,2.747c0,1.642,1.313,2.973,2.934,2.973c1.62,0,2.934-1.332,2.934-2.973
		c0-1.255-0.769-2.322-1.853-2.759V98.217h13.373c0.608,0,1.1-0.499,1.1-1.114V77.761C22.227,77.146,21.735,76.646,21.127,76.646z"
		/>
	<path fill="#119CD3" d="M192.9,79.266c0.608,0,1.101-0.499,1.101-1.115V21.993h2.088c0.459,1.036,1.479,1.76,2.672,1.76
		c1.62,0,2.933-1.332,2.933-2.974c0-1.642-1.313-2.973-2.933-2.973c-1.266,0-2.334,0.817-2.748,1.958H192.9
		c-0.606,0-1.1,0.5-1.1,1.115v57.273C191.801,78.767,192.294,79.266,192.9,79.266z"/>
	<path fill="#119CD3" d="M245.55,159.722h-22.299c-0.411-1.136-1.479-1.953-2.745-1.953c-1.619,0-2.932,1.331-2.932,2.974
		s1.313,2.974,2.932,2.974c1.194,0,2.218-0.727,2.676-1.763h21.268v58.094c0,0.615,0.493,1.114,1.101,1.114s1.1-0.499,1.1-1.114
		v-59.209C246.649,160.221,246.157,159.722,245.55,159.722z"/>
	<path fill="#119CD3" d="M122.522,89.938c-1.622,0-2.935,1.331-2.935,2.974c0,1.246,0.76,2.312,1.834,2.751v61.073
		c0,0.614,0.493,1.115,1.101,1.115c0.606,0,1.1-0.501,1.1-1.115V95.663c1.074-0.44,1.832-1.506,1.832-2.751
		C125.455,91.269,124.141,89.938,122.522,89.938z"/>
</g>
<g>
	<path fill="#FFFFFF" d="M121.064,141.676c4.219,1.147,8.514,0.336,11.912-1.892c2.918-1.906,5.17-4.835,6.145-8.456
		c0.076-0.29,0.158-0.585,0.211-0.874c0-0.008,0.008-0.008,0.008-0.008c0.393-1.933,0.393-3.872,0.045-5.711
		c-1.025-5.362-4.996-9.949-10.609-11.464c-7.831-2.136-15.93,2.505-18.057,10.348C108.582,131.457,113.222,139.552,121.064,141.676
		z M117.503,125.466c1.114-4.105,5.339-6.515,9.423-5.411c2.463,0.676,4.314,2.46,5.162,4.661c0.574,1.473,0.693,3.137,0.252,4.777
		c-0.094,0.328-0.199,0.628-0.328,0.927c0,0.01,0,0.01,0,0.01c-0.809,1.944-2.355,3.415-4.219,4.172
		c-1.496,0.613-3.207,0.742-4.884,0.292C118.809,133.785,116.395,129.551,117.503,125.466z M121.064,141.676
		c4.219,1.147,8.514,0.336,11.912-1.892c2.918-1.906,5.17-4.835,6.145-8.456c0.076-0.29,0.158-0.585,0.211-0.874
		c0-0.008,0.008-0.008,0.008-0.008c0.393-1.933,0.393-3.872,0.045-5.711c-1.025-5.362-4.996-9.949-10.609-11.464
		c-7.831-2.136-15.93,2.505-18.057,10.348C108.582,131.457,113.222,139.552,121.064,141.676z M117.503,125.466
		c1.114-4.105,5.339-6.515,9.423-5.411c2.463,0.676,4.314,2.46,5.162,4.661c0.574,1.473,0.693,3.137,0.252,4.777
		c-0.094,0.328-0.199,0.628-0.328,0.927c0,0.01,0,0.01,0,0.01c-0.809,1.944-2.355,3.415-4.219,4.172
		c-1.496,0.613-3.207,0.742-4.884,0.292C118.809,133.785,116.395,129.551,117.503,125.466z M121.064,141.676
		c4.219,1.147,8.514,0.336,11.912-1.892c2.918-1.906,5.17-4.835,6.145-8.456c0.076-0.29,0.158-0.585,0.211-0.874
		c0-0.008,0.008-0.008,0.008-0.008c0.393-1.933,0.393-3.872,0.045-5.711c-1.025-5.362-4.996-9.949-10.609-11.464
		c-7.831-2.136-15.93,2.505-18.057,10.348C108.582,131.457,113.222,139.552,121.064,141.676z M117.503,125.466
		c1.114-4.105,5.339-6.515,9.423-5.411c2.463,0.676,4.314,2.46,5.162,4.661c0.574,1.473,0.693,3.137,0.252,4.777
		c-0.094,0.328-0.199,0.628-0.328,0.927c0,0.01,0,0.01,0,0.01c-0.809,1.944-2.355,3.415-4.219,4.172
		c-1.496,0.613-3.207,0.742-4.884,0.292C118.809,133.785,116.395,129.551,117.503,125.466z M121.064,141.676
		c4.219,1.147,8.514,0.336,11.912-1.892c2.918-1.906,5.17-4.835,6.145-8.456c0.076-0.29,0.158-0.585,0.211-0.874
		c0-0.008,0.008-0.008,0.008-0.008c0.393-1.933,0.393-3.872,0.045-5.711c-1.025-5.362-4.996-9.949-10.609-11.464
		c-7.831-2.136-15.93,2.505-18.057,10.348C108.582,131.457,113.222,139.552,121.064,141.676z M117.503,125.466
		c1.114-4.105,5.339-6.515,9.423-5.411c2.463,0.676,4.314,2.46,5.162,4.661c0.574,1.473,0.693,3.137,0.252,4.777
		c-0.094,0.328-0.199,0.628-0.328,0.927c0,0.01,0,0.01,0,0.01c-0.809,1.944-2.355,3.415-4.219,4.172
		c-1.496,0.613-3.207,0.742-4.884,0.292C118.809,133.785,116.395,129.551,117.503,125.466z M107.94,150.717
		c1.042,0.767,2.15,1.475,3.308,2.101c1.899,1.024,3.946,1.862,6.124,2.447c0.861,0.229,1.714,0.424,2.591,0.582
		c1.549,0.271,3.108,0.416,4.649,0.429c6.781,0.062,13.292-2.285,18.427-6.442c4.551-3.676,8.025-8.753,9.668-14.813
		c0.404-1.509,0.689-3.02,0.828-4.519c0.018-0.015,0-0.015,0-0.015c0.223-1.913,0.223-3.829,0.027-5.69
		c-1.082-11.603-9.199-21.872-21.094-25.1c-15.317-4.162-31.164,4.921-35.327,20.229C93.936,131.749,98.601,143.887,107.94,150.717z
		 M103.932,121.768c3.145-11.564,15.123-18.431,26.689-15.286c8.754,2.369,14.813,9.802,15.881,18.297
		c0.24,1.858,0.24,3.76-0.023,5.673c0,0-0.01,0.015-0.01,0.029c-0.119,0.897-0.303,1.793-0.549,2.694
		c-1.313,4.847-4.164,8.855-7.889,11.655c-5.193,3.901-12.068,5.468-18.811,3.633c-1.372-0.381-2.685-0.874-3.911-1.482
		c-0.064-0.031-0.12-0.058-0.17-0.091c-0.991-0.483-1.931-1.054-2.812-1.695h-0.015C105.107,140.064,101.47,130.796,103.932,121.768
		z M110.719,123.619c-2.137,7.838,2.503,15.933,10.346,18.057c4.219,1.147,8.514,0.336,11.912-1.892
		c2.918-1.906,5.17-4.835,6.145-8.456c0.076-0.29,0.158-0.585,0.211-0.874c0-0.008,0.008-0.008,0.008-0.008
		c0.393-1.933,0.393-3.872,0.045-5.711c-1.025-5.362-4.996-9.949-10.609-11.464C120.944,111.135,112.846,115.776,110.719,123.619z
		 M117.503,125.466c1.114-4.105,5.339-6.515,9.423-5.411c2.463,0.676,4.314,2.46,5.162,4.661c0.574,1.473,0.693,3.137,0.252,4.777
		c-0.094,0.328-0.199,0.628-0.328,0.927c0,0.01,0,0.01,0,0.01c-0.809,1.944-2.355,3.415-4.219,4.172
		c-1.496,0.613-3.207,0.742-4.884,0.292C118.809,133.785,116.395,129.551,117.503,125.466z M107.94,150.717
		c1.042,0.767,2.15,1.475,3.308,2.101c1.899,1.024,3.946,1.862,6.124,2.447c0.861,0.229,1.714,0.424,2.591,0.582
		c1.549,0.271,3.108,0.416,4.649,0.429c6.781,0.062,13.292-2.285,18.427-6.442c4.551-3.676,8.025-8.753,9.668-14.813
		c0.404-1.509,0.689-3.02,0.828-4.519c0.018-0.015,0-0.015,0-0.015c0.223-1.913,0.223-3.829,0.027-5.69
		c-1.082-11.603-9.199-21.872-21.094-25.1c-15.317-4.162-31.164,4.921-35.327,20.229C93.936,131.749,98.601,143.887,107.94,150.717z
		 M103.932,121.768c3.145-11.564,15.123-18.431,26.689-15.286c8.754,2.369,14.813,9.802,15.881,18.297
		c0.24,1.858,0.24,3.76-0.023,5.673c0,0-0.01,0.015-0.01,0.029c-0.119,0.897-0.303,1.793-0.549,2.694
		c-1.313,4.847-4.164,8.855-7.889,11.655c-5.193,3.901-12.068,5.468-18.811,3.633c-1.372-0.381-2.685-0.874-3.911-1.482
		c-0.064-0.031-0.12-0.058-0.17-0.091c-0.991-0.483-1.931-1.054-2.812-1.695h-0.015C105.107,140.064,101.47,130.796,103.932,121.768
		z M110.719,123.619c-2.137,7.838,2.503,15.933,10.346,18.057c4.219,1.147,8.514,0.336,11.912-1.892
		c2.918-1.906,5.17-4.835,6.145-8.456c0.076-0.29,0.158-0.585,0.211-0.874c0-0.008,0.008-0.008,0.008-0.008
		c0.393-1.933,0.393-3.872,0.045-5.711c-1.025-5.362-4.996-9.949-10.609-11.464C120.944,111.135,112.846,115.776,110.719,123.619z
		 M117.503,125.466c1.114-4.105,5.339-6.515,9.423-5.411c2.463,0.676,4.314,2.46,5.162,4.661c0.574,1.473,0.693,3.137,0.252,4.777
		c-0.094,0.328-0.199,0.628-0.328,0.927c0,0.01,0,0.01,0,0.01c-0.809,1.944-2.355,3.415-4.219,4.172
		c-1.496,0.613-3.207,0.742-4.884,0.292C118.809,133.785,116.395,129.551,117.503,125.466z M113.693,168.831
		c2.177,0.585,4.363,1.001,6.545,1.231c1.864,0.229,3.717,0.302,5.549,0.263c6.134-0.122,12.085-1.582,17.492-4.147
		c1.352-0.64,2.68-1.355,3.955-2.153c0.18-0.088,0.377-0.21,0.561-0.32c0,0,0,0,0.012-0.015c1.838-1.147,3.58-2.452,5.221-3.872
		c1.695-1.456,3.27-3.059,4.701-4.775c0.25-0.278,0.482-0.565,0.703-0.853c3.555-4.431,6.26-9.651,7.848-15.474
		c0.736-2.726,1.191-5.448,1.387-8.166v-0.015c0.141-1.916,0.16-3.817,0.025-5.69c-0.664-10.963-5.582-21.228-13.479-28.632
		c-0.074-0.094-0.154-0.158-0.232-0.225c-4.912-4.555-10.941-8.004-17.834-9.874c-22.803-6.188-46.38,7.326-52.588,30.132
		C77.371,139.049,90.885,162.626,113.693,168.831z M90.346,118.092c5.175-19.068,24.899-30.369,43.955-25.196
		c15.029,4.088,25.246,17.209,26.348,31.926c0.141,1.875,0.131,3.774-0.039,5.692v0.007c-0.17,2.117-0.545,4.237-1.115,6.347
		c-1.313,4.833-3.557,9.158-6.492,12.844c-1.484,1.88-3.154,3.585-4.965,5.108c-1.521,1.29-3.148,2.445-4.854,3.453
		c-3.699,2.201-7.787,3.731-12.07,4.485c-0.494,0.089-0.992,0.168-1.482,0.237h-0.029c-4.585,0.61-9.347,0.34-14.079-0.943
		c-0.639-0.175-1.265-0.371-1.887-0.58C95.727,155.557,85.343,136.508,90.346,118.092z M97.142,119.926
		c-3.207,11.823,1.458,23.961,10.798,30.791c1.042,0.767,2.15,1.475,3.308,2.101c1.899,1.024,3.946,1.862,6.124,2.447
		c0.861,0.229,1.714,0.424,2.591,0.582c1.549,0.271,3.108,0.416,4.649,0.429c6.781,0.062,13.292-2.285,18.427-6.442
		c4.551-3.676,8.025-8.753,9.668-14.813c0.404-1.509,0.689-3.02,0.828-4.519c0.018-0.015,0-0.015,0-0.015
		c0.223-1.913,0.223-3.829,0.027-5.69c-1.082-11.603-9.199-21.872-21.094-25.1C117.151,95.535,101.305,104.618,97.142,119.926z
		 M103.932,121.768c3.145-11.564,15.123-18.431,26.689-15.286c8.754,2.369,14.813,9.802,15.881,18.297
		c0.24,1.858,0.24,3.76-0.023,5.673c0,0-0.01,0.015-0.01,0.029c-0.119,0.897-0.303,1.793-0.549,2.694
		c-1.313,4.847-4.164,8.855-7.889,11.655c-5.193,3.901-12.068,5.468-18.811,3.633c-1.372-0.381-2.685-0.874-3.911-1.482
		c-0.064-0.031-0.12-0.058-0.17-0.091c-0.991-0.483-1.931-1.054-2.812-1.695h-0.015C105.107,140.064,101.47,130.796,103.932,121.768
		z M110.719,123.619c-2.137,7.838,2.503,15.933,10.346,18.057c4.219,1.147,8.514,0.336,11.912-1.892
		c2.918-1.906,5.17-4.835,6.145-8.456c0.076-0.29,0.158-0.585,0.211-0.874c0-0.008,0.008-0.008,0.008-0.008
		c0.393-1.933,0.393-3.872,0.045-5.711c-1.025-5.362-4.996-9.949-10.609-11.464C120.944,111.135,112.846,115.776,110.719,123.619z
		 M117.503,125.466c1.114-4.105,5.339-6.515,9.423-5.411c2.463,0.676,4.314,2.46,5.162,4.661c0.574,1.473,0.693,3.137,0.252,4.777
		c-0.094,0.328-0.199,0.628-0.328,0.927c0,0.01,0,0.01,0,0.01c-0.809,1.944-2.355,3.415-4.219,4.172
		c-1.496,0.613-3.207,0.742-4.884,0.292C118.809,133.785,116.395,129.551,117.503,125.466z M121.064,141.676
		c4.219,1.147,8.514,0.336,11.912-1.892c2.918-1.906,5.17-4.835,6.145-8.456c0.076-0.29,0.158-0.585,0.211-0.874
		c0-0.008,0.008-0.008,0.008-0.008c0.393-1.933,0.393-3.872,0.045-5.711c-1.025-5.362-4.996-9.949-10.609-11.464
		c-7.831-2.136-15.93,2.505-18.057,10.348C108.582,131.457,113.222,139.552,121.064,141.676z M117.503,125.466
		c1.114-4.105,5.339-6.515,9.423-5.411c2.463,0.676,4.314,2.46,5.162,4.661c0.574,1.473,0.693,3.137,0.252,4.777
		c-0.094,0.328-0.199,0.628-0.328,0.927c0,0.01,0,0.01,0,0.01c-0.809,1.944-2.355,3.415-4.219,4.172
		c-1.496,0.613-3.207,0.742-4.884,0.292C118.809,133.785,116.395,129.551,117.503,125.466z M121.064,141.676
		c4.219,1.147,8.514,0.336,11.912-1.892c2.918-1.906,5.17-4.835,6.145-8.456c0.076-0.29,0.158-0.585,0.211-0.874
		c0-0.008,0.008-0.008,0.008-0.008c0.393-1.933,0.393-3.872,0.045-5.711c-1.025-5.362-4.996-9.949-10.609-11.464
		c-7.831-2.136-15.93,2.505-18.057,10.348C108.582,131.457,113.222,139.552,121.064,141.676z M117.503,125.466
		c1.114-4.105,5.339-6.515,9.423-5.411c2.463,0.676,4.314,2.46,5.162,4.661c0.574,1.473,0.693,3.137,0.252,4.777
		c-0.094,0.328-0.199,0.628-0.328,0.927c0,0.01,0,0.01,0,0.01c-0.809,1.944-2.355,3.415-4.219,4.172
		c-1.496,0.613-3.207,0.742-4.884,0.292C118.809,133.785,116.395,129.551,117.503,125.466z M107.94,150.717
		c1.042,0.767,2.15,1.475,3.308,2.101c1.899,1.024,3.946,1.862,6.124,2.447c0.861,0.229,1.714,0.424,2.591,0.582
		c1.549,0.271,3.108,0.416,4.649,0.429c6.781,0.062,13.292-2.285,18.427-6.442c4.551-3.676,8.025-8.753,9.668-14.813
		c0.404-1.509,0.689-3.02,0.828-4.519c0.018-0.015,0-0.015,0-0.015c0.223-1.913,0.223-3.829,0.027-5.69
		c-1.082-11.603-9.199-21.872-21.094-25.1c-15.317-4.162-31.164,4.921-35.327,20.229C93.936,131.749,98.601,143.887,107.94,150.717z
		 M103.932,121.768c3.145-11.564,15.123-18.431,26.689-15.286c8.754,2.369,14.813,9.802,15.881,18.297
		c0.24,1.858,0.24,3.76-0.023,5.673c0,0-0.01,0.015-0.01,0.029c-0.119,0.897-0.303,1.793-0.549,2.694
		c-1.313,4.847-4.164,8.855-7.889,11.655c-5.193,3.901-12.068,5.468-18.811,3.633c-1.372-0.381-2.685-0.874-3.911-1.482
		c-0.064-0.031-0.12-0.058-0.17-0.091c-0.991-0.483-1.931-1.054-2.812-1.695h-0.015C105.107,140.064,101.47,130.796,103.932,121.768
		z M110.719,123.619c-2.137,7.838,2.503,15.933,10.346,18.057c4.219,1.147,8.514,0.336,11.912-1.892
		c2.918-1.906,5.17-4.835,6.145-8.456c0.076-0.29,0.158-0.585,0.211-0.874c0-0.008,0.008-0.008,0.008-0.008
		c0.393-1.933,0.393-3.872,0.045-5.711c-1.025-5.362-4.996-9.949-10.609-11.464C120.944,111.135,112.846,115.776,110.719,123.619z
		 M117.503,125.466c1.114-4.105,5.339-6.515,9.423-5.411c2.463,0.676,4.314,2.46,5.162,4.661c0.574,1.473,0.693,3.137,0.252,4.777
		c-0.094,0.328-0.199,0.628-0.328,0.927c0,0.01,0,0.01,0,0.01c-0.809,1.944-2.355,3.415-4.219,4.172
		c-1.496,0.613-3.207,0.742-4.884,0.292C118.809,133.785,116.395,129.551,117.503,125.466z M121.064,141.676
		c4.219,1.147,8.514,0.336,11.912-1.892c2.918-1.906,5.17-4.835,6.145-8.456c0.076-0.29,0.158-0.585,0.211-0.874
		c0-0.008,0.008-0.008,0.008-0.008c0.393-1.933,0.393-3.872,0.045-5.711c-1.025-5.362-4.996-9.949-10.609-11.464
		c-7.831-2.136-15.93,2.505-18.057,10.348C108.582,131.457,113.222,139.552,121.064,141.676z M117.503,125.466
		c1.114-4.105,5.339-6.515,9.423-5.411c2.463,0.676,4.314,2.46,5.162,4.661c0.574,1.473,0.693,3.137,0.252,4.777
		c-0.094,0.328-0.199,0.628-0.328,0.927c0,0.01,0,0.01,0,0.01c-0.809,1.944-2.355,3.415-4.219,4.172
		c-1.496,0.613-3.207,0.742-4.884,0.292C118.809,133.785,116.395,129.551,117.503,125.466z M121.064,141.676
		c4.219,1.147,8.514,0.336,11.912-1.892c2.918-1.906,5.17-4.835,6.145-8.456c0.076-0.29,0.158-0.585,0.211-0.874
		c0-0.008,0.008-0.008,0.008-0.008c0.393-1.933,0.393-3.872,0.045-5.711c-1.025-5.362-4.996-9.949-10.609-11.464
		c-7.831-2.136-15.93,2.505-18.057,10.348C108.582,131.457,113.222,139.552,121.064,141.676z M117.503,125.466
		c1.114-4.105,5.339-6.515,9.423-5.411c2.463,0.676,4.314,2.46,5.162,4.661c0.574,1.473,0.693,3.137,0.252,4.777
		c-0.094,0.328-0.199,0.628-0.328,0.927c0,0.01,0,0.01,0,0.01c-0.809,1.944-2.355,3.415-4.219,4.172
		c-1.496,0.613-3.207,0.742-4.884,0.292C118.809,133.785,116.395,129.551,117.503,125.466z M107.94,150.717
		c1.042,0.767,2.15,1.475,3.308,2.101c1.899,1.024,3.946,1.862,6.124,2.447c0.861,0.229,1.714,0.424,2.591,0.582
		c1.549,0.271,3.108,0.416,4.649,0.429c6.781,0.062,13.292-2.285,18.427-6.442c4.551-3.676,8.025-8.753,9.668-14.813
		c0.404-1.509,0.689-3.02,0.828-4.519c0.018-0.015,0-0.015,0-0.015c0.223-1.913,0.223-3.829,0.027-5.69
		c-1.082-11.603-9.199-21.872-21.094-25.1c-15.317-4.162-31.164,4.921-35.327,20.229C93.936,131.749,98.601,143.887,107.94,150.717z
		 M103.932,121.768c3.145-11.564,15.123-18.431,26.689-15.286c8.754,2.369,14.813,9.802,15.881,18.297
		c0.24,1.858,0.24,3.76-0.023,5.673c0,0-0.01,0.015-0.01,0.029c-0.119,0.897-0.303,1.793-0.549,2.694
		c-1.313,4.847-4.164,8.855-7.889,11.655c-5.193,3.901-12.068,5.468-18.811,3.633c-1.372-0.381-2.685-0.874-3.911-1.482
		c-0.064-0.031-0.12-0.058-0.17-0.091c-0.991-0.483-1.931-1.054-2.812-1.695h-0.015C105.107,140.064,101.47,130.796,103.932,121.768
		z M110.719,123.619c-2.137,7.838,2.503,15.933,10.346,18.057c4.219,1.147,8.514,0.336,11.912-1.892
		c2.918-1.906,5.17-4.835,6.145-8.456c0.076-0.29,0.158-0.585,0.211-0.874c0-0.008,0.008-0.008,0.008-0.008
		c0.393-1.933,0.393-3.872,0.045-5.711c-1.025-5.362-4.996-9.949-10.609-11.464C120.944,111.135,112.846,115.776,110.719,123.619z
		 M117.503,125.466c1.114-4.105,5.339-6.515,9.423-5.411c2.463,0.676,4.314,2.46,5.162,4.661c0.574,1.473,0.693,3.137,0.252,4.777
		c-0.094,0.328-0.199,0.628-0.328,0.927c0,0.01,0,0.01,0,0.01c-0.809,1.944-2.355,3.415-4.219,4.172
		c-1.496,0.613-3.207,0.742-4.884,0.292C118.809,133.785,116.395,129.551,117.503,125.466z M121.064,141.676
		c4.219,1.147,8.514,0.336,11.912-1.892c2.918-1.906,5.17-4.835,6.145-8.456c0.076-0.29,0.158-0.585,0.211-0.874
		c0-0.008,0.008-0.008,0.008-0.008c0.393-1.933,0.393-3.872,0.045-5.711c-1.025-5.362-4.996-9.949-10.609-11.464
		c-7.831-2.136-15.93,2.505-18.057,10.348C108.582,131.457,113.222,139.552,121.064,141.676z M117.503,125.466
		c1.114-4.105,5.339-6.515,9.423-5.411c2.463,0.676,4.314,2.46,5.162,4.661c0.574,1.473,0.693,3.137,0.252,4.777
		c-0.094,0.328-0.199,0.628-0.328,0.927c0,0.01,0,0.01,0,0.01c-0.809,1.944-2.355,3.415-4.219,4.172
		c-1.496,0.613-3.207,0.742-4.884,0.292C118.809,133.785,116.395,129.551,117.503,125.466z M121.064,141.676
		c4.219,1.147,8.514,0.336,11.912-1.892c2.918-1.906,5.17-4.835,6.145-8.456c0.076-0.29,0.158-0.585,0.211-0.874
		c0-0.008,0.008-0.008,0.008-0.008c0.393-1.933,0.393-3.872,0.045-5.711c-1.025-5.362-4.996-9.949-10.609-11.464
		c-7.831-2.136-15.93,2.505-18.057,10.348C108.582,131.457,113.222,139.552,121.064,141.676z M117.503,125.466
		c1.114-4.105,5.339-6.515,9.423-5.411c2.463,0.676,4.314,2.46,5.162,4.661c0.574,1.473,0.693,3.137,0.252,4.777
		c-0.094,0.328-0.199,0.628-0.328,0.927c0,0.01,0,0.01,0,0.01c-0.809,1.944-2.355,3.415-4.219,4.172
		c-1.496,0.613-3.207,0.742-4.884,0.292C118.809,133.785,116.395,129.551,117.503,125.466z"/>
	<path fill="#F67437" d="M111.842,175.621c5.224,1.412,10.499,1.946,15.629,1.688c3.141-0.162,6.227-0.629,9.234-1.364
		c0,0,0,0,0.01-0.013c3.531-0.843,6.945-2.1,10.17-3.688c0.666-0.323,1.318-0.663,1.957-1.018c1.078-0.582,2.135-1.207,3.162-1.888
		c1.512-0.973,2.979-2.03,4.375-3.168c2.566-2.084,4.934-4.416,7.057-6.996c4.371-5.287,7.717-11.583,9.631-18.627
		c0.896-3.336,1.441-6.672,1.664-9.979c0.117-1.913,0.117-3.814,0.008-5.699c-0.473-9.196-3.523-17.983-8.594-25.448
		c-1.787-2.629-3.83-5.104-6.096-7.352c-5.93-5.916-13.42-10.389-22.057-12.741c-26.543-7.208-54.014,8.526-61.218,35.07
		C69.556,140.943,85.297,168.415,111.842,175.621z M83.559,116.245c6.208-22.806,29.785-36.32,52.588-30.132
		c6.893,1.87,12.922,5.319,17.834,9.874c0.078,0.067,0.158,0.131,0.232,0.225c7.896,7.405,12.814,17.669,13.479,28.632
		c0.135,1.873,0.115,3.774-0.025,5.69v0.015c-0.195,2.718-0.65,5.44-1.387,8.166c-1.588,5.822-4.293,11.043-7.848,15.474
		c-0.221,0.287-0.453,0.574-0.703,0.853c-1.432,1.717-3.006,3.319-4.701,4.775c-1.641,1.42-3.383,2.725-5.221,3.872
		c-0.012,0.015-0.012,0.015-0.012,0.015c-0.184,0.11-0.381,0.232-0.561,0.32c-1.275,0.798-2.604,1.514-3.955,2.153
		c-5.406,2.565-11.357,4.025-17.492,4.147c-1.832,0.039-3.686-0.033-5.549-0.263c-2.182-0.23-4.368-0.646-6.545-1.231
		C90.885,162.626,77.371,139.049,83.559,116.245z"/>
	<path fill="#FFFFFF" d="M121.064,141.676c4.219,1.147,8.514,0.336,11.912-1.892c2.918-1.906,5.17-4.835,6.145-8.456
		c0.076-0.29,0.158-0.585,0.211-0.874c0-0.008,0.008-0.008,0.008-0.008c0.393-1.933,0.393-3.872,0.045-5.711
		c-1.025-5.362-4.996-9.949-10.609-11.464c-7.831-2.136-15.93,2.505-18.057,10.348C108.582,131.457,113.222,139.552,121.064,141.676
		z M117.503,125.466c1.114-4.105,5.339-6.515,9.423-5.411c2.463,0.676,4.314,2.46,5.162,4.661c0.574,1.473,0.693,3.137,0.252,4.777
		c-0.094,0.328-0.199,0.628-0.328,0.927c0,0.01,0,0.01,0,0.01c-0.809,1.944-2.355,3.415-4.219,4.172
		c-1.496,0.613-3.207,0.742-4.884,0.292C118.809,133.785,116.395,129.551,117.503,125.466z M121.064,141.676
		c4.219,1.147,8.514,0.336,11.912-1.892c2.918-1.906,5.17-4.835,6.145-8.456c0.076-0.29,0.158-0.585,0.211-0.874
		c0-0.008,0.008-0.008,0.008-0.008c0.393-1.933,0.393-3.872,0.045-5.711c-1.025-5.362-4.996-9.949-10.609-11.464
		c-7.831-2.136-15.93,2.505-18.057,10.348C108.582,131.457,113.222,139.552,121.064,141.676z M117.503,125.466
		c1.114-4.105,5.339-6.515,9.423-5.411c2.463,0.676,4.314,2.46,5.162,4.661c0.574,1.473,0.693,3.137,0.252,4.777
		c-0.094,0.328-0.199,0.628-0.328,0.927c0,0.01,0,0.01,0,0.01c-0.809,1.944-2.355,3.415-4.219,4.172
		c-1.496,0.613-3.207,0.742-4.884,0.292C118.809,133.785,116.395,129.551,117.503,125.466z M121.064,141.676
		c4.219,1.147,8.514,0.336,11.912-1.892c2.918-1.906,5.17-4.835,6.145-8.456c0.076-0.29,0.158-0.585,0.211-0.874
		c0-0.008,0.008-0.008,0.008-0.008c0.393-1.933,0.393-3.872,0.045-5.711c-1.025-5.362-4.996-9.949-10.609-11.464
		c-7.831-2.136-15.93,2.505-18.057,10.348C108.582,131.457,113.222,139.552,121.064,141.676z M117.503,125.466
		c1.114-4.105,5.339-6.515,9.423-5.411c2.463,0.676,4.314,2.46,5.162,4.661c0.574,1.473,0.693,3.137,0.252,4.777
		c-0.094,0.328-0.199,0.628-0.328,0.927c0,0.01,0,0.01,0,0.01c-0.809,1.944-2.355,3.415-4.219,4.172
		c-1.496,0.613-3.207,0.742-4.884,0.292C118.809,133.785,116.395,129.551,117.503,125.466z M121.064,141.676
		c4.219,1.147,8.514,0.336,11.912-1.892c2.918-1.906,5.17-4.835,6.145-8.456c0.076-0.29,0.158-0.585,0.211-0.874
		c0-0.008,0.008-0.008,0.008-0.008c0.393-1.933,0.393-3.872,0.045-5.711c-1.025-5.362-4.996-9.949-10.609-11.464
		c-7.831-2.136-15.93,2.505-18.057,10.348C108.582,131.457,113.222,139.552,121.064,141.676z M117.503,125.466
		c1.114-4.105,5.339-6.515,9.423-5.411c2.463,0.676,4.314,2.46,5.162,4.661c0.574,1.473,0.693,3.137,0.252,4.777
		c-0.094,0.328-0.199,0.628-0.328,0.927c0,0.01,0,0.01,0,0.01c-0.809,1.944-2.355,3.415-4.219,4.172
		c-1.496,0.613-3.207,0.742-4.884,0.292C118.809,133.785,116.395,129.551,117.503,125.466z M107.94,150.717
		c1.042,0.767,2.15,1.475,3.308,2.101c1.899,1.024,3.946,1.862,6.124,2.447c0.861,0.229,1.714,0.424,2.591,0.582
		c1.549,0.271,3.108,0.416,4.649,0.429c6.781,0.062,13.292-2.285,18.427-6.442c4.551-3.676,8.025-8.753,9.668-14.813
		c0.404-1.509,0.689-3.02,0.828-4.519c0.018-0.015,0-0.015,0-0.015c0.223-1.913,0.223-3.829,0.027-5.69
		c-1.082-11.603-9.199-21.872-21.094-25.1c-15.317-4.162-31.164,4.921-35.327,20.229C93.936,131.749,98.601,143.887,107.94,150.717z
		 M103.932,121.768c3.145-11.564,15.123-18.431,26.689-15.286c8.754,2.369,14.813,9.802,15.881,18.297
		c0.24,1.858,0.24,3.76-0.023,5.673c0,0-0.01,0.015-0.01,0.029c-0.119,0.897-0.303,1.793-0.549,2.694
		c-1.313,4.847-4.164,8.855-7.889,11.655c-5.193,3.901-12.068,5.468-18.811,3.633c-1.372-0.381-2.685-0.874-3.911-1.482
		c-0.064-0.031-0.12-0.058-0.17-0.091c-0.991-0.483-1.931-1.054-2.812-1.695h-0.015C105.107,140.064,101.47,130.796,103.932,121.768
		z M110.719,123.619c-2.137,7.838,2.503,15.933,10.346,18.057c4.219,1.147,8.514,0.336,11.912-1.892
		c2.918-1.906,5.17-4.835,6.145-8.456c0.076-0.29,0.158-0.585,0.211-0.874c0-0.008,0.008-0.008,0.008-0.008
		c0.393-1.933,0.393-3.872,0.045-5.711c-1.025-5.362-4.996-9.949-10.609-11.464C120.944,111.135,112.846,115.776,110.719,123.619z
		 M117.503,125.466c1.114-4.105,5.339-6.515,9.423-5.411c2.463,0.676,4.314,2.46,5.162,4.661c0.574,1.473,0.693,3.137,0.252,4.777
		c-0.094,0.328-0.199,0.628-0.328,0.927c0,0.01,0,0.01,0,0.01c-0.809,1.944-2.355,3.415-4.219,4.172
		c-1.496,0.613-3.207,0.742-4.884,0.292C118.809,133.785,116.395,129.551,117.503,125.466z M107.94,150.717
		c1.042,0.767,2.15,1.475,3.308,2.101c1.899,1.024,3.946,1.862,6.124,2.447c0.861,0.229,1.714,0.424,2.591,0.582
		c1.549,0.271,3.108,0.416,4.649,0.429c6.781,0.062,13.292-2.285,18.427-6.442c4.551-3.676,8.025-8.753,9.668-14.813
		c0.404-1.509,0.689-3.02,0.828-4.519c0.018-0.015,0-0.015,0-0.015c0.223-1.913,0.223-3.829,0.027-5.69
		c-1.082-11.603-9.199-21.872-21.094-25.1c-15.317-4.162-31.164,4.921-35.327,20.229C93.936,131.749,98.601,143.887,107.94,150.717z
		 M103.932,121.768c3.145-11.564,15.123-18.431,26.689-15.286c8.754,2.369,14.813,9.802,15.881,18.297
		c0.24,1.858,0.24,3.76-0.023,5.673c0,0-0.01,0.015-0.01,0.029c-0.119,0.897-0.303,1.793-0.549,2.694
		c-1.313,4.847-4.164,8.855-7.889,11.655c-5.193,3.901-12.068,5.468-18.811,3.633c-1.372-0.381-2.685-0.874-3.911-1.482
		c-0.064-0.031-0.12-0.058-0.17-0.091c-0.991-0.483-1.931-1.054-2.812-1.695h-0.015C105.107,140.064,101.47,130.796,103.932,121.768
		z M110.719,123.619c-2.137,7.838,2.503,15.933,10.346,18.057c4.219,1.147,8.514,0.336,11.912-1.892
		c2.918-1.906,5.17-4.835,6.145-8.456c0.076-0.29,0.158-0.585,0.211-0.874c0-0.008,0.008-0.008,0.008-0.008
		c0.393-1.933,0.393-3.872,0.045-5.711c-1.025-5.362-4.996-9.949-10.609-11.464C120.944,111.135,112.846,115.776,110.719,123.619z
		 M117.503,125.466c1.114-4.105,5.339-6.515,9.423-5.411c2.463,0.676,4.314,2.46,5.162,4.661c0.574,1.473,0.693,3.137,0.252,4.777
		c-0.094,0.328-0.199,0.628-0.328,0.927c0,0.01,0,0.01,0,0.01c-0.809,1.944-2.355,3.415-4.219,4.172
		c-1.496,0.613-3.207,0.742-4.884,0.292C118.809,133.785,116.395,129.551,117.503,125.466z M113.693,168.831
		c2.177,0.585,4.363,1.001,6.545,1.231c1.864,0.229,3.717,0.302,5.549,0.263c6.134-0.122,12.085-1.582,17.492-4.147
		c1.352-0.64,2.68-1.355,3.955-2.153c0.18-0.088,0.377-0.21,0.561-0.32c0,0,0,0,0.012-0.015c1.838-1.147,3.58-2.452,5.221-3.872
		c1.695-1.456,3.27-3.059,4.701-4.775c0.25-0.278,0.482-0.565,0.703-0.853c3.555-4.431,6.26-9.651,7.848-15.474
		c0.736-2.726,1.191-5.448,1.387-8.166v-0.015c0.141-1.916,0.16-3.817,0.025-5.69c-0.664-10.963-5.582-21.228-13.479-28.632
		c-0.074-0.094-0.154-0.158-0.232-0.225c-4.912-4.555-10.941-8.004-17.834-9.874c-22.803-6.188-46.38,7.326-52.588,30.132
		C77.371,139.049,90.885,162.626,113.693,168.831z M90.346,118.092c5.175-19.068,24.899-30.369,43.955-25.196
		c15.029,4.088,25.246,17.209,26.348,31.926c0.141,1.875,0.131,3.774-0.039,5.692v0.007c-0.17,2.117-0.545,4.237-1.115,6.347
		c-1.313,4.833-3.557,9.158-6.492,12.844c-1.484,1.88-3.154,3.585-4.965,5.108c-1.521,1.29-3.148,2.445-4.854,3.453
		c-3.699,2.201-7.787,3.731-12.07,4.485c-0.494,0.089-0.992,0.168-1.482,0.237h-0.029c-4.585,0.61-9.347,0.34-14.079-0.943
		c-0.639-0.175-1.265-0.371-1.887-0.58C95.727,155.557,85.343,136.508,90.346,118.092z M97.142,119.926
		c-3.207,11.823,1.458,23.961,10.798,30.791c1.042,0.767,2.15,1.475,3.308,2.101c1.899,1.024,3.946,1.862,6.124,2.447
		c0.861,0.229,1.714,0.424,2.591,0.582c1.549,0.271,3.108,0.416,4.649,0.429c6.781,0.062,13.292-2.285,18.427-6.442
		c4.551-3.676,8.025-8.753,9.668-14.813c0.404-1.509,0.689-3.02,0.828-4.519c0.018-0.015,0-0.015,0-0.015
		c0.223-1.913,0.223-3.829,0.027-5.69c-1.082-11.603-9.199-21.872-21.094-25.1C117.151,95.535,101.305,104.618,97.142,119.926z
		 M103.932,121.768c3.145-11.564,15.123-18.431,26.689-15.286c8.754,2.369,14.813,9.802,15.881,18.297
		c0.24,1.858,0.24,3.76-0.023,5.673c0,0-0.01,0.015-0.01,0.029c-0.119,0.897-0.303,1.793-0.549,2.694
		c-1.313,4.847-4.164,8.855-7.889,11.655c-5.193,3.901-12.068,5.468-18.811,3.633c-1.372-0.381-2.685-0.874-3.911-1.482
		c-0.064-0.031-0.12-0.058-0.17-0.091c-0.991-0.483-1.931-1.054-2.812-1.695h-0.015C105.107,140.064,101.47,130.796,103.932,121.768
		z M110.719,123.619c-2.137,7.838,2.503,15.933,10.346,18.057c4.219,1.147,8.514,0.336,11.912-1.892
		c2.918-1.906,5.17-4.835,6.145-8.456c0.076-0.29,0.158-0.585,0.211-0.874c0-0.008,0.008-0.008,0.008-0.008
		c0.393-1.933,0.393-3.872,0.045-5.711c-1.025-5.362-4.996-9.949-10.609-11.464C120.944,111.135,112.846,115.776,110.719,123.619z
		 M117.503,125.466c1.114-4.105,5.339-6.515,9.423-5.411c2.463,0.676,4.314,2.46,5.162,4.661c0.574,1.473,0.693,3.137,0.252,4.777
		c-0.094,0.328-0.199,0.628-0.328,0.927c0,0.01,0,0.01,0,0.01c-0.809,1.944-2.355,3.415-4.219,4.172
		c-1.496,0.613-3.207,0.742-4.884,0.292C118.809,133.785,116.395,129.551,117.503,125.466z M121.064,141.676
		c4.219,1.147,8.514,0.336,11.912-1.892c2.918-1.906,5.17-4.835,6.145-8.456c0.076-0.29,0.158-0.585,0.211-0.874
		c0-0.008,0.008-0.008,0.008-0.008c0.393-1.933,0.393-3.872,0.045-5.711c-1.025-5.362-4.996-9.949-10.609-11.464
		c-7.831-2.136-15.93,2.505-18.057,10.348C108.582,131.457,113.222,139.552,121.064,141.676z M117.503,125.466
		c1.114-4.105,5.339-6.515,9.423-5.411c2.463,0.676,4.314,2.46,5.162,4.661c0.574,1.473,0.693,3.137,0.252,4.777
		c-0.094,0.328-0.199,0.628-0.328,0.927c0,0.01,0,0.01,0,0.01c-0.809,1.944-2.355,3.415-4.219,4.172
		c-1.496,0.613-3.207,0.742-4.884,0.292C118.809,133.785,116.395,129.551,117.503,125.466z M121.064,141.676
		c4.219,1.147,8.514,0.336,11.912-1.892c2.918-1.906,5.17-4.835,6.145-8.456c0.076-0.29,0.158-0.585,0.211-0.874
		c0-0.008,0.008-0.008,0.008-0.008c0.393-1.933,0.393-3.872,0.045-5.711c-1.025-5.362-4.996-9.949-10.609-11.464
		c-7.831-2.136-15.93,2.505-18.057,10.348C108.582,131.457,113.222,139.552,121.064,141.676z M117.503,125.466
		c1.114-4.105,5.339-6.515,9.423-5.411c2.463,0.676,4.314,2.46,5.162,4.661c0.574,1.473,0.693,3.137,0.252,4.777
		c-0.094,0.328-0.199,0.628-0.328,0.927c0,0.01,0,0.01,0,0.01c-0.809,1.944-2.355,3.415-4.219,4.172
		c-1.496,0.613-3.207,0.742-4.884,0.292C118.809,133.785,116.395,129.551,117.503,125.466z M107.94,150.717
		c1.042,0.767,2.15,1.475,3.308,2.101c1.899,1.024,3.946,1.862,6.124,2.447c0.861,0.229,1.714,0.424,2.591,0.582
		c1.549,0.271,3.108,0.416,4.649,0.429c6.781,0.062,13.292-2.285,18.427-6.442c4.551-3.676,8.025-8.753,9.668-14.813
		c0.404-1.509,0.689-3.02,0.828-4.519c0.018-0.015,0-0.015,0-0.015c0.223-1.913,0.223-3.829,0.027-5.69
		c-1.082-11.603-9.199-21.872-21.094-25.1c-15.317-4.162-31.164,4.921-35.327,20.229C93.936,131.749,98.601,143.887,107.94,150.717z
		 M103.932,121.768c3.145-11.564,15.123-18.431,26.689-15.286c8.754,2.369,14.813,9.802,15.881,18.297
		c0.24,1.858,0.24,3.76-0.023,5.673c0,0-0.01,0.015-0.01,0.029c-0.119,0.897-0.303,1.793-0.549,2.694
		c-1.313,4.847-4.164,8.855-7.889,11.655c-5.193,3.901-12.068,5.468-18.811,3.633c-1.372-0.381-2.685-0.874-3.911-1.482
		c-0.064-0.031-0.12-0.058-0.17-0.091c-0.991-0.483-1.931-1.054-2.812-1.695h-0.015C105.107,140.064,101.47,130.796,103.932,121.768
		z M110.719,123.619c-2.137,7.838,2.503,15.933,10.346,18.057c4.219,1.147,8.514,0.336,11.912-1.892
		c2.918-1.906,5.17-4.835,6.145-8.456c0.076-0.29,0.158-0.585,0.211-0.874c0-0.008,0.008-0.008,0.008-0.008
		c0.393-1.933,0.393-3.872,0.045-5.711c-1.025-5.362-4.996-9.949-10.609-11.464C120.944,111.135,112.846,115.776,110.719,123.619z
		 M117.503,125.466c1.114-4.105,5.339-6.515,9.423-5.411c2.463,0.676,4.314,2.46,5.162,4.661c0.574,1.473,0.693,3.137,0.252,4.777
		c-0.094,0.328-0.199,0.628-0.328,0.927c0,0.01,0,0.01,0,0.01c-0.809,1.944-2.355,3.415-4.219,4.172
		c-1.496,0.613-3.207,0.742-4.884,0.292C118.809,133.785,116.395,129.551,117.503,125.466z M121.064,141.676
		c4.219,1.147,8.514,0.336,11.912-1.892c2.918-1.906,5.17-4.835,6.145-8.456c0.076-0.29,0.158-0.585,0.211-0.874
		c0-0.008,0.008-0.008,0.008-0.008c0.393-1.933,0.393-3.872,0.045-5.711c-1.025-5.362-4.996-9.949-10.609-11.464
		c-7.831-2.136-15.93,2.505-18.057,10.348C108.582,131.457,113.222,139.552,121.064,141.676z M117.503,125.466
		c1.114-4.105,5.339-6.515,9.423-5.411c2.463,0.676,4.314,2.46,5.162,4.661c0.574,1.473,0.693,3.137,0.252,4.777
		c-0.094,0.328-0.199,0.628-0.328,0.927c0,0.01,0,0.01,0,0.01c-0.809,1.944-2.355,3.415-4.219,4.172
		c-1.496,0.613-3.207,0.742-4.884,0.292C118.809,133.785,116.395,129.551,117.503,125.466z M121.064,141.676
		c4.219,1.147,8.514,0.336,11.912-1.892c2.918-1.906,5.17-4.835,6.145-8.456c0.076-0.29,0.158-0.585,0.211-0.874
		c0-0.008,0.008-0.008,0.008-0.008c0.393-1.933,0.393-3.872,0.045-5.711c-1.025-5.362-4.996-9.949-10.609-11.464
		c-7.831-2.136-15.93,2.505-18.057,10.348C108.582,131.457,113.222,139.552,121.064,141.676z M117.503,125.466
		c1.114-4.105,5.339-6.515,9.423-5.411c2.463,0.676,4.314,2.46,5.162,4.661c0.574,1.473,0.693,3.137,0.252,4.777
		c-0.094,0.328-0.199,0.628-0.328,0.927c0,0.01,0,0.01,0,0.01c-0.809,1.944-2.355,3.415-4.219,4.172
		c-1.496,0.613-3.207,0.742-4.884,0.292C118.809,133.785,116.395,129.551,117.503,125.466z M107.94,150.717
		c1.042,0.767,2.15,1.475,3.308,2.101c1.899,1.024,3.946,1.862,6.124,2.447c0.861,0.229,1.714,0.424,2.591,0.582
		c1.549,0.271,3.108,0.416,4.649,0.429c6.781,0.062,13.292-2.285,18.427-6.442c4.551-3.676,8.025-8.753,9.668-14.813
		c0.404-1.509,0.689-3.02,0.828-4.519c0.018-0.015,0-0.015,0-0.015c0.223-1.913,0.223-3.829,0.027-5.69
		c-1.082-11.603-9.199-21.872-21.094-25.1c-15.317-4.162-31.164,4.921-35.327,20.229C93.936,131.749,98.601,143.887,107.94,150.717z
		 M103.932,121.768c3.145-11.564,15.123-18.431,26.689-15.286c8.754,2.369,14.813,9.802,15.881,18.297
		c0.24,1.858,0.24,3.76-0.023,5.673c0,0-0.01,0.015-0.01,0.029c-0.119,0.897-0.303,1.793-0.549,2.694
		c-1.313,4.847-4.164,8.855-7.889,11.655c-5.193,3.901-12.068,5.468-18.811,3.633c-1.372-0.381-2.685-0.874-3.911-1.482
		c-0.064-0.031-0.12-0.058-0.17-0.091c-0.991-0.483-1.931-1.054-2.812-1.695h-0.015C105.107,140.064,101.47,130.796,103.932,121.768
		z M110.719,123.619c-2.137,7.838,2.503,15.933,10.346,18.057c4.219,1.147,8.514,0.336,11.912-1.892
		c2.918-1.906,5.17-4.835,6.145-8.456c0.076-0.29,0.158-0.585,0.211-0.874c0-0.008,0.008-0.008,0.008-0.008
		c0.393-1.933,0.393-3.872,0.045-5.711c-1.025-5.362-4.996-9.949-10.609-11.464C120.944,111.135,112.846,115.776,110.719,123.619z
		 M117.503,125.466c1.114-4.105,5.339-6.515,9.423-5.411c2.463,0.676,4.314,2.46,5.162,4.661c0.574,1.473,0.693,3.137,0.252,4.777
		c-0.094,0.328-0.199,0.628-0.328,0.927c0,0.01,0,0.01,0,0.01c-0.809,1.944-2.355,3.415-4.219,4.172
		c-1.496,0.613-3.207,0.742-4.884,0.292C118.809,133.785,116.395,129.551,117.503,125.466z M121.064,141.676
		c4.219,1.147,8.514,0.336,11.912-1.892c2.918-1.906,5.17-4.835,6.145-8.456c0.076-0.29,0.158-0.585,0.211-0.874
		c0-0.008,0.008-0.008,0.008-0.008c0.393-1.933,0.393-3.872,0.045-5.711c-1.025-5.362-4.996-9.949-10.609-11.464
		c-7.831-2.136-15.93,2.505-18.057,10.348C108.582,131.457,113.222,139.552,121.064,141.676z M117.503,125.466
		c1.114-4.105,5.339-6.515,9.423-5.411c2.463,0.676,4.314,2.46,5.162,4.661c0.574,1.473,0.693,3.137,0.252,4.777
		c-0.094,0.328-0.199,0.628-0.328,0.927c0,0.01,0,0.01,0,0.01c-0.809,1.944-2.355,3.415-4.219,4.172
		c-1.496,0.613-3.207,0.742-4.884,0.292C118.809,133.785,116.395,129.551,117.503,125.466z M121.064,141.676
		c4.219,1.147,8.514,0.336,11.912-1.892c2.918-1.906,5.17-4.835,6.145-8.456c0.076-0.29,0.158-0.585,0.211-0.874
		c0-0.008,0.008-0.008,0.008-0.008c0.393-1.933,0.393-3.872,0.045-5.711c-1.025-5.362-4.996-9.949-10.609-11.464
		c-7.831-2.136-15.93,2.505-18.057,10.348C108.582,131.457,113.222,139.552,121.064,141.676z M117.503,125.466
		c1.114-4.105,5.339-6.515,9.423-5.411c2.463,0.676,4.314,2.46,5.162,4.661c0.574,1.473,0.693,3.137,0.252,4.777
		c-0.094,0.328-0.199,0.628-0.328,0.927c0,0.01,0,0.01,0,0.01c-0.809,1.944-2.355,3.415-4.219,4.172
		c-1.496,0.613-3.207,0.742-4.884,0.292C118.809,133.785,116.395,129.551,117.503,125.466z"/>
	<path fill="#FFFFFF" d="M121.064,141.676c4.219,1.147,8.514,0.336,11.912-1.892c2.918-1.906,5.17-4.835,6.145-8.456
		c0.076-0.29,0.158-0.585,0.211-0.874c0-0.008,0.008-0.008,0.008-0.008c0.393-1.933,0.393-3.872,0.045-5.711
		c-1.025-5.362-4.996-9.949-10.609-11.464c-7.831-2.136-15.93,2.505-18.057,10.348C108.582,131.457,113.222,139.552,121.064,141.676
		z M117.503,125.466c1.114-4.105,5.339-6.515,9.423-5.411c2.463,0.676,4.314,2.46,5.162,4.661c0.574,1.473,0.693,3.137,0.252,4.777
		c-0.094,0.328-0.199,0.628-0.328,0.927c0,0.01,0,0.01,0,0.01c-0.809,1.944-2.355,3.415-4.219,4.172
		c-1.496,0.613-3.207,0.742-4.884,0.292C118.809,133.785,116.395,129.551,117.503,125.466z M121.064,141.676
		c4.219,1.147,8.514,0.336,11.912-1.892c2.918-1.906,5.17-4.835,6.145-8.456c0.076-0.29,0.158-0.585,0.211-0.874
		c0-0.008,0.008-0.008,0.008-0.008c0.393-1.933,0.393-3.872,0.045-5.711c-1.025-5.362-4.996-9.949-10.609-11.464
		c-7.831-2.136-15.93,2.505-18.057,10.348C108.582,131.457,113.222,139.552,121.064,141.676z M117.503,125.466
		c1.114-4.105,5.339-6.515,9.423-5.411c2.463,0.676,4.314,2.46,5.162,4.661c0.574,1.473,0.693,3.137,0.252,4.777
		c-0.094,0.328-0.199,0.628-0.328,0.927c0,0.01,0,0.01,0,0.01c-0.809,1.944-2.355,3.415-4.219,4.172
		c-1.496,0.613-3.207,0.742-4.884,0.292C118.809,133.785,116.395,129.551,117.503,125.466z M107.94,150.717
		c1.042,0.767,2.15,1.475,3.308,2.101c1.899,1.024,3.946,1.862,6.124,2.447c0.861,0.229,1.714,0.424,2.591,0.582
		c1.549,0.271,3.108,0.416,4.649,0.429c6.781,0.062,13.292-2.285,18.427-6.442c4.551-3.676,8.025-8.753,9.668-14.813
		c0.404-1.509,0.689-3.02,0.828-4.519c0.018-0.015,0-0.015,0-0.015c0.223-1.913,0.223-3.829,0.027-5.69
		c-1.082-11.603-9.199-21.872-21.094-25.1c-15.317-4.162-31.164,4.921-35.327,20.229C93.936,131.749,98.601,143.887,107.94,150.717z
		 M103.932,121.768c3.145-11.564,15.123-18.431,26.689-15.286c8.754,2.369,14.813,9.802,15.881,18.297
		c0.24,1.858,0.24,3.76-0.023,5.673c0,0-0.01,0.015-0.01,0.029c-0.119,0.897-0.303,1.793-0.549,2.694
		c-1.313,4.847-4.164,8.855-7.889,11.655c-5.193,3.901-12.068,5.468-18.811,3.633c-1.372-0.381-2.685-0.874-3.911-1.482
		c-0.064-0.031-0.12-0.058-0.17-0.091c-0.991-0.483-1.931-1.054-2.812-1.695h-0.015C105.107,140.064,101.47,130.796,103.932,121.768
		z M110.719,123.619c-2.137,7.838,2.503,15.933,10.346,18.057c4.219,1.147,8.514,0.336,11.912-1.892
		c2.918-1.906,5.17-4.835,6.145-8.456c0.076-0.29,0.158-0.585,0.211-0.874c0-0.008,0.008-0.008,0.008-0.008
		c0.393-1.933,0.393-3.872,0.045-5.711c-1.025-5.362-4.996-9.949-10.609-11.464C120.944,111.135,112.846,115.776,110.719,123.619z
		 M117.503,125.466c1.114-4.105,5.339-6.515,9.423-5.411c2.463,0.676,4.314,2.46,5.162,4.661c0.574,1.473,0.693,3.137,0.252,4.777
		c-0.094,0.328-0.199,0.628-0.328,0.927c0,0.01,0,0.01,0,0.01c-0.809,1.944-2.355,3.415-4.219,4.172
		c-1.496,0.613-3.207,0.742-4.884,0.292C118.809,133.785,116.395,129.551,117.503,125.466z M121.064,141.676
		c4.219,1.147,8.514,0.336,11.912-1.892c2.918-1.906,5.17-4.835,6.145-8.456c0.076-0.29,0.158-0.585,0.211-0.874
		c0-0.008,0.008-0.008,0.008-0.008c0.393-1.933,0.393-3.872,0.045-5.711c-1.025-5.362-4.996-9.949-10.609-11.464
		c-7.831-2.136-15.93,2.505-18.057,10.348C108.582,131.457,113.222,139.552,121.064,141.676z M117.503,125.466
		c1.114-4.105,5.339-6.515,9.423-5.411c2.463,0.676,4.314,2.46,5.162,4.661c0.574,1.473,0.693,3.137,0.252,4.777
		c-0.094,0.328-0.199,0.628-0.328,0.927c0,0.01,0,0.01,0,0.01c-0.809,1.944-2.355,3.415-4.219,4.172
		c-1.496,0.613-3.207,0.742-4.884,0.292C118.809,133.785,116.395,129.551,117.503,125.466z M121.064,141.676
		c4.219,1.147,8.514,0.336,11.912-1.892c2.918-1.906,5.17-4.835,6.145-8.456c0.076-0.29,0.158-0.585,0.211-0.874
		c0-0.008,0.008-0.008,0.008-0.008c0.393-1.933,0.393-3.872,0.045-5.711c-1.025-5.362-4.996-9.949-10.609-11.464
		c-7.831-2.136-15.93,2.505-18.057,10.348C108.582,131.457,113.222,139.552,121.064,141.676z M117.503,125.466
		c1.114-4.105,5.339-6.515,9.423-5.411c2.463,0.676,4.314,2.46,5.162,4.661c0.574,1.473,0.693,3.137,0.252,4.777
		c-0.094,0.328-0.199,0.628-0.328,0.927c0,0.01,0,0.01,0,0.01c-0.809,1.944-2.355,3.415-4.219,4.172
		c-1.496,0.613-3.207,0.742-4.884,0.292C118.809,133.785,116.395,129.551,117.503,125.466z"/>
	<path fill="#F67437" d="M113.636,161.472c0.622,0.209,1.248,0.405,1.887,0.58c4.732,1.283,9.494,1.554,14.079,0.943h0.029
		c0.49-0.069,0.988-0.148,1.482-0.237c4.283-0.754,8.371-2.284,12.07-4.485c1.705-1.008,3.332-2.163,4.854-3.453
		c1.811-1.523,3.48-3.229,4.965-5.108c2.936-3.686,5.18-8.011,6.492-12.844c0.57-2.109,0.945-4.229,1.115-6.347v-0.007
		c0.17-1.918,0.18-3.817,0.039-5.692c-1.102-14.716-11.318-27.838-26.348-31.926c-19.056-5.173-38.78,6.128-43.955,25.196
		C85.343,136.508,95.727,155.557,113.636,161.472z M97.142,119.926c4.163-15.308,20.009-24.391,35.327-20.229
		c11.895,3.228,20.012,13.498,21.094,25.1c0.195,1.861,0.195,3.777-0.027,5.69c0,0,0.018,0,0,0.015
		c-0.139,1.499-0.424,3.01-0.828,4.519c-1.643,6.06-5.117,11.137-9.668,14.813c-5.135,4.157-11.646,6.504-18.427,6.442
		c-1.541-0.013-3.1-0.158-4.649-0.429c-0.877-0.158-1.729-0.353-2.591-0.582c-2.178-0.585-4.225-1.423-6.124-2.447
		c-1.157-0.626-2.266-1.334-3.308-2.101C98.601,143.887,93.936,131.749,97.142,119.926z"/>
	<path fill="#FFFFFF" d="M121.064,141.676c4.219,1.147,8.514,0.336,11.912-1.892c2.918-1.906,5.17-4.835,6.145-8.456
		c0.076-0.29,0.158-0.585,0.211-0.874c0-0.008,0.008-0.008,0.008-0.008c0.393-1.933,0.393-3.872,0.045-5.711
		c-1.025-5.362-4.996-9.949-10.609-11.464c-7.831-2.136-15.93,2.505-18.057,10.348C108.582,131.457,113.222,139.552,121.064,141.676
		z M117.503,125.466c1.114-4.105,5.339-6.515,9.423-5.411c2.463,0.676,4.314,2.46,5.162,4.661c0.574,1.473,0.693,3.137,0.252,4.777
		c-0.094,0.328-0.199,0.628-0.328,0.927c0,0.01,0,0.01,0,0.01c-0.809,1.944-2.355,3.415-4.219,4.172
		c-1.496,0.613-3.207,0.742-4.884,0.292C118.809,133.785,116.395,129.551,117.503,125.466z M121.064,141.676
		c4.219,1.147,8.514,0.336,11.912-1.892c2.918-1.906,5.17-4.835,6.145-8.456c0.076-0.29,0.158-0.585,0.211-0.874
		c0-0.008,0.008-0.008,0.008-0.008c0.393-1.933,0.393-3.872,0.045-5.711c-1.025-5.362-4.996-9.949-10.609-11.464
		c-7.831-2.136-15.93,2.505-18.057,10.348C108.582,131.457,113.222,139.552,121.064,141.676z M117.503,125.466
		c1.114-4.105,5.339-6.515,9.423-5.411c2.463,0.676,4.314,2.46,5.162,4.661c0.574,1.473,0.693,3.137,0.252,4.777
		c-0.094,0.328-0.199,0.628-0.328,0.927c0,0.01,0,0.01,0,0.01c-0.809,1.944-2.355,3.415-4.219,4.172
		c-1.496,0.613-3.207,0.742-4.884,0.292C118.809,133.785,116.395,129.551,117.503,125.466z M107.94,150.717
		c1.042,0.767,2.15,1.475,3.308,2.101c1.899,1.024,3.946,1.862,6.124,2.447c0.861,0.229,1.714,0.424,2.591,0.582
		c1.549,0.271,3.108,0.416,4.649,0.429c6.781,0.062,13.292-2.285,18.427-6.442c4.551-3.676,8.025-8.753,9.668-14.813
		c0.404-1.509,0.689-3.02,0.828-4.519c0.018-0.015,0-0.015,0-0.015c0.223-1.913,0.223-3.829,0.027-5.69
		c-1.082-11.603-9.199-21.872-21.094-25.1c-15.317-4.162-31.164,4.921-35.327,20.229C93.936,131.749,98.601,143.887,107.94,150.717z
		 M103.932,121.768c3.145-11.564,15.123-18.431,26.689-15.286c8.754,2.369,14.813,9.802,15.881,18.297
		c0.24,1.858,0.24,3.76-0.023,5.673c0,0-0.01,0.015-0.01,0.029c-0.119,0.897-0.303,1.793-0.549,2.694
		c-1.313,4.847-4.164,8.855-7.889,11.655c-5.193,3.901-12.068,5.468-18.811,3.633c-1.372-0.381-2.685-0.874-3.911-1.482
		c-0.064-0.031-0.12-0.058-0.17-0.091c-0.991-0.483-1.931-1.054-2.812-1.695h-0.015C105.107,140.064,101.47,130.796,103.932,121.768
		z M110.719,123.619c-2.137,7.838,2.503,15.933,10.346,18.057c4.219,1.147,8.514,0.336,11.912-1.892
		c2.918-1.906,5.17-4.835,6.145-8.456c0.076-0.29,0.158-0.585,0.211-0.874c0-0.008,0.008-0.008,0.008-0.008
		c0.393-1.933,0.393-3.872,0.045-5.711c-1.025-5.362-4.996-9.949-10.609-11.464C120.944,111.135,112.846,115.776,110.719,123.619z
		 M117.503,125.466c1.114-4.105,5.339-6.515,9.423-5.411c2.463,0.676,4.314,2.46,5.162,4.661c0.574,1.473,0.693,3.137,0.252,4.777
		c-0.094,0.328-0.199,0.628-0.328,0.927c0,0.01,0,0.01,0,0.01c-0.809,1.944-2.355,3.415-4.219,4.172
		c-1.496,0.613-3.207,0.742-4.884,0.292C118.809,133.785,116.395,129.551,117.503,125.466z M121.064,141.676
		c4.219,1.147,8.514,0.336,11.912-1.892c2.918-1.906,5.17-4.835,6.145-8.456c0.076-0.29,0.158-0.585,0.211-0.874
		c0-0.008,0.008-0.008,0.008-0.008c0.393-1.933,0.393-3.872,0.045-5.711c-1.025-5.362-4.996-9.949-10.609-11.464
		c-7.831-2.136-15.93,2.505-18.057,10.348C108.582,131.457,113.222,139.552,121.064,141.676z M117.503,125.466
		c1.114-4.105,5.339-6.515,9.423-5.411c2.463,0.676,4.314,2.46,5.162,4.661c0.574,1.473,0.693,3.137,0.252,4.777
		c-0.094,0.328-0.199,0.628-0.328,0.927c0,0.01,0,0.01,0,0.01c-0.809,1.944-2.355,3.415-4.219,4.172
		c-1.496,0.613-3.207,0.742-4.884,0.292C118.809,133.785,116.395,129.551,117.503,125.466z M121.064,141.676
		c4.219,1.147,8.514,0.336,11.912-1.892c2.918-1.906,5.17-4.835,6.145-8.456c0.076-0.29,0.158-0.585,0.211-0.874
		c0-0.008,0.008-0.008,0.008-0.008c0.393-1.933,0.393-3.872,0.045-5.711c-1.025-5.362-4.996-9.949-10.609-11.464
		c-7.831-2.136-15.93,2.505-18.057,10.348C108.582,131.457,113.222,139.552,121.064,141.676z M117.503,125.466
		c1.114-4.105,5.339-6.515,9.423-5.411c2.463,0.676,4.314,2.46,5.162,4.661c0.574,1.473,0.693,3.137,0.252,4.777
		c-0.094,0.328-0.199,0.628-0.328,0.927c0,0.01,0,0.01,0,0.01c-0.809,1.944-2.355,3.415-4.219,4.172
		c-1.496,0.613-3.207,0.742-4.884,0.292C118.809,133.785,116.395,129.551,117.503,125.466z"/>
	<path fill="#FFFFFF" d="M121.064,141.676c4.219,1.147,8.514,0.336,11.912-1.892c2.918-1.906,5.17-4.835,6.145-8.456
		c0.076-0.29,0.158-0.585,0.211-0.874c0-0.008,0.008-0.008,0.008-0.008c0.393-1.933,0.393-3.872,0.045-5.711
		c-1.025-5.362-4.996-9.949-10.609-11.464c-7.831-2.136-15.93,2.505-18.057,10.348C108.582,131.457,113.222,139.552,121.064,141.676
		z M117.503,125.466c1.114-4.105,5.339-6.515,9.423-5.411c2.463,0.676,4.314,2.46,5.162,4.661c0.574,1.473,0.693,3.137,0.252,4.777
		c-0.094,0.328-0.199,0.628-0.328,0.927c0,0.01,0,0.01,0,0.01c-0.809,1.944-2.355,3.415-4.219,4.172
		c-1.496,0.613-3.207,0.742-4.884,0.292C118.809,133.785,116.395,129.551,117.503,125.466z"/>
	<path fill="#F67437" d="M112.313,145.194h0.015c0.881,0.642,1.82,1.212,2.812,1.695c0.05,0.033,0.105,0.06,0.17,0.091
		c1.227,0.608,2.539,1.102,3.911,1.482c6.743,1.835,13.617,0.269,18.811-3.633c3.725-2.8,6.576-6.809,7.889-11.655
		c0.246-0.901,0.43-1.797,0.549-2.694c0-0.015,0.01-0.029,0.01-0.029c0.264-1.913,0.264-3.814,0.023-5.673
		c-1.068-8.495-7.127-15.928-15.881-18.297c-11.566-3.145-23.545,3.722-26.689,15.286
		C101.47,130.796,105.107,140.064,112.313,145.194z M110.719,123.619c2.127-7.843,10.226-12.484,18.057-10.348
		c5.613,1.516,9.584,6.102,10.609,11.464c0.348,1.839,0.348,3.778-0.045,5.711c0,0-0.008,0-0.008,0.008
		c-0.053,0.289-0.135,0.584-0.211,0.874c-0.975,3.621-3.227,6.55-6.145,8.456c-3.398,2.228-7.693,3.039-11.912,1.892
		C113.222,139.552,108.582,131.457,110.719,123.619z"/>
	<path fill="#FFFFFF" d="M121.064,141.676c4.219,1.147,8.514,0.336,11.912-1.892c2.918-1.906,5.17-4.835,6.145-8.456
		c0.076-0.29,0.158-0.585,0.211-0.874c0-0.008,0.008-0.008,0.008-0.008c0.393-1.933,0.393-3.872,0.045-5.711
		c-1.025-5.362-4.996-9.949-10.609-11.464c-7.831-2.136-15.93,2.505-18.057,10.348C108.582,131.457,113.222,139.552,121.064,141.676
		z M117.503,125.466c1.114-4.105,5.339-6.515,9.423-5.411c2.463,0.676,4.314,2.46,5.162,4.661c0.574,1.473,0.693,3.137,0.252,4.777
		c-0.094,0.328-0.199,0.628-0.328,0.927c0,0.01,0,0.01,0,0.01c-0.809,1.944-2.355,3.415-4.219,4.172
		c-1.496,0.613-3.207,0.742-4.884,0.292C118.809,133.785,116.395,129.551,117.503,125.466z"/>
	<path fill="#F67437" d="M132.332,129.486c-1.111,4.093-5.328,6.519-9.425,5.407c-4.096-1.113-6.512-5.343-5.404-9.428
		c1.114-4.101,5.339-6.515,9.429-5.405C131.033,121.176,133.447,125.392,132.332,129.486z"/>
	<path fill="#3E5587" d="M201.662,127.846c-0.012,1.439-1.09,2.635-2.49,2.826c-0.131,0.017-0.248,0.017-0.367,0.017l-23.82-0.076
		v-0.029l-50.265-0.175c-1.559,0-2.844-1.296-2.844-2.874c0-0.78,0.326-1.504,0.844-2.019c0.516-0.501,1.238-0.824,2.033-0.824
		l59.542,0.206v0.029l14.525,0.058C200.381,124.984,201.662,126.268,201.662,127.846z"/>
	<path fill="#B1B1B2" d="M199.186,126.069c0.004,0.327-0.49,0.589-1.09,0.586l-17.984-0.066c-0.604,0-1.088-0.262-1.088-0.592
		l0.02-6.543c0.008-0.328,0.631-0.989,1.227-0.989l17.865-2.857c0.6,0.002,1.088,0.268,1.082,0.603L199.186,126.069z"/>
	<path fill="#B1B1B2" d="M199.172,130.672l-0.033,8.049c0,0.328-0.484,0.594-1.088,0.592l-17.838-2.981
		c-0.598,0-1.217-0.666-1.217-0.994l0.012-4.711l19.797,0.063C198.932,130.69,199.053,130.684,199.172,130.672z"/>
	<path opacity="0.38" fill="#808080" d="M122.959,129.764l10.007,10.006l5.031,5.034h0.014l9.996,9.996l4.998,4.986l4.982,4.981
		c7.051-6.231,12.41-14.504,15.053-24.238c0.898-3.324,1.447-6.658,1.641-9.961l-7.033-0.03l-7.053-0.026l-7.066-0.029l-7.082-0.028
		l-7.146-0.008l-7.326-0.033l-7.263-0.023C124.053,130.39,123.446,130.162,122.959,129.764z"/>
</g>
</svg>
