<?xml version="1.0" encoding="utf-8"?>
<!-- Generator: Adobe Illustrator 16.0.0, SVG Export Plug-In . SVG Version: 6.00 Build 0)  -->
<!DOCTYPE svg PUBLIC "-//W3C//DTD SVG 1.1//EN" "http://www.w3.org/Graphics/SVG/1.1/DTD/svg11.dtd">
<svg version="1.1" id="Calque_1" xmlns="http://www.w3.org/2000/svg" xmlns:xlink="http://www.w3.org/1999/xlink" x="0px" y="0px"
	 width="250px" height="250px" viewBox="0 0 250 250" enable-background="new 0 0 250 250" xml:space="preserve">
<g>
	<g>
		<linearGradient id="SVGID_1_" gradientUnits="userSpaceOnUse" x1="34.9819" y1="134.4541" x2="231.3516" y2="134.4541">
			<stop  offset="0" style="stop-color:#FFFFFF"/>
			<stop  offset="1" style="stop-color:#000000"/>
		</linearGradient>
		<polygon fill="url(#SVGID_1_)" points="34.982,124.889 79.478,145.193 231.352,123.715 		"/>
		<polygon fill="#BAC5CD" points="75.257,197.409 75.257,216.777 231.352,123.715 		"/>
		<polygon fill="#C0CBD2" points="34.982,124.889 71.801,151.419 71.801,163.922 79.478,151.419 231.352,123.715 79.478,145.193 		
			"/>
		<g>
			<path fill="#FCD9BE" d="M185.073,111.673c-0.005-0.074-0.022-0.149-0.07-0.225c-0.253-0.396-0.66-0.627-1.091-0.673
				c-0.216-0.101-0.465-0.158-0.724-0.178c-0.656-0.05-1.336-0.009-1.991,0.022c-0.838,0.04-1.271,0.08-2.006-0.409
				c-0.299-0.199-0.613,0.043-0.666,0.315c-0.414,0.294-0.814,0.605-1.194,0.946c-0.124,0.111-0.247,0.246-0.33,0.389
				c-0.361-0.047-0.662,0.495-0.304,0.789c0.09,0.074,0.181,0.138,0.272,0.195c0.051,0.246,0.202,0.444,0.513,0.488
				c0.028,0.004,0.058-0.007,0.088-0.007c0.405,0.159,0.896,0.053,1.43-0.043c1.92-0.337,3.836-0.69,5.752-1.037
				C185.042,112.194,185.147,111.909,185.073,111.673z"/>
			<path fill="#20656C" d="M176.478,113.015c0.171,0.127,0.345,0.092,0.468-0.015c0.009-0.005,0.014-0.003,0.022-0.007
				c1.256-0.732,2.452-1.516,3.116-2.908c0.047-0.098,0.047-0.183,0.029-0.261c0.007-0.102-0.014-0.208-0.091-0.309
				c-0.582-0.775-1.207-1.508-1.86-2.216c-0.005-0.004-0.005-0.011-0.009-0.018c-2.888-4.149-6.865-7.287-9.808-11.435
				c-0.323-0.454-0.952,0.125-0.632,0.577l1.238,9.15L176.478,113.015z"/>
			<path fill="#FCD9BE" d="M151.927,140.78c-0.428-0.51-0.742-2.191-0.809-2.218c-0.013-0.192,0.086-1.037,0.086-1.037
				c-1.051,0.274-2.098,0.562-3.141,0.86c-0.035,0.011-0.06,0.028-0.08,0.053c-0.092-0.034-0.205-0.004-0.218,0.127
				c-0.083,0.812-0.313,2.466,0.465,3.025c0.031,0.034,0.076,0.057,0.137,0.046C149.676,141.399,152.046,140.754,151.927,140.78z"/>
			<path fill="#FCD9BE" d="M188.737,135.115c0.018-1.44,0-2.882-0.053-4.321c0,0-3.376,0.29-3.363,0.523
				c0.066,1.172,0.146,2.342,0.235,3.513c0.003,0.032,0.022,0.052,0.038,0.075c-0.06,0.092-0.049,0.235,0.079,0.275
				c0.768,0.243,2.322,0.803,3.002,0.067c0.005-0.005,0.007-0.009,0.011-0.013c0.024-0.029,0.038-0.063,0.04-0.095
				C188.729,135.131,188.737,135.127,188.737,135.115z"/>
			<path fill="#131523" d="M190.97,116.667c-0.009-0.306-0.02-0.614-0.048-0.919c0.002-1.256-0.225-2.479-1.164-3.221
				c-1.528-1.204-4.333-0.46-5.979-0.255c-4.203,0.524-8.364,1.298-12.495,2.257c-0.216,0.051-0.202,1.246-0.07,1.975
				c0.039,0.221,0.42,3.912,0.427,3.953c0.191,1.131,0.116,2.764,0.327,2.852c-0.697,0.168,6.964-1.319,11.469-2.41
				c-0.328,3.824,1.498,11.223,1.546,11.233c0.018,0.056,0.839,0.413,1.21,0.514c0.416,0.111,0.854,0.108,1.278,0.071
				c0.583-0.05,1.177-0.146,1.463-0.737c0-0.002,0-0.003,0.002-0.004c0.042-0.024,0.074-0.064,0.088-0.124
				c0.657-3.375,1.164-6.774,1.479-10.196c0.053-0.318,0.111-0.635,0.188-0.954c0.026-0.114,0.026-0.228,0.016-0.34
				C191.034,119.174,191.003,117.891,190.97,116.667z M183.74,125.048c0,0,0,0,0,0.002c0-0.005,0-0.01,0-0.015
				C183.74,125.04,183.74,125.043,183.74,125.048z"/>
			<path fill="#1B1F32" d="M173.875,135.202c-0.594-6.742-1.398-13.453-2.366-20.145c-0.016-0.338-0.181-1.271-0.186-1.3
				c-0.023-0.176-9.463,1.427-9.44,1.552c0.021,0.113,0.044,0.225,0.064,0.337c-0.001,0.13,0.156,0.876,0.213,1.112
				c0.838,4.436,1.756,8.854,2.753,13.252c0.003,0.017,0.006,0.034,0.008,0.051c0.009,0.058,0.028,0.109,0.042,0.166
				c0.112,0.493,0.227,0.985,0.34,1.477c-3.887,0.916-7.718,1.865-11.304,3.549c-0.171,0.05-0.321,0.122-0.45,0.217
				c-1.165,0.568-2.305,1.219-3.41,1.978c-0.063,0.044-0.077,0.105-0.063,0.163c-0.011,0.021-0.03,0.035-0.031,0.064
				c-0.056,1.572,0.652,3.94,2.45,3.619c0.316-0.018,0.634-0.037,0.95-0.058c0.324,0.031,0.65,0.011,0.987-0.06
				c4.65-0.31,9.361-0.803,13.86-2.032c0.397-0.109,0.9-0.239,1.436-0.398c0.458-0.054,0.871-0.192,1.283-0.442
				C172.509,137.703,173.897,136.774,173.875,135.202z"/>
			<path fill="#010202" d="M151.701,145.726c-0.058-0.796-0.767-1.357-1.498-1.367c-0.445-0.006-0.988,0.292-1.42,0.149
				c-0.852-0.279-0.398-2.875-0.449-2.948c-0.604-0.868-0.435-2.229-0.3-3.234l0,0c0.001-0.012,0.003-0.023,0.004-0.032
				c0-0.005-0.003-0.006-0.003-0.01c0-0.011,0.003-0.022,0.002-0.033c-0.079-0.515-0.708-0.564-1.113-0.628
				c-0.701-0.114-1.405-0.064-2.094,0.106c-0.075-0.096-0.232-0.113-0.275,0.034c-0.78,2.7-1.28,6.835,0.425,9.284
				c0.04,0.058,0.092,0.07,0.141,0.064c0.022,0.044,0.058,0.079,0.119,0.087c2.206,0.276,4.345-0.135,6.313-1.224
				c0.046-0.024,0.07-0.062,0.084-0.102C151.676,145.84,151.706,145.795,151.701,145.726z"/>
			<path fill="#010202" d="M194.487,137.136c-0.938-0.089-1.839,0.071-2.771,0.08c-0.88,0.006-1.509-0.162-2.094-0.902
				c-0.286-0.362-0.467-0.794-0.709-1.188c-0.062-0.097-0.158-0.09-0.224-0.033c-0.005,0-0.007-0.002-0.012-0.002
				c-1.003,0.129-1.988,0.063-2.967-0.19c-0.112-0.029-0.176,0.054-0.183,0.147c-0.051,0.02-0.097,0.062-0.112,0.133
				c-0.336,1.668-0.358,3.324-0.07,4.999c0.026,0.159,0.193,0.182,0.284,0.107c0.015,0.006,0.021,0.021,0.041,0.021
				c3.687,0.224,7.283-0.226,10.822-1.344c0.048-0.015,0.306-0.128,0.299-0.266C196.73,137.416,195.488,137.229,194.487,137.136z"/>
			<path fill="#1B1F32" d="M169.756,67.812c-0.486-1.675-2.251-3.584-4.017-3.157c-1.32,0.319-2.125,1.892-3.36,2.375
				c-1.553,0.609-3.388-0.345-5.008,0.192c-1.724,0.572-2.846,2.026-3.308,3.765c-0.039-0.038-0.07-0.081-0.116-0.112
				c-0.411-0.292-0.926-0.298-1.326,0.015c-0.432,0.336,0.088,1.024,0.519,0.688c0.191-0.148,0.353-0.021,0.474,0.173
				c-2.873,2.044-3.544,5.668-2.35,9.159c1.456,4.251,5.051,5.253,8.953,4.934c0.191-0.015,0.296-0.139,0.331-0.286
				c0.021-0.018,0.042-0.028,0.062-0.052c1.472-1.839,2.041-4.207,3.295-6.198c0.565-0.897,1.215-1.734,1.738-2.66
				c0.743-1.307,0.959-2.792,2.232-3.737c0.083-0.062,0.123-0.137,0.145-0.217C169.254,71.372,170.312,69.74,169.756,67.812z"/>
			<path fill="#FCD9BE" d="M194.349,72.305c0.07-0.478-0.374-0.762-1.038-0.541c-1.168,0.389-2.341,1.629-3.346,2.355
				c-1.368,0.993-2.738,1.985-4.108,2.977c-0.014,0.01-0.021,0.021-0.029,0.03c-0.105,0.016-0.202,0.103-0.187,0.247
				c0.042,0.394,0.497,3.49,0.915,3.459c0.072-0.005,0.141-0.068,0.167-0.137c0.002-0.005,0.005-0.01,0.007-0.016
				c0.541-0.367,1.14-0.571,1.766-0.658c0.152,0.033,0.906,0.34,1.212,0.358c0.618,0.039,1.802-1.099,1.934-1.299
				c0.46-0.363,0.667-0.742,0.576-1.583c-0.023-0.223-0.316-1.132-0.362-1.534c-0.047-0.398-0.291-0.679-0.396-1.045
				c0.865-0.558,2.519-1.94,2.561-1.987C194.087,72.855,194.388,72.391,194.349,72.305z M190.29,75.386
				c-0.004-0.002-0.006-0.009-0.011-0.012c0.002-0.001,0.005-0.005,0.007-0.007C190.286,75.374,190.288,75.38,190.29,75.386z
				 M191.493,74.367c0.003,0.002,0.005,0.003,0.007,0.003c-0.002,0.002-0.007,0.004-0.007,0.005
				C191.493,74.374,191.493,74.37,191.493,74.367z"/>
			<path fill="#FCD9BE" d="M169.078,80.405c-0.664-2.7-1.357-5.391-2.035-8.086c0-0.003,0.003-0.004,0.002-0.007
				c-0.007-0.055-0.023-0.112-0.046-0.166c-0.004-0.027-0.021-0.05-0.021-0.079c-0.01-0.081-0.06-0.116-0.117-0.13
				c-0.103-0.091-0.239-0.108-0.376,0.051c-0.026,0.029-0.046,0.07-0.065,0.109c-0.748,0.841-1.576,1.522-2.567,2.028
				c-0.455,0.232-1.086,0.323-1.398,0.788c-0.128,0.191-0.066,0.434-0.11,0.658c-0.336,1.704,0.611,3.091-1.333,4.291
				c-0.06,0.037-0.116,0.107-0.098,0.186c0.109,0.475,0.219,0.951,0.329,1.425c-0.021,0.001-0.039-0.007-0.062,0.005
				c-0.058,0.033-0.114,0.054-0.172,0.08c-0.022-0.001-0.04-0.014-0.062-0.005c-0.084,0.026-0.148,0.027-0.207,0.018
				c-0.07-0.165-0.147-0.326-0.23-0.483c-0.003-0.006,0.002-0.01,0-0.016c-0.039-0.141-0.089-0.268-0.147-0.391
				c-0.007-0.014-0.013-0.029-0.018-0.043c0.005-0.031,0.004-0.065-0.015-0.101c-0.753-1.543-3.355-2.663-4.348-0.702
				c-1.161,2.299,1.905,4.386,3.469,5.208c0.026,0.014,0.053,0.018,0.076,0.017c0.003,0.001,0.006,0.002,0.007,0.003
				c0,0.001-0.001,0.002-0.001,0.003c0.004,0.001,0.008,0.001,0.013,0.003c0.066,0.039,0.133,0.064,0.206,0.079
				c0.245,0.795,0.46,1.601,0.626,2.421c-0.004,0.018-0.016,0.03-0.014,0.051c0.063,0.554,0.171,1.091,0.314,1.628
				c-0.002,0.013-0.011,0.02-0.009,0.034c0.022,0.186,0.045,0.371,0.067,0.557c0.001,0.015,0.013,0.02,0.019,0.033
				c0.004,0.041,0.011,0.083,0.017,0.122c0,0.001,0.001,0.003,0.001,0.005c-0.045,0.085-0.035,0.197,0.079,0.229
				c1.008,0.282,2.015,0.356,3.047,0.211c0.109-0.017,0.146-0.115,0.133-0.205c0.019-0.004,0.038-0.007,0.059-0.011
				c0.004,0.009,0.006,0.02,0.01,0.028c0.063,0.186,0.361,0.099,0.317-0.095c-0.062-0.285-0.139-0.566-0.205-0.851
				c-0.076-0.539-0.153-1.078-0.229-1.617c2.17-0.458,4.436-1.565,5.317-3.18C169.991,83.247,169.388,81.671,169.078,80.405z
				 M162.379,78.791c-0.005-0.005-0.008-0.012-0.015-0.017C162.378,78.741,162.383,78.742,162.379,78.791z"/>
			<path fill="#2D7B89" d="M187.425,81.299c-0.265-1.336-0.73-2.569-1.391-3.736c0.007-0.305-0.235-0.609-0.548-0.415
				c-7.091,4.409-14.198,8.793-21.314,13.16c-1.118-0.515-2.451-0.751-4.095-0.79c-0.145-0.004-0.255,0.061-0.332,0.152
				c-0.059-0.004-0.121,0.004-0.186,0.032c-2.975,1.242-2.1,5.601-1.904,8.311c0.398,5.485,2.543,10.598,2.805,16.094
				c0,0.001,0,0.002,0,0.003c-0.208,0.197-0.242,0.602,0.099,0.73c3.655,1.396,8.823,1.009,11.909-1.607
				c0.222-0.191,0.174-0.474,0.018-0.645c0.009-0.044,0.018-0.09,0.009-0.145c-0.607-4.716-1.617-9.359-3.108-13.843
				c0.063-0.109-1.196-3.313-1.303-3.581c-0.085-0.211-0.173-0.411-0.262-0.608c6.482-4.064,12.879-8.272,19.183-12.638
				C187.244,81.786,187.488,81.616,187.425,81.299z"/>
			<g>
				<g>
					<path fill="#20656C" d="M163.151,97.385c1.573-0.872,3.147-1.745,4.721-2.617c0.313-0.174,0.033-0.655-0.281-0.48
						c-1.573,0.873-3.146,1.745-4.721,2.617C162.557,97.078,162.837,97.559,163.151,97.385L163.151,97.385z"/>
				</g>
			</g>
		</g>
		<g>
			<path fill="#4E264B" d="M131.682,100.986c-4.908-5.758-14.75-3.031-17.372,3.803c-1.502,3.915-1.492,8.406-1.475,12.561
				c0.023,5.89,0.785,11.611,3.444,16.855c0.081,0.16,0.292,0.106,0.327-0.023c0.126,0.022,0.251,0.04,0.375,0.059
				c0.112,0.028,0.229,0.045,0.355,0.053c2.057,0.227,4.312,0.313,5.965-1.061c2.891-2.395,2.562-9.557,2.649-9.668
				c0.271-0.195,0.466-7.689,4.616-15.426C132.991,105.713,133.467,103.599,131.682,100.986z"/>
			<path fill="#FCD9BE" d="M134.401,113.225c-0.652-2.767-2.066-8.518-2.065-8.548c-0.098-0.417-0.552-0.016-0.573,0.024
				c-0.771,0.852-1.626,1.541-2.644,2.046c-0.468,0.232-1.428,0.597-1.557,1.462c-0.265,1.758,0.595,3.168-1.406,4.374
				c-0.061,0.037-0.119,0.106-0.102,0.189c0.106,0.482,0.213,0.964,0.319,1.447c-0.019,0.001-0.451,0.117-0.51,0.107
				c-0.07-0.168-0.391-1.024-0.41-1.063c-0.755-1.586-3.405-2.759-4.438-0.765c-1.211,2.34,1.904,4.507,3.495,5.364
				c0.028,0.015,0.234,0.095,0.307,0.11c0.243,0.818,0.991,4.927,0.997,4.968c0,0.002,0.08,0.241,0.08,0.241
				c1.026,0.3,3.689,0.165,3.647-0.033c-0.062-0.293-0.348-1.977-0.421-2.53c2.224-0.445,4.552-1.553,5.469-3.192
				C135.306,116.141,134.707,114.523,134.401,113.225z"/>
			<path fill="#ED6D73" d="M136.038,147.53c0.015-0.044-0.659-10.622-1.824-17.593c-1.234-4.922-3.332-6.927-7.54-7.667
				c-0.146-0.024-0.686,0.12-0.756,0.138c-3.184,0.8-2.694,5.315-2.872,8.089c-0.358,5.613,1.105,11.116,0.609,16.72
				c0,0.002,0,0.003,0,0.003c-0.239,0.17-0.329,0.571-0.003,0.755c3.508,1.974,8.792,2.378,12.276,0.203
				C136.184,148.021,136.172,147.726,136.038,147.53z"/>
		</g>
		<g>
			<path fill="#28201A" d="M101.903,108.628c-0.261-0.2-0.548-0.325-0.844-0.402c-0.02-0.03-0.031-0.063-0.053-0.094
				c-0.59-0.836-1.639-1.234-2.604-0.99c-0.252,0.063-0.491,0.167-0.711,0.3c-0.353-1.021-1.186-1.866-2.353-2.041
				c-0.053-0.008-0.107-0.003-0.161-0.006c-0.491-0.198-1.022-0.227-1.525-0.088c-0.739-0.278-1.414,0.021-1.87,0.593
				c-0.079-0.046-0.155-0.094-0.241-0.133c-1.925-0.883-4.073,0.798-4.322,2.833c-0.097-0.006-0.193-0.015-0.292-0.011
				c-1.952,0.086-2.955,1.896-2.973,3.738c-0.095,0.019-0.192,0.03-0.287,0.05c-1.285,0.272-1.937,1.688-1.368,2.929
				c0.119,0.257,0.276,0.488,0.459,0.689c-0.018,0.067-0.043,0.132-0.057,0.2c-0.172,0.237-0.327,0.49-0.441,0.772
				c-0.598,1.476-0.242,3.011,0.525,4.298c-0.223,0.648-0.234,1.382,0.067,2.174c0.646,1.705,2.603,3.188,4.331,3.291
				c0.157,0.011,0.31-0.005,0.464-0.017c-0.132,1.185,0.35,2.423,1.566,3.007c0.215,0.104,0.436,0.165,0.659,0.205
				c0.891,0.414,1.935,0.261,2.899-0.029c2.112-0.634,2.061-3.545,2.082-3.589c0.419-0.866,1.227-2.86,2.036-3.704
				c1.481-1.5,5.867-8.216,6.331-9.101C103.901,112.204,103.108,109.551,101.903,108.628z"/>
			<path fill="#E5AD88" d="M103.076,121.766c-0.653-2.768-2.067-8.519-2.065-8.549c-0.098-0.415-0.552-0.015-0.574,0.024
				c-0.772,0.853-1.626,1.54-2.644,2.046c-0.467,0.232-1.427,0.597-1.558,1.462c-0.264,1.759,0.595,3.168-1.405,4.373
				c-0.061,0.037-0.121,0.107-0.102,0.189c0.106,0.482,0.213,0.964,0.32,1.446c-0.019,0.004-0.452,0.119-0.511,0.109
				c-0.07-0.168-0.391-1.025-0.41-1.062c-0.755-1.586-3.405-2.761-4.438-0.766c-1.212,2.34,1.903,4.506,3.495,5.364
				c0.028,0.016,0.233,0.095,0.307,0.11c0.244,0.816,0.991,4.926,0.996,4.968c0,0.003,0.081,0.24,0.081,0.24
				c1.026,0.3,3.688,0.167,3.647-0.032c-0.061-0.293-0.348-1.978-0.421-2.53c2.224-0.445,4.552-1.553,5.469-3.194
				C103.98,124.682,103.382,123.065,103.076,121.766z"/>
			<path fill="#51406A" d="M104.712,156.072c0.015-0.047-0.659-10.623-1.825-17.594c-1.234-4.924-3.332-6.929-7.54-7.666
				c-0.146-0.026-0.686,0.12-0.756,0.138c-3.184,0.798-2.695,5.313-2.872,8.087c-0.358,5.612,1.106,11.117,0.609,16.721
				c0,0.002,0.001,0.003,0,0.004c-0.238,0.168-0.328,0.571-0.002,0.755c3.507,1.974,8.792,2.378,12.275,0.203
				C104.857,156.561,104.846,156.267,104.712,156.072z"/>
		</g>
		<linearGradient id="SVGID_2_" gradientUnits="userSpaceOnUse" x1="41.4414" y1="168.5439" x2="231.3516" y2="168.5439">
			<stop  offset="0" style="stop-color:#FFFFFF"/>
			<stop  offset="1" style="stop-color:#000000"/>
		</linearGradient>
		<polygon fill="url(#SVGID_2_)" points="231.352,123.715 41.441,213.373 79.478,151.419 		"/>
	</g>
	<g>
		<ellipse fill="#FFF288" cx="39.471" cy="40.474" rx="29.892" ry="31.499"/>
		<path fill="#93D2E1" d="M237.901,190.203c-2.572-1.861-5.697-2.078-8.689-1.896c-0.313,0.019-1.74,0.423-2.129,0.14
			c-2.152-9.099-12.275-11.57-18.92-7.427c-0.566,0.354-1.771,1.228-1.803,1.256c-0.676-0.652-1.303-1.571-1.885-2.335
			c-2.363-5.104-4.098-10.61-8.912-13.85c-6.527-4.393-15.137-1.971-19.609,4.361c-2.111,2.987-3.213,6.582-3.412,10.282
			c-0.209,0.041-4.318,0.141-6.156,0.621c-7.33,1.918-9.516,9.99-9.516,17.025c0.002,2.603,4.332,7.001,9.023,6.979
			c23.682,1.418,47.438,0.493,70.953-2.778c2.852-0.397,5.328-2.297,5.328-5.613C242.175,195.206,240.646,192.189,237.901,190.203z
			 M206.159,182.456C205.624,182.914,205.839,182.585,206.159,182.456L206.159,182.456z"/>
		<path fill="#93D2E1" d="M56.548,232.337c0.056-4.588-3.106-9.085-7.405-10.179c-2.251-0.572-4.555-0.128-6.52,0.998
			c-1.843-4.844-5.205-8.967-10.402-9.987c-3.206-0.63-8.168,0.125-8.467,0.213c-4.153,1.235-7.256,5.33-8.464,9.207
			c-0.072,0.154-0.135,0.315-0.202,0.473c-1.959-0.612-4.056-0.646-5.913,0.072c-3.098,1.195-6.797,4.979-6.087,10.315
			c0.007,0.051,0.004,0.104,0.006,0.156c0.076,1.82,3.279,7.917,6.934,7.911c0.416,0,36.383,0.419,40.962,0
			C55.459,241.107,57.885,235.504,56.548,232.337z"/>
		<path fill="#93D2E1" d="M241.13,42.331c0.189-5.658-3.67-11.253-8.959-12.548c-2.545-0.624-5.176-0.32-7.553,0.767
			c-0.164-1.074-1.016-10.002-1.953-13.324c-1.887-6.688-8.104-12.58-15.09-10.179c-6.164,2.118-8.902,10.291-10.281,16.287
			c-0.352,1.534-0.541,3.168-0.699,4.83c-1.322-0.888-2.824-1.482-4.393-1.718c-6.982-1.048-12.16,5.143-11.855,11.977
			c-1.836,0.245-3.672,0.489-5.51,0.732c-2.854,0.379-7.064,1.463-7.668,5.486c-0.363,5.142,0.967,9.975,6.162,9.729
			c5.043-0.237,25.443-1.063,30.375-1.577c11.889-0.326,23.785-0.272,35.676,0.314c2.877,0.143,5.326-2.681,5.326-5.614
			C244.708,44.852,243.179,43.132,241.13,42.331z"/>
	</g>
</g>
</svg>
