<?xml version="1.0" encoding="utf-8"?>
<!-- Generator: Adobe Illustrator 16.0.0, SVG Export Plug-In . SVG Version: 6.00 Build 0)  -->
<!DOCTYPE svg PUBLIC "-//W3C//DTD SVG 1.1//EN" "http://www.w3.org/Graphics/SVG/1.1/DTD/svg11.dtd">
<svg version="1.1" id="Calque_1" xmlns="http://www.w3.org/2000/svg" xmlns:xlink="http://www.w3.org/1999/xlink" x="0px" y="0px"
	 width="250px" height="250px" viewBox="0 0 250 250" enable-background="new 0 0 250 250" xml:space="preserve">
<path opacity="0.17" fill="#221E20" d="M4.001,236.978c0-2.407,12.974-4.357,28.977-4.357s28.977,1.95,28.977,4.357
	c0,2.406-12.974,4.356-28.977,4.356S4.001,239.384,4.001,236.978"/>
<path opacity="0.17" fill="#221E20" d="M249.937,237.44c0,2.406-12.974,4.356-28.978,4.356s-28.977-1.95-28.977-4.356
	c0-2.407,12.973-4.356,28.977-4.356S249.937,235.033,249.937,237.44"/>
<ellipse opacity="0.17" fill="#221E20" cx="73.829" cy="236.886" rx="10.117" ry="3.339"/>
<ellipse opacity="0.17" fill="#221E20" cx="106.305" cy="236.886" rx="10.117" ry="3.339"/>
<path fill="#FAC674" d="M75.014,56.72c0,0,0.698,2.974,1.089,3.704c0.391,0.73-1.28,1.197-1.28,1.197l-2.085-1.941L75.014,56.72z"/>
<path fill="#FAC674" d="M71.611,54.179c0,0-0.617,1.589-0.134,3.5c0.402,1.593,2.742,3.348,2.742,3.348l0.795-1.937L71.611,54.179z"
	/>
<g>
	<path fill="#FAC674" d="M138.992,68.988c0,0,1.204-0.192,1.779-0.231c0.576-0.041,1.153-4.487,1.832-4.809
		c0.68-0.323,0.829,3.745,0.821,4.088c-0.002,0.139,0.969-0.02,2.223-0.146c1.834-0.184,4.184-0.379,4.264-0.151
		c0.134,0.386-0.502,0.939-0.502,0.939s0.177,0.807-0.499,0.958c0,0-0.021,1.03-0.6,1.069c0,0-0.259,0.851-0.884,0.946
		c0,0,0.229,0.522-0.691,0.895c-0.919,0.373-3.063,0.383-3.496,0.208c-2.359-0.966-3.99-0.094-3.99-0.094L138.992,68.988z"/>
	<path fill="#DB5F80" d="M104.648,55.935c-2.936-1.559-6.118,4.551-4.541,7.876c1.577,3.326,16.233,12.126,17.359,12.376
		c1.126,0.252,22.516-2.464,22.516-2.464l-0.755-5.695c0,0-20.018,0.17-20.676,0.15C117.893,68.158,107.231,57.306,104.648,55.935z"
		/>
</g>
<g>
	<path fill="#594354" d="M98.603,162.726l-1.018,7.544l2.299,0.349l0.298-0.954c0,0,3.735,1.588,9.788,0.93
		c0,0-2.256-4.914-7.681-7.206L98.603,162.726z"/>
	<path fill="#594354" d="M83.83,162.494l-1.018,7.543l2.3,0.35l0.298-0.956c0,0,3.735,1.589,9.788,0.931
		c0,0-2.257-4.914-7.681-7.208L83.83,162.494z"/>
	<path fill="#645A4E" d="M104.304,90.688c0,0,1.138,28.895,1.138,31.439s-2.134,39.733-2.276,41.598h-5.754
		c0,0,1.19-34.176,0.556-39.07c-0.634-4.894-0.746-28.646-0.746-28.646l2.182-8.694L104.304,90.688z"/>
	<path fill="#72675A" d="M101.864,89.438l-5.211,38.916l-6.562,35.965l-6.709-1.95c0,0,6.206-32.688,6.354-37.153
		c0,0-3.782-23.647-0.573-40.9L101.864,89.438z"/>
	<polygon fill="#BC4F70" points="97.195,50.301 104.759,53.016 101.864,56.861 	"/>
	<g>
		<g>
			<path fill="#FAC674" d="M100.491,43.878l-3.296,10.944c0,0,2.856,6.16,5.272,3.408l4.065-11.794L100.491,43.878z"/>
			<path opacity="0.17" fill="#221E20" d="M99.689,46.54c0.887,1.084,3.571,4.224,5.211,4.632l1.632-4.736l-6.042-2.558
				L99.689,46.54z"/>
		</g>
		<g>
			<path fill="#FAC674" d="M116.067,25.097c0,0,2.307,22.671-9.45,23.196c-11.755,0.524-12.304-16.381-12.304-20.051
				s3.918-9.173,10.968-9.173S116.067,23.132,116.067,25.097z"/>
			<path fill="#F4A16A" d="M112.195,37.222c0,0,1.977,4.586,0.989,5.11c-0.989,0.524-1.868,0-1.868,0L112.195,37.222z"/>
			<ellipse fill="#404041" cx="107.643" cy="34.227" rx="1.245" ry="2.184"/>
			<ellipse fill="#404041" cx="114.727" cy="34.57" rx="0.827" ry="1.84"/>
			<ellipse fill="#F3A68B" cx="106.623" cy="38.051" rx="1.863" ry="1.029"/>
			<path fill="#F3A68B" d="M113.9,38.051c0,0.469,0.57,0.864,1.347,0.988c0.163-0.664,0.3-1.338,0.417-2.014
				C114.682,37.053,113.9,37.501,113.9,38.051z"/>
			<ellipse fill="#FFFFFF" cx="108.243" cy="33.626" rx="0.243" ry="0.6"/>
			<ellipse fill="#FFFFFF" cx="114.97" cy="34.227" rx="0.243" ry="0.6"/>
			<path fill="#5F3813" d="M98.833,46.455c0,0,1.896-7.24,1.896-10.972c0,0-2.655,0.245-2.75-3.441
				c-0.094-3.686,3.13-1.084,3.13-1.084s0.758-0.905,1.042-3.846c0,0,10.995,6.61,15.452,1.067s1.004-12.522-4.144-10.682
				c0,0-2.756-4.411-8.879-3.558C98.085,14.844,94.756,44.08,98.833,46.455z"/>
			<g>
				<path fill="#EF817F" d="M105.939,43.878c0,0-1.311-2.95,0-3.246c1.312-0.295,1.117,2.951,1.117,2.951L105.939,43.878z"/>
				<polygon fill="#D1716F" points="106.293,43.711 106.212,42.036 106.623,43.642 				"/>
			</g>
			<path fill="none" stroke="#72675A" stroke-width="0.5898" stroke-linecap="round" stroke-miterlimit="10" d="M110.64,45.995
				c0,0-2.704-3.846-5.358-1.752"/>
		</g>
	</g>
	<path fill="#BC4F70" d="M96.463,53.016c0,0-9.561,7.89-10.083,40.377c0,0,4.936,6.136,14.322,7.834l0.662-4.526l0.626,4.526
		c0,0,2.154-1.811,3.861-3.168l-0.569-41.338l-3.418,0.141L96.463,53.016z"/>
	<polygon fill="#EA678B" points="97.79,51.171 101.864,56.861 98.928,60.029 95.325,52.902 97.195,50.301 	"/>
	<polygon fill="#EA678B" points="101.864,56.861 104.759,53.016 105.851,56.72 103.61,60.424 	"/>
	<path fill="#DB5F80" d="M95.576,53.696c-2.418-1.566-9.357,13.461-9.964,14.064c-0.607,0.603-8.667-8.823-8.667-8.823l-3.792,3.193
		c0,0,7.856,14.072,11.396,14.438c0.83,0.086,1.829,0.667,2.889-0.188c3.458-2.79,8.17-12.512,9.165-14.359
		C97.903,59.608,99.117,55.988,95.576,53.696z"/>
	<path fill="#5F3813" d="M90.11,27.749c-0.441,3.329,7.235,6.041,7.235,6.041l1.447-9.063l5.789-10.787
		C104.581,13.94,91.194,19.549,90.11,27.749z"/>
	<path fill="#5F3813" d="M98.068,45.01c0,0-7.597-12.083-9.044-17.261c-1.447-5.179-10.492-4.747-10.13,0.863
		c0.362,5.609-2.532-18.987,2.894-13.378c5.427,5.61,8.683,8.631,8.683,8.631l6.874,9.925"/>
</g>
<g>
	<g>
		<rect x="72.738" y="54.581" fill="#B9BABD" width="2.276" height="184.182"/>
		<rect x="105.167" y="54.581" fill="#B9BABD" width="2.276" height="184.182"/>
	</g>
	<rect x="72.716" y="70.918" fill="#B9BABD" width="34.75" height="2.559"/>
	<rect x="72.716" y="91.602" fill="#B9BABD" width="34.75" height="2.56"/>
	<rect x="72.716" y="112.286" fill="#B9BABD" width="34.75" height="2.56"/>
	<rect x="72.716" y="132.97" fill="#B9BABD" width="34.75" height="2.56"/>
	<rect x="72.716" y="153.655" fill="#B9BABD" width="34.75" height="2.559"/>
	<rect x="72.716" y="174.339" fill="#B9BABD" width="34.75" height="2.56"/>
	<rect x="72.716" y="195.022" fill="#B9BABD" width="34.75" height="2.56"/>
	<rect x="72.716" y="215.707" fill="#B9BABD" width="34.75" height="2.56"/>
</g>
<path fill="#473A33" d="M240.839,236.841c0,0-4.241,1.32-10.853-0.1c0,0,2.882-5.152,9.041-7.054"/>
<path fill="#5A4A42" d="M234.338,237.455c0,0-4.225,1.397-10.854,0.1c0,0,2.815-5.205,8.949-7.221l4.107-0.376"/>
<path fill="#FAC674" d="M192.729,180.271c0,0-1.215-0.014-1.792,0.03c-0.576,0.046-1.603-4.283-2.31-4.505s-0.441,3.838-0.399,4.178
	c0.018,0.138-0.962,0.121-2.22,0.179c-1.838,0.082-4.189,0.229-4.246,0.469c-0.095,0.403,0.592,0.86,0.592,0.86
	s-0.09,0.825,0.597,0.877c0,0,0.127,1.018,0.703,0.974c0,0,0.345,0.808,0.973,0.812c0,0-0.172,0.551,0.78,0.788
	c0.95,0.234,3.079-0.067,3.487-0.305c2.245-1.302,3.954-0.675,3.954-0.675L192.729,180.271z"/>
<path fill="#CF5F22" d="M225.481,162.321c2.755-1.974,6.535,3.626,5.313,7.157c-1.227,3.529-14.874,14.396-15.966,14.81
	c-1.091,0.413-22.6,0.827-22.6,0.827l0.168-5.763c0,0,19.884-2.741,20.537-2.856C213.586,176.38,223.059,164.058,225.481,162.321z"
	/>
<g>
	<path fill="#FAC674" d="M78.762,116.243c0,0,0.982-0.85,1.474-1.212c0.492-0.361-0.773-4.601-0.304-5.27
		c0.469-0.668,2.223,2.826,2.354,3.132c0.053,0.125,0.844-0.566,1.897-1.388c1.539-1.202,3.527-2.705,3.689-2.548
		c0.273,0.262-0.066,1.109-0.066,1.109s0.475,0.612-0.059,1.126c0,0,0.391,0.919-0.101,1.28c0,0,0.111,0.896-0.401,1.333
		c0,0,0.41,0.33-0.251,1.18c-0.662,0.848-2.545,2.073-2.994,2.163c-2.462,0.487-3.551,2.179-3.551,2.179L78.762,116.243z"/>
	<path fill="#73B795" d="M43.342,124.221c-3.204,0.292-3.57,7.471-0.858,9.503c2.712,2.034,19.114,1.47,20.205,1.052
		c1.091-0.416,18.832-14.928,18.832-14.928l-2.934-4.582c0,0-17.545,11.494-18.133,11.85
		C59.865,127.471,46.161,123.963,43.342,124.221z"/>
</g>
<path fill="#E43231" d="M134.004,119.998c-0.728-4.237-2.127-8.179-4.056-11.67l4.43-6.244l-3.621-4.32l-3.621-4.317l-5.234,5.282
	c-2.927-2.3-6.232-3.97-9.784-4.839l-0.569-8.145h-5.12h-5.12l-0.569,8.145c-3.552,0.869-6.858,2.539-9.784,4.839l-5.235-5.282
	l-3.62,4.317l-3.621,4.32l4.429,6.244c-1.929,3.491-3.329,7.433-4.057,11.67l-6.829,0.679v6.108v6.106l6.829,0.68
	c0.729,4.236,2.128,8.18,4.057,11.67l-4.429,6.245l3.621,4.317l3.62,4.319l5.235-5.283c2.926,2.302,6.232,3.97,9.784,4.839
	l0.569,8.146h5.12h5.12l0.569-8.146c3.552-0.869,6.857-2.537,9.784-4.839l5.234,5.283l3.621-4.319l3.621-4.317l-4.43-6.245
	c1.929-3.49,3.328-7.434,4.056-11.67l6.829-0.68v-6.106v-6.108L134.004,119.998z M106.428,146.679
	c-9.211,0-16.679-8.906-16.679-19.895c0-10.987,7.467-19.896,16.679-19.896s16.679,8.909,16.679,19.896
	C123.106,137.772,115.639,146.679,106.428,146.679z"/>
<path fill="#F8E02F" d="M189.151,77.389c-0.729-4.235-2.129-8.18-4.057-11.67l4.428-6.243l-3.619-4.319l-3.622-4.318l-5.235,5.283
	c-2.926-2.301-6.232-3.969-9.784-4.839l-0.568-8.146h-5.12h-5.12l-0.569,8.146c-3.552,0.87-6.856,2.538-9.784,4.839l-5.234-5.283
	l-3.62,4.318l-3.62,4.319l4.43,6.243c-1.931,3.49-3.329,7.435-4.058,11.67l-6.829,0.679v6.107v6.107l6.829,0.679
	c0.729,4.237,2.127,8.181,4.058,11.67l-4.43,6.245l3.62,4.318l3.62,4.318l5.234-5.282c2.928,2.302,6.232,3.971,9.784,4.839
	l0.569,8.146h5.12h5.12l0.568-8.146c3.552-0.868,6.858-2.537,9.784-4.839l5.235,5.282l3.622-4.318l3.619-4.318l-4.428-6.245
	c1.928-3.489,3.328-7.434,4.057-11.67l6.828-0.679v-6.107v-6.107L189.151,77.389z M161.573,104.07
	c-9.212,0-16.679-8.907-16.679-19.895s7.467-19.895,16.679-19.895c9.211,0,16.68,8.907,16.68,19.895S170.784,104.07,161.573,104.07z
	"/>
<path fill="#1D9CD8" d="M186.854,169.686c-0.339-4.307-1.366-8.407-2.966-12.129l4.977-5.63l-3.205-4.764l-3.203-4.766l-5.688,4.57
	c-2.697-2.67-5.831-4.759-9.28-6.087l0.179-8.171l-5.088-0.667l-5.092-0.667l-1.312,8.022c-3.61,0.401-7.048,1.629-10.168,3.534
	l-4.72-5.933l-3.994,3.82l-3.994,3.82l3.83,6.785c-2.235,3.217-3.988,6.955-5.102,11.071l-6.85-0.216l-0.56,6.072l-0.56,6.069
	l6.725,1.565c0.337,4.306,1.366,8.408,2.964,12.13l-4.975,5.629l3.203,4.765l3.204,4.765l5.687-4.569
	c2.7,2.668,5.832,4.759,9.282,6.086l-0.18,8.169l5.089,0.67l5.089,0.666l1.313-8.021c3.609-0.401,7.05-1.63,10.168-3.535l4.72,5.934
	l3.995-3.822l3.994-3.819l-3.832-6.784c2.24-3.219,3.992-6.956,5.104-11.071l6.85,0.214l0.56-6.069l0.561-6.071L186.854,169.686z
	 M156.997,192.612c-9.158-1.199-15.764-11.027-14.757-21.95c1.007-10.921,9.246-18.802,18.401-17.601
	c9.157,1.2,15.763,11.028,14.757,21.949C174.392,185.935,166.153,193.813,156.997,192.612z"/>
<path fill="#473A33" d="M215.62,167.091c0,0,9.416,12.049,3.642,27.772l1.149,3.28l3.128-2.827
	C223.539,195.316,228.036,176.349,215.62,167.091z"/>
<path fill="#FAC674" d="M79.181,137.534c0,0,1.199-0.229,1.775-0.285c0.575-0.058,1.055-4.521,1.726-4.863
	c0.672-0.344,0.912,3.719,0.912,4.063c0,0.138,0.968-0.052,2.219-0.215c1.827-0.241,4.171-0.508,4.257-0.282
	c0.144,0.382-0.48,0.955-0.48,0.955s0.192,0.799-0.48,0.972c0,0,0,1.03-0.575,1.087c0,0-0.239,0.859-0.863,0.974
	c0,0,0.24,0.515-0.671,0.916c-0.911,0.399-3.056,0.478-3.49,0.313c-2.38-0.894-3.993,0.028-3.993,0.028L79.181,137.534z"/>
<path fill="#5A4A42" d="M39.747,226.758l-1.557,8.239l2.516,0.571l0.384-1.029c0,0,4.028,2.06,10.744,1.831
	c0,0-2.206-5.608-8.058-8.583L39.747,226.758z"/>
<path fill="#61564B" d="M14.025,205.001c0,0,15.225-15.064,17.016-18.711c1.791-3.646,12.326-27.66,12.994-31.942
	c0.669-4.281-6.377-10.82-10.905-6.528c0,0-7.273,29.953-7.672,32.15S9.904,200.085,9.904,200.085"/>
<path fill="#72675A" d="M28.051,152.951c0,0-4.055,11.487-1.831,19.459c2.224,7.971,13.624,24.148,14.606,24.853
	c0.982,0.702-1.576,30.006-1.576,30.006l6.294,1.646c0,0,4.462-28.839,4-33.998c-0.462-5.158-7.026-22.506-7.616-25.318
	c-0.59-2.815-1.102-7.502-1.102-7.502L28.051,152.951z"/>
<polygon fill="#74B693" points="44.23,118.989 47.197,118.989 45.164,121.283 "/>
<polygon fill="#74B693" points="50.603,125.215 50.932,128.354 49.378,127.497 "/>
<path fill="#FAC674" d="M46.758,114.533l-3.296,10.944c0,0,2.856,6.161,5.273,3.408l4.065-11.794L46.758,114.533z"/>
<path opacity="0.17" fill="#221E20" d="M45.956,117.194c0.887,1.084,3.571,4.224,5.211,4.632l1.632-4.736l-6.042-2.558
	L45.956,117.194z"/>
<g>
	<path fill="#FAC674" d="M62.468,95.466c0,0,2.308,22.673-9.448,23.196c-11.756,0.525-12.305-16.381-12.305-20.05
		c0-3.67,3.918-9.174,10.968-9.174S62.468,93.502,62.468,95.466z"/>
	<path fill="#5F3813" d="M49.943,95.598c0,0,7.141,4.587,14.393,3.408c0,0-0.062-9.564-7.196-12.057
		c-8.624-3.015-11.701,2.489-11.701,2.489s-4.615,0.132-6.482,6.291c-1.867,6.16,0.769,16.644,6.262,21.362
		c0,0,1.868-4.587,1.758-9.437c0,0-3.972-1.417-3.406-5.934c0.439-3.501,3.955-1.573,3.955,1.085
		C47.526,102.806,49.724,100.709,49.943,95.598z"/>
	<path fill="#F4A16A" d="M58.596,107.592c0,0,1.978,4.587,0.989,5.11c-0.989,0.524-1.869,0-1.869,0L58.596,107.592z"/>
	<ellipse fill="#404041" cx="54.045" cy="104.597" rx="1.245" ry="2.184"/>
	<ellipse fill="#404041" cx="61.128" cy="104.94" rx="0.827" ry="1.84"/>
	<path fill="#997E47" d="M51.683,112.242c0,0,3.593,2.097,7.106,1.638c0,0-1.595,3.669-4.451,2.818
		C51.482,115.845,51.683,112.242,51.683,112.242z"/>
	<ellipse fill="#F3A68B" cx="53.025" cy="108.421" rx="1.863" ry="1.029"/>
	<path fill="#F3A68B" d="M60.301,108.421c0,0.469,0.57,0.864,1.348,0.988c0.163-0.664,0.3-1.339,0.417-2.014
		C61.083,107.423,60.301,107.871,60.301,108.421z"/>
	<ellipse fill="#FFFFFF" cx="54.644" cy="103.997" rx="0.243" ry="0.601"/>
	<ellipse fill="#FFFFFF" cx="61.372" cy="104.597" rx="0.243" ry="0.6"/>
	<path fill="#FFFFFF" d="M58.253,113.926c-2.465,0.148-4.875-0.841-5.965-1.371c-0.036,0.401-0.012,1.077,0.512,1.359
		c0.764,0.411,3.72,1,4.36,0.94C57.714,114.804,58.046,114.645,58.253,113.926z"/>
</g>
<path fill="#6BAFA7" d="M44.523,119.973c0,0-15.161,8.998-19.996,34.685c0,0,8.424,12.581,18.935,13.804
	c0,0,0.548-19.744,7.141-43.246L44.523,119.973z"/>
<polygon fill="#80C3A0" points="44.23,118.989 50.603,125.215 48.918,128.354 42.087,121.022 "/>
<path fill="#CED0D1" d="M50.493,125.542c0,0-8.46,31.093-5.164,39.187l1.868,3.095l1.355-5.119
	C48.552,162.705,46.647,148.066,50.493,125.542z"/>
<path fill="#80C3A0" d="M44.566,125.542c-2.969-1.468-6.017,4.738-4.369,8.015c1.648,3.274,16.49,11.62,17.622,11.837
	c1.131,0.217,22.456-3.155,22.456-3.155l-0.879-5.67c0,0-20.006,0.784-20.666,0.784C58.072,137.354,47.178,126.834,44.566,125.542z"
	/>
<path fill="#61564B" d="M238.434,230.608c0,0-11.674-19.624-11.526-22.619c0.148-2.995,7.248-2.92,7.248-2.92"/>
<path fill="#72675A" d="M246.119,182.254l-15.072,6.346c0,0-11.329,14.132-11.774,17.48c-0.442,3.35,11.972,24.528,11.972,24.528
	h5.615"/>
<path fill="#72675A" d="M236.859,230.608c0,0-7.094-19.063-7.094-21.621c0-2.555,23.019-12.536,16.354-26.733"/>
<polygon fill="#EE7924" points="216.49,159.505 214.568,167.624 217.378,170.797 217.378,166.566 "/>
<path fill="#FAC674" d="M210.862,158.075l9.434,2.93c0,0,2.652,6.288-0.616,7.115l-10.456-2.65L210.862,158.075z"/>
<path opacity="0.2" fill="#221E20" d="M209.224,165.47l4.692,1.189c0.753-1.315,2.115-3.964,2.729-6.789l-5.782-1.795
	L209.224,165.47z"/>
<path fill="#FAC674" d="M192.492,147.476c0,0,3.075,22.542,14.488,19.144c11.414-3.401,7.996-19.82,7.14-23.345
	s-5.904-7.51-12.675-5.17C194.675,140.445,192.035,145.589,192.492,147.476z"/>
<path fill="#F4A16A" d="M199.041,157.836c0,0-0.83,5.062,0.243,5.237c1.072,0.174,1.793-0.621,1.793-0.621L199.041,157.836z"/>
<path fill="#404041" d="M201.517,153.861c0.284,1.158,1.047,1.914,1.706,1.686c0.661-0.229,0.969-1.354,0.688-2.512
	c-0.282-1.159-1.046-1.913-1.706-1.684C201.544,151.579,201.236,152.703,201.517,153.861z"/>
<path fill="#404041" d="M195.196,156.404c0.238,0.977,0.786,1.646,1.224,1.493c0.438-0.151,0.602-1.065,0.366-2.042
	c-0.239-0.976-0.787-1.644-1.225-1.492C195.123,154.514,194.959,155.429,195.196,156.404z"/>
<path fill="#F3A68B" d="M202.798,157.402c0.132,0.544,1.04,0.709,2.028,0.369c0.989-0.343,1.684-1.062,1.55-1.606
	c-0.133-0.547-1.042-0.712-2.028-0.371C203.358,156.137,202.664,156.855,202.798,157.402z"/>
<path fill="#F3A68B" d="M197.598,159.198c0.108,0.45-0.346,1.021-1.064,1.397c-0.312-0.585-0.601-1.187-0.871-1.796
	C196.612,158.501,197.468,158.671,197.598,159.198z"/>
<path fill="#FFFFFF" d="M201.765,153.151c0.078,0.317,0.246,0.54,0.374,0.496c0.129-0.045,0.172-0.34,0.092-0.657
	c-0.075-0.318-0.244-0.54-0.371-0.496C201.729,152.539,201.688,152.834,201.765,153.151z"/>
<path fill="#FFFFFF" d="M195.443,155.961c0.078,0.317,0.245,0.539,0.373,0.495c0.129-0.044,0.171-0.338,0.094-0.655
	c-0.076-0.319-0.244-0.541-0.372-0.496C195.407,155.349,195.366,155.643,195.443,155.961z"/>
<g>
	<path fill="#59595C" d="M202.438,164.82c-0.412,0-0.688-0.027-0.726-0.032c-0.082-0.01-0.142-0.095-0.134-0.191
		c0.008-0.098,0.08-0.173,0.161-0.16c0.029,0.006,2.982,0.315,4.401-1.205c0.488-0.523,0.74-1.213,0.749-2.05
		c0.002-0.098,0.068-0.175,0.148-0.175c0,0,0.001,0,0.002,0c0.083,0.002,0.146,0.081,0.145,0.18
		c-0.008,0.938-0.295,1.717-0.848,2.308C205.264,164.646,203.447,164.82,202.438,164.82z"/>
</g>
<path fill="#5F3813" d="M193.785,153.448c0,0-4.184-2.899-5.168-7.131l0.936,0.646l-0.936-2.409c0,0,2.364,1.352,3.596-1.704
	c1.23-3.056,3.84-6.286,8.57-7.873c4.73-1.586,8.67,1.157,9.112,2.427c0,0,4.241,0.219,5.371,5.799
	c1.133,5.582,1.341,14.382-2.164,18.707c0,0-1.039-5.834-2.319-9.421c0,0,1.23-2.234-0.148-5.054
	c-1.379-2.821-2.806,1.192-2.806,1.192l-1.936-5.865c0,0-4.986,8.108-12.487,7.888L193.785,153.448z"/>
<path fill="#E95B2C" d="M247.302,182.958c0,0-2.807,4.584-17.586,7.053c0,0,3.917-14.323-14.556-22.476l1.33-8.03
	C216.49,159.505,243.017,157.048,247.302,182.958"/>
<polygon fill="#F19021" points="216.49,159.505 215.16,167.535 219.595,169.65 219.595,158.987 "/>
<path fill="#FAC674" d="M188.513,172.97c0,0-1.199-0.229-1.774-0.286c-0.576-0.06-1.057-4.521-1.727-4.864
	c-0.673-0.343-0.912,3.721-0.912,4.063c0,0.139-0.967-0.05-2.219-0.217c-1.828-0.239-4.172-0.507-4.256-0.28
	c-0.144,0.382,0.479,0.954,0.479,0.954s-0.192,0.801,0.479,0.973c0,0,0,1.03,0.574,1.087c0,0,0.239,0.858,0.864,0.973
	c0,0-0.239,0.516,0.672,0.916c0.91,0.4,3.055,0.478,3.489,0.315c2.38-0.894,3.992,0.028,3.992,0.028L188.513,172.97z"/>
<path fill="#EC6E2C" d="M223.127,160.976c2.968-1.467,6.018,4.738,4.369,8.014c-1.648,3.277-16.491,11.622-17.622,11.838
	c-1.132,0.217-22.455-3.155-22.455-3.155l0.879-5.67c0,0,20.005,0.785,20.666,0.785
	C209.622,172.787,220.516,162.269,223.127,160.976z"/>
<path fill="#FAC674" d="M72.003,57.456c-0.354-0.956-0.735-2.457-0.392-3.277c0.343-0.82,0.954-1.684,1.412-2.458
	c0.458-0.774,0.801,0.045,0.458,0.728c0,0,0.229,0.501-0.153,1.138c0,0,0.229,0.324-0.076,0.845c0,0,0.344,0.516-0.076,1.042
	s-0.721,1.481-0.697,1.982C72.503,57.957,72.003,57.456,72.003,57.456z"/>
<path fill="#FAC674" d="M75.014,55.165c0,0-1.088-0.754-1.138-0.246c-0.049,0.509,0.618,1.778,1.138,1.801
	C75.534,56.744,75.345,55.368,75.014,55.165z"/>
<path fill="#5A4A42" d="M12.886,197.472l-4.863,4.498l1.651,1.743l0.751-0.46c0,0,2.132,3.531,7.323,7.04c0,0,0.834-4.84-2.27-9.957
	L12.886,197.472z"/>
</svg>
