<?xml version="1.0" encoding="utf-8"?>
<!-- Generator: Adobe Illustrator 16.0.0, SVG Export Plug-In . SVG Version: 6.00 Build 0)  -->
<!DOCTYPE svg PUBLIC "-//W3C//DTD SVG 1.1//EN" "http://www.w3.org/Graphics/SVG/1.1/DTD/svg11.dtd">
<svg version="1.1" xmlns="http://www.w3.org/2000/svg" xmlns:xlink="http://www.w3.org/1999/xlink" x="0px" y="0px" width="60px"
	 height="60px" viewBox="0 0 60 60" enable-background="new 0 0 60 60" xml:space="preserve">
<g id="dessin">
	<path opacity="0.17" fill="#221E20" d="M1.066,46.762c0-0.578,3.406-1.046,7.608-1.046c4.203,0,7.609,0.468,7.609,1.046
		c0,0.576-3.406,1.044-7.609,1.044C4.473,47.806,1.066,47.338,1.066,46.762"/>
	<path opacity="0.17" fill="#221E20" d="M59,46.85c0,0.578-3.406,1.046-7.609,1.046c-4.202,0-7.607-0.468-7.607-1.046
		c0-0.576,3.405-1.044,7.607-1.044C55.594,45.806,59,46.273,59,46.85"/>
	<ellipse opacity="0.17" fill="#221E20" cx="18.795" cy="46.985" rx="2.139" ry="0.618"/>
	<ellipse opacity="0.17" fill="#221E20" cx="25.663" cy="46.985" rx="2.139" ry="0.618"/>
	<path fill="#FAC674" d="M19.045,12.139c0,0,0.148,0.574,0.23,0.715c0.083,0.141-0.271,0.231-0.271,0.231l-0.441-0.375
		L19.045,12.139z"/>
	<path fill="#FAC674" d="M18.326,11.648c0,0-0.131,0.307-0.029,0.676c0.085,0.307,0.581,0.647,0.581,0.647l0.168-0.375
		L18.326,11.648z"/>
	<g>
		<path fill="#FAC674" d="M32.576,14.508c0,0,0.254-0.037,0.376-0.044c0.122-0.008,0.244-0.867,0.387-0.93
			c0.145-0.063,0.177,0.724,0.175,0.79c-0.001,0.027,0.205-0.002,0.47-0.028c0.388-0.035,0.885-0.074,0.901-0.029
			c0.028,0.076-0.105,0.182-0.105,0.182s0.037,0.156-0.106,0.185c0,0-0.004,0.198-0.126,0.206c0,0-0.056,0.165-0.187,0.183
			c0,0,0.048,0.102-0.146,0.173c-0.195,0.072-0.648,0.075-0.74,0.041c-0.498-0.188-0.844-0.018-0.844-0.018L32.576,14.508z"/>
		<path fill="#DB5F80" d="M25.313,11.987c-0.621-0.3-1.293,0.88-0.96,1.521c0.333,0.643,3.434,2.342,3.672,2.391
			c0.238,0.05,4.761-0.476,4.761-0.476l-0.159-1.1c0,0-4.234,0.033-4.373,0.029C28.114,14.349,25.859,12.251,25.313,11.987z"/>
	</g>
	<g>
		<path fill="#594354" d="M24.034,32.619l-0.216,1.458l0.487,0.068l0.063-0.187c0,0,0.79,0.307,2.07,0.18
			c0,0-0.478-0.95-1.625-1.393L24.034,32.619z"/>
		<path fill="#594354" d="M20.91,32.574l-0.215,1.458l0.486,0.066l0.063-0.186c0,0,0.79,0.31,2.07,0.181
			c0,0-0.478-0.948-1.625-1.392L20.91,32.574z"/>
		<path fill="#645A4E" d="M25.24,18.702c0,0,0.24,5.583,0.24,6.074c0,0.492-0.451,7.677-0.481,8.038h-1.217
			c0,0,0.251-6.604,0.118-7.549c-0.134-0.946-0.158-5.534-0.158-5.534l0.462-1.681L25.24,18.702z"/>
		<path fill="#72675A" d="M24.724,18.46l-1.102,7.517l-1.388,6.949l-1.419-0.377c0,0,1.313-6.316,1.344-7.178
			c0,0-0.8-4.568-0.121-7.902L24.724,18.46z"/>
		<polygon fill="#BC4F70" points="23.736,10.898 25.336,11.422 24.724,12.167 		"/>
		<g>
			<g>
				<path fill="#FAC674" d="M24.434,9.657l-0.697,2.114c0,0,0.604,1.191,1.115,0.659l0.859-2.278L24.434,9.657z"/>
				<path opacity="0.17" fill="#221E20" d="M24.264,10.171c0.188,0.209,0.755,0.816,1.103,0.895l0.345-0.915l-1.277-0.495
					L24.264,10.171z"/>
			</g>
			<g>
				<path fill="#FAC674" d="M28.281,6.029c0,0,0.488,4.381-1.999,4.481c-2.486,0.101-2.602-3.165-2.602-3.873
					c0-0.71,0.829-1.773,2.319-1.773C27.491,4.864,28.281,5.65,28.281,6.029z"/>
				<path fill="#F4A16A" d="M26.909,8.372c0,0,0.418,0.885,0.209,0.987c-0.209,0.102-0.395,0-0.395,0L26.909,8.372z"/>
				<ellipse fill="#404041" cx="25.946" cy="7.793" rx="0.263" ry="0.421"/>
				<ellipse fill="#404041" cx="27.444" cy="7.859" rx="0.175" ry="0.355"/>
				<ellipse fill="#F3A68B" cx="25.73" cy="8.532" rx="0.394" ry="0.198"/>
				<path fill="#F3A68B" d="M27.27,8.532c0,0.09,0.12,0.167,0.285,0.191c0.035-0.129,0.064-0.259,0.088-0.389
					C27.435,8.339,27.27,8.425,27.27,8.532z"/>
				<ellipse fill="#FFFFFF" cx="26.073" cy="7.676" rx="0.052" ry="0.118"/>
				<ellipse fill="#FFFFFF" cx="27.496" cy="7.793" rx="0.051" ry="0.115"/>
				<path fill="#5F3813" d="M24.083,10.156c0,0,0.401-1.399,0.401-2.121c0,0-0.562,0.047-0.582-0.665
					c-0.02-0.711,0.662-0.209,0.662-0.209s0.161-0.175,0.221-0.743c0,0,2.325,1.277,3.269,0.207c0.942-1.072,0.211-2.42-0.877-2.064
					c0,0-0.583-0.853-1.878-0.688C23.925,4.048,23.221,9.697,24.083,10.156z"/>
				<path fill="none" d="M26.53,10.042c0,0-0.59-0.389-1.169-0.177"/>
			</g>
		</g>
		<path fill="#BC4F70" d="M23.582,11.422c0,0-2.022,1.524-2.132,7.801c0,0,1.044,1.186,3.029,1.514l0.14-0.875l0.132,0.875
			c0,0,0.456-0.35,0.816-0.612l-0.121-7.986l-0.723,0.027L23.582,11.422z"/>
		<polygon fill="#EA678B" points="23.862,11.066 24.724,12.167 24.103,12.778 23.341,11.401 23.736,10.898 		"/>
		<polygon fill="#EA678B" points="24.724,12.167 25.336,11.422 25.567,12.139 25.093,12.854 		"/>
		<path fill="#DB5F80" d="M23.394,11.555c-0.511-0.303-1.979,2.6-2.107,2.716s-1.833-1.705-1.833-1.705l-0.802,0.617
			c0,0,1.661,2.719,2.41,2.79c0.176,0.016,0.387,0.129,0.611-0.037c0.731-0.538,1.729-2.417,1.938-2.774
			C23.886,12.696,24.143,11.997,23.394,11.555z"/>
		<path fill="#5F3813" d="M22.238,6.541c-0.093,0.644,1.53,1.167,1.53,1.167l0.306-1.751l1.224-2.084
			C25.298,3.873,22.468,4.957,22.238,6.541z"/>
		<path fill="#5F3813" d="M23.921,9.875c0,0-1.606-2.334-1.913-3.334c-0.306-1-2.219-0.918-2.142,0.167
			c0.076,1.084-0.536-3.668,0.612-2.584c1.148,1.083,1.836,1.667,1.836,1.667l1.454,1.918"/>
	</g>
	<g>
		<g>
			<rect x="18.564" y="11.725" fill="#B9BABD" width="0.481" height="35.583"/>
			<rect x="25.422" y="11.725" fill="#B9BABD" width="0.481" height="35.583"/>
		</g>
		<rect x="18.559" y="14.882" fill="#B9BABD" width="7.35" height="0.494"/>
		<rect x="18.559" y="18.878" fill="#B9BABD" width="7.35" height="0.494"/>
		<rect x="18.559" y="22.874" fill="#B9BABD" width="7.35" height="0.495"/>
		<rect x="18.559" y="26.87" fill="#B9BABD" width="7.35" height="0.494"/>
		<rect x="18.559" y="30.867" fill="#B9BABD" width="7.35" height="0.495"/>
		<rect x="18.559" y="34.863" fill="#B9BABD" width="7.35" height="0.493"/>
		<rect x="18.559" y="38.858" fill="#B9BABD" width="7.35" height="0.495"/>
		<rect x="18.559" y="42.855" fill="#B9BABD" width="7.35" height="0.494"/>
	</g>
	<path fill="#473A33" d="M54.115,46.938c0,0-0.896,0.255-2.295-0.02c0,0,0.609-0.994,1.911-1.361"/>
	<path fill="#5A4A42" d="M52.74,47.056c0,0-0.894,0.271-2.296,0.021c0,0,0.597-1.006,1.893-1.396l0.869-0.072"/>
	<path fill="#FAC674" d="M43.939,36.009c0,0-0.256-0.003-0.378,0.007c-0.122,0.007-0.338-0.829-0.488-0.872
		c-0.149-0.043-0.094,0.742-0.085,0.808c0.004,0.026-0.203,0.023-0.469,0.034c-0.389,0.017-0.887,0.045-0.897,0.091
		c-0.021,0.078,0.125,0.166,0.125,0.166s-0.02,0.16,0.125,0.17c0,0,0.027,0.196,0.148,0.188c0,0,0.073,0.155,0.207,0.155
		c0,0-0.037,0.107,0.165,0.152c0.2,0.047,0.65-0.013,0.736-0.059c0.475-0.251,0.837-0.13,0.837-0.13L43.939,36.009z"/>
	<path fill="#CF5F22" d="M50.867,32.54c0.582-0.382,1.382,0.702,1.123,1.385c-0.259,0.681-3.146,2.78-3.376,2.86
		c-0.23,0.079-4.779,0.159-4.779,0.159l0.035-1.113c0,0,4.205-0.529,4.344-0.552C48.351,35.258,50.354,32.876,50.867,32.54z"/>
	<g>
		<path fill="#FAC674" d="M19.838,23.638c0,0,0.208-0.164,0.312-0.234c0.104-0.069-0.164-0.889-0.064-1.018
			c0.099-0.128,0.47,0.546,0.498,0.605c0.011,0.024,0.179-0.109,0.401-0.268c0.325-0.232,0.746-0.523,0.78-0.493
			c0.058,0.052-0.014,0.214-0.014,0.214s0.101,0.119-0.012,0.218c0,0,0.083,0.177-0.021,0.247c0,0,0.023,0.173-0.085,0.257
			c0,0,0.087,0.064-0.053,0.228c-0.14,0.164-0.538,0.401-0.633,0.417c-0.521,0.095-0.751,0.422-0.751,0.422L19.838,23.638z"/>
		<path fill="#73B795" d="M12.347,25.18c-0.678,0.056-0.755,1.442-0.181,1.836c0.573,0.393,4.042,0.284,4.272,0.203
			c0.231-0.08,3.983-2.884,3.983-2.884l-0.621-0.886c0,0-3.71,2.22-3.835,2.29C15.842,25.808,12.943,25.13,12.347,25.18z"/>
	</g>
	<path id="engrenage_3_" fill="#E43231" d="M31.521,24.363c-0.154-0.817-0.449-1.581-0.857-2.254l0.937-1.205l-0.765-0.835
		l-0.767-0.834l-1.106,1.021c-0.62-0.444-1.318-0.767-2.07-0.935l-0.121-1.574h-1.083h-1.083l-0.121,1.574
		c-0.751,0.167-1.45,0.491-2.069,0.935l-1.107-1.021l-0.766,0.834l-0.765,0.835l0.937,1.205c-0.408,0.673-0.704,1.437-0.858,2.254
		l-1.444,0.132v1.18v1.18l1.444,0.131c0.154,0.818,0.45,1.581,0.858,2.255l-0.937,1.206l0.765,0.834l0.766,0.835l1.107-1.021
		c0.619,0.444,1.318,0.767,2.069,0.935l0.121,1.574h1.083h1.083l0.121-1.574c0.751-0.168,1.45-0.49,2.07-0.935l1.106,1.021
		l0.767-0.835l0.765-0.834l-0.937-1.206c0.408-0.674,0.703-1.437,0.857-2.255l1.445-0.131v-1.18v-1.18L31.521,24.363z
		 M25.689,29.519c-1.948,0-3.527-1.721-3.527-3.844c0-2.123,1.579-3.844,3.527-3.844c1.948,0,3.528,1.722,3.528,3.844
		C29.217,27.798,27.637,29.519,25.689,29.519z"/>
	<path id="engrenage_2_" fill="#F8E02F" d="M43.184,16.132c-0.154-0.818-0.45-1.58-0.858-2.255l0.937-1.207l-0.766-0.834
		l-0.765-0.834l-1.107,1.02c-0.619-0.443-1.318-0.767-2.069-0.935l-0.12-1.573h-1.083h-1.084l-0.119,1.573
		c-0.751,0.167-1.45,0.491-2.069,0.935l-1.107-1.02l-0.765,0.834L31.44,12.67l0.937,1.207c-0.407,0.675-0.704,1.437-0.857,2.255
		l-1.444,0.131v1.18v1.18l1.444,0.131c0.153,0.819,0.45,1.581,0.857,2.255l-0.937,1.207l0.767,0.834l0.765,0.834l1.107-1.02
		c0.619,0.444,1.318,0.766,2.069,0.935l0.119,1.573h1.084h1.083l0.12-1.573c0.751-0.168,1.45-0.49,2.069-0.935l1.107,1.02
		l0.765-0.834l0.766-0.834l-0.937-1.207c0.408-0.674,0.704-1.436,0.858-2.255l1.444-0.131v-1.18v-1.18L43.184,16.132z
		 M37.352,21.287c-1.948,0-3.527-1.721-3.527-3.844s1.579-3.844,3.527-3.844s3.527,1.721,3.527,3.844S39.3,21.287,37.352,21.287z"/>
	<path id="engrenage_1_" fill="#1D9CD8" d="M42.698,33.964c-0.071-0.833-0.289-1.625-0.627-2.343l1.052-1.088l-0.678-0.92
		l-0.678-0.921l-1.202,0.883c-0.57-0.515-1.233-0.919-1.963-1.176l0.038-1.578l-1.076-0.129l-1.076-0.129l-0.277,1.549
		c-0.765,0.078-1.491,0.315-2.151,0.684l-0.998-1.146l-0.845,0.737l-0.845,0.739l0.811,1.311c-0.474,0.621-0.844,1.344-1.079,2.139
		l-1.449-0.041l-0.118,1.171l-0.118,1.175l1.422,0.304c0.071,0.831,0.289,1.624,0.627,2.342l-1.052,1.087l0.678,0.921l0.678,0.922
		l1.202-0.884c0.571,0.516,1.233,0.92,1.963,1.176l-0.038,1.578l1.077,0.13l1.075,0.128l0.278-1.549
		c0.763-0.078,1.49-0.315,2.149-0.684l0.999,1.146l0.845-0.737l0.845-0.738l-0.81-1.311c0.473-0.623,0.844-1.344,1.078-2.14
		l1.449,0.041l0.118-1.172l0.118-1.174L42.698,33.964z M36.384,38.393c-1.937-0.231-3.334-2.13-3.12-4.24
		c0.212-2.11,1.954-3.633,3.891-3.401c1.937,0.233,3.334,2.132,3.121,4.242S38.32,38.625,36.384,38.393z"/>
	<path fill="#473A33" d="M48.782,33.463c0,0,1.991,2.328,0.771,5.365l0.241,0.633l0.662-0.544
		C50.456,38.917,51.406,35.252,48.782,33.463z"/>
	<path fill="#FAC674" d="M19.927,27.752c0,0,0.253-0.044,0.375-0.056c0.121-0.011,0.223-0.874,0.365-0.939
		c0.142-0.066,0.193,0.719,0.193,0.786c0,0.026,0.205-0.01,0.469-0.043c0.386-0.046,0.882-0.098,0.9-0.054
		c0.03,0.075-0.102,0.185-0.102,0.185s0.041,0.154-0.101,0.188c0,0,0,0.199-0.122,0.21c0,0-0.051,0.166-0.183,0.188
		c0,0,0.05,0.1-0.142,0.177c-0.193,0.076-0.646,0.092-0.738,0.061c-0.503-0.173-0.844,0.004-0.844,0.004L19.927,27.752z"/>
	<path fill="#5A4A42" d="M11.587,44.989l-0.33,1.593l0.532,0.11l0.082-0.198c0,0,0.852,0.396,2.272,0.353
		c0,0-0.467-1.084-1.705-1.658L11.587,44.989z"/>
	<path fill="#61564B" d="M4.335,43.397c0,0,3.548-3.206,3.965-3.983c0.417-0.776,2.873-5.889,3.028-6.801
		c0.156-0.911-1.486-2.303-2.541-1.39c0,0-1.695,6.377-1.788,6.845s-3.625,4.282-3.625,4.282"/>
	<path fill="#72675A" d="M9.113,30.73c0,0-0.857,2.219-0.387,3.76c0.47,1.54,2.881,4.665,3.089,4.801
		c0.208,0.136-0.333,5.799-0.333,5.799l1.332,0.318c0,0,0.943-5.573,0.846-6.569c-0.098-0.997-1.486-4.349-1.61-4.894
		c-0.125-0.543-0.233-1.448-0.233-1.448L9.113,30.73z"/>
	<polygon fill="#74B693" points="12.535,24.169 13.162,24.169 12.732,24.612 	"/>
	<polygon fill="#74B693" points="13.882,25.372 13.952,25.978 13.624,25.813 	"/>
	<path fill="#FAC674" d="M13.069,23.308l-0.697,2.114c0,0,0.604,1.19,1.116,0.658l0.86-2.279L13.069,23.308z"/>
	<path opacity="0.17" fill="#221E20" d="M12.9,23.822c0.188,0.209,0.755,0.816,1.102,0.895l0.346-0.915l-1.278-0.494L12.9,23.822z"
		/>
	<g>
		<path fill="#FAC674" d="M16.392,19.624c0,0,0.488,4.38-1.999,4.482c-2.486,0.101-2.602-3.164-2.602-3.874
			c0-0.709,0.829-1.771,2.319-1.771C15.602,18.46,16.392,19.245,16.392,19.624z"/>
		<path fill="#5F3813" d="M13.743,19.649c0,0,1.51,0.887,3.044,0.658c0,0-0.013-1.847-1.522-2.328
			c-1.824-0.583-2.475,0.481-2.475,0.481s-0.976,0.025-1.371,1.215c-0.395,1.189,0.163,3.215,1.324,4.126
			c0,0,0.395-0.886,0.372-1.823c0,0-0.84-0.273-0.72-1.146c0.093-0.676,0.836-0.304,0.836,0.209
			C13.232,21.042,13.697,20.637,13.743,19.649z"/>
		<path fill="#F4A16A" d="M15.573,21.967c0,0,0.418,0.887,0.209,0.987c-0.209,0.102-0.396,0-0.396,0L15.573,21.967z"/>
		<ellipse fill="#404041" cx="14.611" cy="21.388" rx="0.263" ry="0.422"/>
		<ellipse fill="#404041" cx="16.109" cy="21.455" rx="0.175" ry="0.355"/>
		<path fill="#997E47" d="M14.111,22.865c0,0,0.76,0.405,1.503,0.316c0,0-0.337,0.71-0.941,0.544
			C14.069,23.562,14.111,22.865,14.111,22.865z"/>
		<ellipse fill="#F3A68B" cx="14.395" cy="22.126" rx="0.394" ry="0.2"/>
		<path fill="#F3A68B" d="M15.934,22.126c0,0.091,0.12,0.167,0.285,0.192c0.034-0.128,0.064-0.259,0.088-0.39
			C16.099,21.935,15.934,22.021,15.934,22.126z"/>
		<ellipse fill="#FFFFFF" cx="14.738" cy="21.273" rx="0.052" ry="0.115"/>
		<ellipse fill="#FFFFFF" cx="16.16" cy="21.388" rx="0.051" ry="0.116"/>
		<path fill="#FFFFFF" d="M26.918,10.048c-0.521,0.029-1.031-0.162-1.262-0.265c-0.008,0.078-0.002,0.208,0.108,0.262
			c0.162,0.08,0.787,0.194,0.922,0.183C26.804,10.218,26.874,10.187,26.918,10.048z"/>
	</g>
	<path fill="#6BAFA7" d="M12.597,24.359c0,0-3.207,1.739-4.229,6.702c0,0,1.781,2.431,4.004,2.666c0,0,0.117-3.814,1.51-8.355
		L12.597,24.359z"/>
	<polygon fill="#80C3A0" points="12.535,24.169 13.882,25.372 13.526,25.978 12.082,24.562 	"/>
	<path fill="#CED0D1" d="M13.859,25.435c0,0-1.789,6.007-1.092,7.571l0.395,0.599l0.287-0.989
		C13.449,32.615,13.046,29.786,13.859,25.435z"/>
	<path fill="#80C3A0" d="M12.606,25.435c-0.628-0.284-1.272,0.916-0.924,1.548c0.349,0.633,3.488,2.246,3.727,2.287
		c0.239,0.042,4.749-0.609,4.749-0.609l-0.186-1.095c0,0-4.231,0.152-4.371,0.152C15.462,27.718,13.159,25.685,12.606,25.435z"/>
	<path fill="#61564B" d="M53.606,45.734c0,0-2.47-3.791-2.438-4.371c0.032-0.577,1.533-0.563,1.533-0.563"/>
	<path fill="#72675A" d="M55.231,36.393l-3.188,1.226c0,0-2.396,2.729-2.489,3.376c-0.095,0.647,2.531,4.74,2.531,4.74h1.188"/>
	<path fill="#72675A" d="M53.273,45.734c0,0-1.5-3.685-1.5-4.177c0-0.494,4.868-2.423,3.458-5.165"/>
	<polygon fill="#EE7924" points="48.965,31.997 48.559,33.565 49.153,34.179 49.153,33.359 	"/>
	<path fill="#FAC674" d="M47.775,31.721l1.995,0.566c0,0,0.562,1.216-0.131,1.375l-2.211-0.513L47.775,31.721z"/>
	<path opacity="0.2" fill="#221E20" d="M47.429,33.149l0.992,0.229c0.16-0.253,0.448-0.765,0.577-1.311l-1.223-0.347L47.429,33.149z
		"/>
	<path fill="#FAC674" d="M43.89,29.672c0,0,0.651,4.355,3.064,3.699c2.414-0.656,1.691-3.83,1.511-4.511
		c-0.182-0.68-1.249-1.451-2.681-0.998C44.352,28.314,43.794,29.309,43.89,29.672z"/>
	<path fill="#F4A16A" d="M45.275,31.674c0,0-0.176,0.978,0.052,1.013c0.227,0.032,0.379-0.12,0.379-0.12L45.275,31.674z"/>
	<path fill="#404041" d="M45.8,30.907c0.059,0.224,0.221,0.369,0.36,0.326c0.14-0.045,0.204-0.262,0.146-0.486
		c-0.061-0.224-0.222-0.37-0.362-0.326C45.805,30.465,45.739,30.683,45.8,30.907z"/>
	<path fill="#404041" d="M44.463,31.397c0.05,0.189,0.166,0.317,0.258,0.288c0.093-0.028,0.128-0.206,0.078-0.394
		c-0.051-0.188-0.166-0.318-0.259-0.289C44.446,31.032,44.413,31.209,44.463,31.397z"/>
	<path fill="#F3A68B" d="M46.069,31.591c0.028,0.104,0.221,0.137,0.431,0.071c0.208-0.066,0.354-0.206,0.326-0.311
		c-0.027-0.106-0.22-0.138-0.428-0.072C46.188,31.346,46.042,31.485,46.069,31.591z"/>
	<path fill="#F3A68B" d="M44.971,31.938c0.021,0.087-0.074,0.197-0.226,0.27c-0.065-0.112-0.128-0.229-0.185-0.347
		C44.762,31.803,44.942,31.835,44.971,31.938z"/>
	
		<ellipse transform="matrix(-0.9546 0.2977 -0.2977 -0.9546 98.8766 46.4462)" fill="#FFFFFF" cx="45.901" cy="30.754" rx="0.052" ry="0.115"/>
	<path fill="#FFFFFF" d="M44.515,31.313c0.017,0.061,0.051,0.104,0.079,0.095c0.027-0.008,0.036-0.065,0.02-0.127
		c-0.016-0.061-0.052-0.104-0.079-0.095S44.498,31.25,44.515,31.313z"/>
	<g>
		<path fill="#59595C" d="M45.993,33.023c-0.087,0-0.146-0.005-0.153-0.007c-0.017-0.002-0.029-0.017-0.027-0.036
			c0.002-0.019,0.017-0.034,0.033-0.031c0.007,0.002,0.632,0.062,0.931-0.232c0.104-0.102,0.157-0.234,0.159-0.397
			c0-0.019,0.015-0.032,0.031-0.032l0,0c0.019,0,0.031,0.016,0.031,0.034c-0.002,0.182-0.063,0.332-0.179,0.447
			C46.592,32.99,46.208,33.023,45.993,33.023z"/>
	</g>
	<path fill="#5F3813" d="M44.163,30.827c0,0-0.885-0.561-1.092-1.377l0.197,0.125l-0.197-0.466c0,0,0.499,0.262,0.76-0.329
		c0.26-0.59,0.813-1.214,1.813-1.521c0.999-0.306,1.833,0.223,1.926,0.469c0,0,0.898,0.042,1.136,1.12
		c0.24,1.078,0.285,2.779-0.457,3.614c0,0-0.22-1.127-0.49-1.819c0,0,0.261-0.432-0.031-0.978c-0.292-0.544-0.595,0.231-0.595,0.231
		l-0.408-1.133c0,0-1.055,1.566-2.641,1.524L44.163,30.827z"/>
	<path fill="#E95B2C" d="M55.481,36.528c0,0-0.594,0.886-3.719,1.362c0,0,0.829-2.768-3.078-4.341l0.28-1.553
		C48.965,31.997,54.576,31.522,55.481,36.528"/>
	<polygon fill="#F19021" points="48.965,31.997 48.685,33.55 49.622,33.957 49.622,31.896 	"/>
	<path fill="#FAC674" d="M43.049,34.598c0,0-0.254-0.044-0.376-0.055c-0.122-0.012-0.223-0.874-0.364-0.94
		c-0.143-0.065-0.193,0.719-0.193,0.785c0,0.027-0.204-0.009-0.469-0.041c-0.387-0.047-0.882-0.1-0.899-0.055
		c-0.032,0.074,0.101,0.185,0.101,0.185s-0.04,0.154,0.102,0.188c0,0,0,0.198,0.121,0.208c0,0,0.051,0.167,0.183,0.189
		c0,0-0.05,0.1,0.142,0.177c0.193,0.077,0.646,0.093,0.739,0.061c0.502-0.172,0.844,0.006,0.844,0.006L43.049,34.598z"/>
	<path fill="#EC6E2C" d="M50.369,32.28c0.628-0.283,1.272,0.916,0.924,1.549c-0.348,0.633-3.487,2.245-3.726,2.288
		c-0.24,0.04-4.75-0.61-4.75-0.61l0.187-1.097c0,0,4.23,0.153,4.369,0.153C47.514,34.563,49.816,32.53,50.369,32.28z"/>
	<path fill="#FAC674" d="M18.409,12.281c-0.075-0.185-0.156-0.475-0.083-0.633c0.072-0.159,0.202-0.326,0.299-0.475
		c0.096-0.15,0.169,0.009,0.096,0.141c0,0,0.048,0.096-0.032,0.219c0,0,0.048,0.062-0.016,0.163c0,0,0.072,0.1-0.016,0.201
		c-0.089,0.102-0.152,0.287-0.147,0.383C18.515,12.377,18.409,12.281,18.409,12.281z"/>
	<path fill="#FAC674" d="M19.045,11.838c0,0-0.23-0.146-0.241-0.047c-0.01,0.099,0.131,0.343,0.241,0.349
		C19.155,12.143,19.116,11.877,19.045,11.838z"/>
	<path fill="#5A4A42" d="M3.783,42.11l-1.11,1.005l0.377,0.39l0.171-0.103c0,0,0.486,0.789,1.671,1.572c0,0,0.19-1.081-0.518-2.225
		L3.783,42.11z"/>
</g>
<g id="titre">
	<path id="engrenage" fill="#1D9CD8" d="M41.995,53.8c-0.032-0.339-0.129-0.662-0.278-0.955l0.467-0.443l-0.3-0.375l-0.302-0.375
		l-0.533,0.36c-0.254-0.211-0.549-0.375-0.872-0.479l0.017-0.644l-0.479-0.053l-0.478-0.053l-0.122,0.632
		c-0.34,0.031-0.662,0.128-0.956,0.279l-0.442-0.468l-0.375,0.301l-0.376,0.301l0.36,0.533c-0.21,0.254-0.375,0.548-0.479,0.872
		l-0.643-0.017l-0.054,0.478l-0.052,0.479l0.632,0.122c0.031,0.34,0.128,0.662,0.278,0.955l-0.468,0.443l0.302,0.375l0.3,0.376
		l0.534-0.36c0.253,0.211,0.548,0.375,0.871,0.479l-0.017,0.644l0.479,0.052l0.479,0.053l0.122-0.632
		c0.339-0.031,0.662-0.129,0.954-0.278l0.443,0.468l0.376-0.302l0.375-0.3l-0.359-0.534c0.209-0.254,0.374-0.548,0.479-0.872
		l0.644,0.018l0.053-0.479l0.052-0.478L41.995,53.8z M39.191,55.604c-0.859-0.095-1.48-0.869-1.386-1.728
		c0.094-0.859,0.868-1.48,1.729-1.386c0.858,0.094,1.479,0.867,1.385,1.728C40.825,55.078,40.051,55.699,39.191,55.604z"/>
	<g>
		<path fill="#59595C" d="M11.323,52.229H9.756v-0.565h3.815v0.565h-1.575v4.587h-0.673V52.229z"/>
		<path fill="#59595C" d="M16.815,54.4h-2.003v1.858h2.232v0.558h-2.897v-5.152h2.783v0.558h-2.118v1.629h2.003V54.4z"/>
		<path fill="#59595C" d="M18.745,55.195l-0.535,1.621h-0.688l1.751-5.152h0.803l1.758,5.152h-0.711l-0.55-1.621H18.745z
			 M20.434,54.676l-0.504-1.483c-0.115-0.336-0.191-0.642-0.268-0.939h-0.015c-0.077,0.306-0.161,0.619-0.26,0.933l-0.505,1.49
			H20.434z"/>
		<path fill="#59595C" d="M26.906,54.554c-0.039-0.719-0.084-1.583-0.077-2.225h-0.023c-0.176,0.604-0.39,1.246-0.65,1.957
			l-0.91,2.5h-0.504l-0.833-2.454c-0.245-0.727-0.451-1.392-0.596-2.003h-0.015c-0.015,0.642-0.054,1.506-0.1,2.278l-0.137,2.209
			h-0.635l0.359-5.152h0.849l0.879,2.492c0.214,0.635,0.39,1.2,0.52,1.735h0.023c0.13-0.521,0.313-1.086,0.542-1.735l0.917-2.492
			h0.849l0.321,5.152h-0.65L26.906,54.554z"/>
		<path fill="#59595C" d="M30.902,56.816l-1.308-5.152h0.703l0.611,2.606c0.153,0.643,0.291,1.284,0.383,1.781h0.015
			c0.085-0.512,0.245-1.124,0.421-1.789l0.688-2.599h0.696l0.627,2.614c0.146,0.611,0.282,1.224,0.359,1.766h0.015
			c0.107-0.565,0.253-1.139,0.413-1.781l0.681-2.599h0.68l-1.46,5.152H33.73l-0.649-2.684c-0.161-0.657-0.268-1.162-0.337-1.682
			h-0.016c-0.091,0.513-0.206,1.017-0.397,1.682l-0.733,2.684H30.902z"/>
		<path fill="#59595C" d="M43.021,51.732c0.336-0.068,0.818-0.106,1.276-0.106c0.711,0,1.17,0.13,1.491,0.42
			c0.26,0.229,0.405,0.581,0.405,0.979c0,0.681-0.429,1.132-0.972,1.315v0.022c0.397,0.138,0.635,0.505,0.757,1.04
			c0.169,0.719,0.291,1.215,0.397,1.414h-0.688c-0.084-0.146-0.199-0.589-0.344-1.23c-0.153-0.711-0.429-0.979-1.032-1.002h-0.627
			v2.232h-0.665V51.732z M43.687,54.08h0.681c0.711,0,1.162-0.391,1.162-0.979c0-0.666-0.482-0.956-1.186-0.964
			c-0.321,0-0.55,0.031-0.657,0.062V54.08z"/>
		<path fill="#59595C" d="M47.138,51.664h0.665v2.484h0.022c0.138-0.199,0.275-0.382,0.405-0.551l1.575-1.934h0.825l-1.865,2.187
			l2.011,2.966h-0.787l-1.697-2.53l-0.489,0.565v1.965h-0.665V51.664z"/>
	</g>
</g>
</svg>
