<?xml version="1.0" encoding="UTF-8" standalone="no"?>
<svg width="1000px" height="1000px" viewBox="0 0 1000 1000" version="1.1" xmlns="http://www.w3.org/2000/svg" xmlns:xlink="http://www.w3.org/1999/xlink" xmlns:sketch="http://www.bohemiancoding.com/sketch/ns">
    <!-- Generator: Sketch Beta 3.4 (15009) - http://www.bohemiancoding.com/sketch -->
    <title>icon-lupe</title>
    <desc>Created with Sketch Beta.</desc>
    <defs></defs>
    <g id="Page-1" stroke="none" stroke-width="1" fill="none" fill-rule="evenodd" sketch:type="MSPage">
        <g id="icon-lupe" sketch:type="MSLayerGroup">
            <path d="M719.944818,948.906821 C967.856818,827.442841 1070.37082,527.988841 948.906818,280.054841 C827.441818,32.1428414 527.988818,-70.3710586 280.075818,51.0928414 C32.1418179,172.557841 -70.3721821,472.010841 51.0928179,719.923841 C172.578818,967.857821 472.032818,1070.37182 719.944818,948.906821" id="Fill-1" fill="#009FE3" sketch:type="MSShapeGroup"></path>
            <path d="M765.446818,670.327841 L599.260818,504.163841 C618.910818,471.464841 629.380818,433.956841 629.380818,394.830841 C629.380818,337.977841 607.260818,284.513841 567.063818,244.338841 C526.866818,204.141841 473.424818,181.978841 416.571818,181.978841 C359.719818,181.978841 306.255818,204.141841 266.058818,244.338841 C183.085818,327.311841 183.085818,462.327841 266.058818,545.322841 C306.255818,585.518841 359.719818,607.660841 416.571818,607.660841 C455.828818,607.660841 493.446818,597.103841 526.211818,577.322841 L692.484818,743.595841 C701.992818,752.841841 714.757818,757.934841 728.484818,757.934841 C756.790818,757.934841 779.850818,734.895841 779.850818,706.567841 C779.850818,692.928841 774.648818,679.792841 765.446818,670.327841 M287.326818,524.076841 C216.069818,452.797841 216.069818,336.841841 287.326818,265.584841 C321.861818,231.070841 367.763818,212.054841 416.571818,212.054841 C465.380818,212.054841 511.282818,231.070841 545.795818,265.584841 C580.331818,300.120841 599.325818,345.999841 599.325818,394.830841 C599.325818,443.660841 580.331818,489.540841 545.795818,524.076841 C511.282818,558.589841 465.380818,577.584841 416.571818,577.584841 C367.763818,577.584841 321.839818,558.589841 287.326818,524.076841 M728.484818,727.857841 C722.735818,727.857841 717.249818,725.759841 713.599818,722.174841 L551.151818,559.748841 C556.659818,555.223841 561.948818,550.415841 567.063818,545.322841 C572.244818,540.141841 577.118818,534.699841 581.708818,529.103841 L744.025818,691.442841 C747.697818,695.179841 749.773818,700.710841 749.773818,706.567841 C749.773818,718.305841 740.222818,727.857841 728.484818,727.857841" id="Fill-2" fill="#FFFFFF" sketch:type="MSShapeGroup"></path>
            <path d="M531.776818,279.617841 C501.000818,248.841841 460.082818,231.901841 416.563818,231.901841 C373.065818,231.901841 332.147818,248.841841 301.350818,279.617841 C237.852818,343.136841 237.852818,446.480841 301.350818,510.021841 C332.147818,540.797841 373.065818,557.715841 416.563818,557.715841 C460.082818,557.715841 501.000818,540.797841 531.776818,510.021841 C595.295818,446.502841 595.295818,343.136841 531.776818,279.617841 M519.011818,497.278841 C491.645818,524.622841 455.273818,539.682841 416.563818,539.682841 C377.852818,539.682841 341.481818,524.622841 314.093818,497.278841 C257.634818,440.775841 257.634818,348.863841 314.093818,292.360841 C341.481818,264.994841 377.852818,249.934841 416.563818,249.934841 C455.273818,249.934841 491.645818,264.994841 519.011818,292.360841 C575.513818,348.863841 575.513818,440.775841 519.011818,497.278841" id="Fill-3" fill="#FFFFFF" sketch:type="MSShapeGroup"></path>
            <path d="M473.592818,311.180841 L384.259818,400.513841 C380.718818,404.032841 380.718818,409.737841 384.259818,413.256841 C386.008818,415.005841 388.324818,415.923841 390.641818,415.923841 C392.937818,415.923841 395.253818,415.005841 397.002818,413.256841 L486.357818,323.923841 C489.876818,320.404841 489.876818,314.699841 486.357818,311.180841 C482.816818,307.639841 477.111818,307.639841 473.592818,311.180841" id="Fill-4" fill="#FFFFFF" sketch:type="MSShapeGroup"></path>
            <path d="M448.825818,392.775841 L384.257818,457.344841 C380.716818,460.863841 380.716818,466.568841 384.257818,470.109841 C386.027818,471.857841 388.322818,472.732841 390.639818,472.732841 C392.934818,472.732841 395.251818,471.857841 397.000818,470.109841 L461.590818,405.540841 C465.109818,401.999841 465.109818,396.316841 461.590818,392.775841 C458.049818,389.256841 452.344818,389.256841 448.825818,392.775841" id="Fill-5" fill="#FFFFFF" sketch:type="MSShapeGroup"></path>
            <path d="M356.327818,428.426841 L337.704818,447.070841 C334.185818,450.589841 334.185818,456.316841 337.704818,459.813841 C339.452818,461.584841 341.747818,462.480841 344.064818,462.480841 C346.381818,462.480841 348.698818,461.584841 350.447818,459.813841 L369.092818,441.169841 C372.611818,437.650841 372.611818,431.945841 369.092818,428.426841 C365.551818,424.885841 359.846818,424.885841 356.327818,428.426841" id="Fill-6" fill="#FFFFFF" sketch:type="MSShapeGroup"></path>
        </g>
    </g>
</svg>