<?xml version="1.0" encoding="utf-8"?>
<!-- Generator: Adobe Illustrator 16.0.0, SVG Export Plug-In . SVG Version: 6.00 Build 0)  -->
<!DOCTYPE svg PUBLIC "-//W3C//DTD SVG 1.1//EN" "http://www.w3.org/Graphics/SVG/1.1/DTD/svg11.dtd">
<svg version="1.1" id="Calque_1" xmlns="http://www.w3.org/2000/svg" xmlns:xlink="http://www.w3.org/1999/xlink" x="0px" y="0px"
	 width="520.168px" height="552.101px" viewBox="0 0 520.168 552.101" enable-background="new 0 0 520.168 552.101"
	 xml:space="preserve">
<radialGradient id="SVGID_1_" cx="178.1514" cy="273.9487" r="271.476" gradientUnits="userSpaceOnUse">
	<stop  offset="0.3405" style="stop-color:#B9BDBD"/>
	<stop  offset="0.3545" style="stop-color:#B5B9B9"/>
	<stop  offset="0.3831" style="stop-color:#ACB2B3"/>
	<stop  offset="0.4152" style="stop-color:#A7AEAF"/>
	<stop  offset="0.4581" style="stop-color:#A5ADAD"/>
	<stop  offset="0.5665" style="stop-color:#A5ADAD"/>
	<stop  offset="0.7548" style="stop-color:#A9B0B0"/>
	<stop  offset="0.9596" style="stop-color:#B7B8B8"/>
	<stop  offset="1" style="stop-color:#BABABA"/>
</radialGradient>
<rect x="-1.681" y="-4.202" fill="url(#SVGID_1_)" stroke="#000000" stroke-miterlimit="10" width="526.051" height="559.664"/>
<g id="svga-group-subwrapper">
	<linearGradient id="SVGID_2_" gradientUnits="userSpaceOnUse" x1="238.5537" y1="9.3525" x2="264.373" y2="564.9467">
		<stop  offset="0.6025" style="stop-color:#472620"/>
		<stop  offset="0.8465" style="stop-color:#D6AB4B;stop-opacity:0.9"/>
	</linearGradient>
	<path fill="url(#SVGID_2_)" d="M96.531,406.292c-1.61,28.029-1.717,30.402,4.297,48.787c15.426,47.17-7.147,44.715-2.571,99.397
		h128.091c1.059-30.264,3.076-85.287-4.472-102.727c-19.586-45.051-81.872-59.596-85.217-109.708l0.474-0.079
		c13.067,25.869,23.513,36.304,53.96,40.867c-42.28-31.302-33.59-55.559-32.504-92.911c0.643-21.79-4.078-38.467-9.074-55.805
		c5.918-16.022,9.079-31.144,12.244-48.414c12.87-70.369,56.605-124.334,99.652-86.336c0.002-0.002,0.545-0.695,0.545-0.695
		c0.236,0.294,0.206,0.25,0.492,0.664c36.843-37.227,72.357-6.016,91.761,38.448c26.895,61.59,3.766,82.792,32.258,122.299
		c1.359,27.562,2.893,55.812-33.609,94.767c-8.025,8.557-17.864,15.408-28.345,21.402c38.104-3.07,61.778-32.541,74.415-65.249
		l0.465,0.13c-36.873,127.44-105.56,33.047-87.258,227.613c0.477,5.309,1.172,11.36,1.734,15.733h17.381
		c0.798-0.548,1.807-0.916,3.023-1c31.173-2.155,62.372-1.077,93.576-0.403c-36.438-118.055,28.511-108.37,7.653-170.178
		c-18.928-56.082,32.863-74.773,0.441-128.724C466.24,67.545,366.897-5.202,274.263,15.475
		C172.085-7.072,94.1,40.211,82.131,168.877c-2.159,45.196,3.284,79.293,4.151,87.417c-6.857,12.785-11.178,26.661-12.956,40.996
		c-5.538,4.376-10.604,7.828-16.253,11.448c2.954-0.369,7.369-0.843,15.668-3.045C70.793,355.826,98.258,364.776,96.531,406.292z"/>
	<g id="svga-group-hair-back">
		<path id="SvgjsPath3865" fill="#371813" d="M392.19,83.711h-264.04c0,0-2.201,425.288-2.201,437.865h270.641L392.19,83.711z"/>
	</g>
	<g id="svga-group-humanbody-single">
		<path id="SvgjsPath2761" fill="#FACFBD" d="M460.088,468.475c-13.22-22.351-29.647-26.345-43.188-30.663
			c-13.913-4.437-42.567-6.993-58.196-10.122c-15.094-3.021-50.944-12.737-51.354-29.678c-0.423-17.748,9.442-88.211,9.442-88.211
			H202.973c0,0,9.873,70.461,9.448,88.211c-0.404,16.94-36.261,26.657-51.357,29.678c-15.631,3.129-44.282,5.686-58.195,10.122
			c-13.545,4.318-29.977,8.311-43.197,30.663c-8.018,13.555-13.219,35.498-13.219,59.702h426.864
			C473.314,503.973,468.121,482.03,460.088,468.475z"/>
		<path id="SvgjsPath2762" fill="#FCE2D7" d="M307.35,398.014c5.489,24.048,39.969,30.141,57.854,33.72
			c48.206,9.636,74.31,11.297,93.066,42.993c6.388,10.816,12.012,34.905,13.119,53.144c4.038,0.641,1.168-38.355-11.301-59.396
			c-21.437-36.244-64.006-33.302-101.385-40.782C343.609,424.671,307.759,414.955,307.35,398.014L307.35,398.014z M212.991,398.014
			c-0.409,16.94-36.259,26.657-51.353,29.679c-37.379,7.48-79.949,4.538-101.385,40.782c-12.469,21.042-15.338,60.036-11.301,59.396
			c1.106-18.238,6.73-42.327,13.118-53.144c18.756-31.696,44.86-33.357,93.067-42.993
			C173.022,428.155,207.501,422.059,212.991,398.014L212.991,398.014z"/>
		<path id="SvgjsPath2763" fill="#F1B49A" d="M152.808,445.696c0,0,63.02,0.657,73.651,4.147
			c5.092,1.667,18.421,12.394,18.421,12.394s-14.425-6.975-19.05-8.268C215.085,450.967,152.808,445.696,152.808,445.696z
			 M259.72,468.768c4.517-0.09,17.354-8.359,17.354-8.359s-12.265,4.531-16.155,4.753c-3.28,0.189-14.007-2.724-14.007-2.724
			S256.017,468.84,259.72,468.768z M297.593,452.833c14.853-4,65.539-7.107,65.539-7.107s-52.348-1.135-67.132,3.796
			c-4.955,1.654-16.639,11.354-16.639,11.354S292.704,454.147,297.593,452.833z"/>
		<path id="SvgjsPath2764" fill="none" stroke="#D27F5C" stroke-width="1.5" d="M460.088,468.475
			c-21.434-36.241-64.078-33.317-101.385-40.782c-15.094-3.021-50.944-12.738-51.354-29.679
			c-0.423-17.748,9.442-88.211,9.442-88.211H202.973c0,0,9.873,70.461,9.448,88.211c-0.404,16.94-36.261,26.657-51.357,29.679
			c-15.631,3.128-44.282,5.686-58.195,10.121c-13.545,4.318-29.977,8.311-43.197,30.663c-8.018,13.555-13.219,35.498-13.219,59.702
			h426.864C473.314,503.973,468.121,482.03,460.088,468.475z"/>
	</g>
	<g id="svga-group-chinshadow-single">
		
			<linearGradient id="SvgjsPath2985_1_" gradientUnits="userSpaceOnUse" x1="-19.3828" y1="419.8696" x2="-19.3828" y2="445.479" gradientTransform="matrix(3 0 0 -3 318.0449 1665.1621)">
			<stop  offset="0" style="stop-color:#F1B49A;stop-opacity:0.8"/>
			<stop  offset="0.7" style="stop-color:#D27F5C"/>
		</linearGradient>
		<path id="SvgjsPath2985" fill="url(#SvgjsPath2985_1_)" d="M260.269,406.583c12.307-0.021,29.68-7.939,46.006-18.571
			c0.985-14.715,3.777-37.939,6.015-55.329c-30.706-3.989-74.236-3.896-104.786,0.23c2.218,17.231,4.968,40.104,5.969,54.767
			C230.048,398.499,247.782,406.602,260.269,406.583z"/>
	</g>
	<g id="svga-group-clothes-single">
		<path fill="#92172E" d="M322.281,555.984c0.723-0.543,1.623-0.916,2.719-1c37.129-2.833,74.302-0.078,111.469-0.003
			c16.516-0.185,28.714-0.313,34.981-0.323c3.995-32.945,6.623-67.191-4.476-91.001c-3.428-7.376-8.024-11.859-16.166-11.625
			c-2.2-1.821-27.616-17.168-47.633-25.008c-15.116-5.922-30.682-10.45-45.428-14.64c-18.646-19.741-25.481-27.651-47.644-38.023
			c-2.185,17.926-7.59,32.645,17.924,42.583c5.951,8.201,14.799,18.863,14.799,18.863c-11.061,43.677-6.027,70.701-10.574,118.215
			c-135.357,0.62-143.655,0.596-143.655,0.596c-1.019-41.142-3.633-72.448-11.979-117.578c5.485-7.906,9.384-13.548,13.55-19.335
			c25.988-9.333,22.789-20.634,19.459-43.702l0.022,0.279c-28.888,12.988-32.365,20.435-49.754,39.328
			c-27.788,8.305-67.977,22.6-91.793,39.155c-20.925-0.202-24.588,29.678-23.941,50.578c0.453,14.371,5.039,48.289,5.435,50.489
			c21.208,1.05,48.154,1.733,78.157,2.151H322.281z"/>
		<path id="SvgjsPath3886" fill="#18090F" d="M210.584,380.526c0.328,2.275,0.625,4.435,0.843,6.465
			c-0.449,0.565-35.135,49.67-35.39,50.039C184.613,416.825,196.676,395.891,210.584,380.526z M309.511,380.526
			c-0.326,2.275-0.379,4.435-0.597,6.465c0.447,0.565,34.763,47.789,35.017,48.158C334.845,416.326,323.421,395.891,309.511,380.526
			z M389.495,446.613c-8.789,13.25-10.665,17.827-20.285,30.959c2.2,0,5.747,0.356,7.947,0.356
			C384.683,464.559,384.696,457.752,389.495,446.613z M398.5,542.797c7.789-18.929,14.238-35.539,22.052-54.497l-2.561-4.282
			C411.486,503.487,404.58,523.272,398.5,542.797z M143.181,477.928c2.201,0,5.748-0.356,7.948-0.356
			c-9.62-13.134-11.497-13.955-20.285-27.205C135.645,461.506,135.658,464.559,143.181,477.928z M102.347,484.018l-2.561,4.282
			c7.815,18.956,9.785,35.568,17.574,54.497C111.281,523.272,108.854,503.487,102.347,484.018z"/>
		<path id="SvgjsPath3887" fill="#731325" d="M209.692,402.442c-1.826,5.061-7.899,9.043-12.299,11.552
			c-2.134,1.21-4.379,2.244-6.645,3.212c1.034-1.496,2.09-2.992,3.168-4.466c5.104-7.13,10.078-14.303,14.852-21.674
			c0.682-1.057,1.342-2.135,2.002-3.213C211.123,392.629,211.519,398.084,209.692,402.442z M311.149,403.434
			c-2.772-4.644-2.508-10.87-2.2-16.175c5.062,9.023,10.386,17.845,16.394,26.34c0.615,0.878,1.231,1.738,1.869,2.597
			C320.786,413.311,314.802,409.573,311.149,403.434z"/>
		<path id="SvgjsPath3888" fill="#491123" d="M310.056,374.735c0.016-0.125,0.033-0.246,0.047-0.372
			c37.149,21.269,54.402,48.437,79.393,72.25c-0.92,1.533-2.522,2.541-3.461,4.056C359.862,430.039,351.697,403.631,310.056,374.735
			z M206.194,376.147c-31.287,9.983-71.526,69.688-75.791,73.753c0.92,1.534,1.419,1.229,2.361,2.739
			C158.938,432.011,159.635,407.791,206.194,376.147z M466.975,463.662c-3.428-7.379-8.022-11.862-16.166-11.625
			c-2.2-1.821-27.618-17.171-47.632-25.009c-14.602-5.721-30.156-8.275-44.454-12.344c69.191,34.669,98.241,44.963,110.325,57.245
			C468.413,470.209,467.731,465.285,466.975,463.662z M62.141,464.37c31.929-16.905,58.779-29.5,97.261-50.609
			c-27.768,8.325-67.62,22.544-91.298,39.005c-15.809-0.152-21.761,16.863-23.451,34.206
			C51.463,473.623,55.096,469.653,62.141,464.37z"/>
		<path fill="#380D1B" d="M80.443,555.295c11.279,0.256,22.56,0.48,33.842,0.688h208.008c0.721-0.541,1.613-0.917,2.707-1
			c10.683-0.815,21.369-1.158,32.059-1.245c-8.057,0.02-16.114,0.026-24.171,0.063c0.242-1.363,0.505-2.75,0.747-4.114
			c1.212-6.688,2.751-13.466,3.19-20.243c0.814-12.055,1.125-24.068,1.453-36.15c0.307-11.904,1.716-23.788,2.903-35.602
			c0.702-6.912,1.408-13.84,2.465-20.705c0.132-0.902,0.264-1.784,0.416-2.662c-0.221-0.331-0.462-0.639-0.702-0.969
			c-0.046-0.044-0.066-0.088-0.112-0.132c-3.763-4.907-7.613-9.726-11.329-14.654c-0.154-0.198-0.311-0.398-0.463-0.597
			c-1.43-1.89-2.838-3.805-4.202-5.74c-6.272-8.89-12.235-18.001-18.153-27.13c0.221-3.213,0.617-6.403,0.926-9.615
			c0.395,0.242,0.813,0.462,1.209,0.704c5.392,3.146,10.65,6.535,15.536,10.427c8.954,7.129,16.654,15.381,24.425,23.699
			c0.021,0.022,0.043,0.067,0.065,0.089c0.639,0.683,1.276,1.364,1.914,2.046c6.909,7.371,13.862,14.698,21.124,21.74
			c4.4,4.268,8.999,8.316,13.531,12.453c-0.792,0.969-1.563,1.936-2.334,2.927c-3.433,4.444-6.337,9.395-9.352,14.126
			c-2.617,4.313-5.105,8.669-7.459,13.113c-0.177,0.309-0.331,0.616-0.484,0.924c0.813,0.155,1.626,0.312,2.44,0.441
			c6.16,1.122,12.365,2.134,18.57,2.992c9.021,1.252,17.999,2.772,27.019,3.96c-0.505,0.946-0.967,1.891-1.429,2.839
			c-2.949,6.051-5.347,12.85-7.373,19.253c-3.739,11.791-6.733,23.587-8.934,35.777c2.223-5.787,4.269-11.618,6.315-17.449
			c2.178-6.248,3.96-12.676,6.227-18.9c2.552-7.065,5.039-14.15,7.503-21.233c0.151-0.418,0.286-0.814,0.438-1.234
			c-0.702-0.109-1.408-0.239-2.089-0.35c-9.131-1.65-18.241-3.347-27.44-4.643c-6.004-0.836-12.055-1.519-18.106-2.112
			c6.183-9.594,12.036-19.385,17.889-29.177c0.22-0.398,0.462-0.771,0.683-1.146c-0.351-0.44-0.727-0.858-1.122-1.276
			c-4.423-4.951-9.041-9.768-13.53-14.698c-4.752-5.236-9.615-10.386-14.502-15.513c14.214,5.237,28.494,10.254,42.645,15.642
			c10.495,4.005,20.463,9.309,30.475,14.391c4.466,2.247,9.043,4.4,13.554,6.689c0.528,0.242,1.054,0.505,1.563,0.771
			c0.328,0.177,0.638,0.328,0.946,0.505c-1.255,4.818-3.037,9.438-4.643,14.15c-2.312,6.776-4.137,13.686-6.115,20.572
			c-0.814,2.794-1.65,5.589-2.553,8.361c-3.014,9.176-5.853,18.307-8.207,27.702c-2.046,8.141-4.09,16.304-6.114,24.445
			c6.555-17.404,12.035-35.139,17.778-52.83c3.101-9.549,5.435-19.298,8.097-28.978c1.166-4.249,2.267-8.449,3.081-12.74
			c0.063-0.33,0.132-0.659,0.198-1.012c0.504,0.043,0.987,0.11,1.474,0.22c1.298,0.22,2.528,0.597,3.717,1.078
			c2.992,1.232,5.085,3.763,6.625,6.756c0.044,0.063,0.063,0.132,0.11,0.197c1.738,3.433,2.75,7.437,3.586,10.691
			c5.854,22.796,3.785,46.823,1.65,69.927c-0.374,4.07-0.727,8.119-1.056,12.189c-3.125-0.037-6.271-0.062-9.417-0.084
			c-11.95-0.065-23.918-0.132-35.868-0.176c-19.025-0.056-38.04-0.051-57.053-0.018c23.916,0.08,47.843,1.233,71.767,1.266
			c0.534,0.001,1.02,0.075,1.465,0.202c9.681-0.098,19.36-0.189,29.038-0.265c1.386-0.021,2.75-0.043,4.137-0.043
			c0.044-0.289,0.063-0.551,0.088-0.839c0.614-5.413,1.164-10.848,1.672-16.261c1.19-12.757,1.984-25.365,1.498-38.193
			c-0.462-12.146-2.552-24.927-7.723-36.017c-2.729-5.875-6.403-10.628-13.156-11.53c-0.792-0.109-1.586-0.176-2.376-0.197
			c-0.241-0.024-0.506-0.046-0.75-0.024c-0.152-0.132-0.328-0.221-0.484-0.328c-5.082-3.234-10.341-6.205-15.425-9.176
			c-10.253-5.987-20.66-11.155-31.729-15.49c-14.83-5.811-30.056-10.275-45.349-14.588c-1.738-1.826-3.498-3.674-5.236-5.525
			c-7.724-8.204-15.381-16.302-24.731-22.705c-5.061-3.477-10.452-6.425-15.996-9.023c-0.598-0.285-1.189-0.55-1.785-0.836
			c-0.064-0.044-0.151-0.063-0.24-0.11c-0.046,0.44-0.109,0.858-0.176,1.276c-0.44,2.927-0.924,5.875-1.275,8.802
			c-0.089,0.639-0.154,1.254-0.221,1.893c-0.024,0.327-0.066,0.638-0.088,0.965c-0.506,5.854-0.704,12.455,2.551,17.604
			c4.004,6.314,10.341,9.88,17.14,12.497c4.425,6.098,9.065,11.95,13.994,17.737c0.265,0.309,0.528,0.616,0.771,0.946
			c-2.066,8.163-3.499,16.524-4.774,24.819c-1.802,11.926-2.972,23.852-3.276,35.91c-0.33,11.989-0.024,24.068-0.685,36.063
			c-0.374,7.086-1.166,14.171-1.826,21.255c-2.353,0-4.709,0.022-7.063,0.022c-23.279,0.11-46.535,0.22-69.794,0.33
			c-22.136,0.109-44.249,0.177-66.384,0.24c-0.462-21.342-1.563-42.597-3.983-63.832c-1.276-11.023-2.333-22.091-4.291-33.027
			c-1.21-6.798-2.42-13.598-3.74-20.374c4.466-6.426,8.911-12.875,13.443-19.253c8.031-2.885,16.041-6.89,20.089-14.479
			c2.508-4.753,1.716-11.576,1.188-16.832c-0.022-0.221-0.044-0.417-0.066-0.639c-0.066-0.594-0.11-1.166-0.198-1.738
			c-0.33-2.99-0.792-5.985-1.21-8.955c-0.088-0.438-0.132-0.858-0.198-1.298c-0.11,0.046-0.198,0.088-0.286,0.111
			c-0.638,0.287-1.276,0.551-1.915,0.813c-6.051,2.574-11.926,5.547-17.382,9.199c-5.149,3.433-9.901,7.327-14.369,11.597
			c-4.378,4.202-8.273,8.999-12.321,13.512c-1.254,1.408-2.508,2.794-3.741,4.2c-2.882,0.86-5.743,1.763-8.604,2.641
			c-10.848,3.366-21.453,7.238-32.081,11.243c-5.743,2.179-11.397,4.555-17.052,6.953c-5.237,2.244-10.584,4.423-15.557,7.215
			c-5.523,3.081-11.2,6.293-16.634,9.858c-0.396,0.241-0.792,0.503-1.188,0.77c-0.242,0.154-0.462,0.311-0.682,0.462
			c-1.321-0.022-2.641,0.066-3.939,0.33c-8.339,1.604-13.356,9.153-16.084,16.612c-3.938,10.762-4.422,22.532-4.07,33.865
			c0.374,11.838,2.024,23.566,3.432,35.291c0.594,4.997,1.255,9.968,1.98,14.94c0,0.154,0.022,0.31,0.066,0.462
			c1.342,0.065,2.685,0.135,4.027,0.2C62.445,554.704,71.444,555.1,80.443,555.295z M311.149,403.434
			c-2.772-4.644-2.508-10.87-2.2-16.175c5.062,9.023,10.386,17.845,16.394,26.34c0.615,0.878,1.231,1.738,1.869,2.597
			C320.786,413.311,314.802,409.573,311.149,403.434z M209.692,402.442c-1.826,5.061-7.899,9.043-12.299,11.552
			c-2.134,1.21-4.379,2.244-6.645,3.212c1.034-1.496,2.09-2.992,3.168-4.466c5.104-7.13,10.078-14.303,14.852-21.674
			c0.682-1.057,1.342-2.135,2.002-3.213C211.123,392.629,211.519,398.084,209.692,402.442z M51.335,534.53
			c-1.518-12.5-3.168-24.996-3.081-37.628c0.066-11.442,0.396-24.93,6.733-34.896c2.442-3.851,6.029-6.491,10.231-7.527
			c1.188-0.309,2.442-0.483,3.74-0.483c0.022-0.022,0.022-0.022,0.044,0c0.682,4.51,1.452,8.999,2.222,13.512
			c0.792,4.75,1.408,9.549,2.684,14.189c1.365,4.819,2.75,9.638,4.291,14.415c2.86,8.801,5.699,17.603,8.471,26.447
			c2.772,8.934,6.909,17.295,10.408,25.942c-2.442-8.978-5.699-17.69-7.921-26.712c-2.178-8.758-4.951-17.229-7.767-25.79
			c-0.814-2.465-1.562-4.927-2.266-7.416c-2.068-7.104-3.785-14.235-5.391-21.496c-1.078-4.357-2.112-8.714-3.168-13.07
			c-0.066-0.262-0.132-0.504-0.198-0.771c0.265-0.132,0.528-0.264,0.771-0.396c0.616-0.33,1.232-0.639,1.826-0.948
			c5.875-3.059,11.772-6.073,17.779-8.846c10.715-4.906,21.849-9.264,32.873-13.443c11.112-4.203,22.18-8.491,33.225-12.873
			c-5.148,5.787-10.253,11.597-15.248,17.516c-3.917,4.642-7.372,9.571-10.65,14.61c-0.308,0.462-0.616,0.924-0.902,1.41
			c0.242,0.415,0.506,0.813,0.792,1.231c5.589,8.56,11.332,17.075,17.229,25.438c-5.765,0.483-11.53,1.034-17.272,1.735
			c-7.723,0.948-15.38,2.049-22.972,3.787c-1.606,0.374-3.212,0.727-4.84,1.055c-0.682,0.153-1.365,0.31-2.069,0.439
			c0.154,0.44,0.287,0.902,0.418,1.342c5.567,19.165,9.329,38.858,16.106,57.693c-1.915-11.662-3.829-23.258-6.557-34.766
			c-1.584-6.579-3.344-13.114-5.721-19.475c-0.462-1.276-0.99-2.528-1.541-3.785c1.541-0.22,3.081-0.484,4.621-0.77
			c7.745-1.387,15.49-2.641,23.301-3.587c5.809-0.704,11.574-1.563,17.338-2.511c0.858-0.132,1.716-0.264,2.575-0.415
			c-0.198-0.331-0.396-0.663-0.594-0.991c-2.354-4.005-4.863-7.923-7.503-11.793c-3.653-5.127-7.438-10.034-11.398-14.831
			c3.917-5.036,8.186-9.725,12.586-14.365c6.821-7.197,13.378-14.588,19.979-21.981c0.572-0.66,1.167-1.342,1.76-2.003
			c0.132-0.132,0.242-0.285,0.374-0.415c7.701-8.691,15.292-17.229,24.622-24.316c5.369-4.112,11.134-7.635,17.119-10.848
			c0.44-0.241,0.858-0.462,1.298-0.682c0.309,3.234,0.661,6.467,0.88,9.726c-6.271,8.999-12.652,17.931-19.077,26.866
			c-1.628,2.244-3.213,4.511-4.775,6.776c-0.088,0.11-0.176,0.24-0.264,0.352c-3.477,5.062-6.865,10.188-10.144,15.379
			c-0.286,0.462-0.572,0.902-0.858,1.364c0.11,0.925,0.198,1.826,0.308,2.729c2.134,19.891,4.048,39.804,6.293,59.694
			c2.09,18.681,3.63,37.406,5.941,56.043c-1.848,0.026-3.675,0.026-5.523,0.026c-28.472,0.063-56.944,0.132-85.417-0.024H96.42
			c-14.346-0.088-28.67-0.353-43.017-0.702C52.765,547.313,52.105,540.909,51.335,534.53z"/>
	</g>
	<g id="svga-group-head">
		<g id="svga-group-ears-left">
			<path id="SvgjsPath3890" fill="#FACFBD" stroke="#D27F5C" stroke-width="1.5" d="M143.064,212.971
				c-5.771-3.129-18.868-18.003-24.507-15.884c-3.641,1.364-5.23,11.631-5.804,15.785c-0.733,5.336-2.044,16.293-0.722,21.521
				c1.595,6.306,7.989,17.975,11.815,23.299c3.23,4.486,11.466,12.252,14.098,17.094c1.67,3.072,3.285,11.353,8.984,10.817
				c3.684-0.346,12.183-6.491,12.639-9.404C162.049,260.39,154.429,219.127,143.064,212.971z"/>
			<path id="SvgjsPath3891" fill="#D27F5C" d="M135.44,247.087c-0.275-1.175,0.013-3.15,0.292-5.061
				c0.253-1.74,0.493-3.385,0.348-4.546c-0.552-4.353-3.652-12.624-5.672-17.107c-2.33-5.156-6.097-11.653-10.823-13.328
				c-1.954-0.695-3.241,0.135-3.989,0.975c-0.545,0.619-0.671,1.343-0.491,1.429s0.585-0.515,1.177-1.08
				c0.482-0.463,1.192-0.86,2.163-0.779c-0.392,2.167-2.401,13.906-1.531,21.908c0.684,6.293,3.276,10.993,3.681,11.697
				c0.062,0.741,0.16,1.468,0.306,2.172c1.912,9.187,10.227,19.629,13.12,23.051c0.535,0.627,1.092,1.003,1.232,0.854
				c0.137-0.154-0.191-0.779-0.726-1.413c-2.856-3.399-11.094-13.804-12.936-22.667c-1.958-9.402,4.768-23.344,6.269-26.292
				c0.766,1.384,1.415,2.715,1.914,3.821c0.394,0.872,0.832,1.889,1.279,2.988c-0.885,1.538-7.065,12.767-4.813,21.753
				c0.836,3.312,4.595,7.584,7.092,8.755c1.373,0.645,1.89,1.608,2.486,2.722c0.691,1.296,1.481,2.762,3.758,3.824
				c0.464,0.213,0.885,0.304,1.256,0.304c0.645,0,1.133-0.269,1.494-0.596c0.037,0.566,0.035,1.293,0.015,1.964
				c-0.022,0.87,0.09,1.578,0.284,1.596c0.194,0.018,0.401-0.671,0.423-1.531c0.035-1.063,0.028-2.379-0.148-3.008
				c-0.51-1.853-2.072-3.943-3.727-6.157C137.546,251.154,135.861,248.9,135.44,247.087z M120.533,238.942
				c-4.478-14.421,0-27.665,1.008-29.643c1.749,1.659,4.638,4.676,5.895,6.845C126.518,217.88,120.72,229.243,120.533,238.942z
				 M139.852,260.041c-2.064-0.964-2.757-2.253-3.426-3.501c-0.605-1.131-1.232-2.297-2.819-3.042
				c-0.345-0.164-0.726-0.41-1.111-0.691c-5.113-12.652,0.559-18.184,1.979-19.316c0.438,1.546,0.761,2.966,0.904,4.104
				c0.134,1.045-0.11,2.704-0.343,4.311c-0.291,1.988-0.59,4.046-0.28,5.38c0.465,1.984,2.198,4.306,3.873,6.55
				c1.489,1.991,3.021,4.046,3.54,5.723C141.949,259.887,141.241,260.685,139.852,260.041z"/>
		</g>
		<g id="svga-group-ears-right">
			<path id="SvgjsPath3892" fill="#FACFBD" stroke="#D27F5C" stroke-width="1.5" d="M376.702,212.971
				c5.771-3.129,18.865-18.003,24.505-15.884c3.644,1.364,5.234,11.631,5.807,15.785c0.734,5.336,2.042,16.293,0.722,21.521
				c-1.596,6.306-7.989,17.975-11.818,23.299c-3.228,4.486-11.466,12.252-14.095,17.094c-1.673,3.072-3.283,11.353-8.986,10.817
				c-3.684-0.346-12.179-6.491-12.639-9.404C357.715,260.39,365.335,219.127,376.702,212.971z"/>
			<path id="SvgjsPath3893" fill="#D27F5C" d="M380.593,253.332c-1.655,2.214-3.22,4.307-3.73,6.157
				c-0.171,0.629-0.18,1.944-0.145,3.007c0.026,0.863,0.23,1.55,0.425,1.532c0.193-0.018,0.306-0.726,0.283-1.596
				c-0.022-0.671-0.022-1.397,0.013-1.965c0.361,0.325,0.852,0.597,1.496,0.597c0.37,0,0.79-0.091,1.255-0.304
				c2.277-1.063,3.069-2.528,3.76-3.824c0.597-1.113,1.114-2.075,2.489-2.722c2.492-1.171,6.253-5.441,7.092-8.756
				c2.25-8.985-3.928-20.214-4.814-21.752c0.446-1.1,0.884-2.117,1.28-2.988c0.495-1.106,1.146-2.438,1.912-3.821
				c1.501,2.948,8.225,16.89,6.267,26.291c-1.844,8.863-10.082,19.269-12.936,22.668c-0.533,0.634-0.865,1.257-0.727,1.412
				c0.141,0.15,0.7-0.226,1.234-0.854c2.892-3.422,11.209-13.863,13.121-23.051c0.145-0.703,0.244-1.43,0.306-2.171
				c0.405-0.704,2.999-5.406,3.684-11.697c0.869-8.003-1.14-19.741-1.529-21.908c0.971-0.084,1.681,0.314,2.161,0.778
				c0.589,0.565,0.996,1.166,1.177,1.08c0.176-0.085,0.051-0.812-0.491-1.428c-0.752-0.84-2.037-1.67-3.988-0.975
				c-4.727,1.675-8.496,8.17-10.826,13.327c-2.024,4.484-5.118,12.756-5.672,17.107c-0.146,1.162,0.094,2.806,0.347,4.547
				c0.279,1.909,0.563,3.886,0.293,5.061C383.903,248.9,382.221,251.154,380.593,253.332z M392.331,216.144
				c1.254-2.169,4.143-5.186,5.892-6.845c1.006,1.978,5.488,15.222,1.01,29.643C399.044,229.243,393.246,217.88,392.331,216.144z
				 M377.595,259.554c0.52-1.677,2.052-3.729,3.541-5.723c1.676-2.245,3.408-4.566,3.872-6.551c0.311-1.333,0.013-3.391-0.279-5.38
				c-0.231-1.605-0.478-3.268-0.343-4.311c0.145-1.138,0.469-2.557,0.906-4.104c1.419,1.134,7.092,6.665,1.976,19.317
				c-0.388,0.283-0.766,0.529-1.108,0.69c-1.591,0.746-2.219,1.912-2.819,3.043c-0.671,1.248-1.361,2.539-3.43,3.501
				C378.523,260.685,377.815,259.887,377.595,259.554z"/>
		</g>
		<g id="svga-group-faceshape-wrap">
			<g id="svga-group-faceshape-single">
				<path id="SvgjsPath2982" fill="#FACFBD" d="M389.81,197.607h-0.012c-0.026,0.116-18.74,89.568-36.787,117.243
					c-14.195,21.771-66.814,65.874-92.502,65.913c-25.68,0.045-78.413-43.914-92.675-65.642
					c-18.133-27.619-37.152-116.991-37.179-117.11h-0.002c-2.856-10.806-4.388-22.148-4.406-33.846
					c-0.116-73.653,59.748-133.438,133.719-133.553c73.977-0.115,134.028,59.481,134.139,133.135
					C394.124,175.445,392.633,186.79,389.81,197.607z"/>
				<path id="SvgjsPath2983" fill="#F7C1AA" d="M317.153,43.276c42.036,22.548,70.576,66.791,70.497,117.664
					c-0.02,11.697-1.549,23.04-4.407,33.846h-0.002c-0.026,0.116-19.046,89.491-37.181,117.11
					c-13.083,19.937-58.87,64.958-85.886,64.958c-27.018,0-72.8-45.023-85.885-64.958c-18.135-27.619-37.157-116.991-37.181-117.11
					h-0.002c-2.856-10.806-4.387-22.148-4.405-33.846c-0.082-50.874,28.461-95.116,70.492-117.664
					c-45.534,21.347-77.031,67.457-76.948,120.89c0.018,11.697,1.549,23.04,4.405,33.846h0.002
					c0.028,0.119,19.048,89.491,37.183,117.11c9.716,14.804,39.876,45.096,63.149,56.729c-1.164-0.497-2.337-1.025-3.519-1.577
					c11.899,6.325,23.464,10.479,32.374,10.49c0.107,0,0.227-0.011,0.334-0.011s0.227,0.011,0.334,0.011
					c8.906-0.011,20.473-4.165,32.374-10.49c-1.185,0.554-2.356,1.08-3.522,1.577c23.272-11.631,53.434-41.927,63.151-56.729
					c18.133-27.619,37.156-116.991,37.179-117.11h0.004c2.856-10.806,4.388-22.148,4.405-33.846
					C394.188,110.733,362.694,64.623,317.153,43.276z"/>
				<path id="SvgjsPath2984" fill="none" stroke="#D27F5C" stroke-width="1.5" d="M389.81,197.607h-0.012
					c-0.026,0.116-18.74,89.568-36.787,117.243c-14.195,21.771-66.814,65.874-92.502,65.913
					c-25.68,0.045-78.413-43.914-92.675-65.642c-18.133-27.619-37.152-116.991-37.179-117.11h-0.002
					c-2.856-10.806-4.388-22.148-4.406-33.846c-0.116-73.653,59.748-133.438,133.719-133.553
					c73.977-0.115,134.028,59.481,134.139,133.135C394.124,175.445,392.633,186.79,389.81,197.607z"/>
			</g>
		</g>
		<g id="svga-group-mouth-single">
			
				<linearGradient id="SvgjsPath3894_1_" gradientUnits="userSpaceOnUse" x1="-19.1851" y1="440.8442" x2="-19.1851" y2="443.4516" gradientTransform="matrix(3 0 0 -3 318.0449 1665.1621)">
				<stop  offset="0.1" style="stop-color:#F7C1AA"/>
				<stop  offset="1" style="stop-color:#F1B49A"/>
			</linearGradient>
			<path id="SvgjsPath3894" fill="url(#SvgjsPath3894_1_)" d="M261.073,338.257c-12.912,0-16.015-7.907-16.015-7.907
				c16.285,6.039,30.86-0.323,30.86-0.323S272.428,338.257,261.073,338.257z"/>
			<path id="SvgjsPath3898" fill="#F0836C" stroke="#ED694D" stroke-width="0.75" d="M223.277,313.094
				c6.979-0.344,19.672-2.808,26.324-2.576c3.438,0.121,6.856,2.486,10.447,3.239c2.498,0.526,10.259-2.868,12.814-3.029
				c6.706-0.424,19.318,1.939,25.477,2.397c0.34,0.029,0,0,0,0s-15.061,20.148-37.709,20.143
				C234.997,333.262,223.277,313.094,223.277,313.094S222.933,313.113,223.277,313.094z"/>
			<path id="SvgjsPath3899" fill="#D03B19" d="M299.264,312.401c-0.116-0.341-1.201-0.491-1.626-0.362
				c-0.783,0.246-1.729,1.359-3.424,1.789c-1.95,0.498-13.091,3.731-16.147,3.885c-6.165,0.307-11.569,2.459-17.625,2.445
				c-6.057-0.013-11.316-2.422-17.511-2.759c-3.077-0.169-13.543-3.169-15.505-3.649c-1.695-0.417-2.321-1.496-3.03-1.789
				c-0.493-0.2-1.7-0.051-1.938,0.274c-0.206,0.278,0.229,1.588,0.521,1.955c0.706,0.876,2.876,1.319,4.346,1.688
				c2.031,0.519,12.409,3.562,15.511,3.735c6.011,0.34,11.231,2.934,17.24,2.938c6.013,0.009,11.483-2.356,17.545-2.664
				c3.114-0.162,14.418-3.424,16.509-3.945c1.511-0.38,3.619-1.04,4.36-1.772C298.85,313.823,299.384,312.749,299.264,312.401z"/>
			<path id="SvgjsPath3900" fill="#F39786" d="M260.311,329.958c-10.204,0-20.094-3.25-26.826-9.63
				c3.546,0.496,7.378,0.54,11.13,1.051c4.624,0.631,8.94,2.401,13.684,2.696c5.131,0.325,10.21-1.291,15.347-2.192
				c4.286-0.755,10.978-2.783,14.971-3.396C280.987,324.335,270.16,329.958,260.311,329.958z M274.539,316.672
				c3.885-0.389,10.052-2.292,13.625-2.712c-3.665-1.076-9.981-0.728-14.538-1.149c-3.926-0.363-8.458,2.245-12.559,2.648
				c-4.625,0.456-7.665-3.215-12.012-3.568c-4.717-0.385-9.874,1.457-13.913,2.385c3.616,0.489,7.501,0.624,11.235,1.349
				c4.571,0.89,8.878,2.586,13.618,2.748C264.843,318.535,269.75,317.149,274.539,316.672z"/>
			<path id="SvgjsPath3901" fill="#F6AE9F" d="M275.684,322.833c-0.803,0.026-1.629,0.064-2.424,0.133
				c-0.916,0.073-1.743,0.18-2.507,0.32c-1.402,0.259-2.801,0.607-4.27,0.962c-2.316,0.563-4.501,1.023-6.941,1.02
				c-0.391,0-0.784-0.018-1.178-0.044c-1.993-0.144-3.967-0.565-5.713-1.074c-1.807-0.532-3.528-1.045-5.265-1.283
				c-0.333-0.044-0.676-0.075-1.009-0.108c-1.067-0.094-2.181-0.137-3.272-0.164c4.521,3.639,10.763,5.313,16.865,5.321
				C266.255,327.918,271.123,325.717,275.684,322.833z"/>
		</g>
		<g id="svga-group-eyes-left">
			<g id="svga-group-eyesback-left">
				
					<radialGradient id="SvgjsPath3717_1_" cx="-77.8735" cy="480.8979" r="9.4178" gradientTransform="matrix(-3.1776 0.0012 0.0012 -3.1767 -45.3359 1746.8318)" gradientUnits="userSpaceOnUse">
					<stop  offset="0" style="stop-color:#FFFFFF"/>
					<stop  offset="0.544" style="stop-color:#FEFFFF"/>
					<stop  offset="0.74" style="stop-color:#F7F9FA"/>
					<stop  offset="0.879" style="stop-color:#EAEFF2"/>
					<stop  offset="0.992" style="stop-color:#D9E3E8"/>
					<stop  offset="1" style="stop-color:#D8E2E7"/>
				</radialGradient>
				<path id="SvgjsPath3717" fill="url(#SvgjsPath3717_1_)" d="M173.491,215.382c21.618-21.715,44.015-18.075,56.661-2.897
					c1.545,3.021,2.193,6.302,1.925,9.557c-0.411,4.935-4.451,9.795-6.297,10.75c-5.195,2.687-10.861,4.273-16.606,4.599
					c-2.209,0.126-3.514,0.174-5.411,0c-3.76-0.345-6.92-1.128-10.671-2.669c-6.15-2.525-11.957-6.85-16.892-13.308
					c-0.072-0.092-0.178-0.147-0.29-0.149c-0.113-0.002-0.22,0.049-0.295,0.137l-0.196,0.237c-0.11,0.132-0.119,0.313-0.046,0.465
					c-0.555-0.758-1.052-1.517-1.481-2.28c0.015,0.009,0.024,0.014,0.04,0.022C172.915,218.01,172.96,216.158,173.491,215.382z"/>
			</g>
			<g id="svga-group-eyesiriswrapper-left" transform="translate(0 -0.5)">
				<g id="svga-group-eyesiriscontrol-left" transform="translate(0 -9.999999961429751e-8)">
					<g id="svga-group-eyesiris-left" transform="matrix(0.84999948 0 0 0.84999948 11.250039000000001 13.049895321877742)">
						<radialGradient id="SvgjsPath3703_1_" cx="228.1321" cy="242.919" r="15.8975" gradientUnits="userSpaceOnUse">
							<stop  offset="0.4802" style="stop-color:#A1C518;stop-opacity:0.5"/>
							<stop  offset="0.703" style="stop-color:#213C1D;stop-opacity:0.9064"/>
							<stop  offset="0.9347" style="stop-color:#27150D"/>
						</radialGradient>
						<path id="SvgjsPath3703" fill="url(#SvgjsPath3703_1_)" stroke="#1E130C" stroke-width="0.5" d="M246.835,242.924
							c0,10.326-8.374,18.698-18.703,18.698c-10.329,0-18.702-8.372-18.702-18.698c0-10.334,8.374-18.708,18.702-18.708
							C238.461,224.216,246.835,232.589,246.835,242.924z"/>
						<path id="SvgjsPath3704" fill="#5D4734" d="M217.258,251.666c2.73-0.226,0.312-0.955,0.312-0.955
							c-1.349-0.728-3.89-1.846-3.89-2.873c0-3.215,4.405-4.046-0.105-5.316c-4.687-4.301,3.637-4.212,3.575-4.358
							c-3.039-7.406,0.931-3.34,2.603-5.526c6.196-8.102,1.727,0.832,5.092,0c1.219-0.3-2.432-4.773,0.105-4.146
							c1.679,0.412,2.062,1.807,2.062,1.807c1.225-0.24,3.142-2.125,3.142-2.125c2.335,0.703,3.974,4.02,3.252,3.4
							c1.149-0.139,2.755-0.689,4.009-1.064c0,0,0.221-0.743,0.431-0.102c2.86,8.295,10.236,7.701,1.743,10.097
							c0,0-0.548,0,1.193,1.38c8.447,6.746-6.553,4.659,1.403,7.761c0.323-0.322-4.768,3.01-4.768,3.932
							c0,1.563-3.25,5.669-6.066,4.051c-1.571-0.897-1.811,1.87-2.735,0.592c-1.811-2.503-5.429-0.108-4.091-2.409
							c1.976-1.621-2.037,0.636-2.816,0.636c-2.579,0,3.375-8.674,12.137-2.229c2.563,1.876-2.694-4.467,1.95-4.467
							c0.464,0.152,0.325-1.626,0.325-2.125c-2.416-0.473,4.333-0.011,4.333-3.934c0.424,0.085,1.587-1.09-5.096,0
							c0,0-0.213-2.339-0.106-2.764c0.343-1.364,3.784-0.928,2.817-2.339c-0.002-0.002-2.491-4.999-2.491-4.999
							c-8.02-1.289-3.437-2.094-8.452-1.063c-0.237,1.178-10.739,6.185-10.405,8.506c0.313,2.189,6.594,2.922,0.649,6.801
							C226.278,264.901,210.789,247.454,217.258,251.666z"/>
						<path id="SvgjsPath3705" fill="#4D3623" stroke="#3E2918" stroke-width="0.5" d="M228.132,226.555l0.535,13.693l5.727-12.445
							l-4.748,12.85l10.06-9.306l-9.305,10.056l12.854-4.746l-12.443,5.73l13.69,0.532l-13.69,0.533l12.443,5.73l-12.854-4.746
							l9.305,10.055l-10.06-9.305l4.748,12.849l-5.727-12.445l-0.535,13.695l-0.535-13.693l-5.73,12.445l4.744-12.849l-10.055,9.305
							l9.306-10.055l-12.855,4.746l12.443-5.73l-13.684-0.533l13.684-0.532l-12.443-5.73l12.855,4.746l-9.306-10.056l10.055,9.306
							l-4.744-12.85l5.73,12.445L228.132,226.555z"/>
						<path id="SvgjsPath3706" fill="#4D3623" stroke="#2D1C11" stroke-width="0.5" d="M230.614,230.661l-1.681,10.334l6.179-8.451
							l-5.503,8.905l8.944-5.448l-8.491,6.124l10.346-1.606l-10.192,2.402l10.178,2.476l-10.339-1.677l8.454,6.179l-8.911-5.501
							l5.448,8.942l-6.124-8.493l1.606,10.346l-2.403-10.192l-2.477,10.177l1.681-10.335l-6.185,8.451l5.51-8.906l-8.942,5.448
							l8.493-6.124l-10.346,1.606l10.189-2.406l-10.176-2.475l10.334,1.674l-8.454-6.178l8.912,5.501l-5.446-8.943l6.121,8.494
							l-1.606-10.344l2.409,10.192L230.614,230.661z"/>
						<path id="SvgjsPath3707" opacity="0.9" fill="#010202" enable-background="new    " d="M235.147,242.921
							c0,3.875-3.142,7.013-7.015,7.013c-3.872,0-7.012-3.14-7.012-7.013c0-3.872,3.142-7.014,7.015-7.014
							C232.007,235.907,235.147,239.046,235.147,242.921z"/>
						<path id="SvgjsPath3708" opacity="0.7" fill="#FFFFFF" enable-background="new    " d="M220.768,256.361
							c-1.032,1.032-3.072,0.669-4.552-0.815c-1.483-1.481-1.848-3.52-0.814-4.552c1.032-1.032,3.072-0.67,4.552,0.813
							C221.435,253.291,221.802,255.327,220.768,256.361z"/>
						<path id="SvgjsPath3709" opacity="0.9" fill="#FFFFFF" enable-background="new    " d="M243.114,239.238
							c-1.545,1.546-5.29,0.313-8.361-2.761c-3.072-3.072-4.308-6.815-2.762-8.362c1.547-1.546,5.29-0.313,8.362,2.762
							C243.425,233.948,244.658,237.694,243.114,239.238z"/>
					</g>
				</g>
			</g>
			<g id="svga-group-eyesfront-left">
				<path id="SvgjsPath3742" fill="#FACFBD" d="M162.256,220.133c0,30.382,18.226,55.006,40.706,55.006s40.706-24.624,40.706-55.006
					c0-30.384-18.226-55.01-40.706-55.01S162.256,189.75,162.256,220.133z M173.896,219.826c0.016,0.008,0.024,0.013,0.04,0.021
					c-1.021-1.837-0.972-3.689-0.442-4.465c21.618-21.715,44.016-18.075,56.661-2.897c1.545,3.021,2.193,6.302,1.926,9.557
					c-0.412,4.935-4.452,9.795-6.298,10.75c-5.195,2.687-10.86,4.273-16.605,4.599c-2.209,0.126-3.514,0.174-5.411,0
					c-3.761-0.345-6.92-1.128-10.672-2.669c-6.15-2.525-11.957-6.85-16.892-13.308c-0.073-0.092-0.178-0.147-0.291-0.149
					s-0.22,0.049-0.295,0.137l-0.196,0.237c-0.11,0.132-0.119,0.313-0.046,0.465C174.822,221.345,174.325,220.589,173.896,219.826z"
					/>
				
					<radialGradient id="SvgjsPath3743_1_" cx="10.4268" cy="475.9146" r="13.1273" fx="19.6565" fy="475.9402" gradientTransform="matrix(2.9994 0.0624 -0.0498 2.3994 200.8437 -928.1647)" gradientUnits="userSpaceOnUse">
					<stop  offset="0" style="stop-color:#F1B49A"/>
					<stop  offset="0.7" style="stop-color:#F1B49A;stop-opacity:0.3"/>
					<stop  offset="1" style="stop-color:#FACFBD;stop-opacity:0"/>
				</radialGradient>
				<path id="SvgjsPath3743" fill="url(#SvgjsPath3743_1_)" d="M170.831,215.916c0.05,18.835,16.824,34.015,37.489,33.92
					c20.659-0.108,37.373-15.45,37.32-34.287c-0.051-18.84-16.826-34.024-37.494-33.923
					C187.482,181.736,170.778,197.079,170.831,215.916z M173.896,219.826c0.016,0.008,0.024,0.013,0.04,0.021
					c-1.021-1.837-0.972-3.689-0.442-4.465c21.618-21.715,44.016-18.075,56.661-2.897c1.545,3.021,2.193,6.302,1.926,9.557
					c-0.412,4.935-4.452,9.795-6.298,10.75c-5.195,2.687-10.86,4.273-16.605,4.599c-2.209,0.126-3.514,0.174-5.411,0
					c-3.761-0.345-6.92-1.128-10.672-2.669c-6.15-2.525-11.957-6.85-16.892-13.308c-0.073-0.092-0.178-0.147-0.291-0.149
					s-0.22,0.049-0.295,0.137l-0.196,0.237c-0.11,0.132-0.119,0.313-0.046,0.465C174.822,221.345,174.325,220.589,173.896,219.826z"
					/>
				
					<radialGradient id="SvgjsPath3748_1_" cx="-10.3301" cy="488.6519" r="15.5918" gradientTransform="matrix(2.0961 -0.1113 -0.1101 -2.1276 278.1351 1274.7576)" gradientUnits="userSpaceOnUse">
					<stop  offset="0.9" style="stop-color:#010202;stop-opacity:0"/>
					<stop  offset="1" style="stop-color:#010202;stop-opacity:0.3"/>
				</radialGradient>
				<path id="SvgjsPath3748" fill="url(#SvgjsPath3748_1_)" d="M230.171,212.529c1.527,3.01,2.172,6.273,1.905,9.513
					c-0.411,4.935-4.451,9.795-6.297,10.75c-5.195,2.687-10.861,4.273-16.606,4.599c-2.209,0.126-3.514,0.174-5.411,0
					c-3.76-0.345-6.92-1.128-10.671-2.669c-6.15-2.525-11.957-6.85-16.892-13.308c-0.072-0.092-0.178-0.147-0.29-0.149
					c-0.113-0.002-0.22,0.049-0.295,0.137l-0.196,0.237c-0.11,0.132-0.119,0.313-0.046,0.465c-0.555-0.758-1.052-1.517-1.481-2.28
					c0.015,0.009,0.024,0.014,0.04,0.022c-1.021-1.837-0.973-3.689-0.442-4.465c11.167-11.217,22.538-15.655,32.67-15.246
					C215.697,200.926,224.171,205.535,230.171,212.529z"/>
				<path id="SvgjsPath3752" fill="#D27F5C" d="M235.351,205.272c-23.354-12.618-38.73-15.208-65.49,1.917
					C182.851,197.558,203.301,184.712,235.351,205.272z"/>
				<path id="SvgjsPath3753" fill="#2A1610" d="M223.605,234.082l1.8,0.483l-4.427,0.55l3.474,1.397c0,0-4.495-0.462-5.692-0.185
					c-14.692,3.408-29.762,0.446-38.244-8.117c-1.065-0.328-3.62,0.231-3.62,0.231l2.544-1.34c-0.746-1.387-2.123-1.094-6.57-0.887
					c2.091-0.674,4.242-1.322,4.071-1.835l-1.556-2.398c-0.099-0.152-0.083-0.351,0.035-0.486l0.196-0.225
					c0.073-0.086,0.18-0.134,0.293-0.132c0.114,0.002,0.22,0.053,0.29,0.141c13.587,16.892,33.753,18.593,49.58,10.813
					L223.605,234.082z M234.455,210.72c-2.227-2.158-3.854-3.31-6.174-4.53c1.702-0.711,4.085-1.129,4.085-1.129l-6.809-0.829
					c-13.398-7.332-21.865-7.889-35.945-3.067c-1.753,0.601-6.275-0.744-10.223-2.066l4.473,4.302
					c-2.737,0.083-4.856-0.66-7.791-1.23l4.841,2.771c-2.09,1.538-4.269,1.431-10.9,1.237l5.377,2.895
					c-2.348,0.89-3.347,0.605-6.562-0.104c1.076,1.109,2.024,1.897,3.296,2.558c-1.728,0.109-3.976,0.334-6.986-0.611
					c1.485,1.537,2.819,2.851,3.864,3.231l-2.354,0.969l3.335,1.229l-2.317,1.441c2.647,0.102,4.04,0.671,6.269,2.016
					c-1.021-1.745-0.972-3.508-0.442-4.242c23.044-21.995,46.977-16.617,59.033,0.237l-1.619-2.957l2.979,2.814l-2.733-3.812
					l2.464,1.312l-2.362-3.349L234.455,210.72z M229.606,232.026l1.843,0.187l-4.315,1.108l3.617,0.779c0,0-4.51,0.206-5.66,0.622
					c-14.121,5.106-29.419,4.522-38.899-2.024c-1.096-0.148-3.556,0.71-3.556,0.71l2.351-1.56c-0.914-1.147-2.241-0.693-6.619,0.11
					c1.986-0.897,4.035-1.78,3.8-2.219l-1.843-1.947c-0.118-0.124-0.127-0.305-0.027-0.442l0.166-0.23
					c0.061-0.087,0.161-0.146,0.273-0.159c0.113-0.014,0.224,0.017,0.305,0.087c15.585,13.349,35.772,12.09,50.466,2.885
					L229.606,232.026z M288.697,229.985c14.714,9.176,34.901,10.394,50.461-2.985c0.079-0.069,0.19-0.102,0.304-0.088
					c0.112,0.014,0.214,0.072,0.273,0.158l0.166,0.231c0.102,0.137,0.093,0.317-0.025,0.441l-1.838,1.951
					c-0.234,0.439,1.816,1.318,3.804,2.212c-4.38-0.795-5.708-1.247-6.618-0.098l2.353,1.555c0,0-2.46-0.854-3.556-0.703
					c-9.468,6.566-24.764,7.181-38.896,2.104c-1.151-0.414-5.661-0.61-5.661-0.61l3.614-0.788l-4.316-1.099l1.843-0.19
					L288.697,229.985z"/>
			</g>
		</g>
		<g id="svga-group-eyes-right">
			<g id="svga-group-eyesback-right">
				
					<radialGradient id="SvgjsPath3725_1_" cx="-2.8955" cy="480.9253" r="9.4182" gradientTransform="matrix(3.1776 0.0012 -0.0012 -3.1767 327.4257 1746.8318)" gradientUnits="userSpaceOnUse">
					<stop  offset="0" style="stop-color:#FFFFFF"/>
					<stop  offset="0.544" style="stop-color:#FEFFFF"/>
					<stop  offset="0.74" style="stop-color:#F7F9FA"/>
					<stop  offset="0.879" style="stop-color:#EAEFF2"/>
					<stop  offset="0.992" style="stop-color:#D9E3E8"/>
					<stop  offset="1" style="stop-color:#D8E2E7"/>
				</radialGradient>
				<path id="SvgjsPath3725" fill="url(#SvgjsPath3725_1_)" d="M346.85,215.382c-21.618-21.715-44.015-18.075-56.659-2.897
					c-1.545,3.021-2.195,6.302-1.926,9.557c0.411,4.935,4.451,9.795,6.297,10.75c5.195,2.687,10.861,4.273,16.605,4.599
					c2.209,0.126,3.515,0.174,5.411,0c3.761-0.345,6.919-1.128,10.671-2.669c6.15-2.525,11.957-6.85,16.892-13.308
					c0.073-0.092,0.18-0.147,0.291-0.149c0.112-0.002,0.221,0.049,0.295,0.137l0.196,0.237c0.109,0.132,0.118,0.313,0.046,0.465
					c0.555-0.758,1.052-1.517,1.481-2.28c-0.016,0.009-0.024,0.014-0.04,0.022C347.427,218.01,347.38,216.158,346.85,215.382z"/>
			</g>
			<g id="svga-group-eyesiriswrapper-right" transform="translate(0 -0.5)">
				<g id="svga-group-eyesiriscontrol-right" transform="translate(0 -9.999999961429751e-8)">
					<g id="svga-group-eyesiris-right" transform="matrix(0.84999948 0 0 0.84999948 18.750064999999992 13.049895321877742)">
						<radialGradient id="SvgjsPath3710_1_" cx="348.7388" cy="242.919" r="15.8975" gradientUnits="userSpaceOnUse">
							<stop  offset="0.4802" style="stop-color:#A1C518;stop-opacity:0.5"/>
							<stop  offset="0.703" style="stop-color:#213C1D;stop-opacity:0.9064"/>
							<stop  offset="0.9347" style="stop-color:#27150D"/>
						</radialGradient>
						<path id="SvgjsPath3710" fill="url(#SvgjsPath3710_1_)" stroke="#1E130C" stroke-width="0.5" d="M367.442,242.924
							c0,10.324-8.373,18.698-18.702,18.698s-18.703-8.374-18.703-18.698c0-10.334,8.374-18.708,18.703-18.708
							S367.442,232.589,367.442,242.924z"/>
						<path id="SvgjsPath3711" fill="#5D4734" d="M337.868,251.666c2.729-0.226,0.313-0.955,0.313-0.955
							c-1.349-0.726-3.891-1.844-3.891-2.872c0-3.215,4.406-4.048-0.105-5.315c-4.689-4.304,3.634-4.214,3.575-4.36
							c-3.04-7.406,0.931-3.34,2.6-5.526c6.197-8.102,1.728,0.832,5.092,0c1.222-0.3-2.429-4.773,0.106-4.146
							c1.68,0.41,2.065,1.807,2.065,1.807c1.226-0.24,3.142-2.125,3.142-2.125c2.335,0.703,3.973,4.022,3.251,3.402
							c1.147-0.139,2.755-0.689,4.007-1.063c0,0,0.221-0.745,0.431-0.102c2.861,8.296,10.237,7.7,1.741,10.098
							c0,0-0.547,0,1.193,1.38c8.449,6.744-6.552,4.658,1.404,7.761c0.326-0.324-4.768,3.008-4.768,3.929
							c0,1.565-3.25,5.669-6.066,4.053c-1.572-0.9-1.808,1.87-2.734,0.592c-1.812-2.505-5.431-0.108-4.091-2.409
							c1.975-1.621-2.037,0.634-2.816,0.634c-2.579,0,3.375-8.674,12.136-2.229c2.563,1.878-2.694-4.466,1.95-4.466
							c0.466,0.153,0.326-1.626,0.326-2.127c-2.414-0.471,4.334-0.009,4.334-3.933c0.425,0.084,1.588-1.091-5.095,0
							c0,0-0.213-2.341-0.105-2.763c0.342-1.363,3.787-0.928,2.815-2.339c-0.001-0.002-2.492-4.997-2.492-4.997
							c-8.02-1.291-3.436-2.098-8.45-1.063c-0.238,1.176-10.739,6.185-10.404,8.506c0.313,2.186,6.592,2.922,0.648,6.803
							C346.886,264.901,331.396,247.454,337.868,251.666z"/>
						<path id="SvgjsPath3712" fill="#4D3623" stroke="#3E2918" stroke-width="0.5" d="M348.74,226.555l0.533,13.69l5.73-12.445
							l-4.75,12.85l10.059-9.304l-9.305,10.056l12.853-4.746l-12.443,5.73l13.69,0.532l-13.69,0.533l12.443,5.73l-12.853-4.746
							l9.305,10.055l-10.059-9.303l4.75,12.849l-5.73-12.445l-0.533,13.693l-0.533-13.69l-5.731,12.445l4.745-12.849l-10.055,9.303
							l9.306-10.055l-12.856,4.746l12.441-5.73l-13.683-0.533l13.683-0.532l-12.441-5.73l12.856,4.746l-9.306-10.056l10.055,9.304
							l-4.745-12.85l5.731,12.445L348.74,226.555z"/>
						<path id="SvgjsPath3713" fill="#4D3623" stroke="#2D1C11" stroke-width="0.5" d="M351.222,230.661l-1.682,10.334l6.179-8.451
							l-5.502,8.905l8.942-5.446l-8.49,6.121l10.346-1.606l-10.192,2.405l10.179,2.475l-10.34-1.676l8.456,6.179l-8.912-5.501
							l5.448,8.94l-6.122-8.493l1.606,10.346l-2.404-10.192l-2.477,10.177l1.681-10.335l-6.188,8.451l5.514-8.905l-8.945,5.447
							l8.493-6.121l-10.346,1.606l10.19-2.408l-10.175-2.472l10.333,1.674l-8.454-6.178l8.911,5.502l-5.448-8.94l6.121,8.493
							l-1.606-10.346l2.41,10.192L351.222,230.661z"/>
						<path id="SvgjsPath3714" opacity="0.9" fill="#010202" enable-background="new    " d="M355.754,242.921
							c0,3.875-3.142,7.013-7.014,7.013c-3.873,0-7.015-3.138-7.015-7.013c0-3.872,3.142-7.014,7.015-7.014
							C352.612,235.907,355.754,239.046,355.754,242.921z"/>
						<path id="SvgjsPath3715" opacity="0.7" fill="#FFFFFF" enable-background="new    " d="M341.376,256.361
							c-1.034,1.032-3.072,0.669-4.552-0.812c-1.484-1.481-1.85-3.523-0.813-4.554c1.033-1.034,3.07-0.67,4.551,0.812
							C342.042,253.289,342.407,255.329,341.376,256.361z"/>
						<path id="SvgjsPath3716" opacity="0.9" fill="#FFFFFF" enable-background="new    " d="M363.722,239.238
							c-1.545,1.546-5.287,0.313-8.362-2.758c-3.071-3.072-4.306-6.818-2.762-8.362c1.546-1.548,5.292-0.313,8.359,2.76
							C364.03,233.948,365.269,237.694,363.722,239.238z"/>
					</g>
				</g>
			</g>
			<g id="svga-group-eyesfront-right">
				<path id="SvgjsPath3763" fill="#FACFBD" d="M317.379,165.123c-22.48,0-40.706,24.626-40.706,55.01
					c0,30.382,18.226,55.006,40.706,55.006s40.706-24.624,40.706-55.006C358.085,189.75,339.859,165.123,317.379,165.123z
					 M344.965,222.105c0.072-0.152,0.063-0.335-0.047-0.464l-0.195-0.238c-0.075-0.088-0.183-0.139-0.295-0.137
					c-0.112,0.003-0.218,0.058-0.291,0.15c-4.935,6.458-10.741,10.781-16.892,13.308c-3.752,1.542-6.911,2.323-10.672,2.669
					c-1.896,0.176-3.201,0.127-5.41,0c-5.746-0.326-11.411-1.913-16.606-4.599c-1.846-0.955-5.888-5.815-6.297-10.751
					c-0.269-3.255,0.38-6.535,1.925-9.556c12.646-15.179,35.043-18.815,56.661,2.897c0.53,0.774,0.578,2.627-0.442,4.464
					c0.016-0.009,0.023-0.013,0.04-0.021C346.016,220.589,345.519,221.345,344.965,222.105z"/>
				
					<radialGradient id="SvgjsPath3764_1_" cx="-68.9712" cy="477.979" r="13.1269" fx="-59.7417" fy="478.0047" gradientTransform="matrix(-2.9994 0.0624 0.0498 2.3994 81.2462 -928.1647)" gradientUnits="userSpaceOnUse">
					<stop  offset="0" style="stop-color:#F1B49A"/>
					<stop  offset="0.7" style="stop-color:#F1B49A;stop-opacity:0.3"/>
					<stop  offset="1" style="stop-color:#FACFBD;stop-opacity:0"/>
				</radialGradient>
				<path id="SvgjsPath3764" fill="url(#SvgjsPath3764_1_)" d="M312.194,181.625c-20.667-0.1-37.442,15.085-37.492,33.923
					c-0.054,18.834,16.66,34.177,37.319,34.287c20.665,0.095,37.438-15.085,37.488-33.92
					C349.563,197.079,332.858,181.736,312.194,181.625z M344.965,222.105c0.072-0.152,0.063-0.335-0.047-0.464l-0.195-0.238
					c-0.075-0.088-0.183-0.139-0.295-0.137c-0.112,0.003-0.218,0.058-0.291,0.15c-4.935,6.458-10.741,10.781-16.892,13.308
					c-3.752,1.542-6.911,2.323-10.672,2.669c-1.896,0.176-3.201,0.127-5.41,0c-5.746-0.326-11.411-1.913-16.606-4.599
					c-1.846-0.955-5.888-5.815-6.297-10.751c-0.269-3.255,0.38-6.535,1.925-9.556c12.646-15.179,35.043-18.815,56.661,2.897
					c0.53,0.774,0.578,2.627-0.442,4.464c0.016-0.009,0.023-0.013,0.04-0.021C346.016,220.589,345.519,221.345,344.965,222.105z"/>
				
					<radialGradient id="SvgjsPath3769_1_" cx="-123.6831" cy="494.5815" r="15.5919" gradientTransform="matrix(-2.0961 -0.1113 0.1101 -2.1276 3.9548 1274.7576)" gradientUnits="userSpaceOnUse">
					<stop  offset="0.9" style="stop-color:#010202;stop-opacity:0"/>
					<stop  offset="1" style="stop-color:#010202;stop-opacity:0.3"/>
				</radialGradient>
				<path id="SvgjsPath3769" fill="url(#SvgjsPath3769_1_)" d="M290.17,212.529c-1.527,3.01-2.172,6.273-1.905,9.513
					c0.411,4.935,4.451,9.795,6.297,10.75c5.195,2.687,10.861,4.273,16.605,4.599c2.209,0.126,3.515,0.174,5.411,0
					c3.761-0.345,6.919-1.128,10.671-2.669c6.15-2.525,11.957-6.85,16.893-13.308c0.072-0.092,0.179-0.147,0.29-0.149
					c0.112-0.002,0.221,0.049,0.295,0.137l0.196,0.237c0.109,0.132,0.118,0.313,0.046,0.465c0.555-0.758,1.052-1.517,1.481-2.28
					c-0.016,0.009-0.024,0.014-0.04,0.022c1.021-1.837,0.973-3.689,0.442-4.465c-11.167-11.217-22.538-15.655-32.671-15.246
					C304.644,200.926,296.17,205.535,290.17,212.529z"/>
				<path id="SvgjsPath3773" fill="#D27F5C" d="M284.989,205.272c23.354-12.618,38.731-15.208,65.491,1.917
					C337.489,197.558,317.04,184.712,284.989,205.272z"/>
				<path id="SvgjsPath3774" fill="#2A1610" d="M294.562,232.096c15.826,7.783,35.992,6.082,49.579-10.813
					c0.071-0.088,0.177-0.139,0.291-0.141c0.112-0.002,0.221,0.046,0.293,0.132l0.195,0.225c0.119,0.137,0.135,0.335,0.036,0.486
					l-1.556,2.398c-0.172,0.513,1.978,1.162,4.069,1.835c-4.446-0.206-5.823-0.499-6.569,0.887l2.544,1.34
					c0,0-2.553-0.559-3.619-0.23c-8.48,8.563-23.553,11.525-38.244,8.117c-1.197-0.277-5.692,0.185-5.692,0.185l3.474-1.397
					l-4.427-0.55l1.8-0.484L294.562,232.096z M289.484,209.621l-2.362,3.349l2.464-1.312l-2.732,3.812l2.979-2.814l-1.62,2.957
					c12.056-16.854,35.988-22.231,59.033-0.237c0.53,0.734,0.579,2.497-0.442,4.242c2.229-1.342,3.621-1.914,6.269-2.016
					l-2.317-1.44l3.336-1.23l-2.354-0.968c1.046-0.379,3.278-2.772,4.764-4.311c-3.011,0.945-6.158,1.8-7.886,1.689
					c1.272-0.658,4.978-2.744,6.053-3.855c-3.214,0.708-6.971,2.293-9.317,1.402l6.983-5.402c-6.632,0.193-10.417,2.808-12.507,1.27
					l7.007-4.27c-2.936,0.569-7.221,2.813-9.958,2.729l5.958-5.729c-3.707,1.241-9.225,3.759-11.337,3.568
					c-0.139-0.013-0.263-0.037-0.37-0.074c-2.406-0.824-4.648-1.49-6.779-1.993c-0.774-0.183-1.534-0.344-2.282-0.483
					c-7.468-1.389-17.049,0.163-26.883,5.544l-6.811,0.829c0,0,2.384,0.418,4.086,1.129c-2.318,1.219-3.946,2.37-6.174,4.531
					L289.484,209.621z M284.887,221.134l-0.246,3.874l1.238-2.094l-0.313,4.425l0.945-3.627l0.127,3.246
					c1.37-19.554,19.623-34.502,46.612-23.475c0.724,0.458,7.721,3.809,7.75,5.75c5.375,3.625,2.483-2.155-0.461-2.608l-2.367-0.421
					l-2.953-4.471l-2.183,0.017c0.604-0.73,1.187-3.701,1.598-5.63c-1.811,1.97-3.762,3.908-5.093,4.455
					c0.647-1.063,2.459-4.31,2.759-5.703c-2.068,1.834-4.144,4.651-6.285,4.732l2.753-7.432c-4.833,2.65-6.468,6.399-8.709,5.806
					l3.28-6.431c-1.923,1.606-4.094,5.211-6.163,6.158l1.846-7.342c-2.193,2.494-5.156,6.803-6.809,7.422
					c-0.109,0.041-0.213,0.065-0.309,0.071c0.633-0.047-1.63-0.07-5.928,0.754c-0.656,0.127-1.291,0.267-1.91,0.421
					c-7.622,1.918-12.359,6.136-17.457,14.997l-4.682,3.284c0,0,1.959-0.517,3.541-0.52c-1.172,1.956-1.864,3.591-2.545,6.354
					L284.887,221.134z M237.789,223.345c-0.681-2.763-1.373-4.397-2.545-6.354c1.582,0.003,3.541,0.52,3.541,0.52l-4.682-3.284
					c-5.098-8.861-9.835-13.079-17.457-14.997c-0.619-0.154-1.254-0.294-1.91-0.421c-4.298-0.824-6.561-0.801-5.928-0.754
					c-0.096-0.006-0.199-0.03-0.309-0.071c-1.652-0.619-4.615-4.928-6.809-7.422l1.846,7.342c-2.069-0.947-4.24-4.553-6.163-6.158
					l3.28,6.431c-2.241,0.593-3.876-3.156-8.709-5.806l2.753,7.432c-2.142-0.081-4.217-2.898-6.285-4.732
					c0.3,1.394,2.111,4.64,2.759,5.703c-1.331-0.547-3.282-2.485-5.093-4.455c0.411,1.929,0.993,4.899,1.598,5.63l-2.183-0.017
					l-2.953,4.471l-2.367,0.421c-2.944,0.453-5.836,6.233-0.461,2.608c0.029-1.941,7.026-5.292,7.75-5.75
					c26.989-11.027,45.242,3.921,46.612,23.475l0.127-3.246l0.945,3.627l-0.313-4.425l1.238,2.094l-0.246-3.874L237.789,223.345z"/>
			</g>
		</g>
		<g id="svga-group-facehighlight-single">
			
				<radialGradient id="SvgjsPath2753_1_" cx="-19.291" cy="462.5562" r="29.3629" gradientTransform="matrix(3 0 0 -3 318.0449 1665.1621)" gradientUnits="userSpaceOnUse">
				<stop  offset="0" style="stop-color:#FCE2D7;stop-opacity:0.5"/>
				<stop  offset="0.9" style="stop-color:#FACFBD;stop-opacity:0"/>
			</radialGradient>
			<path id="SvgjsPath2753" fill="url(#SvgjsPath2753_1_)" d="M348.632,277.358c0.077,49.012-39.595,88.815-88.613,88.884
				c-49.01,0.079-88.808-39.59-88.884-88.612c-0.075-49.01,39.595-88.807,88.613-88.884
				C308.761,188.67,348.561,228.34,348.632,277.358z"/>
			
				<radialGradient id="SvgjsPath2757_1_" cx="-19.2915" cy="503.6802" r="26.404" gradientTransform="matrix(3 0 0 -3 318.0449 1665.1621)" gradientUnits="userSpaceOnUse">
				<stop  offset="0" style="stop-color:#FCE2D7;stop-opacity:0.5"/>
				<stop  offset="0.9" style="stop-color:#FACFBD;stop-opacity:0"/>
			</radialGradient>
			<path id="SvgjsPath2757" fill="url(#SvgjsPath2757_1_)" d="M337.182,151.921c0,42.53-34.481,77.011-77.011,77.011
				c-42.53,0-77.012-34.481-77.012-77.011c0-42.53,34.482-77.011,77.012-77.011C302.7,74.91,337.182,109.391,337.182,151.921z"/>
		</g>
		<g id="svga-group-eyebrows-left">
			<path id="SvgjsPath3701" fill="#543C32" d="M159.728,193.72c21.438-33.257,80.292,11.328,83.652-2.62
				c0.658-2.797-0.896-4.434-3.441-5.483C209.968,173.501,170.3,163.321,159.728,193.72z"/>
		</g>
		<g id="svga-group-eyebrows-right">
			<path id="SvgjsPath3702" fill="#543C32" d="M360.613,193.72c-21.438-33.257-80.292,11.328-83.652-2.62
				c-0.657-2.797,0.896-4.434,3.441-5.483C310.373,173.501,350.041,163.321,360.613,193.72z"/>
		</g>
		<g id="svga-group-nose-single">
			<path id="SvgjsPath3073" fill="#F1B49A" d="M262.163,292.335c-0.884,0.954-1.605,0.838-2.438-0.154c0,0-10.605-6.771-9.259-9.876
				c2.128-4.912,21.42,0,21.42,0L262.163,292.335z"/>
			<path id="SvgjsPath3074" fill="#D27F5C" d="M247.824,277.92c0,0,10.863-28.063,11.808-34.069
				c1.791,9.749-4.219,31.448-4.676,35.878c-0.553,5.378,5.819,12.096,5.819,12.096c0.524,1.196,0.136,1.5-0.868,0.688l-11.172-7.38
				C246.091,283.122,246.091,281.206,247.824,277.92z M265.845,283.776c1.541,0.314,1.863,0.869,1.745,1.441
				c-0.118,0.581-0.778,1.375-2.169,0.648c-1.529-0.792-4.412-1.155-4.412-1.155S264.305,283.458,265.845,283.776z"/>
		</g>
		<g id="svga-group-hair-front">
			<path id="SvgjsPath3867" opacity="0.1" fill="#56352E" enable-background="new    " d="M138.015,70.04v424.003h87.206
				c-2.167-17.369-5.16-33.256-8.421-41.578c-17.018-43.203-76.286-54.448-65.963-111.318l0.409-0.079
				c11.356,24.802,16.721,39.135,43.175,43.509c-36.736-30.021-29.645-57.945-24.527-93.419c2.986-20.698-3.547-36.895-7.886-53.521
				c5.142-15.372,7.864-29.876,10.634-46.436c24.751-147.926,135.493-141.246,167.225-45.958
				c20.069,60.269,3.271,79.403,28.034,117.291c1.176,26.43,6.683,54.892-25.035,92.249c-6.971,8.209-17.29,16.804-26.401,22.547
				c33.109-2.936,51.28-34.594,62.267-65.965l0.403,0.128c-14.525,122.028-69.944,66.802-75.575,182.551h90.546V70.04H138.015z"/>
			<linearGradient id="SVGID_3_" gradientUnits="userSpaceOnUse" x1="237.0625" y1="10.9995" x2="262.8393" y2="565.6784">
				<stop  offset="0.6025" style="stop-color:#472620"/>
				<stop  offset="0.8465" style="stop-color:#D6AB4B;stop-opacity:0.9"/>
			</linearGradient>
			<path fill="url(#SVGID_3_)" d="M109.62,407.799c-1.459,28.029-1.556,30.402,3.893,48.787c13.975,47.17-6.475,44.715-2.329,99.397
				h116.043c0.959-30.264,2.786-85.287-4.052-102.727c-17.744-45.051-74.171-59.596-77.201-109.708l0.429-0.079
				c11.838,25.869,21.302,36.304,48.885,40.867c-38.303-31.302-30.431-55.559-29.447-92.911c0.583-21.79-3.694-38.467-8.221-55.805
				c5.362-16.022,8.225-31.144,11.092-48.414c11.659-70.369,51.281-124.334,90.279-86.336c0.002-0.002,0.494-0.695,0.494-0.695
				c0.213,0.294,0.186,0.25,0.445,0.664c33.377-37.227,65.552-6.016,83.13,38.449c24.365,61.589,3.411,82.792,29.224,122.298
				c1.231,27.562,2.62,55.812-30.448,94.767c-7.271,8.557-16.184,15.408-25.679,21.402c34.52-3.07,55.968-32.541,67.416-65.249
				l0.421,0.13c-33.405,127.44-95.631,33.047-79.05,227.613c0.432,5.309,1.061,11.36,1.57,15.733h15.746
				c0.724-0.548,1.637-0.916,2.739-1c28.24-2.155,56.506-1.077,84.774-0.403c-33.01-118.055,25.829-108.37,6.934-170.178
				c-17.147-56.082,29.772-74.773,0.4-128.724C444.555,69.052,354.556-3.695,270.634,16.981
				C178.067-5.565,107.417,41.718,96.574,170.384c-1.956,45.197,2.975,79.293,3.761,87.417
				c-6.212,12.785-10.126,26.661-11.737,40.996c-5.017,4.376-9.606,7.828-14.725,11.448c2.676-0.369,6.676-0.843,14.194-3.045
				C86.303,357.333,111.184,366.283,109.62,407.799z"/>
			<path fill="#472620" d="M200.773,48.23c-1.435,0.55-2.551,1.14-3.264,1.732C198.503,49.347,199.598,48.768,200.773,48.23z"/>
			<path fill="#472620" d="M262.971,74.293c-6.165-32.769-44.102-34.351-62.197-26.063
				C213.981,43.168,254.542,41.585,262.971,74.293z"/>
			<path fill="#472620" d="M198.83,56.708c18.153-4.678,52.839-1.148,63.414,26.362c-9.93-30.316-52.396-38.677-78.226-20.115
				C176.441,69.299,193.661,57.945,198.83,56.708z"/>
			<path fill="#472620" d="M336.558,56.999c2.051,1.43,3.666,2.731,4.293,3.249c-0.72-0.646-2.559-2.444-5.484-4.382
				c-25.397-16.885-65.459,2.473-74.588,33.185C271.397,58.953,312.197,40.833,336.558,56.999z"/>
			<path fill="#472620" d="M416.71,384.405c-3.454-11.294-9.171-26.069-9.171-26.069c4.273,48.007-3.198,64.696-12.286,84.708
				c-1.15-22.227,1.597-32.063,2.836-67.479c-11.301,22.45-29.233,76.06-38.62,108.027c-10.546-48.176,34.634-92.413,27.063-140.116
				c-1.081,10.955-4.115,23.563-5.345,28.48c-6.602,26.404-37.382,47.034-47.083,68.21c-18.098,36.197-6.034,76.069-5.535,114.579
				c27.053-1.81,54.129-0.81,81.208-0.164C376.767,436.528,435.607,446.212,416.71,384.405z"/>
			<path fill="#472620" d="M355.004,72.711c17.051,14.76,24.86,35.205,24.86,55.008c4.033,47.415,8.857,94.445,37.372,128.208
				c-0.046-0.083-0.084-0.163-0.13-0.247c0.392-2.655,1.329-9.793,1.672-12.404c-12.707-15.051-25.03-41.281-28.789-69.351
				C385.278,138.761,390.144,98.081,355.004,72.711z"/>
			<path fill="#472620" d="M365.275,63.389c-39.405-55.169-91.228-35.848-103.755-5.12
				C277.927,23.983,330.554,16.922,365.275,63.389z"/>
			<path fill="#472620" d="M110.724,407.799c-1.459,28.029-2.656,30.402,2.79,48.787c13.976,47.17-6.474,44.715-2.329,99.397h75.545
				c4.804-50.122,9.322-84.304-17.469-125.945c-15.116-23.493-46.715-47.734-42.907-88.863
				c-3.047-10.662,18.888-34.527,11.807-67.627c-1.461,22.342-13.008,39.45-18.813,58.802
				c-8.799,74.556,60.038,86.64,30.804,162.824c0-28.604-5.868-42.768-16.87-69.172c0,35.206,14.669,58.17-2.933,93.375
				c0,0,6.075-25.887,0.572-38.325c-18.44-55.689-4.006-77.685-18.174-113.497c-6.209-16.825-18.007-30.981-23.833-60.941
				c38.289-12.746,57.063-44.09,64.646-60.762c19.645,50.588-21.48,97.196,37.812,137.757c1.273,0.253,2.554,0.504,3.914,0.73
				c-38.303-31.302-31.091-55.559-30.107-92.911c0.56-20.964-3.599-38.068-7.93-54.715c0.155-0.444,0.279-0.813,0.37-1.088
				c5.362-16.022,8.225-31.143,11.092-48.413c11.574-69.852,50.7-123.524,89.422-87.142c-12.453-13.03-19.687-19.013-37.002-15.477
				c-15.695,3.204-32.479,20.311-41.637,35.958c-14.229,24.31-16.469,62.204-27.84,102.792c-9.682,34.561-30.8,67.267-74.107,86.361
				c3.942-0.838,7.7-1.872,11.292-3.064C90.489,349.71,112.109,371.007,110.724,407.799z"/>
			<path fill="#311713" d="M259.485,100.18c0.213,0.295,0.186,0.251,0.445,0.665c33.377-37.227,65.552-6.016,83.13,38.448
				c24.365,61.589,3.411,82.792,29.224,122.299c5.866,52.026-15.566,90.563-56.127,116.168
				c33.584-15.552,62.047-40.729,66.394-102.863l0.875,0.438c12.001,15.689,19.66,63.024,12.602,88.337
				c31.196-75.014-10.969-81.923-23.214-130.438c-13.166-52.174-13.19-144.053-59.836-153.921
				c-18.898-3.998-34.696-0.158-46.564,10.921c22.528-23.307,46.348-23.511,61.529-14.439c13.62,8.139,23.2,22.322,29.802,37.725
				c15.552,39.909,12.658,76.542,30.261,116.148c11.002,26.403,26.51,48.729,27.319,72.232c-0.711,9.79-6.693,33.185-10.058,41.675
				c2.135-4.914,13.517-26.828,13.517-39.798c-0.003-15.117-3.564-34.957-12.021-48.799
				c-25.218-41.278-24.052-90.658-40.977-142.661c-9.81-30.136-52.844-85.994-105.013-15.9c-0.564,0.724-1.117,1.466-1.657,2.231
				c-8.006-33.406-45.484-41.173-67.156-30.337c-55.008,33.005-41.485,95.654-54.687,145.222
				c-7.015,26.338-25.416,50.141-45.428,67.646c-1.34,5.245-2.352,10.59-3.03,16.012c84-54.014,50.865-161.818,85.98-201.011
				c25.245-28.176,55.354-38.912,83.98,2.96c-0.214,0.309-0.431,0.614-0.642,0.93c0.285,0.269,0.571,0.526,0.857,0.805
				C258.993,100.874,259.485,100.18,259.485,100.18z"/>
			<path fill="#472620" d="M306.511,555.984h10.841c-9.385-131.699,3.625-128.891,45.579-171.645
				c20.179-20.564,28.972-65.942,25.015-95.68c-1.798,8.819-3.243,17.764-5.338,26.527c0.328-0.889,0.651-1.782,0.964-2.677
				l0.42,0.129c-33.407,127.44-95.632,33.047-79.051,227.613C305.372,545.56,306.001,551.611,306.511,555.984z"/>
			<path fill="#472620" d="M211.363,555.984h15.858c0.959-30.264,2.786-85.284-4.051-102.724
				c-17.053-43.298-96.929-68.921-73.443-137.811c-21.319,28.811-10.1,53.094,3.692,68.89
				C228.184,478.115,209.465,491.367,211.363,555.984z"/>
			<path fill="#472620" d="M205.624,32.626c18.401-3.723,42.646-1.917,54.449,13.688c-18.39-26.731-84.036-26.673-113.721,25.824
				C153.219,61.284,171.3,39.399,205.624,32.626z"/>
			<path fill="#472620" d="M99.923,258.705c52.86-81.323,30.626-124.95,50.231-168.391c4.401-11.001,13.71-18.848,24.204-30.805
				c-17.79,15.024-30.804,28.604-35.205,52.808c-9.129,45.644-12.225,94.299-40.658,128.404c0.806,8.377,1.569,14.276,1.842,17.08
				C100.191,258.1,100.063,258.406,99.923,258.705z"/>
			<path fill="#472620" d="M336.997,46.455c-30.131-18.736-60.531-3.294-73.289,27.209c17.693-37.493,55.361-40.515,74.418-26.078
				C345.805,53.399,342.704,50.77,336.997,46.455z"/>
			<path fill="#472620" d="M143.813,76.925c0.813-1.644,1.662-3.236,2.54-4.787C142.936,77.539,142.292,80.211,143.813,76.925z"/>
			<path id="SvgjsPath3871" opacity="0.7" fill="#76431F" d="M159.587,47.177c-13.341,12.75-18.142,17.869-28.017,34.976
				c-25.491,40.385-26.6,156.646-25.159,113C108.355,131.577,113.246,87.951,159.587,47.177z M128.516,130.541
				c-2.618,23.785,4.693-21.269,8.755-31.051c15.249-36.008,60.667-75.143,103.152-55.827c8.365,3.82,14.238,8.209,16.924,10.022
				C198.39,8.473,136.041,61.827,128.516,130.541z M348.238,53.683c10.144,10.011,18.247,19.191,18.148,19.079
				c-8.509-7.787-46.746-75.585-103.589-7.087C289.578,36.208,319.173,26.469,348.238,53.683z M240.957,68.562
				c13.092,9.134,25.214,25.682,23.563,23.482c-0.553-0.64-3.538-4.823-8.218-10.548c-49.911-60.738-106.149,10.674-111.104,63.832
				C153.322,91.722,201.373,41.275,240.957,68.562z M366.768,105.941c2.011,5.336,3.058,8.651,2.873,7.987
				c-0.246-0.643-1.317-4.684-3.34-10.354c-17.12-48.966-64.085-59.726-106.249-9.29C303.079,47.28,346.777,55.701,366.768,105.941z
				 M415.798,224.923c-0.019-0.86,0.477-6.06,0.594-13.603c1.012-48.625-9.968-128.184-48.89-158.212
				C418.077,97.562,415.575,227.689,415.798,224.923z M393.497,269.94c2.511,3.151,4.044,5.05,3.744,4.669
				c-15.364-26.391-9.998,3.271-32.986-96.284C372.845,222.4,371.976,243.056,393.497,269.94z M128.644,271.174
				c-8.163,8.313-4.486,4.926,1.521-1.179c31.526-38.665,24.809-53.935,33.273-101.088
				C156.621,200.053,155.726,243.168,128.644,271.174z M216.641,83.588c3.171-0.946,5.101-1.523,4.718-1.417
				c-8.859,3.105-44.737,8.969-53.204,59.847C175.609,109.534,194.508,90.563,216.641,83.588z M355.777,132.212
				c6.121,18.65-4.024-18.388-10.287-29.92c-11.745-22.639-27.478-26.487-50.944-25.623
				C332.834,74.967,343.468,96.299,355.777,132.212z M115.552,363.817c4.557,24.859,25.104,56.414,33.183,83.767
				c3.937,13.065,4.125,13.629-0.247-2.874c-13.889-43.789-60.307-54.356-22.514-152.646
				C125.975,292.064,106.563,329.168,115.552,363.817z M367.511,445.191c-0.847,5.759-1.335,9.249-1.221,8.56
				c19.813-86.134,30.776-58.524,25.871-145.08C392.21,405.436,381.18,363.118,367.511,445.191z M141.443,322.44
				c-19.372,45.584,11.798,63.699,49.523,116.646c8.563,14.137,5.688,9.343,3.626,5.477c-25.302-47.221-68.417-75.251-52.61-118.106
				c5.243-14.142,8.755-20.527,7.001-49.136C149.298,297.07,148.46,305.916,141.443,322.44z M155.497,291.846
				c-0.203,28.041-14.41,47.846,15.085,77.691c8.964,6.991-6.449-7.378-8.925-11.791c-4.812-8.533-8.403-18.859-7.415-28.734
				c1.503-30.604,2.852-3.057,2.007-66.008C155.463,285.685,156.157,270.809,155.497,291.846z M354.058,352.808
				c-3.676,4.727-10.353,9.49-12.33,13.53c-0.471,0.852,1.192-1.877,3.837-4.354c38.632-37.063,30.188-61.158,37.397-76.485
				C375.628,301.075,381.057,317.199,354.058,352.808z M318.543,441.359c-6.077,24.753-2.339,33.416-2.339,33.416
				c-0.407-2.2-0.709-3.48-0.709-7.415c4.527-68.945,55.552-57.178,69.523-132.341C372.732,396.33,330.332,396.239,318.543,441.359z
				"/>
			<path fill="#27100D" d="M327.582,554.81c0.384-0.026,0.767-0.051,1.149-0.077c-1.16-50.41-4.563-64.915-1.961-87.626
				c6.273-55.146,52.842-50.848,59.758-123.635c-8.838,76.708-62.717,66.84-63.873,134.46
				C322.595,481.606,326.311,536.346,327.582,554.81z"/>
			
				<linearGradient id="SVGID_4_" gradientUnits="userSpaceOnUse" x1="154.9092" y1="125.9072" x2="103.904" y2="338.302" gradientTransform="matrix(-1 0 0 1 517.8916 0)">
				<stop  offset="0.6025" style="stop-color:#472620"/>
				<stop  offset="0.8465" style="stop-color:#D6AB4B;stop-opacity:0.9"/>
			</linearGradient>
			<path fill="url(#SVGID_4_)" stroke="#27100D" stroke-miterlimit="10" d="M366.667,57.652c0,0,14.544,14.971,24.667,39.333
				c10.795,25.981,14.056,85.515,14.056,85.515s3.108,29.245,4.351,43.229c1.243,13.988,7.458,39.418,16.159,49.59
				c8.7,10.17,18.454,17.01,27.155,19.553c8.7,2.543,37.64,2.666,32.667,2.666c-15.141,0-30.919-11.092-32.477-12.049
				c-3.722-2.283-24.482-13.582-32.856-50.617c0,0-4.313-48.712-6.313-68.712c-1.901-19.017-12.741-57.174-12.741-57.174
				s-9.17-38.39-48.945-71.448s-72,14-72,14c-4.972,5.722-12,19.333-12,19.333s-2.508,3.399,3.382-4.074
				C271.771,66.798,323.43-1.73,366.667,57.652z"/>
			
				<linearGradient id="SVGID_5_" gradientUnits="userSpaceOnUse" x1="164.2881" y1="148.6919" x2="40.5528" y2="366.4171" gradientTransform="matrix(-1 0 0 1 517.8916 0)">
				<stop  offset="0.6025" style="stop-color:#472620"/>
				<stop  offset="0.8465" style="stop-color:#942014;stop-opacity:0.9"/>
			</linearGradient>
			<path fill="url(#SVGID_5_)" stroke="#27100D" stroke-miterlimit="10" d="M373.473,85.323c0,0,16.676,17.164,28.281,45.095
				c12.376,29.787,16.114,98.042,16.114,98.042s3.563,33.527,4.987,49.561c1.426,16.037,8.551,45.191,18.527,56.854
				c9.974,11.66,21.157,19.501,31.133,22.417c9.974,2.916,43.152,3.057,37.451,3.057c-17.358,0-35.447-12.717-37.233-13.813
				c-4.267-2.619-28.069-15.572-37.669-58.032c0,0-4.945-55.849-7.238-78.777c-2.181-21.803-14.608-65.549-14.608-65.549
				s-10.512-44.013-56.114-81.913c-45.602-37.901-82.546,16.051-82.546,16.051c-5.7,6.56-13.758,22.165-13.758,22.165
				s-2.876,3.897,3.877-4.67C264.677,95.808,323.903,17.243,373.473,85.323z"/>
			
				<linearGradient id="SVGID_6_" gradientUnits="userSpaceOnUse" x1="154.5899" y1="153.4253" x2="50.7233" y2="345.5833" gradientTransform="matrix(1 0 0 1 -5.0752 0)">
				<stop  offset="0.6025" style="stop-color:#472620"/>
				<stop  offset="0.8465" style="stop-color:#D6AB4B;stop-opacity:0.9"/>
			</linearGradient>
			<path fill="url(#SVGID_6_)" stroke="#27100D" stroke-miterlimit="10" d="M156.149,51.985c0,0-14.544,14.971-24.667,39.333
				c-10.795,25.981-14.056,85.516-14.056,85.516s-3.108,29.244-4.351,43.229c-1.243,13.988-7.458,39.418-16.159,49.59
				c-8.7,10.17-18.454,17.01-27.155,19.553c-8.7,2.543-37.64,2.666-32.667,2.666c15.141,0,30.919-11.092,32.477-12.049
				c3.722-2.283,24.482-13.582,32.856-50.617c0,0,4.313-48.713,6.313-68.713c1.901-19.017,12.741-57.174,12.741-57.174
				s9.17-38.39,48.945-71.448s72,14,72,14c4.972,5.722,12,19.333,12,19.333s2.508,3.399-3.382-4.074
				C251.046,61.131,199.387-7.397,156.149,51.985z"/>
			
				<linearGradient id="SVGID_7_" gradientUnits="userSpaceOnUse" x1="160.1387" y1="165.2935" x2="49.8335" y2="386.2099" gradientTransform="matrix(1 0 0 1 -5.0752 0)">
				<stop  offset="0.6025" style="stop-color:#472620"/>
				<stop  offset="0.8465" style="stop-color:#D6AB4B;stop-opacity:0.9"/>
			</linearGradient>
			<path fill="url(#SVGID_7_)" stroke="#27100D" stroke-miterlimit="10" d="M145.595,77.145c0,0-16.441,16.923-27.884,44.464
				c-12.203,29.37-15.889,96.669-15.889,96.669s-3.513,33.058-4.917,48.866c-1.406,15.813-8.431,44.56-18.267,56.059
				c-9.835,11.495-20.861,19.228-30.697,22.103c-9.835,2.874-42.549,3.014-36.927,3.014c17.115,0,34.951-12.538,36.712-13.621
				c4.207-2.58,27.676-15.353,37.142-57.219c0,0,4.876-55.066,7.137-77.675c2.15-21.497,14.403-64.631,14.403-64.631
				s10.366-43.396,55.329-80.767c44.963-37.37,81.391,15.826,81.391,15.826c5.62,6.469,13.565,21.855,13.565,21.855
				s2.835,3.843-3.822-4.605C252.869,87.483,194.471,10.017,145.595,77.145z"/>
			
				<linearGradient id="SVGID_8_" gradientUnits="userSpaceOnUse" x1="165.1323" y1="133.4565" x2="-2.1651" y2="299.446" gradientTransform="matrix(1 0 0 1 -5.0752 0)">
				<stop  offset="0.6025" style="stop-color:#472620"/>
				<stop  offset="0.8465" style="stop-color:#942014;stop-opacity:0.9"/>
			</linearGradient>
			<path fill="url(#SVGID_8_)" stroke="#27100D" stroke-miterlimit="10" d="M148.685,62.502c0,0-15.691,16.152-26.613,42.438
				c-11.647,28.032-15.165,92.264-15.165,92.264s-3.354,31.552-4.694,46.64c-1.341,15.093-8.046,42.529-17.435,53.504
				c-9.387,10.972-19.91,18.352-29.298,21.096c-9.387,2.743-40.61,2.876-35.245,2.876c16.335,0,33.359-11.967,35.04-13
				c4.015-2.463,26.415-14.653,35.449-54.611c0,0,4.654-52.558,6.812-74.136c2.052-20.518,13.747-61.686,13.747-61.686
				s9.894-41.419,52.808-77.086s77.682,15.104,77.682,15.104c5.364,6.174,12.947,20.859,12.947,20.859s2.706,3.668-3.648-4.395
				C251.07,72.369,195.334-1.567,148.685,62.502z"/>
			
				<linearGradient id="SVGID_9_" gradientUnits="userSpaceOnUse" x1="156.1094" y1="151.9702" x2="82.6925" y2="378.0614" gradientTransform="matrix(-1 0 0 1 517.8916 0)">
				<stop  offset="0.3473" style="stop-color:#472620"/>
				<stop  offset="0.6025" style="stop-color:#472620"/>
				<stop  offset="0.8465" style="stop-color:#D6AB4B;stop-opacity:0.9"/>
			</linearGradient>
			<path fill="url(#SVGID_9_)" stroke="#27100D" stroke-miterlimit="10" d="M369.387,72.133c0,0,15.828,16.292,26.845,42.805
				c11.747,28.274,15.296,93.063,15.296,93.063s3.383,31.826,4.734,47.045c1.354,15.223,8.116,42.896,17.586,53.967
				c9.468,11.066,20.083,18.51,29.552,21.277c9.468,2.768,40.962,2.902,35.55,2.902c-16.477,0-33.647-12.072-35.343-13.113
				c-4.05-2.484-26.644-14.781-35.756-55.084c0,0-4.694-53.014-6.871-74.778c-2.069-20.695-13.866-62.22-13.866-62.22
				s-9.979-41.778-53.265-77.754s-78.354,15.236-78.354,15.236c-5.411,6.227-13.06,21.04-13.06,21.04s-2.729,3.7,3.681-4.433
				C266.115,82.086,322.334,7.51,369.387,72.133z"/>
			<path fill="#27100D" d="M103.111,372.013c13.849,32.756,0.339,46.816,7.459,74.965c2.729,10.672,6.843,21.189,7.812,32.213
				c1.996,22.712-11.04,35.117-7.474,76.793h0.717c-0.991-16.693-1.286-21.395,1.892-36.134c2.817-13.115,7.899-26.667,7.107-40.201
				c-0.858-14.104-6.842-27.263-8.559-41.234c-1.65-13.51,1.1-27.086,1.167-40.618c0.18-26.873-22.382-46.063-21.145-91.6
				c17.832-5.914,33.792-16.758,46.075-32.652c2.018,46.755-12.262,43.848-14.258,70.058c-3.325,44.121,48.79,78.483,61.037,123.417
				c3.927,14.302,4.409,67.917,4.392,88.965h0.597c3.568-100.18-1.176-104.125-36.563-150.66
				c-49.729-65.116-16.608-76.358-14.39-110.589c0.462-7.194,0-14.434-0.462-21.65c4.73-6.205,8.735-12.894,12.124-19.913
				c1.749,29.198,2.042,29.539,1.826,35.029c-1.379,37.749-32.51,62.207,27.042,118.507c47.581,45.02,46.205,41.189,47.28,149.276
				h0.665c0.899-27.544,2.878-85.084-4.071-102.803c-17.758-45.09-74.16-59.625-77.187-109.643c0.71,2.2,7.485,17.187,15.248,25.194
				c9.84,10.171,20.784,13.89,34.655,15.952c-39.457-28.79-30.866-61.858-30.035-93.25c0.579-21.658-3.597-38.143-8.229-55.866
				c9.433-27.313,10.769-53.688,16.283-74.459c12.566-47.435,49.146-96.548,84.908-59.893c0.014-0.037,0.44-0.629,0.463-0.66
				c0.017,0.024,0.413,0.64,0.417,0.66c29.494-37.046,64.124-9.472,82.953,38.154c24.268,61.349,3.482,82.917,29.242,122.338
				c1.08,25.941,3.084,55.02-30.432,94.504c-7.406,8.714-18.478,17.239-26.403,21.827c34.457-1.861,57.074-32.77,68.519-65.46
				c-34.136,127.437-95.58,33.705-79.058,227.688c0.459,5.626,1.086,11.552,1.57,15.716h0.589
				c-16.116-173.914,30.963-140.266,61.872-195.173c10.87-19.241,19.146-49.621,19.275-76.835
				c18.064,25.645,16.909,38.573,10.495,72.212c11.847-18.683,21.543-49.573,14.324-72.346
				c-2.407-9.669-10.555-26.116-13.752-32.742c-23.852-49.372-19.727-52.015-28.604-99.74
				c-16.291-88.656-73.191-103.77-110.874-51.333c-38.62-61.508-99.776-18.036-107.992,55.888
				c-2.979,27.165-0.561,84.643-58.639,138.665c4.194-32.983,19.207-49.226,30.254-75.295c27.832-65.427,3.992-111.1,41.036-148.148
				c-40.259,40.068-11.923,88.286-49.111,158.846c-4.269,8.075-9.021,15.931-13.202,24.069
				c-12.88-141.215,36.051-266.264,166.323-235.5c89.736-22.728,141.218,55.98,148.742,149.16
				c3.237,40.072-0.546,76.109-1.188,85.307c-6.314-10.76-13.884-20.837-18.351-32.587c-26.131-68.951-3.424-114.549-42.511-148.038
				c39.868,35.964,14.27,92.194,43.545,157.565c5.75,10.775,12.769,20.664,17.955,31.597c21.103,44.493-16.721,69.955-6.821,111.931
				c2.86,12.102,8.14,23.258,8.205,35.909c-3.109,35.665-37.804,51.585-8.465,145.178c0.178,0.004,0.355,0.008,0.534,0.012
				c-24.628-83.609,0.875-104.654,9.343-134.077c7.356-25.647-7.787-39.369-6.843-60.355c2.374-42.937,28.696-58.062,4.905-104.513
				c26.556-188.868-63.699-259.54-146.649-238.87c-140.005-33.456-187.473,89.54-170.548,240.936
				c-6.28,12.927-10.186,26.915-11.684,40.929c-5.876,5.124-13.268,10.549-15.468,11.948c5.019-0.564,9.884-1.622,14.852-3.081
				C86.842,336.076,95.313,353.546,103.111,372.013z M319.799,376.612c5.545-3.389,10.913-7.104,15.601-11.552
				c34.794-33.077,40.726-62.166,37.712-101.809c4.528,6.792,9.519,13.19,14.348,19.913
				C387.459,319.139,358.373,370.988,319.799,376.612z M368.314,158.009c9.64,63.884,11.965,59.766,33.379,104.251
				c9.593,19.775,22.696,45.666-2.047,90.939c17.007-78.21-31.841-68.707-38.087-131.117c-2.191-22.907-1.387-63.812-28.297-107.045
				c-19.262-31.042-47.602-45.036-73.204-14.302c-0.089-0.176-0.198-0.352-0.312-0.528
				C294.444,53.116,353.075,57.241,368.314,158.009z M164.256,279.973c0.119,32.171-13.928,74.23,28.978,103.569
				c-25.497-4.574-36.045-18.416-47.131-41.94c-0.625-12.812,4.227-26.633,6.513-39.319c2.297-12.652,0.882-23.975-1.518-50.011
				c2.464-5.172,4.599-10.496,6.469-15.931C161.021,250.731,164.19,265.275,164.256,279.973z M76.375,309.238
				c92.055-59.868,69.814-147.615,85.967-188.722c15.937-40.561,60.795-74.8,97.034-20.133c-0.133,0.176-0.24,0.33-0.352,0.506
				c-38.187-40.321-79.45,19.649-89.618,69.002c-9.879,48.137-15.213,113.225-77.275,135.122c-0.002-0.003-4.249,1.384-4.249,1.43
				C84.12,307.607,80.27,308.555,76.375,309.238z"/>
		</g>
		<g id="svga-group-glasses-single">
			<linearGradient id="SvgjsPath3807_1_" gradientUnits="userSpaceOnUse" x1="147.3682" y1="234.5679" x2="368.957" y2="234.5679">
				<stop  offset="0.0693" style="stop-color:#150C0C"/>
				<stop  offset="0.3649" style="stop-color:#472620"/>
				<stop  offset="0.8762" style="stop-color:#010202"/>
			</linearGradient>
			<path id="SvgjsPath3807" opacity="0.1" fill="url(#SvgjsPath3807_1_)" enable-background="new    " d="M368.957,218.188
				c-0.159,10.282-5.364,21.124-12.047,29.796c-6.5,8.434-23.434,11.438-35.96,11.438c-10.228,0-19.342-1.83-25.047-5.032
				c-10.753-6.047-22.3-21.104-24.847-35.466C294.175,206.77,341.84,206.77,368.957,218.188z M147.381,216.794
				c-0.318,10.701,5.069,22.14,12.047,31.189c6.501,8.434,23.435,11.438,35.959,11.438c10.229,0,19.344-1.83,25.049-5.032
				c10.433-5.868,21.594-20.209,24.571-34.173C220.438,207.605,173.158,206.233,147.381,216.794z"/>
			<linearGradient id="SvgjsPath3808_1_" gradientUnits="userSpaceOnUse" x1="147.3814" y1="205.1885" x2="368.9619" y2="205.1885">
				<stop  offset="0.0693" style="stop-color:#150C0C"/>
				<stop  offset="0.3649" style="stop-color:#472620"/>
				<stop  offset="0.8762" style="stop-color:#010202"/>
			</linearGradient>
			<path id="SvgjsPath3808" opacity="0.1" fill="url(#SvgjsPath3808_1_)" enable-background="new    " d="M368.957,218.188
				c-27.117-11.398-74.782-11.418-97.876,0.716c-0.388-2.188-0.568-4.356-0.524-6.484c0.5-16.411,27.323-22.238,50.144-22.238
				c16.094,0,35.096,2.923,41.234,9.428C367.071,205.079,369.071,211.503,368.957,218.188z M195.639,190.181
				c-16.093,0-35.096,2.923-41.234,9.428c-4.773,5.072-6.841,11-7.023,17.186c25.8-10.562,73.056-9.189,97.606,3.401
				c0.567-2.625,0.863-5.23,0.772-7.776C245.259,196.008,218.437,190.181,195.639,190.181z"/>
			<linearGradient id="SvgjsPath3809_1_" gradientUnits="userSpaceOnUse" x1="133.1504" y1="224.7886" x2="383.2324" y2="224.7886">
				<stop  offset="0.0495" style="stop-color:#150C0C"/>
				<stop  offset="0.1089" style="stop-color:#865F13;stop-opacity:0.7569"/>
				<stop  offset="0.1881" style="stop-color:#A57213;stop-opacity:0.7"/>
				<stop  offset="0.2673" style="stop-color:#593B12;stop-opacity:0.6"/>
				<stop  offset="0.3416" style="stop-color:#21100E"/>
				<stop  offset="0.4243" style="stop-color:#472620"/>
				<stop  offset="0.4372" style="stop-color:#4B291F;stop-opacity:0.9216"/>
				<stop  offset="0.4588" style="stop-color:#562F1C;stop-opacity:0.7905"/>
				<stop  offset="0.4862" style="stop-color:#673911;stop-opacity:0.6236"/>
				<stop  offset="0.4901" style="stop-color:#693A0E;stop-opacity:0.6"/>
				<stop  offset="0.5065" style="stop-color:#563213;stop-opacity:0.6579"/>
				<stop  offset="0.5288" style="stop-color:#412713;stop-opacity:0.7366"/>
				<stop  offset="0.5488" style="stop-color:#352112;stop-opacity:0.8072"/>
				<stop  offset="0.5644" style="stop-color:#301E11;stop-opacity:0.8623"/>
				<stop  offset="0.6436" style="stop-color:#301E11;stop-opacity:0.8871"/>
				<stop  offset="0.6558" style="stop-color:#332112;stop-opacity:0.8473"/>
				<stop  offset="0.6701" style="stop-color:#3D2815;stop-opacity:0.8007"/>
				<stop  offset="0.6855" style="stop-color:#4F3517;stop-opacity:0.7506"/>
				<stop  offset="0.7015" style="stop-color:#694715;stop-opacity:0.6983"/>
				<stop  offset="0.7079" style="stop-color:#754F11;stop-opacity:0.6775"/>
				<stop  offset="0.7139" style="stop-color:#805712;stop-opacity:0.6677"/>
				<stop  offset="0.7284" style="stop-color:#966713;stop-opacity:0.6441"/>
				<stop  offset="0.7443" style="stop-color:#A87412;stop-opacity:0.6182"/>
				<stop  offset="0.7621" style="stop-color:#B47E11;stop-opacity:0.5892"/>
				<stop  offset="0.7833" style="stop-color:#BC8410;stop-opacity:0.5546"/>
				<stop  offset="0.8168" style="stop-color:#BE860F;stop-opacity:0.5"/>
				<stop  offset="0.901" style="stop-color:#423116;stop-opacity:0.8"/>
				<stop  offset="0.9703" style="stop-color:#010202;stop-opacity:0.7"/>
			</linearGradient>
			<path id="SvgjsPath3809" fill="url(#SvgjsPath3809_1_)" d="M382.005,196.069c-1.364-4.794-63.667-14.481-96.013-4.754
				c-7.818,2.347-13.23,4.436-16.457,7.398v-0.039c-1.137,1.75-3.979,2.347-6.001,1.691c-3.638-1.214-7.319-1.154-10.729,0
				c-2,0.676-4.865,0.059-6.001-1.691v0.039c-3.229-2.963-8.616-5.032-16.457-7.398c-32.345-9.727-94.649-0.021-96.014,4.754
				c-0.522,1.889-1.227,12.054-1.182,15.693s2.637,3.362,6.524,4.953c1.5,0.617,4.637,5.311,4.933,7.24
				c1.431,9.03,5.546,17.405,11.956,25.719c10.957,14.202,49.348,16.45,65.714,7.24c11.32-6.365,23.049-21.343,26.162-36.241
				c0.614-2.963,1.183-5.271,1.614-7.26l0.023,0.1c0.818-2.447,4.479-3.641,8.114-3.7c3.637,0.06,7.296,1.253,8.114,3.7l0.023-0.1
				c0.409,1.988,1.001,4.297,1.614,7.26c3.112,14.898,14.842,29.876,26.161,36.241c16.366,9.21,54.76,6.962,65.715-7.24
				c6.41-8.313,10.523-16.688,11.956-25.719c0.296-1.949,3.432-6.644,4.933-7.24c3.886-1.591,6.501-1.293,6.523-4.953
				C383.232,208.123,382.527,197.939,382.005,196.069z M219.801,253.534c-14.502,8.154-50.053,6.046-59.44-6.106
				c-10.683-13.884-17.775-33.695-5.092-47.182c12.229-12.989,88.512-14.561,89.354,12.193
				C245.122,228.153,231.938,246.71,219.801,253.534z M355.979,247.427c-9.388,12.173-44.938,14.261-59.439,6.106
				c-12.139-6.823-25.321-25.381-24.822-41.095c0.842-26.754,77.124-25.183,89.352-12.193
				C373.753,213.711,366.662,233.543,355.979,247.427z"/>
			<linearGradient id="SvgjsPath3810_1_" gradientUnits="userSpaceOnUse" x1="133.9932" y1="201.1729" x2="383.1895" y2="201.1729">
				<stop  offset="0.0693" style="stop-color:#150C0C"/>
				<stop  offset="0.3649" style="stop-color:#472620"/>
				<stop  offset="0.8762" style="stop-color:#010202"/>
			</linearGradient>
			<path id="SvgjsPath3810" fill="url(#SvgjsPath3810_1_)" d="M133.993,198.216c0.114-0.994,0.228-1.77,0.341-2.168
				c1.364-4.793,63.668-14.48,96.014-4.754c7.819,2.348,13.229,4.437,16.457,7.399v-0.039
				C246.805,198.634,196.798,175.541,133.993,198.216z M380.732,215.244c1.522-0.597,2.432-1.393,2.455-3.521
				c0.045-3.621-0.66-13.805-1.183-15.694c-1.364-4.793-63.667-14.48-96.013-4.754c-7.455,2.248-12.706,4.256-15.98,7.002
				c17.094-11.835,86.762-14.203,105.446,2.028C379.323,203.687,380.55,210.091,380.732,215.244z"/>
		</g>
	</g>
</g>
<line fill="none" stroke="#242350" stroke-width="3" stroke-miterlimit="10" x1="416.063" y1="496.57" x2="430.938" y2="513.632"/>
<line fill="none" stroke="#242350" stroke-width="3" stroke-miterlimit="10" x1="433" y1="514.101" x2="471" y2="513.101"/>
<linearGradient id="SVGID_10_" gradientUnits="userSpaceOnUse" x1="208.2486" y1="429.6431" x2="312.457" y2="429.6431">
	<stop  offset="0" style="stop-color:#727272"/>
	<stop  offset="1" style="stop-color:#97A7D6;stop-opacity:0.5"/>
</linearGradient>
<path fill="url(#SVGID_10_)" d="M310.042,404.543c0.021,0.226,0.063,0.47,0.162,0.762c0.901,2.704-14.737,16.901-14.737,16.901
	s-5.315,3.492-11.329,6.196c-6.017,2.704-15.438,3.268-15.438,3.268c-2.406-0.337,1.302-5.857-1.403-4.844
	c-2.707,1.015-1.003,7.549-1.604,6.534c-0.602-1.014-3.909,6.085-5.112,3.38c-1.203-2.703-13.232-6.422-13.232-6.422
	c-27.37-4.056-38.798-27.718-38.798-27.718l-0.301,3.718c0,0,18.086,24.584,28.271,26.028c10.325,1.464,22.557,8.789,22.557,8.789
	s-3.008,4.731-3.609,7.099c-0.602,2.366,3.91,8.45,3.91,8.45l0.903-1.353c0,0,3.307-2.704,3.909-5.07
	c0.602-2.365-2.406-9.126-2.406-9.126s3.308-0.676,6.015-2.028c2.706-1.352,2.706-4.057,2.706-4.057s18.547-4.62,23.659-8.677
	c5.221-4.141,14.868-12.984,18.294-19.116C311.652,406.354,310.849,405.449,310.042,404.543z"/>
<path fill="none" stroke="#F1B49A" stroke-miterlimit="10" d="M261,451.101"/>
<line fill="none" stroke="#242350" stroke-width="3" stroke-miterlimit="10" x1="83" y1="452.101" x2="104.443" y2="549.825"/>
<line fill="none" stroke="#242350" stroke-width="3" stroke-miterlimit="10" x1="463.28" y1="458.108" x2="439" y2="549.101"/>
<line fill="none" stroke="#242350" stroke-width="3" stroke-miterlimit="10" x1="440" y1="445.101" x2="412" y2="549.101"/>
<line fill="none" stroke="#242350" stroke-width="3" stroke-miterlimit="10" x1="404" y1="460.101" x2="437" y2="489.101"/>
<line fill="none" stroke="#242350" stroke-width="3" stroke-miterlimit="10" x1="437" y1="489.101" x2="473" y2="489.101"/>
<line fill="none" stroke="#242350" stroke-width="3" stroke-miterlimit="10" x1="75" y1="483.101" x2="113.512" y2="453.704"/>
<line fill="none" stroke="#242350" stroke-width="3" stroke-miterlimit="10" x1="84" y1="510.101" x2="106" y2="501.101"/>
</svg>
