<?xml version="1.0" encoding="utf-8"?>
<!-- Generator: Adobe Illustrator 16.0.0, SVG Export Plug-In . SVG Version: 6.00 Build 0)  -->
<!DOCTYPE svg PUBLIC "-//W3C//DTD SVG 1.1//EN" "http://www.w3.org/Graphics/SVG/1.1/DTD/svg11.dtd">
<svg version="1.1" id="Calque_1" xmlns="http://www.w3.org/2000/svg" xmlns:xlink="http://www.w3.org/1999/xlink" x="0px" y="0px"
	 width="131.747px" height="146.825px" viewBox="0 0 131.747 146.825" enable-background="new 0 0 131.747 146.825"
	 xml:space="preserve">
<g id="Polygone_2_">
	
		<linearGradient id="SVGID_1_" gradientUnits="userSpaceOnUse" x1="5.3921" y1="74.397" x2="126.0728" y2="74.397" gradientTransform="matrix(1 0 0 -1 0.04 148.123)">
		<stop  offset="0" style="stop-color:#00127F;stop-opacity:0.8"/>
		<stop  offset="1" style="stop-color:#883FFF"/>
	</linearGradient>
	<path fill="url(#SVGID_1_)" d="M65.995,7.076L5.661,40.208L5.432,106.86l60.105,33.516l60.343-33.132l0.232-66.658L65.995,7.076z
		 M79.023,29.045c0-6.448,10-6.448,10,0v18c0,6.448-10,6.448-10,0V29.045z M84.523,66.545c-6.448,0-6.448-10,0-10
		S90.971,66.545,84.523,66.545z M60.023,17.045c0-6.449,10-6.449,10,0v51c0,6.448-10,6.448-10,0V17.045z M29.523,34.045
		c0-6.448,10-6.448,10,0v16c0,6.448-10,6.448-10,0V34.045z M34.523,60.045c6.448,0,6.448,10,0,10
		C28.074,70.045,28.074,60.045,34.523,60.045z M42.523,108.545c0,6.448-10,6.448-10,0v-25c0-6.448,10-6.448,10,0V108.545z
		 M47.023,80.045v-33.5c0-6.448,10-6.448,10,0v33.5C57.023,86.493,47.023,86.493,47.023,80.045z M62.023,127.045
		c0,6.448-10,6.448-10,0v-23c0-6.448,10-6.448,10,0V127.045z M66.523,93.545c-6.448,0-6.448-10,0-10S72.971,93.545,66.523,93.545z
		 M105.523,104.545h-25.5c-6.448,0-6.448-10,0-10h25.5C111.971,94.545,111.971,104.545,105.523,104.545z M117.523,85.545h-38
		c-6.448,0-6.448-10,0-10h38C123.971,75.545,123.971,85.545,117.523,85.545z M119.77,66.234H98.02c-6.448,0-6.448-10,0-10h21.75
		C126.218,56.234,126.218,66.234,119.77,66.234z"/>
</g>
<g>
	<linearGradient id="SVGID_2_" gradientUnits="userSpaceOnUse" x1="77.8394" y1="79.957" x2="82.6216" y2="79.957">
		<stop  offset="0" style="stop-color:#00127F;stop-opacity:0.8"/>
		<stop  offset="1" style="stop-color:#883FFF"/>
	</linearGradient>
	<path fill="url(#SVGID_2_)" d="M77.991,83.155c-0.035,0-0.061-0.015-0.086-0.04c-0.023-0.02-0.034-0.051-0.034-0.087l-0.031-6.1
		c0-0.04,0.01-0.07,0.034-0.098c0.024-0.025,0.052-0.037,0.082-0.037l1.652-0.034c0.413-0.003,0.803,0.078,1.167,0.243
		c0.362,0.167,0.683,0.394,0.96,0.683c0.27,0.289,0.49,0.627,0.646,1.012c0.161,0.386,0.239,0.804,0.24,1.245
		c0.004,0.441-0.072,0.854-0.229,1.244c-0.154,0.389-0.364,0.728-0.639,1.016c-0.268,0.289-0.587,0.519-0.95,0.687
		c-0.361,0.169-0.752,0.256-1.164,0.257L77.991,83.155z M79.638,82.888c0.379-0.003,0.732-0.08,1.066-0.236
		c0.333-0.155,0.625-0.365,0.872-0.633c0.25-0.266,0.444-0.579,0.585-0.936c0.142-0.359,0.214-0.74,0.209-1.141
		c-0.001-0.402-0.075-0.78-0.22-1.136c-0.146-0.357-0.344-0.666-0.594-0.933c-0.251-0.263-0.546-0.47-0.88-0.622
		c-0.335-0.151-0.69-0.228-1.068-0.224l-1.525,0.024l0.029,5.842L79.638,82.888z"/>
	<linearGradient id="SVGID_3_" gradientUnits="userSpaceOnUse" x1="83.6831" y1="81.3496" x2="87.1704" y2="81.3496">
		<stop  offset="0" style="stop-color:#00127F;stop-opacity:0.8"/>
		<stop  offset="1" style="stop-color:#883FFF"/>
	</linearGradient>
	<path fill="url(#SVGID_3_)" d="M84.774,83.09c-0.212-0.096-0.402-0.232-0.563-0.402c-0.164-0.17-0.293-0.369-0.387-0.595
		c-0.091-0.227-0.141-0.471-0.142-0.734c0-0.257,0.045-0.499,0.136-0.729c0.09-0.229,0.215-0.43,0.377-0.604
		c0.164-0.176,0.349-0.311,0.559-0.41c0.213-0.1,0.441-0.149,0.687-0.149c0.207-0.002,0.402,0.034,0.593,0.105
		c0.188,0.072,0.358,0.171,0.514,0.3c0.149,0.127,0.279,0.282,0.389,0.459c0.107,0.178,0.187,0.376,0.234,0.591v0.026
		c0,0.047-0.009,0.081-0.034,0.109c-0.024,0.026-0.054,0.041-0.09,0.042l-3.088,0.015c-0.006,0.04-0.009,0.08-0.012,0.117
		c-0.001,0.039-0.002,0.081-0.002,0.126c0.001,0.225,0.04,0.432,0.12,0.627c0.078,0.195,0.189,0.366,0.326,0.511
		c0.134,0.144,0.293,0.258,0.479,0.339c0.186,0.083,0.382,0.123,0.592,0.122c0.257,0,0.494-0.065,0.718-0.195
		c0.221-0.128,0.401-0.309,0.534-0.537c0.021-0.033,0.048-0.058,0.085-0.064c0.039-0.008,0.069,0,0.095,0.021
		c0.075,0.051,0.089,0.114,0.043,0.191c-0.17,0.272-0.381,0.479-0.639,0.632s-0.539,0.229-0.835,0.23
		C85.213,83.233,84.985,83.186,84.774,83.09z M86.873,80.823c-0.107-0.322-0.29-0.585-0.548-0.781
		c-0.256-0.201-0.55-0.301-0.879-0.301c-0.169,0.001-0.328,0.031-0.475,0.086c-0.15,0.057-0.289,0.136-0.412,0.23
		c-0.127,0.097-0.236,0.208-0.325,0.345c-0.092,0.134-0.162,0.281-0.216,0.438L86.873,80.823z"/>
	<linearGradient id="SVGID_4_" gradientUnits="userSpaceOnUse" x1="87.562" y1="81.2363" x2="91.1274" y2="81.2363">
		<stop  offset="0" style="stop-color:#00127F;stop-opacity:0.8"/>
		<stop  offset="1" style="stop-color:#883FFF"/>
	</linearGradient>
	<path fill="url(#SVGID_4_)" d="M91.118,79.398c0.017,0.037,0.011,0.076-0.01,0.114l-1.633,3.584
		c-0.024,0.049-0.066,0.075-0.116,0.075c-0.063,0-0.103-0.026-0.119-0.084l-1.66-3.566c-0.038-0.087-0.016-0.152,0.064-0.191
		c0.03-0.02,0.063-0.021,0.097-0.009c0.034,0.011,0.059,0.036,0.074,0.075l1.541,3.314l1.517-3.321
		c0.037-0.086,0.097-0.108,0.18-0.068C91.084,79.336,91.107,79.363,91.118,79.398z"/>
	<linearGradient id="SVGID_5_" gradientUnits="userSpaceOnUse" x1="91.6548" y1="81.3086" x2="95.1392" y2="81.3086">
		<stop  offset="0" style="stop-color:#00127F;stop-opacity:0.8"/>
		<stop  offset="1" style="stop-color:#883FFF"/>
	</linearGradient>
	<path fill="url(#SVGID_5_)" d="M92.742,83.049c-0.213-0.097-0.399-0.23-0.565-0.403c-0.163-0.172-0.289-0.372-0.383-0.596
		c-0.093-0.226-0.139-0.469-0.139-0.731c-0.002-0.258,0.039-0.499,0.131-0.729c0.091-0.229,0.216-0.432,0.38-0.605
		c0.161-0.172,0.347-0.31,0.558-0.407c0.212-0.099,0.44-0.15,0.688-0.15c0.202-0.002,0.4,0.033,0.588,0.104
		c0.191,0.072,0.36,0.172,0.514,0.299s0.283,0.279,0.392,0.459c0.109,0.178,0.187,0.375,0.235,0.593v0.024
		c0.001,0.046-0.012,0.082-0.033,0.109c-0.025,0.029-0.055,0.043-0.093,0.045l-3.088,0.014c-0.006,0.039-0.01,0.076-0.011,0.119
		c-0.001,0.038-0.002,0.08-0.002,0.125c0.001,0.223,0.039,0.432,0.119,0.627c0.082,0.193,0.188,0.363,0.324,0.509
		c0.141,0.144,0.3,0.258,0.48,0.34c0.185,0.085,0.382,0.124,0.591,0.124c0.258-0.001,0.498-0.067,0.719-0.195
		c0.224-0.132,0.399-0.312,0.534-0.54c0.022-0.033,0.053-0.055,0.088-0.063c0.036-0.01,0.066-0.003,0.094,0.019
		c0.074,0.051,0.087,0.116,0.041,0.195c-0.166,0.267-0.376,0.479-0.638,0.628c-0.261,0.153-0.535,0.231-0.833,0.232
		C93.183,83.192,92.955,83.146,92.742,83.049z M94.839,80.782c-0.105-0.322-0.289-0.583-0.546-0.784
		c-0.258-0.2-0.553-0.297-0.883-0.296c-0.167,0-0.322,0.031-0.475,0.086c-0.148,0.057-0.284,0.132-0.411,0.229
		c-0.124,0.093-0.233,0.209-0.323,0.342c-0.092,0.136-0.162,0.281-0.214,0.437L94.839,80.782z"/>
	<linearGradient id="SVGID_6_" gradientUnits="userSpaceOnUse" x1="95.8101" y1="80.043" x2="96.105" y2="80.043">
		<stop  offset="0" style="stop-color:#00127F;stop-opacity:0.8"/>
		<stop  offset="1" style="stop-color:#883FFF"/>
	</linearGradient>
	<path fill="url(#SVGID_6_)" d="M95.877,83.037c-0.023-0.027-0.038-0.059-0.038-0.102l-0.029-5.782c0-0.041,0.015-0.074,0.04-0.101
		c0.024-0.028,0.055-0.044,0.093-0.044c0.037,0,0.069,0.015,0.096,0.043c0.026,0.026,0.039,0.06,0.039,0.099l0.027,5.785
		c0,0.038-0.01,0.074-0.038,0.102c-0.022,0.028-0.055,0.04-0.093,0.04C95.939,83.08,95.905,83.065,95.877,83.037z"/>
	<linearGradient id="SVGID_7_" gradientUnits="userSpaceOnUse" x1="96.8081" y1="81.2061" x2="100.3823" y2="81.2061">
		<stop  offset="0" style="stop-color:#00127F;stop-opacity:0.8"/>
		<stop  offset="1" style="stop-color:#883FFF"/>
	</linearGradient>
	<path fill="url(#SVGID_7_)" d="M97.91,82.966c-0.216-0.097-0.406-0.233-0.571-0.404c-0.163-0.173-0.29-0.374-0.388-0.605
		c-0.097-0.232-0.143-0.476-0.143-0.742c-0.001-0.262,0.04-0.506,0.134-0.736c0.096-0.234,0.221-0.436,0.385-0.606
		c0.16-0.173,0.35-0.31,0.566-0.41c0.215-0.102,0.448-0.155,0.694-0.156c0.245,0,0.478,0.051,0.697,0.148
		c0.216,0.102,0.407,0.233,0.564,0.402c0.162,0.171,0.289,0.371,0.387,0.602c0.095,0.231,0.146,0.479,0.146,0.742
		c0.001,0.261-0.047,0.508-0.141,0.739c-0.091,0.234-0.218,0.437-0.375,0.611c-0.159,0.172-0.348,0.307-0.565,0.406
		c-0.216,0.099-0.449,0.15-0.695,0.151C98.362,83.108,98.129,83.06,97.91,82.966z M97.998,79.725
		c-0.188,0.088-0.348,0.204-0.484,0.35c-0.133,0.147-0.241,0.316-0.323,0.513c-0.081,0.195-0.118,0.405-0.117,0.627
		c0,0.224,0.043,0.434,0.125,0.633c0.081,0.197,0.19,0.367,0.33,0.513c0.134,0.145,0.297,0.26,0.481,0.344
		c0.189,0.085,0.386,0.127,0.597,0.127c0.209-0.002,0.403-0.044,0.59-0.132c0.182-0.087,0.34-0.203,0.477-0.348
		c0.134-0.148,0.243-0.319,0.323-0.52c0.078-0.197,0.118-0.409,0.118-0.632c0-0.225-0.043-0.431-0.124-0.629
		c-0.083-0.191-0.192-0.364-0.329-0.507c-0.138-0.145-0.299-0.261-0.479-0.346c-0.185-0.086-0.382-0.128-0.592-0.126
		C98.379,79.593,98.182,79.639,97.998,79.725z"/>
	<linearGradient id="SVGID_8_" gradientUnits="userSpaceOnUse" x1="101.0259" y1="82.752" x2="104.3726" y2="82.752">
		<stop  offset="0" style="stop-color:#00127F;stop-opacity:0.8"/>
		<stop  offset="1" style="stop-color:#883FFF"/>
	</linearGradient>
	<path fill="url(#SVGID_8_)" d="M103.268,79.476c0.219,0.097,0.407,0.234,0.57,0.405c0.163,0.172,0.294,0.375,0.391,0.607
		c0.095,0.23,0.142,0.478,0.144,0.741c0.001,0.26-0.043,0.51-0.137,0.742c-0.095,0.23-0.222,0.432-0.383,0.601
		c-0.162,0.175-0.353,0.308-0.565,0.41c-0.219,0.101-0.45,0.153-0.698,0.154c-0.251,0-0.485-0.049-0.706-0.147
		s-0.414-0.24-0.583-0.425l0.016,3.5c0,0.04-0.01,0.072-0.032,0.102c-0.023,0.026-0.055,0.042-0.092,0.043
		c-0.041,0-0.074-0.017-0.099-0.043c-0.022-0.028-0.035-0.061-0.035-0.1l-0.021-3.907v-0.021l-0.011-2.702
		c0-0.039,0.011-0.073,0.033-0.101s0.055-0.041,0.099-0.041c0.037,0,0.067,0.01,0.093,0.04c0.021,0.028,0.033,0.062,0.033,0.101
		l0.002,0.477c0.167-0.186,0.362-0.328,0.581-0.43c0.219-0.101,0.453-0.152,0.706-0.154
		C102.819,79.326,103.05,79.376,103.268,79.476z M103.182,82.725c0.185-0.086,0.345-0.202,0.481-0.35
		c0.136-0.149,0.243-0.323,0.322-0.518c0.082-0.195,0.121-0.404,0.119-0.628c0-0.224-0.043-0.435-0.125-0.632
		c-0.081-0.196-0.191-0.37-0.329-0.514c-0.136-0.143-0.297-0.26-0.485-0.344c-0.186-0.086-0.383-0.126-0.593-0.126
		c-0.26,0-0.507,0.066-0.733,0.199c-0.228,0.131-0.407,0.319-0.544,0.56h-0.006l0.006,1.732c0.146,0.24,0.33,0.425,0.556,0.554
		s0.471,0.192,0.738,0.192C102.8,82.851,102.999,82.809,103.182,82.725z"/>
	<linearGradient id="SVGID_9_" gradientUnits="userSpaceOnUse" x1="105.0161" y1="81.1563" x2="109.4097" y2="81.1563">
		<stop  offset="0" style="stop-color:#00127F;stop-opacity:0.8"/>
		<stop  offset="1" style="stop-color:#883FFF"/>
	</linearGradient>
	<path fill="url(#SVGID_9_)" d="M108.685,79.333c0.143,0.064,0.266,0.151,0.37,0.261c0.105,0.114,0.188,0.244,0.249,0.395
		c0.063,0.149,0.094,0.313,0.095,0.485l0.011,2.435c0,0.047-0.011,0.081-0.038,0.105c-0.025,0.024-0.056,0.038-0.095,0.039
		c-0.037,0-0.067-0.012-0.093-0.037c-0.027-0.025-0.04-0.06-0.04-0.105l-0.013-2.433c0-0.138-0.023-0.26-0.072-0.375
		c-0.048-0.114-0.113-0.214-0.195-0.301c-0.082-0.086-0.178-0.154-0.284-0.204c-0.106-0.047-0.223-0.073-0.349-0.07
		c-0.121,0-0.236,0.026-0.344,0.075c-0.105,0.051-0.2,0.12-0.28,0.208c-0.081,0.087-0.142,0.187-0.192,0.3
		c-0.046,0.115-0.069,0.24-0.069,0.374l0.003,0.326l0.011,1.789v0.321c0.001,0.045-0.014,0.079-0.036,0.104
		c-0.028,0.023-0.058,0.035-0.097,0.039c-0.088,0-0.132-0.047-0.135-0.143l-0.001-0.321l-0.009-1.789l-0.002-0.327
		c-0.001-0.133-0.026-0.257-0.071-0.372c-0.049-0.113-0.115-0.214-0.195-0.299c-0.082-0.088-0.176-0.156-0.284-0.203
		c-0.106-0.051-0.225-0.075-0.35-0.075s-0.241,0.026-0.35,0.079c-0.105,0.049-0.2,0.12-0.282,0.204
		c-0.08,0.087-0.144,0.188-0.188,0.304c-0.047,0.112-0.07,0.237-0.07,0.371l0.011,2.436c0,0.097-0.042,0.146-0.132,0.146
		c-0.035,0-0.065-0.015-0.096-0.037c-0.024-0.026-0.038-0.061-0.038-0.104l-0.018-3.534c0-0.038,0.013-0.072,0.038-0.101
		c0.026-0.026,0.057-0.042,0.093-0.042c0.045,0,0.077,0.015,0.1,0.042c0.023,0.028,0.036,0.061,0.036,0.1l0.003,0.311
		c0.104-0.142,0.232-0.251,0.386-0.334c0.155-0.079,0.321-0.12,0.508-0.124c0.224,0,0.427,0.06,0.607,0.181
		c0.183,0.124,0.322,0.282,0.424,0.476c0.093-0.194,0.231-0.354,0.414-0.479c0.186-0.123,0.387-0.186,0.603-0.188
		C108.391,79.239,108.543,79.271,108.685,79.333z"/>
	<linearGradient id="SVGID_10_" gradientUnits="userSpaceOnUse" x1="110.1011" y1="81.2139" x2="113.5864" y2="81.2139">
		<stop  offset="0" style="stop-color:#00127F;stop-opacity:0.8"/>
		<stop  offset="1" style="stop-color:#883FFF"/>
	</linearGradient>
	<path fill="url(#SVGID_10_)" d="M111.19,82.955c-0.21-0.099-0.401-0.23-0.564-0.404c-0.162-0.172-0.292-0.371-0.383-0.598
		c-0.093-0.226-0.141-0.466-0.142-0.729c-0.002-0.257,0.045-0.502,0.133-0.731c0.092-0.229,0.219-0.43,0.378-0.604
		c0.161-0.174,0.349-0.31,0.56-0.406c0.213-0.101,0.442-0.15,0.688-0.152c0.203,0,0.4,0.034,0.592,0.106
		c0.187,0.071,0.358,0.173,0.512,0.299c0.152,0.127,0.283,0.279,0.39,0.459c0.111,0.178,0.188,0.373,0.234,0.594v0.023
		c0,0.044-0.011,0.08-0.034,0.108c-0.022,0.028-0.051,0.045-0.089,0.045l-3.088,0.015c-0.006,0.04-0.01,0.078-0.011,0.115
		c-0.004,0.042-0.004,0.082-0.004,0.129c0,0.22,0.041,0.433,0.119,0.625c0.081,0.195,0.189,0.365,0.328,0.51
		c0.135,0.145,0.297,0.258,0.479,0.34c0.185,0.082,0.38,0.122,0.591,0.122c0.257-0.001,0.495-0.066,0.717-0.197
		c0.222-0.127,0.399-0.308,0.534-0.537c0.022-0.034,0.052-0.055,0.088-0.064c0.035-0.009,0.067,0,0.094,0.022
		c0.073,0.053,0.089,0.115,0.039,0.192c-0.165,0.268-0.377,0.479-0.637,0.63c-0.259,0.154-0.536,0.231-0.832,0.231
		C111.631,83.101,111.403,83.052,111.19,82.955z M113.291,80.688c-0.108-0.324-0.291-0.586-0.55-0.785
		c-0.258-0.196-0.549-0.297-0.88-0.295c-0.169,0-0.326,0.029-0.476,0.085c-0.146,0.055-0.284,0.131-0.411,0.227
		c-0.125,0.098-0.234,0.212-0.323,0.345c-0.091,0.137-0.162,0.28-0.215,0.438L113.291,80.688z"/>
	<linearGradient id="SVGID_11_" gradientUnits="userSpaceOnUse" x1="114.2485" y1="81.1172" x2="117.0874" y2="81.1172">
		<stop  offset="0" style="stop-color:#00127F;stop-opacity:0.8"/>
		<stop  offset="1" style="stop-color:#883FFF"/>
	</linearGradient>
	<path fill="url(#SVGID_11_)" d="M116.204,79.326c0.175,0.073,0.327,0.182,0.455,0.318c0.13,0.137,0.232,0.297,0.305,0.48
		s0.112,0.38,0.112,0.586l0.012,2.159c0,0.043-0.012,0.079-0.038,0.104c-0.028,0.026-0.058,0.038-0.096,0.038
		c-0.035,0-0.066-0.012-0.093-0.035c-0.025-0.025-0.04-0.06-0.04-0.104l-0.012-2.16c0-0.168-0.032-0.323-0.093-0.476
		c-0.061-0.145-0.143-0.273-0.246-0.386c-0.102-0.11-0.226-0.197-0.368-0.261c-0.139-0.063-0.29-0.098-0.444-0.096
		c-0.158,0.002-0.309,0.035-0.446,0.099c-0.138,0.064-0.261,0.154-0.365,0.267c-0.104,0.112-0.186,0.242-0.244,0.391
		c-0.061,0.147-0.09,0.305-0.089,0.474l0.014,2.157c0.001,0.098-0.046,0.145-0.133,0.145c-0.085,0-0.124-0.046-0.126-0.143
		l-0.02-3.529c0-0.04,0.01-0.075,0.035-0.103c0.023-0.027,0.054-0.043,0.088-0.043c0.043,0,0.077,0.015,0.102,0.042
		c0.023,0.027,0.035,0.061,0.035,0.102l0.002,0.493c0.131-0.191,0.295-0.344,0.492-0.458c0.197-0.116,0.417-0.177,0.651-0.177
		C115.849,79.21,116.031,79.246,116.204,79.326z"/>
	<linearGradient id="SVGID_12_" gradientUnits="userSpaceOnUse" x1="117.564" y1="79.9893" x2="119.6724" y2="79.9893">
		<stop  offset="0" style="stop-color:#00127F;stop-opacity:0.8"/>
		<stop  offset="1" style="stop-color:#883FFF"/>
	</linearGradient>
	<path fill="url(#SVGID_12_)" d="M119.664,82.421c-0.075,0.178-0.185,0.326-0.343,0.431c-0.151,0.109-0.321,0.168-0.506,0.169
		c-0.123,0-0.244-0.026-0.357-0.078c-0.113-0.054-0.208-0.123-0.294-0.209c-0.084-0.085-0.148-0.188-0.198-0.308
		c-0.048-0.119-0.071-0.247-0.071-0.381v-0.016v-0.019l-0.016-2.561l-0.18,0.001c-0.034,0.001-0.069-0.014-0.094-0.037
		c-0.026-0.024-0.041-0.061-0.041-0.105c0-0.038,0.015-0.07,0.041-0.101c0.022-0.028,0.055-0.042,0.093-0.042h0.178l-0.007-2.07
		c-0.001-0.039,0.01-0.071,0.037-0.099c0.026-0.028,0.058-0.039,0.094-0.039c0.034,0,0.069,0.011,0.097,0.039
		c0.024,0.027,0.038,0.059,0.038,0.099l0.011,2.067l0.729-0.002c0.038,0,0.069,0.013,0.097,0.041
		c0.025,0.026,0.037,0.061,0.038,0.101c0,0.042-0.011,0.079-0.038,0.104c-0.026,0.024-0.057,0.039-0.094,0.039l-0.73,0.005
		l0.012,2.561v0.018v0.016c0,0.195,0.064,0.36,0.192,0.492c0.127,0.134,0.281,0.2,0.464,0.2c0.134-0.003,0.258-0.042,0.365-0.12
		c0.107-0.08,0.186-0.183,0.237-0.31c0.012-0.034,0.033-0.059,0.067-0.072c0.032-0.014,0.068-0.018,0.104-0.004
		C119.665,82.268,119.688,82.332,119.664,82.421z"/>
</g>
<g>
	<path fill="#800000018000000180000001" d="M81.254,95.868h0.029c1.092,0,1.938,0.301,2.537,0.903
		c0.663,0.666,0.994,1.467,0.994,2.404c0,0.939-0.331,1.74-0.994,2.403c-0.6,0.603-1.445,0.904-2.537,0.904h-0.029v0.008h-0.373
		v-6.632h0.373V95.868z M81.254,96.249v5.856h0.029c0.984,0,1.74-0.265,2.268-0.796c0.588-0.588,0.883-1.3,0.883-2.134
		c0-0.832-0.295-1.544-0.883-2.135c-0.527-0.527-1.283-0.792-2.268-0.792H81.254z"/>
	<path fill="#800000018000000180000001" d="M86.626,101.729c0.351,0.32,0.769,0.48,1.251,0.48c0.52,0,0.963-0.184,1.331-0.551
		c0.047-0.047,0.091-0.096,0.132-0.146l0.395,0.142c-0.072,0.1-0.153,0.194-0.244,0.286c-0.445,0.444-0.982,0.667-1.613,0.667
		c-0.627,0-1.162-0.223-1.607-0.667c-0.445-0.445-0.668-0.982-0.668-1.612c0-0.628,0.223-1.164,0.668-1.608
		c0.445-0.445,0.98-0.667,1.607-0.667c0.539,0,1.01,0.161,1.414,0.484c0.066,0.056,0.133,0.116,0.199,0.183
		c0.024,0.024,0.048,0.05,0.07,0.074l-0.282,0.282L86.626,101.729z M89.005,98.823c-0.323-0.249-0.699-0.373-1.128-0.373
		c-0.516,0-0.959,0.183-1.326,0.549S86,99.809,86,100.328c0,0.428,0.124,0.804,0.373,1.127L89.005,98.823z"/>
	<path fill="#800000018000000180000001" d="M91.849,100.398c-0.318-0.172-0.538-0.318-0.659-0.439
		c-0.191-0.19-0.286-0.42-0.286-0.688c0-0.271,0.095-0.502,0.286-0.694c0.19-0.191,0.42-0.288,0.688-0.288
		c0.271,0,0.495,0.089,0.672,0.266c0.171,0.174,0.257,0.372,0.257,0.593v0.021l-0.323,0.129c-0.027-0.21-0.094-0.368-0.197-0.473
		c-0.104-0.105-0.239-0.157-0.408-0.157c-0.166,0-0.308,0.059-0.427,0.176s-0.178,0.261-0.178,0.429
		c0,0.166,0.059,0.309,0.178,0.427c0.069,0.069,0.216,0.175,0.439,0.315c0.354,0.193,0.605,0.364,0.754,0.514
		c0.235,0.238,0.353,0.521,0.353,0.85c0,0.338-0.117,0.624-0.353,0.86c-0.234,0.236-0.52,0.354-0.854,0.354
		s-0.619-0.118-0.854-0.354c-0.235-0.236-0.353-0.495-0.353-0.777l0.369-0.095c0,0.243,0.082,0.446,0.246,0.608
		c0.165,0.163,0.361,0.245,0.591,0.245s0.427-0.082,0.591-0.245c0.164-0.162,0.246-0.361,0.246-0.597
		c0-0.229-0.081-0.425-0.244-0.588C92.294,100.699,92.117,100.569,91.849,100.398z"/>
	<path fill="#800000018000000180000001" d="M94.586,97.087c0.073,0.071,0.109,0.158,0.109,0.261c0,0.105-0.036,0.193-0.109,0.266
		c-0.073,0.071-0.161,0.107-0.264,0.107c-0.102,0-0.189-0.036-0.263-0.107c-0.073-0.072-0.109-0.16-0.109-0.266
		c0-0.103,0.036-0.189,0.109-0.261c0.073-0.072,0.161-0.108,0.263-0.108C94.425,96.979,94.513,97.015,94.586,97.087z M94.509,98.421
		v4.07h-0.372v-4.07H94.509z"/>
	<path fill="#800000018000000180000001" d="M99.844,101.683c-0.069,0.089-0.144,0.175-0.224,0.258
		c-0.445,0.444-0.982,0.667-1.612,0.667c-0.628,0-1.164-0.223-1.608-0.667c-0.445-0.445-0.667-0.981-0.667-1.608
		c0-0.63,0.222-1.167,0.667-1.61c0.444-0.443,0.98-0.665,1.608-0.665c0.63,0,1.167,0.221,1.612,0.663
		c0.085,0.088,0.164,0.181,0.235,0.277v-0.576h0.373v3.163c0,0.61-0.217,1.133-0.65,1.566c-0.444,0.444-0.98,0.667-1.608,0.667
		c-0.63,0-1.167-0.223-1.612-0.667c-0.091-0.092-0.172-0.187-0.244-0.286l0.394-0.141c0.042,0.05,0.086,0.098,0.133,0.145
		c0.367,0.367,0.811,0.552,1.33,0.552c0.517,0,0.959-0.185,1.326-0.552C99.631,102.534,99.814,102.139,99.844,101.683z
		 M99.852,99.942c-0.071-0.356-0.243-0.67-0.514-0.941c-0.367-0.367-0.812-0.551-1.33-0.551c-0.52,0-0.964,0.184-1.331,0.551
		c-0.367,0.368-0.551,0.812-0.551,1.331s0.184,0.963,0.551,1.33c0.367,0.368,0.812,0.552,1.331,0.552
		c0.519,0,0.963-0.184,1.33-0.552c0.268-0.268,0.439-0.579,0.514-0.933V99.942z"/>
	<path fill="#800000018000000180000001" d="M101.863,99.329v3.162h-0.373v-4.07h0.373v0.262c0.34-0.338,0.734-0.506,1.185-0.506
		c0.481,0,0.872,0.15,1.174,0.451c0.301,0.302,0.455,0.682,0.464,1.141v2.723h-0.373v-2.689c0-0.346-0.125-0.641-0.375-0.886
		c-0.25-0.244-0.547-0.366-0.89-0.366c-0.342,0-0.638,0.12-0.887,0.36C102.026,99.046,101.926,99.186,101.863,99.329z"/>
</g>
<g>
	<linearGradient id="SVGID_13_" gradientUnits="userSpaceOnUse" x1="61.1431" y1="64.1353" x2="69.644" y2="64.1353">
		<stop  offset="0" style="stop-color:#00127F;stop-opacity:0.8"/>
		<stop  offset="1" style="stop-color:#0063BE"/>
	</linearGradient>
	<path fill="url(#SVGID_13_)" d="M61.369,61.353c0.119,0.001,0.179,0.061,0.178,0.181l-0.021,2.431l7.951,0.066
		c0.045,0,0.084,0.018,0.118,0.052c0.033,0.033,0.049,0.076,0.049,0.128c-0.001,0.045-0.018,0.085-0.051,0.118
		c-0.035,0.033-0.074,0.05-0.119,0.05l-7.951-0.067l-0.021,2.441c0,0.045-0.018,0.084-0.052,0.117s-0.076,0.05-0.129,0.049
		c-0.053,0-0.095-0.017-0.129-0.051c-0.032-0.034-0.05-0.073-0.05-0.118l0.044-5.219C61.188,61.41,61.25,61.352,61.369,61.353z"/>
	<linearGradient id="SVGID_14_" gradientUnits="userSpaceOnUse" x1="64.7622" y1="57.3862" x2="69.8022" y2="57.3862">
		<stop  offset="0" style="stop-color:#00127F;stop-opacity:0.8"/>
		<stop  offset="1" style="stop-color:#0063BE"/>
	</linearGradient>
	<path fill="url(#SVGID_14_)" d="M69.598,58.354c-0.134,0.302-0.316,0.566-0.55,0.797c-0.233,0.229-0.503,0.408-0.806,0.536
		c-0.304,0.128-0.631,0.19-0.981,0.188c-0.344-0.003-0.668-0.07-0.974-0.204c-0.305-0.133-0.571-0.316-0.801-0.55
		s-0.409-0.502-0.537-0.806c-0.128-0.303-0.19-0.63-0.188-0.981c0.003-0.291,0.053-0.57,0.152-0.839
		c0.1-0.268,0.236-0.509,0.41-0.725c0.173-0.215,0.38-0.397,0.619-0.549c0.241-0.151,0.507-0.259,0.799-0.324l0.033,0.001
		c0.06,0,0.108,0.018,0.146,0.051c0.037,0.034,0.055,0.077,0.055,0.13l-0.037,4.401c0.053,0.008,0.105,0.014,0.157,0.019
		c0.053,0.004,0.108,0.006,0.168,0.007c0.299,0.002,0.579-0.051,0.841-0.161c0.263-0.109,0.492-0.261,0.688-0.453
		c0.196-0.193,0.351-0.419,0.465-0.68s0.173-0.54,0.175-0.839c0.003-0.365-0.08-0.708-0.249-1.026
		c-0.169-0.319-0.405-0.577-0.71-0.773c-0.045-0.03-0.072-0.071-0.083-0.124c-0.011-0.052-0.002-0.097,0.029-0.134
		c0.068-0.104,0.154-0.122,0.258-0.054c0.356,0.241,0.634,0.549,0.832,0.919c0.198,0.371,0.297,0.771,0.293,1.195
		C69.799,57.728,69.731,58.054,69.598,58.354z M66.605,55.322c-0.435,0.146-0.788,0.4-1.06,0.764
		c-0.271,0.364-0.41,0.781-0.414,1.251c-0.002,0.239,0.033,0.466,0.106,0.679c0.073,0.214,0.172,0.41,0.297,0.591
		c0.126,0.18,0.278,0.337,0.456,0.469s0.371,0.236,0.58,0.313L66.605,55.322z"/>
	<linearGradient id="SVGID_15_" gradientUnits="userSpaceOnUse" x1="64.8042" y1="52.313" x2="69.8237" y2="52.313">
		<stop  offset="0" style="stop-color:#00127F;stop-opacity:0.8"/>
		<stop  offset="1" style="stop-color:#0063BE"/>
	</linearGradient>
	<path fill="url(#SVGID_15_)" d="M64.95,51.616c0.096-0.212,0.223-0.396,0.38-0.552c0.158-0.155,0.344-0.278,0.558-0.37
		s0.439-0.137,0.679-0.135l3.08,0.026c0.119,0.001,0.179,0.061,0.178,0.181c-0.001,0.127-0.062,0.189-0.181,0.188l-0.493-0.004
		c0.208,0.158,0.37,0.357,0.488,0.598c0.117,0.24,0.175,0.501,0.172,0.785c-0.002,0.239-0.051,0.464-0.145,0.676
		c-0.096,0.213-0.223,0.396-0.38,0.552c-0.158,0.155-0.345,0.279-0.558,0.37c-0.214,0.092-0.44,0.137-0.68,0.135
		s-0.464-0.051-0.676-0.146c-0.213-0.096-0.396-0.222-0.552-0.38c-0.155-0.158-0.278-0.344-0.37-0.558s-0.137-0.439-0.135-0.679
		c0.003-0.284,0.066-0.544,0.191-0.782s0.293-0.435,0.503-0.59l-0.447-0.003c-0.187-0.002-0.364,0.032-0.533,0.102
		c-0.168,0.069-0.316,0.167-0.444,0.293s-0.229,0.272-0.301,0.44c-0.072,0.167-0.109,0.344-0.111,0.53
		c-0.002,0.262,0.063,0.505,0.196,0.729c0.029,0.038,0.038,0.081,0.026,0.129c-0.011,0.049-0.04,0.088-0.085,0.117
		c-0.105,0.066-0.19,0.047-0.257-0.059c-0.169-0.285-0.252-0.592-0.25-0.92C64.806,52.053,64.854,51.828,64.95,51.616z
		 M69.339,51.798c-0.07-0.168-0.167-0.316-0.293-0.444s-0.271-0.229-0.435-0.301s-0.343-0.109-0.537-0.11
		c-0.187-0.002-0.364,0.032-0.533,0.102c-0.168,0.069-0.316,0.167-0.444,0.293s-0.229,0.272-0.301,0.44
		c-0.071,0.167-0.109,0.344-0.111,0.53c-0.001,0.194,0.033,0.374,0.103,0.538c0.069,0.165,0.167,0.312,0.293,0.439
		s0.272,0.229,0.44,0.301c0.167,0.072,0.345,0.109,0.531,0.111c0.194,0.001,0.373-0.033,0.539-0.103
		c0.164-0.069,0.311-0.167,0.438-0.293s0.228-0.271,0.301-0.435c0.071-0.163,0.109-0.343,0.11-0.537
		C69.443,52.144,69.409,51.967,69.339,51.798z"/>
	<linearGradient id="SVGID_16_" gradientUnits="userSpaceOnUse" x1="64.6841" y1="46.4087" x2="69.8394" y2="46.4087">
		<stop  offset="0" style="stop-color:#00127F;stop-opacity:0.8"/>
		<stop  offset="1" style="stop-color:#0063BE"/>
	</linearGradient>
	<path fill="url(#SVGID_16_)" d="M64.854,44.271c0.088-0.201,0.207-0.376,0.358-0.523c0.15-0.148,0.326-0.265,0.529-0.349
		c0.201-0.085,0.419-0.126,0.65-0.124l3.259,0.027c0.06,0.001,0.106,0.02,0.14,0.058s0.05,0.082,0.049,0.135
		c0,0.052-0.018,0.097-0.051,0.134c-0.034,0.037-0.082,0.056-0.142,0.055l-3.259-0.027c-0.18-0.001-0.346,0.031-0.498,0.097
		c-0.154,0.066-0.29,0.156-0.406,0.271c-0.117,0.114-0.209,0.248-0.277,0.4c-0.069,0.152-0.104,0.318-0.105,0.498
		c-0.002,0.172,0.031,0.334,0.097,0.488c0.066,0.153,0.156,0.288,0.271,0.405c0.114,0.116,0.248,0.209,0.401,0.277
		c0.151,0.068,0.317,0.104,0.497,0.105l0.437,0.003l2.396,0.021l0.426,0.004c0.06,0,0.106,0.019,0.14,0.057s0.049,0.083,0.049,0.135
		c-0.001,0.127-0.065,0.19-0.192,0.189l-0.426-0.004L66.8,46.583l-0.437-0.003c-0.18-0.002-0.346,0.03-0.498,0.096
		c-0.154,0.066-0.29,0.156-0.406,0.271c-0.117,0.114-0.209,0.249-0.277,0.401c-0.069,0.152-0.104,0.318-0.106,0.497
		c-0.001,0.18,0.032,0.346,0.098,0.5c0.066,0.153,0.156,0.288,0.271,0.404c0.114,0.117,0.248,0.21,0.4,0.278
		s0.318,0.104,0.498,0.105l3.259,0.027c0.127,0.001,0.189,0.064,0.188,0.191c-0.001,0.053-0.018,0.097-0.051,0.134
		c-0.035,0.037-0.082,0.056-0.142,0.056l-4.727-0.04c-0.052,0-0.097-0.02-0.133-0.058c-0.037-0.037-0.056-0.082-0.055-0.135
		c0-0.06,0.02-0.105,0.057-0.14c0.037-0.033,0.083-0.049,0.135-0.049l0.415,0.004c-0.186-0.151-0.332-0.338-0.438-0.559
		c-0.106-0.222-0.158-0.463-0.156-0.724c0.003-0.321,0.088-0.609,0.254-0.866c0.166-0.256,0.381-0.454,0.644-0.594
		c-0.261-0.137-0.472-0.336-0.634-0.599s-0.241-0.552-0.238-0.865C64.723,44.688,64.767,44.472,64.854,44.271z"/>
	<linearGradient id="SVGID_17_" gradientUnits="userSpaceOnUse" x1="61.272" y1="36.8027" x2="69.9272" y2="36.8027">
		<stop  offset="0" style="stop-color:#00127F;stop-opacity:0.8"/>
		<stop  offset="1" style="stop-color:#0063BE"/>
	</linearGradient>
	<path fill="url(#SVGID_17_)" d="M61.626,30.521l8.19,3.686c0.074,0.038,0.111,0.091,0.11,0.158c0,0.074-0.038,0.13-0.113,0.167
		l-5.104,2.276l5.066,2.271c0.075,0.038,0.111,0.091,0.111,0.157c-0.001,0.075-0.039,0.131-0.114,0.167l-8.252,3.684
		c-0.104,0.037-0.183,0.006-0.234-0.092c-0.036-0.104-0.006-0.183,0.092-0.234l7.902-3.518l-7.844-3.526
		c-0.045-0.016-0.075-0.047-0.089-0.096c-0.015-0.049-0.014-0.096,0.001-0.141c0.054-0.097,0.132-0.125,0.236-0.088l2.7,1.222
		l5.036-2.242l-7.844-3.527c-0.097-0.053-0.126-0.132-0.088-0.236C61.444,30.511,61.522,30.482,61.626,30.521z"/>
	<linearGradient id="SVGID_18_" gradientUnits="userSpaceOnUse" x1="64.8872" y1="27.5664" x2="69.9722" y2="27.5664">
		<stop  offset="0" style="stop-color:#00127F;stop-opacity:0.8"/>
		<stop  offset="1" style="stop-color:#0063BE"/>
	</linearGradient>
	<path fill="url(#SVGID_18_)" d="M69.769,28.572c-0.134,0.309-0.317,0.578-0.551,0.808s-0.506,0.41-0.816,0.542
		s-0.643,0.195-0.993,0.192s-0.681-0.072-0.989-0.209c-0.309-0.138-0.576-0.322-0.802-0.556s-0.404-0.506-0.536-0.816
		c-0.133-0.312-0.197-0.643-0.194-0.993s0.073-0.681,0.211-0.989c0.137-0.31,0.32-0.576,0.55-0.803
		c0.229-0.226,0.5-0.404,0.811-0.536c0.312-0.132,0.643-0.196,0.993-0.193s0.682,0.073,0.989,0.21
		c0.309,0.138,0.578,0.32,0.808,0.55c0.229,0.23,0.408,0.5,0.537,0.812c0.127,0.311,0.189,0.642,0.187,0.993
		C69.969,27.934,69.901,28.264,69.769,28.572z M65.435,28.39c0.114,0.267,0.267,0.498,0.459,0.693
		c0.193,0.196,0.419,0.353,0.68,0.471c0.26,0.117,0.54,0.178,0.839,0.181c0.299,0.002,0.58-0.054,0.847-0.167
		c0.266-0.113,0.497-0.267,0.692-0.459c0.196-0.192,0.354-0.421,0.471-0.686c0.118-0.264,0.179-0.545,0.181-0.844
		c0.003-0.299-0.053-0.578-0.166-0.842c-0.113-0.262-0.267-0.49-0.46-0.687c-0.192-0.195-0.421-0.353-0.685-0.471
		c-0.265-0.118-0.545-0.178-0.844-0.181c-0.299-0.002-0.58,0.053-0.842,0.167c-0.263,0.113-0.491,0.267-0.688,0.459
		c-0.195,0.192-0.352,0.419-0.47,0.679c-0.118,0.261-0.179,0.54-0.182,0.839C65.266,27.842,65.322,28.124,65.435,28.39z"/>
	<linearGradient id="SVGID_19_" gradientUnits="userSpaceOnUse" x1="64.9185" y1="22.8438" x2="70.0259" y2="22.8438">
		<stop  offset="0" style="stop-color:#00127F;stop-opacity:0.8"/>
		<stop  offset="1" style="stop-color:#0063BE"/>
	</linearGradient>
	<path fill="url(#SVGID_19_)" d="M65.043,21.681c0.034-0.037,0.081-0.055,0.141-0.055c0.052,0.001,0.097,0.02,0.133,0.057
		c0.038,0.038,0.057,0.083,0.056,0.136c-0.003,0.38,0.082,0.732,0.254,1.055c0.174,0.322,0.419,0.586,0.739,0.79l3.472,0.029
		c0.127,0.001,0.189,0.064,0.188,0.191c-0.001,0.12-0.065,0.179-0.192,0.178l-4.727-0.04c-0.052,0-0.096-0.018-0.133-0.051
		c-0.037-0.034-0.056-0.077-0.056-0.129c0-0.06,0.021-0.106,0.058-0.14s0.083-0.05,0.135-0.05l0.639,0.006
		c-0.244-0.241-0.433-0.52-0.564-0.834s-0.196-0.65-0.193-1.009C64.993,21.763,65.009,21.718,65.043,21.681z"/>
	<linearGradient id="SVGID_20_" gradientUnits="userSpaceOnUse" x1="61.854" y1="19.2021" x2="70.064" y2="19.2021">
		<stop  offset="0" style="stop-color:#00127F;stop-opacity:0.8"/>
		<stop  offset="1" style="stop-color:#0063BE"/>
	</linearGradient>
	<path fill="url(#SVGID_20_)" d="M69.967,17.621C69.988,17.658,70,17.692,70,17.722c-0.001,0.067-0.031,0.123-0.092,0.167
		l-2.848,1.769l0.711,0.734c0.028,0.03,0.047,0.063,0.055,0.102l2.05,0.017c0.052,0.001,0.097,0.018,0.133,0.052
		c0.038,0.034,0.057,0.077,0.056,0.129c0,0.06-0.02,0.106-0.058,0.14c-0.037,0.033-0.082,0.05-0.134,0.05l-7.829-0.065
		c-0.052-0.001-0.097-0.019-0.135-0.052c-0.037-0.034-0.055-0.081-0.055-0.141c0.001-0.052,0.02-0.095,0.057-0.128
		c0.039-0.034,0.084-0.05,0.136-0.05l5.286,0.045l-2.387-2.44c-0.038-0.037-0.057-0.082-0.056-0.135c0-0.052,0.02-0.097,0.058-0.134
		c0.037-0.037,0.08-0.055,0.128-0.055c0.049,0,0.092,0.02,0.129,0.058l1.577,1.604l2.928-1.824
		C69.815,17.497,69.901,17.516,69.967,17.621z"/>
</g>
<g>
	<linearGradient id="SVGID_21_" gradientUnits="userSpaceOnUse" x1="34.1626" y1="108.2598" x2="39.6226" y2="108.2598">
		<stop  offset="0.2723" style="stop-color:#94FF98;stop-opacity:0.8069"/>
		<stop  offset="1" style="stop-color:#6AFF9D"/>
	</linearGradient>
	<path fill="url(#SVGID_21_)" d="M39.612,109.635l-5.449-0.021l0.002-0.349l5.143,0.02l0.009-2.4l0.307,0.002L39.612,109.635z"/>
	<linearGradient id="SVGID_22_" gradientUnits="userSpaceOnUse" x1="35.9849" y1="104.4971" x2="39.728" y2="104.4971">
		<stop  offset="0.2723" style="stop-color:#94FF98;stop-opacity:0.8069"/>
		<stop  offset="1" style="stop-color:#6AFF9D"/>
	</linearGradient>
	<path fill="url(#SVGID_22_)" d="M39.001,105.474c0.265-0.327,0.398-0.716,0.399-1.168c0.002-0.485-0.147-0.9-0.448-1.245
		c-0.038-0.044-0.077-0.085-0.118-0.125l0.117-0.367c0.081,0.067,0.159,0.145,0.233,0.229c0.365,0.417,0.546,0.92,0.543,1.509
		c-0.002,0.586-0.187,1.086-0.555,1.501c-0.366,0.413-0.809,0.62-1.326,0.618c-0.516-0.002-0.955-0.212-1.319-0.629
		s-0.545-0.919-0.543-1.505c0.002-0.504,0.137-0.942,0.404-1.318c0.046-0.063,0.096-0.124,0.15-0.187
		c0.02-0.021,0.04-0.044,0.062-0.064l0.23,0.265L39.001,105.474z M36.624,103.241c-0.207,0.302-0.31,0.652-0.312,1.053
		c-0.002,0.482,0.147,0.896,0.447,1.24c0.299,0.346,0.662,0.518,1.089,0.52c0.352,0.001,0.661-0.114,0.928-0.346L36.624,103.241z"/>
	<linearGradient id="SVGID_23_" gradientUnits="userSpaceOnUse" x1="36.0034" y1="99.627" x2="39.7466" y2="99.627">
		<stop  offset="0.2723" style="stop-color:#94FF98;stop-opacity:0.8069"/>
		<stop  offset="1" style="stop-color:#6AFF9D"/>
	</linearGradient>
	<path fill="url(#SVGID_23_)" d="M39.659,97.537l-0.001,0.349l-0.681-0.003c0.078,0.066,0.154,0.142,0.227,0.222
		c0.364,0.416,0.545,0.919,0.543,1.508c-0.003,0.586-0.187,1.086-0.555,1.501c-0.367,0.414-0.809,0.62-1.324,0.618
		c-0.518-0.002-0.958-0.211-1.321-0.629c-0.364-0.417-0.546-0.919-0.543-1.505c0.002-0.589,0.187-1.09,0.555-1.504
		c0.072-0.079,0.148-0.153,0.229-0.22l-0.474-0.002l0.001-0.349L39.659,97.537z M38.186,97.88l-0.605-0.003
		c-0.301,0.063-0.564,0.224-0.792,0.48c-0.304,0.343-0.456,0.757-0.458,1.242s0.147,0.9,0.448,1.244
		c0.301,0.346,0.664,0.519,1.091,0.521c0.427,0.001,0.792-0.169,1.094-0.512c0.302-0.342,0.454-0.756,0.456-1.241
		s-0.148-0.9-0.448-1.245C38.746,98.107,38.483,97.945,38.186,97.88z"/>
	<linearGradient id="SVGID_24_" gradientUnits="userSpaceOnUse" x1="36.2466" y1="95.5957" x2="39.6646" y2="95.5957">
		<stop  offset="0.2723" style="stop-color:#94FF98;stop-opacity:0.8069"/>
		<stop  offset="1" style="stop-color:#6AFF9D"/>
	</linearGradient>
	<path fill="url(#SVGID_24_)" d="M36.318,96.361l0.002-0.349l0.61,0.003c-0.091-0.072-0.179-0.157-0.262-0.253
		c-0.269-0.308-0.41-0.624-0.422-0.946l0.334,0.001c0.008,0.221,0.115,0.447,0.32,0.684c0.288,0.331,0.633,0.504,1.037,0.519
		l1.727,0.007l-0.002,0.349L36.318,96.361z"/>
	<linearGradient id="SVGID_25_" gradientUnits="userSpaceOnUse" x1="36.1333" y1="92.4766" x2="39.6841" y2="92.4766">
		<stop  offset="0.2723" style="stop-color:#94FF98;stop-opacity:0.8069"/>
		<stop  offset="1" style="stop-color:#6AFF9D"/>
	</linearGradient>
	<path fill="url(#SVGID_25_)" d="M37.075,93.614l2.599,0.011l-0.001,0.349l-3.345-0.014l0.001-0.349l0.215,0.001
		c-0.275-0.318-0.412-0.688-0.41-1.108c0.001-0.449,0.126-0.814,0.375-1.095c0.248-0.28,0.562-0.424,0.938-0.43l2.237,0.009
		l-0.002,0.349l-2.21-0.009c-0.284-0.001-0.526,0.114-0.729,0.347c-0.202,0.233-0.303,0.51-0.304,0.83
		c-0.002,0.32,0.096,0.597,0.292,0.83C36.843,93.461,36.957,93.555,37.075,93.614z"/>
	<linearGradient id="SVGID_26_" gradientUnits="userSpaceOnUse" x1="35.1597" y1="89.5576" x2="39.6899" y2="89.5576">
		<stop  offset="0.2723" style="stop-color:#94FF98;stop-opacity:0.8069"/>
		<stop  offset="1" style="stop-color:#6AFF9D"/>
	</linearGradient>
	<path fill="url(#SVGID_26_)" d="M35.25,89.312c0.059-0.068,0.13-0.103,0.214-0.103c0.087,0,0.159,0.036,0.218,0.104
		c0.06,0.068,0.088,0.15,0.088,0.245c0,0.096-0.03,0.178-0.09,0.246c-0.059,0.068-0.131,0.102-0.218,0.102
		c-0.084,0-0.155-0.035-0.214-0.104c-0.06-0.068-0.088-0.15-0.088-0.246C35.16,89.462,35.19,89.38,35.25,89.312z M36.345,89.387
		L39.69,89.4l-0.002,0.349l-3.345-0.014L36.345,89.387z"/>
	<linearGradient id="SVGID_27_" gradientUnits="userSpaceOnUse" x1="36.1548" y1="86.6641" x2="39.7056" y2="86.6641">
		<stop  offset="0.2723" style="stop-color:#94FF98;stop-opacity:0.8069"/>
		<stop  offset="1" style="stop-color:#6AFF9D"/>
	</linearGradient>
	<path fill="url(#SVGID_27_)" d="M37.097,87.802l2.599,0.011l-0.001,0.349l-3.345-0.014l0.001-0.349l0.215,0.001
		c-0.275-0.318-0.412-0.688-0.411-1.108c0.002-0.449,0.127-0.814,0.376-1.095c0.248-0.28,0.561-0.424,0.938-0.43l2.237,0.009
		l-0.001,0.349l-2.21-0.009c-0.284-0.001-0.526,0.114-0.729,0.347c-0.202,0.233-0.303,0.51-0.305,0.83
		c-0.001,0.32,0.097,0.597,0.293,0.83C36.866,87.648,36.979,87.742,37.097,87.802z"/>
	<linearGradient id="SVGID_28_" gradientUnits="userSpaceOnUse" x1="36.0747" y1="82" x2="40.8081" y2="82">
		<stop  offset="0.2723" style="stop-color:#94FF98;stop-opacity:0.8069"/>
		<stop  offset="1" style="stop-color:#6AFF9D"/>
	</linearGradient>
	<path fill="url(#SVGID_28_)" d="M39.061,80.266c0.071,0.065,0.142,0.136,0.21,0.211c0.364,0.416,0.545,0.919,0.543,1.508
		c-0.002,0.586-0.187,1.086-0.555,1.501c-0.367,0.414-0.808,0.62-1.323,0.618c-0.518-0.002-0.959-0.211-1.321-0.629
		c-0.362-0.417-0.542-0.919-0.54-1.505c0.002-0.589,0.186-1.09,0.551-1.504c0.072-0.079,0.148-0.153,0.229-0.22l-0.474-0.002
		l0.001-0.349l2.599,0.011c0.502,0.002,0.93,0.205,1.285,0.612c0.364,0.417,0.545,0.919,0.543,1.505
		c-0.003,0.589-0.188,1.09-0.555,1.504c-0.075,0.085-0.153,0.161-0.235,0.228l-0.115-0.368c0.042-0.039,0.082-0.079,0.12-0.123
		c0.304-0.343,0.456-0.756,0.458-1.241c0.002-0.482-0.147-0.896-0.448-1.241C39.759,80.468,39.435,80.296,39.061,80.266z
		 M37.63,80.252c-0.294,0.066-0.551,0.226-0.774,0.478c-0.304,0.343-0.456,0.757-0.458,1.242s0.147,0.9,0.448,1.244
		c0.301,0.346,0.664,0.519,1.091,0.521c0.427,0.001,0.792-0.169,1.096-0.512c0.303-0.342,0.455-0.756,0.457-1.241
		s-0.147-0.9-0.447-1.245c-0.22-0.251-0.475-0.412-0.765-0.483L37.63,80.252z"/>
</g>
<g>
	<linearGradient id="SVGID_29_" gradientUnits="userSpaceOnUse" x1="49.0425" y1="79.3555" x2="54.9106" y2="79.3555">
		<stop  offset="0" style="stop-color:#00127F;stop-opacity:0.8"/>
		<stop  offset="1" style="stop-color:#883FFF"/>
	</linearGradient>
	<path fill="url(#SVGID_29_)" d="M54.906,80.656l-5.863-0.01l0.001-0.33l5.533,0.009l0.004-2.271l0.33,0.001L54.906,80.656z"/>
	<linearGradient id="SVGID_30_" gradientUnits="userSpaceOnUse" x1="50.9888" y1="75.7969" x2="55.0161" y2="75.7969">
		<stop  offset="0" style="stop-color:#00127F;stop-opacity:0.8"/>
		<stop  offset="1" style="stop-color:#883FFF"/>
	</linearGradient>
	<path fill="url(#SVGID_30_)" d="M54.239,76.719c0.283-0.31,0.426-0.679,0.426-1.106c0.001-0.459-0.161-0.852-0.485-1.177
		c-0.042-0.041-0.085-0.08-0.128-0.118l0.125-0.347c0.088,0.063,0.172,0.136,0.253,0.216c0.393,0.395,0.588,0.87,0.587,1.427
		c0,0.555-0.197,1.028-0.592,1.421c-0.394,0.393-0.869,0.589-1.427,0.588c-0.555-0.001-1.027-0.198-1.421-0.593
		c-0.393-0.394-0.588-0.867-0.588-1.422c0.001-0.477,0.145-0.893,0.431-1.25c0.05-0.059,0.104-0.117,0.162-0.176
		c0.022-0.021,0.044-0.041,0.066-0.062l0.248,0.25L54.239,76.719z M51.672,74.611c-0.22,0.285-0.331,0.617-0.332,0.996
		c0,0.457,0.161,0.848,0.484,1.174c0.323,0.325,0.715,0.488,1.174,0.489c0.379,0,0.711-0.109,0.997-0.329L51.672,74.611z"/>
	<linearGradient id="SVGID_31_" gradientUnits="userSpaceOnUse" x1="50.9966" y1="71.1909" x2="55.0239" y2="71.1909">
		<stop  offset="0" style="stop-color:#00127F;stop-opacity:0.8"/>
		<stop  offset="1" style="stop-color:#883FFF"/>
	</linearGradient>
	<path fill="url(#SVGID_31_)" d="M54.924,69.207l-0.001,0.33l-0.733-0.001c0.086,0.063,0.168,0.133,0.246,0.209
		c0.393,0.395,0.588,0.869,0.588,1.427c-0.001,0.555-0.198,1.028-0.593,1.421c-0.394,0.393-0.868,0.589-1.423,0.588
		c-0.558-0.001-1.031-0.198-1.425-0.593c-0.393-0.394-0.588-0.867-0.587-1.422c0-0.558,0.197-1.032,0.592-1.426
		c0.078-0.075,0.16-0.145,0.245-0.208l-0.509-0.001l0.001-0.33L54.924,69.207z M53.34,69.534l-0.652-0.001
		c-0.322,0.062-0.606,0.213-0.852,0.457c-0.324,0.324-0.488,0.716-0.488,1.176c-0.001,0.459,0.161,0.852,0.485,1.177
		s0.717,0.488,1.176,0.489s0.851-0.161,1.176-0.485c0.323-0.324,0.486-0.717,0.487-1.176c0-0.46-0.162-0.852-0.486-1.177
		C53.943,69.749,53.661,69.597,53.34,69.534z"/>
	<linearGradient id="SVGID_32_" gradientUnits="userSpaceOnUse" x1="49.0679" y1="66.2056" x2="55.0317" y2="66.2056">
		<stop  offset="0" style="stop-color:#00127F;stop-opacity:0.8"/>
		<stop  offset="1" style="stop-color:#883FFF"/>
	</linearGradient>
	<path fill="url(#SVGID_32_)" d="M54.932,64.224l-0.001,0.33l-0.733-0.001c0.086,0.063,0.168,0.133,0.246,0.209
		c0.393,0.395,0.588,0.869,0.588,1.427c-0.001,0.555-0.198,1.028-0.593,1.421c-0.394,0.393-0.868,0.589-1.423,0.588
		c-0.558-0.001-1.031-0.198-1.425-0.593c-0.393-0.394-0.588-0.867-0.587-1.422c0-0.558,0.197-1.032,0.592-1.426
		c0.078-0.075,0.16-0.145,0.245-0.208l-2.773-0.005l0.001-0.33L54.932,64.224z M53.348,64.551l-0.652-0.001
		c-0.322,0.062-0.606,0.213-0.852,0.457c-0.324,0.324-0.488,0.716-0.488,1.176c-0.001,0.459,0.161,0.852,0.485,1.177
		s0.717,0.488,1.176,0.489s0.851-0.161,1.176-0.485c0.323-0.324,0.486-0.717,0.487-1.176c0-0.46-0.162-0.852-0.486-1.177
		C53.951,64.766,53.668,64.613,53.348,64.551z"/>
	<linearGradient id="SVGID_33_" gradientUnits="userSpaceOnUse" x1="51.0112" y1="61.5151" x2="55.0386" y2="61.5151">
		<stop  offset="0" style="stop-color:#00127F;stop-opacity:0.8"/>
		<stop  offset="1" style="stop-color:#883FFF"/>
	</linearGradient>
	<path fill="url(#SVGID_33_)" d="M54.261,62.438c0.283-0.31,0.426-0.679,0.426-1.106c0.001-0.459-0.161-0.852-0.485-1.177
		c-0.042-0.041-0.085-0.08-0.129-0.118l0.126-0.347c0.088,0.063,0.172,0.136,0.253,0.216c0.393,0.395,0.588,0.87,0.587,1.427
		c-0.001,0.555-0.197,1.028-0.592,1.421s-0.869,0.589-1.427,0.588c-0.555-0.001-1.028-0.198-1.421-0.593
		c-0.393-0.394-0.589-0.867-0.588-1.422c0.001-0.477,0.145-0.893,0.431-1.25c0.049-0.059,0.104-0.117,0.162-0.176
		c0.022-0.021,0.044-0.041,0.066-0.062l0.248,0.25L54.261,62.438z M51.695,60.33c-0.221,0.285-0.331,0.617-0.332,0.996
		c0,0.457,0.161,0.848,0.483,1.174c0.324,0.325,0.716,0.488,1.175,0.489c0.379,0,0.711-0.109,0.997-0.329L51.695,60.33z"/>
	<linearGradient id="SVGID_34_" gradientUnits="userSpaceOnUse" x1="51.2603" y1="58.0767" x2="54.9409" y2="58.0767">
		<stop  offset="0" style="stop-color:#00127F;stop-opacity:0.8"/>
		<stop  offset="1" style="stop-color:#883FFF"/>
	</linearGradient>
	<path fill="url(#SVGID_34_)" d="M51.341,58.805l0.001-0.33l0.656,0.001c-0.098-0.068-0.192-0.147-0.282-0.238
		c-0.29-0.291-0.442-0.589-0.456-0.895l0.358,0.001c0.009,0.207,0.125,0.423,0.348,0.645c0.31,0.314,0.682,0.477,1.116,0.489
		l1.858,0.003l-0.001,0.33L51.341,58.805z"/>
	<linearGradient id="SVGID_35_" gradientUnits="userSpaceOnUse" x1="51.23" y1="55.6016" x2="55.0327" y2="55.6016">
		<stop  offset="0" style="stop-color:#00127F;stop-opacity:0.8"/>
		<stop  offset="1" style="stop-color:#883FFF"/>
	</linearGradient>
	<path fill="url(#SVGID_35_)" d="M53.095,55.55c-0.152,0.281-0.282,0.474-0.39,0.582c-0.17,0.168-0.372,0.252-0.609,0.251
		c-0.239,0-0.443-0.084-0.612-0.253c-0.17-0.169-0.255-0.372-0.254-0.608c0-0.24,0.078-0.438,0.235-0.594
		c0.154-0.151,0.328-0.227,0.524-0.227h0.018l0.113,0.286c-0.186,0.024-0.325,0.082-0.418,0.174c-0.093,0.091-0.14,0.211-0.14,0.36
		c-0.001,0.146,0.051,0.272,0.155,0.378c0.104,0.105,0.23,0.157,0.379,0.157c0.146,0.001,0.272-0.051,0.378-0.156
		c0.061-0.061,0.153-0.19,0.279-0.389c0.171-0.312,0.322-0.534,0.455-0.666c0.21-0.207,0.461-0.311,0.752-0.311
		c0.298,0.001,0.551,0.105,0.76,0.313c0.208,0.209,0.313,0.461,0.312,0.756c0,0.296-0.104,0.548-0.314,0.754
		c-0.209,0.208-0.438,0.312-0.687,0.311l-0.085-0.326c0.215,0.001,0.395-0.071,0.54-0.217c0.145-0.146,0.216-0.319,0.216-0.522
		c0.001-0.202-0.07-0.376-0.215-0.521c-0.144-0.146-0.319-0.219-0.526-0.22c-0.203,0-0.377,0.072-0.521,0.216
		C53.362,55.155,53.247,55.313,53.095,55.55z"/>
	<linearGradient id="SVGID_36_" gradientUnits="userSpaceOnUse" x1="49.0854" y1="52.2109" x2="54.9526" y2="52.2109">
		<stop  offset="0" style="stop-color:#00127F;stop-opacity:0.8"/>
		<stop  offset="1" style="stop-color:#883FFF"/>
	</linearGradient>
	<path fill="url(#SVGID_36_)" d="M49.085,53.594v-0.33l2.451,0.004c-0.268-0.278-0.402-0.613-0.401-1.004
		c0.001-0.425,0.135-0.771,0.401-1.037c0.267-0.266,0.603-0.402,1.008-0.408l2.408,0.004v0.33l-2.378-0.004
		c-0.306,0-0.567,0.109-0.784,0.33c-0.216,0.221-0.325,0.482-0.325,0.785c-0.001,0.303,0.105,0.564,0.318,0.785
		c0.097,0.098,0.198,0.171,0.303,0.22l2.862,0.005v0.33L49.085,53.594z"/>
	<linearGradient id="SVGID_37_" gradientUnits="userSpaceOnUse" x1="50.0806" y1="49.4775" x2="54.9556" y2="49.4775">
		<stop  offset="0" style="stop-color:#00127F;stop-opacity:0.8"/>
		<stop  offset="1" style="stop-color:#883FFF"/>
	</linearGradient>
	<path fill="url(#SVGID_37_)" d="M50.177,49.244c0.063-0.064,0.14-0.098,0.23-0.097c0.093,0,0.171,0.033,0.234,0.098
		s0.095,0.143,0.095,0.232c0,0.091-0.032,0.168-0.096,0.232c-0.063,0.065-0.142,0.098-0.234,0.098
		c-0.091-0.001-0.167-0.033-0.23-0.099c-0.064-0.064-0.096-0.142-0.096-0.232C50.081,49.387,50.113,49.309,50.177,49.244z
		 M51.357,49.313l3.599,0.006l-0.001,0.33l-3.599-0.006L51.357,49.313z"/>
	<linearGradient id="SVGID_38_" gradientUnits="userSpaceOnUse" x1="51.0396" y1="46.1597" x2="56.3315" y2="46.1597">
		<stop  offset="0" style="stop-color:#00127F;stop-opacity:0.8"/>
		<stop  offset="1" style="stop-color:#883FFF"/>
	</linearGradient>
	<path fill="url(#SVGID_38_)" d="M51.358,48.141l0.001-0.33l0.506,0.001c-0.083-0.061-0.164-0.13-0.242-0.21
		c-0.39-0.393-0.584-0.867-0.583-1.422c0-0.557,0.196-1.031,0.59-1.423c0.392-0.392,0.867-0.587,1.425-0.586
		c0.555,0.001,1.027,0.197,1.421,0.591c0.393,0.393,0.588,0.867,0.588,1.424c-0.001,0.555-0.198,1.029-0.593,1.421
		c-0.078,0.079-0.159,0.148-0.242,0.209l2.104,0.003l-0.001,0.33L51.358,48.141z M52.704,47.813l0.689,0.001
		c0.314-0.063,0.592-0.214,0.832-0.452c0.325-0.325,0.489-0.717,0.49-1.177c0-0.459-0.162-0.851-0.487-1.176
		c-0.323-0.326-0.716-0.488-1.175-0.489s-0.852,0.16-1.178,0.485c-0.324,0.324-0.488,0.716-0.488,1.175
		c-0.001,0.46,0.161,0.852,0.485,1.178C52.111,47.597,52.388,47.749,52.704,47.813z"/>
</g>
<g>
	<linearGradient id="SVGID_39_" gradientUnits="userSpaceOnUse" x1="96.2114" y1="61.4219" x2="109.7007" y2="61.4219">
		<stop  offset="0" style="stop-color:#00127F;stop-opacity:0.8"/>
		<stop  offset="1" style="stop-color:#0063BE"/>
	</linearGradient>
	<path fill="url(#SVGID_39_)" d="M109.684,57.602l-3.85,7.759c-0.039,0.07-0.096,0.105-0.167,0.105c-0.08,0-0.141-0.034-0.181-0.104
		l-2.497-4.788l-2.372,4.8c-0.04,0.071-0.096,0.105-0.168,0.105c-0.08,0-0.14-0.034-0.18-0.105l-4.042-7.739
		c-0.04-0.1-0.008-0.173,0.096-0.223c0.112-0.035,0.196-0.007,0.252,0.084l3.86,7.414l3.684-7.432
		c0.016-0.043,0.05-0.07,0.102-0.086c0.052-0.014,0.103-0.014,0.15,0c0.104,0.05,0.136,0.124,0.096,0.222l-1.275,2.559l2.461,4.725
		l3.684-7.432c0.056-0.092,0.14-0.12,0.252-0.085C109.692,57.429,109.724,57.503,109.684,57.602z"/>
	<linearGradient id="SVGID_40_" gradientUnits="userSpaceOnUse" x1="110.1528" y1="63.1367" x2="115.4761" y2="63.1367">
		<stop  offset="0" style="stop-color:#00127F;stop-opacity:0.8"/>
		<stop  offset="1" style="stop-color:#0063BE"/>
	</linearGradient>
	<path fill="url(#SVGID_40_)" d="M111.809,65.33c-0.325-0.123-0.611-0.292-0.859-0.511c-0.249-0.217-0.443-0.468-0.584-0.753
		s-0.212-0.593-0.213-0.923c-0.001-0.324,0.068-0.631,0.207-0.92c0.139-0.288,0.332-0.542,0.58-0.761
		c0.246-0.22,0.531-0.391,0.855-0.515c0.323-0.124,0.673-0.187,1.048-0.188c0.313-0.001,0.612,0.044,0.9,0.136
		c0.288,0.091,0.548,0.216,0.781,0.378c0.231,0.161,0.431,0.354,0.596,0.579c0.165,0.226,0.282,0.475,0.355,0.749v0.032
		c0,0.057-0.017,0.101-0.053,0.137c-0.036,0.035-0.082,0.054-0.139,0.054l-4.713,0.011c-0.008,0.05-0.014,0.099-0.018,0.147
		c-0.005,0.05-0.006,0.103-0.006,0.158c0.001,0.282,0.063,0.546,0.183,0.793c0.12,0.245,0.285,0.46,0.493,0.643
		c0.209,0.183,0.453,0.325,0.733,0.43c0.28,0.105,0.58,0.157,0.899,0.157c0.393-0.001,0.758-0.083,1.097-0.246
		c0.34-0.162,0.613-0.388,0.819-0.678c0.032-0.041,0.076-0.068,0.133-0.079c0.056-0.011,0.104-0.002,0.144,0.025
		c0.112,0.064,0.133,0.145,0.061,0.243c-0.255,0.339-0.579,0.604-0.976,0.794c-0.395,0.191-0.82,0.287-1.276,0.289
		C112.483,65.514,112.132,65.452,111.809,65.33z M115.02,62.477c-0.161-0.408-0.438-0.738-0.83-0.99
		c-0.393-0.252-0.842-0.378-1.346-0.377c-0.256,0.001-0.496,0.036-0.725,0.107c-0.228,0.071-0.438,0.167-0.628,0.286
		c-0.192,0.12-0.357,0.265-0.497,0.435c-0.139,0.169-0.249,0.353-0.328,0.55L115.02,62.477z"/>
	<linearGradient id="SVGID_41_" gradientUnits="userSpaceOnUse" x1="116.436" y1="61.6362" x2="121.2378" y2="61.6362">
		<stop  offset="0" style="stop-color:#00127F;stop-opacity:0.8"/>
		<stop  offset="1" style="stop-color:#0063BE"/>
	</linearGradient>
	<path fill="url(#SVGID_41_)" d="M119.577,60.951c0.327,0.122,0.616,0.292,0.865,0.51c0.248,0.218,0.442,0.47,0.584,0.759
		c0.141,0.288,0.211,0.595,0.212,0.918c0.001,0.331-0.067,0.639-0.206,0.925c-0.14,0.285-0.332,0.537-0.58,0.756
		c-0.247,0.22-0.535,0.39-0.861,0.514c-0.328,0.125-0.676,0.188-1.044,0.188c-0.392,0.002-0.766-0.068-1.121-0.208
		c-0.356-0.141-0.663-0.34-0.92-0.601c-0.031-0.027-0.048-0.07-0.049-0.126l-0.009-2.872v-0.021l-0.012-3.759
		c0-0.12,0.068-0.18,0.204-0.181c0.128,0,0.191,0.061,0.191,0.18l0.011,3.357c0.24-0.162,0.503-0.29,0.791-0.382
		c0.288-0.093,0.587-0.139,0.898-0.14C118.9,60.768,119.249,60.829,119.577,60.951z M119.433,65.011
		c0.279-0.106,0.524-0.251,0.735-0.435c0.212-0.183,0.377-0.397,0.496-0.646c0.12-0.246,0.179-0.511,0.178-0.793
		c-0.001-0.28-0.062-0.545-0.183-0.79c-0.12-0.246-0.287-0.46-0.5-0.644c-0.212-0.183-0.458-0.326-0.738-0.431
		c-0.28-0.105-0.576-0.157-0.889-0.156c-0.328,0.001-0.637,0.058-0.929,0.171c-0.291,0.113-0.544,0.272-0.76,0.478l0.008,2.766
		c0.218,0.204,0.472,0.361,0.764,0.474c0.292,0.111,0.602,0.167,0.93,0.166C118.857,65.171,119.153,65.117,119.433,65.011z"/>
</g>
</svg>
