<?xml version="1.0" encoding="utf-8"?>
<!-- Generator: Adobe Illustrator 16.0.0, SVG Export Plug-In . SVG Version: 6.00 Build 0)  -->
<!DOCTYPE svg PUBLIC "-//W3C//DTD SVG 1.1//EN" "http://www.w3.org/Graphics/SVG/1.1/DTD/svg11.dtd">
<svg version="1.1" id="Calque_1" xmlns="http://www.w3.org/2000/svg" xmlns:xlink="http://www.w3.org/1999/xlink" x="0px" y="0px"
	 width="123.016px" height="124.349px" viewBox="0 0 123.016 124.349" enable-background="new 0 0 123.016 124.349"
	 xml:space="preserve">
<polygon fill="#333399" points="117.524,22.262 62.08,55.385 7.623,20.853 5.333,22 5.333,86.635 22.28,94.786 37.907,86.285 
	36.164,54.302 65.343,69.957 94.295,56.924 91.95,86.285 106.408,93.107 118.333,85.622 118.333,23.071 "/>
<polyline fill="#FF6699" points="63.859,8.127 6.802,88 37.302,88 61.802,57.037 91.171,86.97 118.802,86.285 63.642,7.581 "/>
<linearGradient id="SVGID_1_" gradientUnits="userSpaceOnUse" x1="7.8267" y1="34.1968" x2="117.3018" y2="34.1968">
	<stop  offset="0.0099" style="stop-color:#00127F;stop-opacity:0"/>
	<stop  offset="1" style="stop-color:#0063BE"/>
</linearGradient>
<polyline fill="url(#SVGID_1_)" points="22.802,13.032 62.802,35.254 103.412,13.032 117.302,22.254 62.802,55.362 7.827,21.231 
	22.802,13.032 "/>
<polygon fill="#66FF66" points="5.818,87.67 62.31,55.362 118.802,86.624 63.409,119.254 "/>
<polygon fill="#333399" points="117.682,22.419 115.833,23.611 118.333,25.75 118.333,23.071 "/>
</svg>
