<?xml version="1.0" encoding="UTF-8"?>
<!DOCTYPE svg PUBLIC "-//W3C//DTD SVG 1.1//EN" "http://www.w3.org/Graphics/SVG/1.1/DTD/svg11.dtd">
<!-- Creator: CorelDRAW X6 -->
<svg xmlns="http://www.w3.org/2000/svg" xml:space="preserve" width="1010px" height="827px" version="1.1" style="shape-rendering:geometricPrecision; text-rendering:geometricPrecision; image-rendering:optimizeQuality; fill-rule:evenodd; clip-rule:evenodd"
viewBox="0 0 989 810"
 xmlns:xlink="http://www.w3.org/1999/xlink">
 <defs>
  <style type="text/css">
   <![CDATA[
    .fil1 {fill:none}
    .fil0 {fill:#F07F2F}
   ]]>
  </style>
 </defs>
 <g id="Ebene_x0020_1">
  <metadata id="CorelCorpID_0Corel-Layer"/>
  <path class="fil0" d="M722 810c0,-40 -8,-247 5,-263 93,-122 184,-394 -65,-514 -123,-59 -281,-42 -377,82 -68,88 -20,115 -50,187 -9,22 -22,37 -49,88 -10,21 -35,66 -7,82 16,6 32,18 48,24 3,33 3,58 9,91 22,116 115,127 158,134l-1 88 329 1zm-443 -604c0,0 0,0 -1,0l-11 3c-3,0 -4,3 -3,5l2 11c1,2 3,3 5,3l12 -3c0,0 0,0 1,0 1,4 3,8 6,12 0,0 -1,0 -1,0l-9 8c-1,2 -1,4 0,6l8 8c1,2 4,2 5,1l9 -9c0,0 1,0 1,0 3,2 7,5 11,7 0,0 0,0 0,1l-4 11c0,2 1,5 3,5l11 4c2,0 4,-1 5,-3l3 -12c0,0 0,0 0,-1 5,1 9,1 14,1 0,0 0,1 0,1l3 12c0,2 2,3 4,3l11 -3c3,0 4,-2 3,-4l-2 -12c0,-1 0,-1 -1,-1 5,-2 9,-4 12,-7 1,1 1,1 1,1l8 9c2,2 4,2 6,0l8 -7c2,-2 2,-4 0,-6l-8 -9c0,0 0,0 -1,0 3,-4 6,-8 8,-12 0,0 0,0 1,1l11 3c2,1 4,0 5,-2l3 -11c1,-2 0,-5 -2,-5l-12 -4c0,0 0,0 -1,0 1,-5 1,-9 1,-14 0,0 0,0 1,0l12 -2c2,-1 3,-3 3,-5l-3 -11c0,-2 -2,-4 -5,-3l-11 3c-1,0 -1,0 -1,0 -2,-4 -4,-8 -7,-12 1,0 1,0 1,-1l9 -8c2,-1 2,-4 0,-5l-7 -9c-2,-1 -4,-1 -6,0l-9 8c0,1 0,1 -1,1 -3,-3 -7,-5 -11,-7 0,0 0,-1 0,-1l4 -12c1,-2 -1,-4 -3,-5l-10 -3c-2,-1 -5,1 -5,3l-4 11c0,1 0,1 0,1 -5,0 -9,-1 -14,0 0,-1 0,-1 0,-1l-3 -12c0,-2 -2,-4 -4,-3l-11 2c-2,1 -4,3 -3,5l2 12c1,0 1,1 1,1 -4,2 -8,4 -12,6 0,0 -1,0 -1,-1l-8 -9c-2,-1 -4,-1 -6,0l-8 8c-2,1 -2,4 0,5l8 9c0,1 1,1 1,1 -3,3 -5,7 -7,12 -1,-1 -1,-1 -1,-1l-12 -4c-2,0 -4,1 -5,3l-3 11c-1,2 0,4 2,5l12 3c0,0 1,1 1,1 -1,4 -1,9 -1,13zm75 -44c22,7 34,30 27,52 -6,22 -30,34 -52,28 -22,-7 -34,-31 -27,-53 7,-22 30,-34 52,-27zm241 246c0,0 0,1 -1,1l-14 4c-2,1 -4,4 -3,7l5 13c0,2 3,3 6,3l14 -5c0,0 1,-1 1,-1 3,5 6,10 9,14 0,0 -1,1 -1,1l-10 11c-1,2 -1,5 1,7l10 9c2,2 5,1 7,0l10 -12c0,0 0,0 1,-1 4,3 9,6 14,8 0,0 0,0 0,1l-3 14c0,3 1,6 4,6l13 3c3,0 6,-1 6,-4l3 -15c0,0 0,0 0,-1 6,0 11,0 17,-1 0,0 0,1 0,1l5 14c1,3 3,4 6,3l13 -4c2,-1 4,-4 3,-6l-5 -14c0,-1 0,-1 0,-1 4,-3 9,-6 13,-10 1,1 1,1 1,1l11 10c2,2 5,2 7,0l9 -11c2,-2 2,-5 0,-7l-11 -9c-1,-1 -1,-1 -1,-1 3,-5 5,-10 7,-15 0,0 1,0 1,0l15 3c2,1 5,-1 5,-3l3 -14c1,-3 -1,-5 -4,-6l-14 -3c-1,0 -1,0 -2,0 1,-5 0,-11 -1,-16 1,0 1,0 2,0l14 -5c2,-1 3,-4 3,-6l-5 -13c-1,-3 -3,-4 -6,-3l-14 4c0,0 -1,1 -1,1 -3,-5 -6,-10 -9,-14 0,0 0,0 1,-1l9 -11c2,-2 2,-5 0,-7l-10 -9c-2,-2 -6,-1 -7,1l-10 11c0,0 -1,1 -1,1 -4,-3 -9,-6 -15,-7 1,-1 1,-1 1,-2l3 -14c0,-3 -2,-5 -4,-6l-14 -3c-2,0 -5,2 -5,4l-3 15c0,0 0,1 0,1 -6,0 -12,0 -17,1 0,0 0,-1 0,-1l-5 -14c-1,-3 -4,-4 -6,-3l-13 4c-3,1 -4,4 -3,6l5 14c0,1 0,1 0,2 -5,2 -9,5 -14,9 0,0 0,-1 0,-1l-12 -10c-2,-2 -5,-1 -6,1l-9 10c-2,2 -2,5 0,7l11 9c0,1 1,1 1,1 -3,5 -5,10 -7,15 -1,0 -1,0 -1,0l-15 -3c-2,-1 -5,1 -6,4l-2 13c-1,3 1,5 4,6l14 3c1,0 1,0 1,0 0,5 1,11 1,16zm85 -63c28,6 46,32 40,60 -5,28 -32,46 -59,40 -28,-5 -46,-32 -41,-60 6,-27 33,-45 60,-40zm-234 -157c-1,0 -1,0 -2,0l-23 7c-4,1 -6,5 -5,9l6 22c1,4 5,6 9,5l23 -6c1,-1 2,-1 2,-1 4,8 8,16 14,23 -1,0 -1,1 -2,1l-17 17c-2,3 -2,8 1,11l15 16c4,3 8,3 11,0l17 -17c1,-1 1,-2 1,-2 8,5 15,9 24,13 -1,1 -1,1 -1,2l-6 23c-1,4 2,8 6,9l21 6c4,1 9,-1 10,-6l6 -23c0,0 0,-1 0,-2 9,1 18,1 27,0 0,1 0,1 0,2l6 23c2,4 6,6 10,5l21 -6c4,-1 7,-5 6,-9l-7 -23c0,-1 0,-2 -1,-2 9,-4 16,-8 23,-14 1,1 1,1 2,2l17 16c3,3 8,3 11,0l15 -16c3,-3 3,-8 0,-11l-17 -16c0,-1 -1,-1 -2,-1 6,-8 10,-15 14,-24 0,1 1,1 2,1l23 6c4,1 8,-2 9,-6l6 -21c1,-4 -2,-9 -6,-10l-23 -6c-1,0 -2,0 -2,0 1,-9 1,-18 -1,-27 1,0 2,0 3,0l23 -6c4,-2 6,-6 5,-10l-6 -21c-1,-4 -6,-7 -10,-6l-23 7c0,0 -1,0 -2,1 -3,-9 -8,-16 -13,-24 0,0 1,0 1,-1l17 -17c3,-3 3,-8 0,-11l-16 -15c-3,-3 -8,-3 -11,0l-17 17c0,0 0,1 -1,2 -7,-6 -15,-10 -23,-14 0,0 0,-1 1,-2l5 -23c2,-4 -1,-8 -5,-9l-22 -6c-4,-1 -8,2 -9,6l-6 23c0,1 0,1 0,2 -9,-1 -18,-1 -27,0 0,0 0,-1 0,-2l-7 -23c-1,-4 -5,-6 -9,-5l-22 6c-4,1 -6,5 -5,10l6 23c1,0 1,1 1,2 -8,3 -16,8 -23,13 0,0 -1,-1 -1,-1l-17 -17c-3,-3 -8,-3 -11,0l-16 16c-3,3 -3,8 0,11l17 17c1,0 2,0 2,1 -5,7 -9,15 -13,23 -1,0 -1,0 -2,-1l-23 -6c-4,-1 -8,2 -10,6l-5 22c-1,4 1,8 6,9l23 6c0,0 1,0 2,0 -1,9 -1,18 0,27zm142 -94c44,11 71,56 59,99 -11,44 -56,71 -100,60 -43,-12 -70,-56 -59,-100 11,-44 56,-71 100,-59z"/>
  <rect class="fil1" width="989" height="810"/>
 </g>
</svg>
